<svg width="340" height="132" viewBox="0 0 340 132" fill="none" xmlns="http://www.w3.org/2000/svg">
<path d="M4.41304 85.6251C3.04616 84.8389 1.95267 83.7382 1.1716 82.3622C0.390534 80.9865 0 79.4532 0 77.7629C0 76.0725 0.390534 74.5788 1.1716 73.1635C1.95267 71.7875 3.04616 70.6869 4.41304 69.9006C5.77992 69.1143 7.26391 68.7212 8.86511 68.7212C10.1148 68.7212 11.3255 68.9573 12.419 69.3897C13.5125 69.8221 14.4498 70.4903 15.1527 71.2766L13.7078 72.7311C13.161 72.0629 12.458 71.5517 11.5989 71.1586C10.7397 70.8047 9.84145 70.6081 8.86511 70.6081C7.65445 70.6081 6.56096 70.8835 5.50653 71.4732C4.45209 72.0629 3.63195 72.8884 3.0071 73.9498C2.38224 75.0112 2.06983 76.2691 2.06983 77.6451C2.06983 79.0601 2.38224 80.2788 3.0071 81.3401C3.63195 82.4018 4.49115 83.2273 5.50653 83.8168C6.56096 84.4065 7.6935 84.6818 8.86511 84.6818C9.99768 84.6818 10.974 84.4852 11.7551 84.1314C12.5362 83.7775 13.2001 83.3058 13.7859 82.6769C14.2155 82.2445 14.5279 81.694 14.8012 81.0258C15.0746 80.3968 15.1918 79.689 15.2699 78.9423H8.94322V77.0554H17.1835C17.2616 77.4878 17.3007 77.9202 17.3007 78.3133C17.3007 79.3747 17.1445 80.3968 16.793 81.4189C16.4415 82.441 15.9338 83.3058 15.1918 84.0528C13.5906 85.7824 11.4817 86.6472 8.90419 86.6472C7.26394 86.8045 5.77992 86.4114 4.41304 85.6251Z" fill="#656C73"/>
<path d="M21.7526 85.9788C20.8153 85.4284 20.1124 84.6421 19.5656 83.6988C19.0579 82.7159 18.7845 81.6545 18.7845 80.4359C18.7845 79.2565 19.0579 78.1558 19.5656 77.173C20.0733 76.1904 20.8153 75.4434 21.7526 74.8929C22.6899 74.3427 23.7443 74.0674 24.8769 74.0674C26.0484 74.0674 27.103 74.3427 28.0402 74.8929C28.9776 75.4434 29.7194 76.2296 30.2273 77.173C30.7348 78.1558 31.0084 79.2172 31.0084 80.4359C31.0084 81.6153 30.7348 82.7159 30.2273 83.6988C29.7194 84.6816 28.9776 85.4284 28.0402 85.9788C27.103 86.5293 26.0484 86.8044 24.8769 86.8044C23.7443 86.8044 22.6899 86.5293 21.7526 85.9788ZM26.9078 84.4063C27.5326 84.0526 28.0402 83.5022 28.3917 82.834C28.7823 82.1655 28.9383 81.3399 28.9383 80.4751C28.9383 79.5711 28.7433 78.7848 28.3917 78.1166C28.0012 77.4483 27.5326 76.8979 26.9078 76.544C26.2829 76.1901 25.6188 75.9938 24.8769 75.9938C24.1739 75.9938 23.51 76.1901 22.8852 76.544C22.2603 76.8979 21.7526 77.4483 21.4011 78.1166C21.0106 78.7848 20.8544 79.6103 20.8544 80.4751C20.8544 81.3795 21.0497 82.1655 21.4011 82.834C21.7917 83.5022 22.2603 84.0526 22.8852 84.4063C23.51 84.7601 24.1739 84.9567 24.8769 84.9567C25.6188 84.9567 26.2829 84.7601 26.9078 84.4063Z" fill="#656C73"/>
<path d="M35.3433 85.9788C34.4062 85.4284 33.7031 84.6421 33.1565 83.6988C32.6487 82.7159 32.3754 81.6545 32.3754 80.4359C32.3754 79.2565 32.6487 78.1558 33.1565 77.173C33.6641 76.1904 34.4062 75.4434 35.3433 74.8929C36.2807 74.3427 37.3351 74.0674 38.4678 74.0674C39.6392 74.0674 40.6936 74.3427 41.631 74.8929C42.5684 75.4434 43.3103 76.2296 43.8181 77.173C44.3257 78.1558 44.5989 79.2172 44.5989 80.4359C44.5989 81.6153 44.3257 82.7159 43.8181 83.6988C43.3103 84.6816 42.5684 85.4284 41.631 85.9788C40.6936 86.5293 39.6392 86.8044 38.4678 86.8044C37.3351 86.8044 36.2807 86.5293 35.3433 85.9788ZM40.4983 84.4063C41.1232 84.0526 41.631 83.5022 41.9826 82.834C42.3731 82.1655 42.5291 81.3399 42.5291 80.4751C42.5291 79.5711 42.3339 78.7848 41.9826 78.1166C41.592 77.4483 41.1232 76.8979 40.4983 76.544C39.8735 76.1901 39.2096 75.9938 38.4678 75.9938C37.7647 75.9938 37.1008 76.1901 36.476 76.544C35.8511 76.8979 35.3433 77.4483 34.992 78.1166C34.6014 78.7848 34.4452 79.6103 34.4452 80.4751C34.4452 81.3795 34.6405 82.1655 34.992 82.834C35.3826 83.5022 35.8511 84.0526 36.476 84.4063C37.1008 84.7601 37.7647 84.9567 38.4678 84.9567C39.2096 84.9567 39.8735 84.7601 40.4983 84.4063Z" fill="#656C73"/>
<path d="M48.3872 90.9713C47.4889 90.2638 46.864 89.4775 46.5517 88.5732L48.4262 87.7872C48.6605 88.4947 49.0901 89.0844 49.7149 89.5168C50.3398 89.9492 51.0426 90.185 51.902 90.185C53.1517 90.185 54.1281 89.8314 54.831 89.0844C55.4948 88.3374 55.8464 87.3153 55.8464 85.9788V84.6816H55.7683C55.3778 85.3106 54.831 85.7823 54.1281 86.2147C53.425 86.6078 52.6049 86.8044 51.6677 86.8044C50.6523 86.8044 49.7149 86.5293 48.8558 85.9788C47.9967 85.4284 47.2936 84.6816 46.786 83.6988C46.2782 82.7159 46.0049 81.6545 46.0049 80.4359C46.0049 79.2172 46.2782 78.1558 46.786 77.173C47.2936 76.1904 47.9967 75.4434 48.8558 74.8929C49.7149 74.3427 50.6523 74.0674 51.6677 74.0674C52.5659 74.0674 53.386 74.264 54.1281 74.6571C54.831 75.0502 55.4168 75.5612 55.7683 76.1904H55.8464V74.4605H57.7989V85.9396C57.7989 87.276 57.5256 88.3769 57.018 89.281C56.5102 90.185 55.8074 90.8928 54.909 91.3252C54.0108 91.7576 53.0344 91.9934 51.902 91.9934C50.4571 92.0327 49.2854 91.6791 48.3872 90.9713ZM53.8936 84.4063C54.4794 84.0526 54.9482 83.5415 55.3385 82.834C55.6901 82.1655 55.8854 81.3399 55.8854 80.4359C55.8854 79.5318 55.6901 78.7063 55.3385 78.0378C54.9872 77.3695 54.5184 76.8194 53.8936 76.4655C53.308 76.1116 52.6439 75.915 51.941 75.915C51.2379 75.915 50.5741 76.1116 49.9882 76.4655C49.4026 76.8194 48.9338 77.3695 48.5433 78.0378C48.192 78.7063 47.9967 79.5318 47.9967 80.4359C47.9967 81.3399 48.192 82.1655 48.5433 82.834C48.8948 83.5022 49.3634 84.0526 49.9882 84.4063C50.5741 84.7601 51.2379 84.9567 51.941 84.9567C52.6439 84.9567 53.308 84.7601 53.8936 84.4063Z" fill="#656C73"/>
<path d="M62.5636 69.1533H60.5328V86.4111H62.5636V69.1533Z" fill="#656C73"/>
<path d="M67.3669 85.9788C66.4687 85.4284 65.7656 84.6816 65.258 83.6988C64.7502 82.7159 64.4769 81.6545 64.4769 80.4359C64.4769 79.296 64.7112 78.1951 65.1798 77.2517C65.6484 76.2689 66.3515 75.5219 67.2106 74.9322C68.1087 74.3427 69.1241 74.0674 70.2568 74.0674C71.3892 74.0674 72.4046 74.3427 73.303 74.8537C74.1621 75.3646 74.826 76.1116 75.2948 77.0552C75.7634 77.9985 75.9977 79.0994 75.9977 80.3181C75.9977 80.5539 75.9977 80.711 75.9587 80.7897H66.5077C66.5467 81.6938 66.742 82.4408 67.1716 83.0698C67.5621 83.6988 68.0697 84.1704 68.6556 84.4458C69.2414 84.7601 69.8662 84.9175 70.5301 84.9175C72.0143 84.9175 73.1857 84.1704 74.0059 82.7159L75.8024 83.5807C75.2948 84.5636 74.5917 85.3106 73.6936 85.9003C72.7952 86.4897 71.7018 86.7651 70.4521 86.7651C69.3194 86.8044 68.304 86.5293 67.3669 85.9788ZM73.8888 79.0994C73.8496 78.6275 73.7326 78.1166 73.4983 77.6449C73.264 77.173 72.8734 76.7406 72.3266 76.4262C71.7798 76.0723 71.1159 75.915 70.2958 75.915C69.3977 75.915 68.6166 76.1904 67.9527 76.7798C67.2889 77.3695 66.8983 78.1166 66.703 79.0994H73.8888Z" fill="#656C73"/>
<path d="M83.8475 69.1533H89.0416C90.7991 69.1533 92.3221 69.5072 93.65 70.2542C94.9777 71.001 95.9541 71.9838 96.657 73.3205C97.3601 74.6177 97.7114 76.1115 97.7114 77.8019C97.7114 79.4922 97.3601 80.9862 96.657 82.2834C95.9541 83.5806 94.9387 84.6028 93.65 85.3498C92.3221 86.0965 90.7991 86.4504 89.0416 86.4504H83.8475V69.1533ZM89.0416 84.485C91.0724 84.485 92.6736 83.8953 93.8453 82.7158C95.0167 81.5364 95.6026 79.8854 95.6026 77.8019C95.6026 75.6791 95.0167 74.0673 93.8453 72.8879C92.6736 71.7087 91.0724 71.119 89.0416 71.119H85.8783V84.485H89.0416Z" fill="#656C73"/>
<path d="M102.32 85.9788C101.422 85.4284 100.719 84.6816 100.211 83.6988C99.7035 82.7159 99.4302 81.6545 99.4302 80.4359C99.4302 79.296 99.6645 78.1951 100.133 77.2517C100.602 76.2689 101.305 75.5219 102.164 74.9322C103.062 74.3427 104.078 74.0674 105.21 74.0674C106.343 74.0674 107.358 74.3427 108.256 74.8537C109.115 75.3646 109.779 76.1116 110.248 77.0552C110.717 77.9985 110.951 79.0994 110.951 80.3181C110.951 80.5539 110.951 80.711 110.912 80.7897H101.461C101.5 81.6938 101.695 82.4408 102.125 83.0698C102.515 83.6988 103.023 84.1704 103.609 84.4458C104.195 84.7601 104.819 84.9175 105.483 84.9175C106.968 84.9175 108.139 84.1704 108.959 82.7159L110.756 83.5807C110.248 84.5636 109.545 85.3106 108.647 85.9003C107.748 86.4897 106.655 86.7651 105.405 86.7651C104.234 86.8044 103.218 86.5293 102.32 85.9788ZM108.842 79.0994C108.803 78.6275 108.686 78.1166 108.452 77.6449C108.217 77.173 107.827 76.7406 107.28 76.4262C106.733 76.0723 106.069 75.915 105.249 75.915C104.351 75.915 103.57 76.1904 102.906 76.7798C102.242 77.3695 101.852 78.1166 101.656 79.0994H108.842Z" fill="#656C73"/>
<path d="M111.459 74.4604H113.685L117.317 84.0131H117.356L121.066 74.4604H123.214L118.332 86.4112H116.262L111.459 74.4604Z" fill="#656C73"/>
<path d="M126.923 85.9788C126.025 85.4284 125.322 84.6816 124.814 83.6988C124.307 82.7159 124.033 81.6545 124.033 80.4359C124.033 79.296 124.268 78.1951 124.736 77.2517C125.205 76.2689 125.908 75.5219 126.767 74.9322C127.665 74.3427 128.681 74.0674 129.813 74.0674C130.946 74.0674 131.961 74.3427 132.859 74.8537C133.719 75.3646 134.383 76.1116 134.851 77.0552C135.32 77.9985 135.554 79.0994 135.554 80.3181C135.554 80.5539 135.554 80.711 135.515 80.7897H126.064C126.103 81.6938 126.298 82.4408 126.728 83.0698C127.119 83.6988 127.626 84.1704 128.212 84.4458C128.798 84.7601 129.423 84.9175 130.087 84.9175C131.571 84.9175 132.742 84.1704 133.563 82.7159L135.359 83.5807C134.851 84.5636 134.148 85.3106 133.25 85.9003C132.352 86.4897 131.258 86.7651 130.008 86.7651C128.876 86.8044 127.822 86.5293 126.923 85.9788ZM133.445 79.0994C133.406 78.6275 133.289 78.1166 133.055 77.6449C132.82 77.173 132.43 76.7406 131.883 76.4262C131.336 76.0723 130.673 75.915 129.852 75.915C128.954 75.915 128.173 76.1904 127.509 76.7798C126.845 77.3695 126.455 78.1166 126.259 79.0994H133.445Z" fill="#656C73"/>
<path d="M139.694 69.1533H137.663V86.4111H139.694V69.1533Z" fill="#656C73"/>
<path d="M144.576 85.9788C143.638 85.4284 142.935 84.6421 142.389 83.6988C141.881 82.7159 141.607 81.6545 141.607 80.4359C141.607 79.2565 141.881 78.1558 142.389 77.173C142.896 76.1904 143.638 75.4434 144.576 74.8929C145.513 74.3427 146.528 74.0674 147.7 74.0674C148.872 74.0674 149.926 74.3427 150.863 74.8929C151.8 75.4434 152.543 76.2296 153.05 77.173C153.558 78.1558 153.831 79.2172 153.831 80.4359C153.831 81.6153 153.558 82.7159 153.05 83.6988C152.543 84.6816 151.8 85.4284 150.863 85.9788C149.926 86.5293 148.872 86.8044 147.7 86.8044C146.528 86.8044 145.513 86.5293 144.576 85.9788ZM149.731 84.4063C150.355 84.0526 150.863 83.5022 151.215 82.834C151.605 82.1655 151.761 81.3399 151.761 80.4751C151.761 79.5711 151.566 78.7848 151.215 78.1166C150.824 77.4483 150.355 76.8979 149.731 76.544C149.106 76.1901 148.442 75.9938 147.7 75.9938C146.997 75.9938 146.333 76.1901 145.708 76.544C145.083 76.8979 144.576 77.4483 144.224 78.1166C143.834 78.7848 143.677 79.6103 143.677 80.4751C143.677 81.3795 143.873 82.1655 144.224 82.834C144.615 83.5022 145.083 84.0526 145.708 84.4063C146.333 84.7601 146.997 84.9567 147.7 84.9567C148.442 84.9567 149.106 84.7601 149.731 84.4063Z" fill="#656C73"/>
<path d="M155.667 74.4605H157.62V76.2296H157.698C158.088 75.6007 158.635 75.0895 159.338 74.6964C160.041 74.3032 160.9 74.0674 161.837 74.0674C162.853 74.0674 163.79 74.3427 164.649 74.8929C165.508 75.4434 166.212 76.1904 166.719 77.173C167.227 78.1558 167.5 79.2172 167.5 80.4359C167.5 81.6545 167.227 82.7159 166.719 83.6988C166.212 84.6816 165.508 85.4284 164.649 85.9788C163.79 86.5293 162.853 86.8044 161.837 86.8044C160.9 86.8044 160.041 86.6078 159.338 86.1754C158.596 85.7823 158.049 85.2318 157.698 84.6028H157.62L157.698 86.2539V91.6003H155.667V74.4605ZM163.517 84.4063C164.103 84.0526 164.61 83.5022 164.962 82.834C165.313 82.1655 165.508 81.3399 165.508 80.4751C165.508 79.5711 165.313 78.7848 164.962 78.1166C164.61 77.4483 164.142 76.8979 163.517 76.544C162.931 76.1901 162.267 75.9938 161.564 75.9938C160.861 75.9938 160.197 76.1901 159.611 76.544C159.025 76.8979 158.518 77.4088 158.166 78.1166C157.815 78.7848 157.62 79.6103 157.62 80.5144C157.62 81.4187 157.815 82.205 158.166 82.9125C158.518 83.62 158.986 84.1312 159.611 84.485C160.197 84.8387 160.861 85.0352 161.564 85.0352C162.267 85.0352 162.892 84.7601 163.517 84.4063Z" fill="#656C73"/>
<path d="M172.265 85.9788C171.366 85.4284 170.663 84.6816 170.156 83.6988C169.648 82.7159 169.375 81.6545 169.375 80.4359C169.375 79.296 169.609 78.1951 170.077 77.2517C170.546 76.2689 171.249 75.5219 172.108 74.9322C173.007 74.3427 174.022 74.0674 175.155 74.0674C176.287 74.0674 177.302 74.3427 178.201 74.8537C179.06 75.3646 179.724 76.1116 180.192 77.0552C180.661 77.9985 180.895 79.0994 180.895 80.3181C180.895 80.5539 180.895 80.711 180.856 80.7897H171.405C171.444 81.6938 171.64 82.4408 172.069 83.0698C172.46 83.6988 172.967 84.1704 173.553 84.4458C174.139 84.7601 174.764 84.9175 175.428 84.9175C176.912 84.9175 178.083 84.1704 178.904 82.7159L180.7 83.5807C180.193 84.5636 179.489 85.3106 178.591 85.9003C177.693 86.4897 176.599 86.7651 175.35 86.7651C174.217 86.8044 173.163 86.5293 172.265 85.9788ZM178.787 79.0994C178.747 78.6275 178.63 78.1166 178.396 77.6449C178.162 77.173 177.771 76.7406 177.224 76.4262C176.677 76.0723 176.014 75.915 175.194 75.915C174.295 75.915 173.514 76.1904 172.889 76.7798C172.226 77.3695 171.835 78.1166 171.64 79.0994H178.787Z" fill="#656C73"/>
<path d="M183.004 74.4603H184.957V76.426H185.035C185.269 75.7575 185.699 75.2073 186.402 74.7749C187.105 74.3425 187.808 74.1064 188.472 74.1064C188.98 74.1064 189.448 74.1852 189.878 74.3425V76.5438C189.448 76.308 188.902 76.1902 188.199 76.1902C187.652 76.1902 187.105 76.3472 186.636 76.7011C186.168 77.0157 185.777 77.4874 185.465 78.0376C185.191 78.588 185.035 79.1777 185.035 79.846V86.5291H183.004V74.4603Z" fill="#656C73"/>
<path d="M198.782 86.2538C197.962 85.9002 197.259 85.3498 196.634 84.6815C196.01 83.9738 195.58 83.1482 195.307 82.1261L197.259 81.3398C197.533 82.362 198.04 83.227 198.782 83.856C199.524 84.5242 200.384 84.8386 201.36 84.8386C202.375 84.8386 203.195 84.5635 203.898 84.013C204.601 83.4628 204.914 82.7551 204.914 81.8118C204.914 81.0255 204.64 80.3572 204.055 79.8068C203.469 79.2959 202.532 78.7847 201.204 78.3523L200.11 77.9592C198.9 77.5268 197.923 76.937 197.142 76.2296C196.361 75.5218 196.01 74.5392 196.01 73.281C196.01 72.4555 196.244 71.7087 196.673 71.001C197.103 70.2935 197.728 69.743 198.548 69.3106C199.329 68.8782 200.227 68.6816 201.204 68.6816C202.18 68.6816 203.078 68.8782 203.82 69.2321C204.562 69.586 205.148 70.0576 205.578 70.5686C206.007 71.119 206.32 71.6299 206.476 72.1411L204.601 72.9667C204.406 72.3377 204.055 71.8265 203.508 71.3548C202.961 70.8832 202.219 70.6473 201.282 70.6473C200.423 70.6473 199.642 70.8832 199.017 71.3941C198.392 71.9053 198.079 72.5342 198.079 73.281C198.079 73.9495 198.353 74.4997 198.861 74.9321C199.368 75.3647 200.188 75.7576 201.243 76.1115L202.336 76.5046C203.781 77.0158 204.914 77.6841 205.734 78.5096C206.554 79.2959 206.984 80.3965 206.984 81.7725C206.984 82.8731 206.71 83.8165 206.124 84.5635C205.539 85.3105 204.836 85.8607 203.977 86.2146C203.117 86.5684 202.219 86.765 201.282 86.765C200.423 86.8043 199.602 86.647 198.782 86.2538Z" fill="#656C73"/>
<path d="M211.943 86.5686C211.552 86.4113 211.201 86.1754 210.889 85.9003C210.576 85.5857 210.342 85.2318 210.186 84.7994C210.029 84.367 209.951 83.8954 209.951 83.3057V76.3082H207.842V74.4606H209.951V70.8833H211.982V74.4606H214.911V76.3082H211.982V82.834C211.982 83.5415 212.099 84.0527 212.373 84.367C212.646 84.7209 213.076 84.9175 213.623 84.9175C214.13 84.9175 214.56 84.7994 214.911 84.5636V86.5293C214.638 86.6078 214.403 86.6864 214.169 86.7259C213.935 86.7651 213.623 86.8044 213.232 86.8044C212.763 86.8044 212.334 86.7259 211.943 86.5686Z" fill="#656C73"/>
<path d="M218.133 85.0466C217.391 84.1818 217 83.0024 217 81.5086V74H219.031V81.194C219.031 83.3956 220.007 84.4962 221.96 84.4962C222.624 84.4962 223.209 84.2996 223.717 83.946C224.225 83.5921 224.654 83.0809 224.928 82.4912C225.201 81.9018 225.358 81.2728 225.358 80.6043V74H227.388V85.9507H225.475V84.1818H225.397C225.045 84.8108 224.498 85.3217 223.795 85.7149C223.092 86.1473 222.311 86.3438 221.491 86.3438C220.007 86.3046 218.875 85.8722 218.133 85.0466Z" fill="#656C73"/>
<path d="M232.095 85.9787C231.235 85.4283 230.533 84.6815 230.025 83.6987C229.517 82.7158 229.244 81.6545 229.244 80.4358C229.244 79.2171 229.517 78.1557 230.025 77.1729C230.533 76.1901 231.235 75.4433 232.095 74.8928C232.954 74.3427 233.891 74.0673 234.906 74.0673C235.844 74.0673 236.664 74.2639 237.406 74.6963C238.148 75.0894 238.695 75.6006 239.046 76.2296H239.124L239.046 74.5785V69.1533H241.077V86.4111H239.163V84.642H239.085C238.734 85.271 238.148 85.7822 237.445 86.2146C236.703 86.6077 235.883 86.8435 234.946 86.8435C233.891 86.8043 232.954 86.5289 232.095 85.9787ZM237.172 84.4062C237.757 84.0526 238.265 83.5021 238.617 82.8339C238.968 82.1261 239.163 81.3399 239.163 80.4358C239.163 79.5317 238.968 78.7062 238.617 78.0377C238.265 77.3695 237.796 76.8193 237.172 76.4654C236.586 76.1115 235.922 75.915 235.219 75.915C234.516 75.915 233.852 76.1115 233.266 76.4654C232.68 76.8193 232.173 77.3695 231.821 78.0377C231.47 78.7062 231.275 79.5317 231.275 80.3965C231.275 81.3006 231.47 82.0869 231.821 82.7551C232.173 83.4236 232.641 83.9738 233.266 84.3277C233.852 84.6815 234.516 84.8781 235.219 84.8781C235.922 84.9566 236.586 84.7601 237.172 84.4062Z" fill="#656C73"/>
<path d="M245.92 85.9788C245.021 85.4284 244.318 84.6816 243.811 83.6988C243.303 82.7159 243.03 81.6545 243.03 80.4359C243.03 79.296 243.264 78.1951 243.733 77.2517C244.201 76.2689 244.904 75.5219 245.763 74.9322C246.662 74.3427 247.677 74.0674 248.81 74.0674C249.942 74.0674 250.957 74.3427 251.855 74.8537C252.716 75.3646 253.38 76.1116 253.848 77.0552C254.316 77.9985 254.55 79.0994 254.55 80.3181C254.55 80.5539 254.55 80.711 254.513 80.7897H245.061C245.1 81.6938 245.295 82.4408 245.724 83.0698C246.115 83.6988 246.623 84.1704 247.208 84.4458C247.794 84.7601 248.419 84.9175 249.083 84.9175C250.567 84.9175 251.739 84.1704 252.56 82.7159L254.354 83.5807C253.848 84.5636 253.144 85.3106 252.245 85.9003C251.348 86.4897 250.255 86.7651 249.005 86.7651C247.872 86.8044 246.818 86.5293 245.92 85.9788ZM252.441 79.0994C252.404 78.6275 252.285 78.1166 252.051 77.6449C251.817 77.173 251.426 76.7406 250.879 76.4262C250.333 76.0723 249.669 75.915 248.849 75.915C247.951 75.915 247.169 76.1904 246.545 76.7798C245.88 77.3695 245.49 78.1166 245.295 79.0994H252.441Z" fill="#656C73"/>
<path d="M256.659 74.4605H258.612V76.2296H258.69C259.042 75.6007 259.548 75.0895 260.29 74.6964C260.995 74.264 261.775 74.0674 262.595 74.0674C264.04 74.0674 265.172 74.4998 265.915 75.3646C266.657 76.2296 267.047 77.3695 267.047 78.8633V86.4505H265.016V79.1779C265.016 77.0157 264.002 75.9543 262.009 75.9543C261.385 75.9543 260.799 76.1509 260.29 76.5047C259.784 76.8586 259.392 77.3695 259.12 77.9592C258.846 78.549 258.69 79.1779 258.69 79.8462V86.4505H256.659V74.4605Z" fill="#656C73"/>
<path d="M272.319 86.5686C271.929 86.4113 271.577 86.1754 271.265 85.9003C270.953 85.5857 270.719 85.2318 270.563 84.7994C270.407 84.367 270.329 83.8954 270.329 83.3057V76.3082H268.22V74.4606H270.329V70.8833H272.359V74.4606H275.289V76.3082H272.359V82.834C272.359 83.5415 272.475 84.0527 272.749 84.367C273.024 84.7209 273.451 84.9175 274 84.9175C274.506 84.9175 274.936 84.7994 275.289 84.5636V86.5293C275.014 86.6078 274.78 86.6864 274.546 86.7259C274.312 86.7651 274 86.8044 273.608 86.8044C273.18 86.8044 272.749 86.7259 272.319 86.5686Z" fill="#656C73"/>
<path d="M286.185 85.6251C284.816 84.8391 283.762 83.7382 282.981 82.3625C282.201 80.9865 281.809 79.4532 281.809 77.7629C281.809 76.0725 282.201 74.5788 282.981 73.1635C283.762 71.7875 284.816 70.6869 286.185 69.9006C287.551 69.1143 289.034 68.7212 290.674 68.7212C291.963 68.7212 293.135 68.9573 294.228 69.4682C295.282 69.9399 296.221 70.6476 296.963 71.5517L295.519 72.9669C294.892 72.1807 294.15 71.591 293.369 71.2373C292.589 70.8835 291.691 70.6869 290.674 70.6869C289.464 70.6869 288.294 70.962 287.277 71.5517C286.223 72.1414 285.402 72.9669 284.778 74.0283C284.154 75.0897 283.84 76.3476 283.84 77.7236C283.84 79.1389 284.154 80.3575 284.778 81.4189C285.402 82.4803 286.223 83.3058 287.277 83.8955C288.331 84.4852 289.464 84.7603 290.674 84.7603C292.783 84.7603 294.542 83.8955 295.987 82.1659L297.431 83.6204C296.651 84.5638 295.675 85.3108 294.502 85.861C293.332 86.4114 292.041 86.6865 290.637 86.6865C289.074 86.8046 287.551 86.4114 286.185 85.6251Z" fill="#656C73"/>
<path d="M301.493 69.1533H299.462V86.4111H301.493V69.1533Z" fill="#656C73"/>
<path d="M305.28 85.5461C304.538 84.6813 304.148 83.5019 304.148 82.0082V74.4995H306.178V81.6935C306.178 83.8951 307.155 84.9957 309.108 84.9957C309.772 84.9957 310.358 84.7991 310.864 84.4455C311.373 84.0916 311.803 83.5805 312.077 82.9907C312.349 82.4013 312.505 81.7723 312.505 81.1038V74.4995H314.536V86.4502H312.623V84.6813H312.545C312.193 85.3103 311.647 85.8212 310.942 86.2144C310.24 86.6468 309.46 86.8434 308.64 86.8434C307.155 86.8041 306.063 86.3717 305.28 85.5461Z" fill="#656C73"/>
<path d="M320.94 86.2146C320.198 85.8214 319.652 85.271 319.302 84.642H319.224V86.4111H317.271V69.1533H319.302V74.5785L319.224 76.2296H319.302C319.692 75.6006 320.238 75.0894 320.94 74.6963C321.645 74.3031 322.503 74.0673 323.442 74.0673C324.456 74.0673 325.394 74.3427 326.252 74.8928C327.111 75.4433 327.815 76.1901 328.321 77.1729C328.829 78.1557 329.104 79.2171 329.104 80.4358C329.104 81.6545 328.829 82.7158 328.321 83.6987C327.815 84.6815 327.111 85.4283 326.252 85.9787C325.394 86.5289 324.456 86.8043 323.442 86.8043C322.503 86.8043 321.683 86.6077 320.94 86.2146ZM325.12 84.4062C325.706 84.0526 326.212 83.5021 326.564 82.8339C326.917 82.1654 327.111 81.3399 327.111 80.4751C327.111 79.571 326.917 78.7847 326.564 78.1165C326.212 77.4482 325.744 76.8978 325.12 76.5439C324.534 76.1901 323.869 75.9937 323.167 75.9937C322.465 75.9937 321.801 76.1901 321.214 76.5439C320.628 76.8978 320.12 77.4087 319.77 78.1165C319.418 78.7847 319.224 79.6102 319.224 80.5143C319.224 81.4186 319.418 82.2049 319.77 82.9124C320.12 83.6199 320.59 84.1311 321.214 84.485C321.801 84.8386 322.465 85.0352 323.167 85.0352C323.869 84.9566 324.496 84.7601 325.12 84.4062Z" fill="#656C73"/>
<path d="M332.033 85.8606C331.172 85.2316 330.548 84.4061 330.196 83.4628L331.993 82.6765C332.305 83.4235 332.775 84.013 333.359 84.4061C333.945 84.7992 334.572 84.9958 335.274 84.9958C336.054 84.9958 336.681 84.8385 337.187 84.4849C337.695 84.131 337.929 83.7379 337.929 83.2662C337.929 82.7945 337.735 82.4014 337.383 82.126C336.993 81.8117 336.366 81.5363 335.468 81.3398L333.83 80.9469C332.931 80.7503 332.189 80.3572 331.525 79.8067C330.9 79.2563 330.588 78.5488 330.588 77.6447C330.588 76.8977 330.782 76.2687 331.212 75.7576C331.643 75.2074 332.189 74.8142 332.891 74.5391C333.596 74.2638 334.376 74.146 335.196 74.146C336.21 74.146 337.149 74.3818 337.969 74.8535C338.79 75.3252 339.414 75.9936 339.766 76.8584L337.969 77.6447C337.695 77.055 337.343 76.6226 336.797 76.3473C336.288 76.0722 335.704 75.9541 335.078 75.9541C334.454 75.9541 333.908 76.1114 333.399 76.426C332.891 76.7404 332.657 77.1335 332.657 77.6052C332.657 78.0376 332.813 78.3522 333.165 78.5881C333.477 78.8239 334.023 79.0597 334.728 79.2563L336.484 79.6887C337.657 80.0033 338.553 80.4357 339.139 81.0647C339.726 81.6544 340 82.4014 340 83.2269C340 83.9344 339.804 84.5634 339.414 85.1139C339.024 85.664 338.437 86.136 337.735 86.4503C337.031 86.7649 336.21 86.9222 335.274 86.9222C333.986 86.8042 332.931 86.4896 332.033 85.8606Z" fill="#656C73"/>
<path d="M145.163 23.1618L160.573 14.1852C164.172 12.0592 165.423 7.41345 163.311 3.79133C161.199 0.169224 156.584 -1.09064 152.985 1.03538L126.389 16.4688L145.163 23.1618Z" fill="#EA4335"/>
<path d="M156.74 46.1543C159.322 46.1543 161.903 44.8159 163.311 42.3747C165.423 38.7526 164.172 34.1069 160.573 31.9808L133.977 16.5476C130.379 14.4216 125.763 15.6814 123.651 19.3035C121.539 22.9257 122.791 27.5715 126.389 29.6975L152.986 45.1307C154.159 45.8395 155.489 46.1543 156.74 46.1543Z" fill="#4285F4"/>
<path d="M183.18 46.1541C184.432 46.1541 185.762 45.8393 186.935 45.1305L213.532 29.6973L194.992 22.8467L179.347 31.9019C175.749 34.0279 174.497 38.6739 176.609 42.296C178.018 44.8157 180.599 46.1541 183.18 46.1541Z" fill="#FBBC04"/>
<path d="M209.777 30.7209C212.359 30.7209 214.94 29.3822 216.348 26.9413C218.46 23.3191 217.209 18.6734 213.61 16.5473L187.014 1.11399C183.415 -1.01203 178.8 0.247855 176.688 3.86996C174.576 7.49207 175.827 12.1378 179.426 14.2638L206.022 29.6973C207.196 30.4058 208.525 30.7209 209.777 30.7209Z" fill="#34A853"/>
<path d="M120.301 106.1H122.401V124H120.301V106.1ZM125.479 111.25H127.504V113.125H127.604C127.954 112.492 128.513 111.958 129.279 111.525C130.046 111.075 130.863 110.85 131.729 110.85C133.263 110.85 134.429 111.3 135.229 112.2C136.046 113.083 136.454 114.292 136.454 115.825V124H134.329V116.15C134.329 114.967 134.046 114.108 133.479 113.575C132.913 113.042 132.138 112.775 131.154 112.775C130.471 112.775 129.854 112.967 129.304 113.35C128.771 113.733 128.354 114.242 128.054 114.875C127.754 115.492 127.604 116.142 127.604 116.825V124H125.479V111.25ZM144.393 124.4C143.26 124.4 142.226 124.108 141.293 123.525C140.376 122.942 139.651 122.142 139.118 121.125C138.585 120.092 138.318 118.925 138.318 117.625C138.318 116.342 138.585 115.183 139.118 114.15C139.651 113.117 140.376 112.308 141.293 111.725C142.226 111.142 143.26 110.85 144.393 110.85C145.376 110.85 146.251 111.075 147.018 111.525C147.785 111.958 148.368 112.5 148.768 113.15H148.868L148.768 111.375V106.1H150.893V124H148.868V122.125H148.768C148.368 122.758 147.785 123.3 147.018 123.75C146.251 124.183 145.376 124.4 144.393 124.4ZM144.643 122.475C145.393 122.475 146.085 122.275 146.718 121.875C147.368 121.475 147.885 120.908 148.268 120.175C148.668 119.442 148.868 118.592 148.868 117.625C148.868 116.658 148.668 115.808 148.268 115.075C147.885 114.342 147.368 113.775 146.718 113.375C146.085 112.975 145.393 112.775 144.643 112.775C143.91 112.775 143.218 112.975 142.568 113.375C141.918 113.775 141.393 114.35 140.993 115.1C140.61 115.833 140.418 116.675 140.418 117.625C140.418 118.575 140.61 119.425 140.993 120.175C141.393 120.908 141.918 121.475 142.568 121.875C143.218 122.275 143.91 122.475 144.643 122.475ZM159.285 124.4C158.035 124.4 156.91 124.1 155.91 123.5C154.91 122.9 154.127 122.083 153.56 121.05C153.01 120.017 152.735 118.875 152.735 117.625C152.735 116.375 153.01 115.233 153.56 114.2C154.127 113.167 154.91 112.35 155.91 111.75C156.91 111.15 158.035 110.85 159.285 110.85C160.535 110.85 161.66 111.15 162.66 111.75C163.66 112.35 164.435 113.167 164.985 114.2C165.552 115.233 165.835 116.375 165.835 117.625C165.835 118.875 165.552 120.017 164.985 121.05C164.435 122.083 163.66 122.9 162.66 123.5C161.66 124.1 160.535 124.4 159.285 124.4ZM159.285 122.475C160.068 122.475 160.793 122.283 161.46 121.9C162.143 121.5 162.685 120.933 163.085 120.2C163.502 119.467 163.71 118.608 163.71 117.625C163.71 116.642 163.502 115.783 163.085 115.05C162.685 114.317 162.143 113.758 161.46 113.375C160.793 112.975 160.068 112.775 159.285 112.775C158.502 112.775 157.768 112.975 157.085 113.375C156.402 113.758 155.852 114.317 155.435 115.05C155.035 115.783 154.835 116.642 154.835 117.625C154.835 118.608 155.035 119.467 155.435 120.2C155.852 120.933 156.402 121.5 157.085 121.9C157.768 122.283 158.502 122.475 159.285 122.475ZM167.558 111.25H169.583V113.125H169.683C170.033 112.492 170.592 111.958 171.358 111.525C172.125 111.075 172.942 110.85 173.808 110.85C175.342 110.85 176.508 111.3 177.308 112.2C178.125 113.083 178.533 114.292 178.533 115.825V124H176.408V116.15C176.408 114.967 176.125 114.108 175.558 113.575C174.992 113.042 174.217 112.775 173.233 112.775C172.55 112.775 171.933 112.967 171.383 113.35C170.85 113.733 170.433 114.242 170.133 114.875C169.833 115.492 169.683 116.142 169.683 116.825V124H167.558V111.25ZM186.747 124.4C185.53 124.4 184.439 124.108 183.472 123.525C182.505 122.942 181.747 122.142 181.197 121.125C180.664 120.092 180.397 118.933 180.397 117.65C180.397 116.417 180.647 115.283 181.147 114.25C181.664 113.217 182.389 112.392 183.322 111.775C184.255 111.158 185.339 110.85 186.572 110.85C187.822 110.85 188.905 111.133 189.822 111.7C190.739 112.25 191.439 113.017 191.922 114C192.422 114.983 192.672 116.108 192.672 117.375C192.672 117.625 192.647 117.842 192.597 118.025H182.522C182.572 118.992 182.805 119.808 183.222 120.475C183.639 121.142 184.164 121.642 184.797 121.975C185.447 122.308 186.122 122.475 186.822 122.475C188.455 122.475 189.714 121.708 190.597 120.175L192.397 121.05C191.847 122.083 191.097 122.9 190.147 123.5C189.214 124.1 188.08 124.4 186.747 124.4ZM190.422 116.275C190.389 115.742 190.239 115.208 189.972 114.675C189.705 114.142 189.28 113.692 188.697 113.325C188.13 112.958 187.414 112.775 186.547 112.775C185.547 112.775 184.697 113.1 183.997 113.75C183.314 114.383 182.864 115.225 182.647 116.275H190.422ZM199.231 124.4C197.864 124.4 196.723 124.083 195.806 123.45C194.889 122.8 194.239 121.975 193.856 120.975L195.756 120.125C196.073 120.892 196.539 121.483 197.156 121.9C197.789 122.317 198.481 122.525 199.231 122.525C200.031 122.525 200.714 122.367 201.281 122.05C201.848 121.717 202.131 121.25 202.131 120.65C202.131 120.117 201.906 119.692 201.456 119.375C201.006 119.042 200.298 118.758 199.331 118.525L197.781 118.125C196.764 117.875 195.931 117.45 195.281 116.85C194.631 116.25 194.306 115.475 194.306 114.525C194.306 113.792 194.523 113.15 194.956 112.6C195.406 112.033 195.998 111.6 196.731 111.3C197.464 111 198.256 110.85 199.106 110.85C200.223 110.85 201.214 111.092 202.081 111.575C202.964 112.058 203.589 112.733 203.956 113.6L202.106 114.45C201.539 113.317 200.531 112.75 199.081 112.75C198.381 112.75 197.764 112.917 197.231 113.25C196.714 113.567 196.456 113.975 196.456 114.475C196.456 114.942 196.639 115.325 197.006 115.625C197.373 115.908 197.923 116.142 198.656 116.325L200.506 116.8C201.756 117.117 202.698 117.592 203.331 118.225C203.964 118.842 204.281 119.6 204.281 120.5C204.281 121.283 204.056 121.975 203.606 122.575C203.156 123.158 202.548 123.608 201.781 123.925C201.014 124.242 200.164 124.4 199.231 124.4ZM207.225 108.9C206.809 108.9 206.45 108.75 206.15 108.45C205.85 108.15 205.7 107.792 205.7 107.375C205.7 106.958 205.85 106.608 206.15 106.325C206.45 106.025 206.809 105.875 207.225 105.875C207.642 105.875 208 106.025 208.3 106.325C208.6 106.608 208.75 106.958 208.75 107.375C208.75 107.792 208.6 108.15 208.3 108.45C208.017 108.75 207.659 108.9 207.225 108.9ZM206.175 111.25H208.275V124H206.175V111.25ZM215.068 124.4C214.135 124.4 213.301 124.217 212.568 123.85C211.835 123.483 211.268 122.983 210.868 122.35C210.468 121.7 210.268 120.967 210.268 120.15C210.268 118.8 210.776 117.75 211.793 117C212.81 116.233 214.093 115.85 215.643 115.85C216.41 115.85 217.118 115.933 217.768 116.1C218.435 116.267 218.943 116.458 219.293 116.675V115.9C219.293 114.95 218.96 114.192 218.293 113.625C217.626 113.042 216.785 112.75 215.768 112.75C215.051 112.75 214.393 112.908 213.793 113.225C213.193 113.525 212.718 113.95 212.368 114.5L210.768 113.3C211.268 112.533 211.951 111.933 212.818 111.5C213.701 111.067 214.676 110.85 215.743 110.85C217.476 110.85 218.835 111.308 219.818 112.225C220.818 113.125 221.318 114.358 221.318 115.925V124H219.293V122.175H219.193C218.826 122.792 218.276 123.317 217.543 123.75C216.81 124.183 215.985 124.4 215.068 124.4ZM215.268 122.525C215.985 122.525 216.651 122.342 217.268 121.975C217.885 121.608 218.376 121.117 218.743 120.5C219.11 119.883 219.293 119.208 219.293 118.475C218.893 118.208 218.401 117.992 217.818 117.825C217.235 117.658 216.618 117.575 215.968 117.575C214.801 117.575 213.918 117.817 213.318 118.3C212.735 118.783 212.443 119.408 212.443 120.175C212.443 120.875 212.71 121.442 213.243 121.875C213.776 122.308 214.451 122.525 215.268 122.525Z" fill="#656C73"/>
</svg>
