<svg width="502" height="102" viewBox="0 0 502 102" fill="none" xmlns="http://www.w3.org/2000/svg">
<g clip-path="url(#clip0_105_81)">
<path d="M387.24 75.952H389.592V96H387.24V75.952ZM393.04 81.72H395.308V83.82H395.42C395.812 83.1107 396.437 82.5133 397.296 82.028C398.155 81.524 399.069 81.272 400.04 81.272C401.757 81.272 403.064 81.776 403.96 82.784C404.875 83.7733 405.332 85.1267 405.332 86.844V96H402.952V87.208C402.952 85.8827 402.635 84.9213 402 84.324C401.365 83.7267 400.497 83.428 399.396 83.428C398.631 83.428 397.94 83.6427 397.324 84.072C396.727 84.5013 396.26 85.0707 395.924 85.78C395.588 86.4707 395.42 87.1987 395.42 87.964V96H393.04V81.72ZM414.223 96.448C412.954 96.448 411.797 96.1213 410.751 95.468C409.725 94.8147 408.913 93.9187 408.315 92.78C407.718 91.6227 407.419 90.316 407.419 88.86C407.419 87.4227 407.718 86.1253 408.315 84.968C408.913 83.8107 409.725 82.9053 410.751 82.252C411.797 81.5987 412.954 81.272 414.223 81.272C415.325 81.272 416.305 81.524 417.163 82.028C418.022 82.5133 418.675 83.12 419.123 83.848H419.235L419.123 81.86V75.952H421.503V96H419.235V93.9H419.123C418.675 94.6093 418.022 95.216 417.163 95.72C416.305 96.2053 415.325 96.448 414.223 96.448ZM414.503 94.292C415.343 94.292 416.118 94.068 416.827 93.62C417.555 93.172 418.134 92.5373 418.563 91.716C419.011 90.8947 419.235 89.9427 419.235 88.86C419.235 87.7773 419.011 86.8253 418.563 86.004C418.134 85.1827 417.555 84.548 416.827 84.1C416.118 83.652 415.343 83.428 414.503 83.428C413.682 83.428 412.907 83.652 412.179 84.1C411.451 84.548 410.863 85.192 410.415 86.032C409.986 86.8533 409.771 87.796 409.771 88.86C409.771 89.924 409.986 90.876 410.415 91.716C410.863 92.5373 411.451 93.172 412.179 93.62C412.907 94.068 413.682 94.292 414.503 94.292ZM430.902 96.448C429.502 96.448 428.242 96.112 427.122 95.44C426.002 94.768 425.125 93.8533 424.49 92.696C423.874 91.5387 423.566 90.26 423.566 88.86C423.566 87.46 423.874 86.1813 424.49 85.024C425.125 83.8667 426.002 82.952 427.122 82.28C428.242 81.608 429.502 81.272 430.902 81.272C432.302 81.272 433.562 81.608 434.682 82.28C435.802 82.952 436.67 83.8667 437.286 85.024C437.921 86.1813 438.238 87.46 438.238 88.86C438.238 90.26 437.921 91.5387 437.286 92.696C436.67 93.8533 435.802 94.768 434.682 95.44C433.562 96.112 432.302 96.448 430.902 96.448ZM430.902 94.292C431.78 94.292 432.592 94.0773 433.338 93.648C434.104 93.2 434.71 92.5653 435.158 91.744C435.625 90.9227 435.858 89.9613 435.858 88.86C435.858 87.7587 435.625 86.7973 435.158 85.976C434.71 85.1547 434.104 84.5293 433.338 84.1C432.592 83.652 431.78 83.428 430.902 83.428C430.025 83.428 429.204 83.652 428.438 84.1C427.673 84.5293 427.057 85.1547 426.59 85.976C426.142 86.7973 425.918 87.7587 425.918 88.86C425.918 89.9613 426.142 90.9227 426.59 91.744C427.057 92.5653 427.673 93.2 428.438 93.648C429.204 94.0773 430.025 94.292 430.902 94.292ZM440.169 81.72H442.437V83.82H442.549C442.941 83.1107 443.566 82.5133 444.425 82.028C445.283 81.524 446.198 81.272 447.169 81.272C448.886 81.272 450.193 81.776 451.089 82.784C452.003 83.7733 452.461 85.1267 452.461 86.844V96H450.081V87.208C450.081 85.8827 449.763 84.9213 449.129 84.324C448.494 83.7267 447.626 83.428 446.525 83.428C445.759 83.428 445.069 83.6427 444.453 84.072C443.855 84.5013 443.389 85.0707 443.053 85.78C442.717 86.4707 442.549 87.1987 442.549 87.964V96H440.169V81.72ZM461.66 96.448C460.297 96.448 459.075 96.1213 457.992 95.468C456.909 94.8147 456.06 93.9187 455.444 92.78C454.847 91.6227 454.548 90.3253 454.548 88.888C454.548 87.5067 454.828 86.2373 455.388 85.08C455.967 83.9227 456.779 82.9987 457.824 82.308C458.869 81.6173 460.083 81.272 461.464 81.272C462.864 81.272 464.077 81.5893 465.104 82.224C466.131 82.84 466.915 83.6987 467.456 84.8C468.016 85.9013 468.296 87.1613 468.296 88.58C468.296 88.86 468.268 89.1027 468.212 89.308H456.928C456.984 90.3907 457.245 91.3053 457.712 92.052C458.179 92.7987 458.767 93.3587 459.476 93.732C460.204 94.1053 460.96 94.292 461.744 94.292C463.573 94.292 464.983 93.4333 465.972 91.716L467.988 92.696C467.372 93.8533 466.532 94.768 465.468 95.44C464.423 96.112 463.153 96.448 461.66 96.448ZM465.776 87.348C465.739 86.7507 465.571 86.1533 465.272 85.556C464.973 84.9587 464.497 84.4547 463.844 84.044C463.209 83.6333 462.407 83.428 461.436 83.428C460.316 83.428 459.364 83.792 458.58 84.52C457.815 85.2293 457.311 86.172 457.068 87.348H465.776ZM475.642 96.448C474.111 96.448 472.833 96.0933 471.806 95.384C470.779 94.656 470.051 93.732 469.622 92.612L471.75 91.66C472.105 92.5187 472.627 93.1813 473.318 93.648C474.027 94.1147 474.802 94.348 475.642 94.348C476.538 94.348 477.303 94.1707 477.938 93.816C478.573 93.4427 478.89 92.92 478.89 92.248C478.89 91.6507 478.638 91.1747 478.134 90.82C477.63 90.4467 476.837 90.1293 475.754 89.868L474.018 89.42C472.879 89.14 471.946 88.664 471.218 87.992C470.49 87.32 470.126 86.452 470.126 85.388C470.126 84.5667 470.369 83.848 470.854 83.232C471.358 82.5973 472.021 82.112 472.842 81.776C473.663 81.44 474.55 81.272 475.502 81.272C476.753 81.272 477.863 81.5427 478.834 82.084C479.823 82.6253 480.523 83.3813 480.934 84.352L478.862 85.304C478.227 84.0347 477.098 83.4 475.474 83.4C474.69 83.4 473.999 83.5867 473.402 83.96C472.823 84.3147 472.534 84.772 472.534 85.332C472.534 85.8547 472.739 86.284 473.15 86.62C473.561 86.9373 474.177 87.1987 474.998 87.404L477.07 87.936C478.47 88.2907 479.525 88.8227 480.234 89.532C480.943 90.2227 481.298 91.072 481.298 92.08C481.298 92.9573 481.046 93.732 480.542 94.404C480.038 95.0573 479.357 95.5613 478.498 95.916C477.639 96.2707 476.687 96.448 475.642 96.448ZM484.596 79.088C484.129 79.088 483.728 78.92 483.392 78.584C483.056 78.248 482.888 77.8467 482.888 77.38C482.888 76.9133 483.056 76.5213 483.392 76.204C483.728 75.868 484.129 75.7 484.596 75.7C485.062 75.7 485.464 75.868 485.8 76.204C486.136 76.5213 486.304 76.9133 486.304 77.38C486.304 77.8467 486.136 78.248 485.8 78.584C485.482 78.92 485.081 79.088 484.596 79.088ZM483.42 81.72H485.772V96H483.42V81.72ZM493.379 96.448C492.334 96.448 491.401 96.2427 490.579 95.832C489.758 95.4213 489.123 94.8613 488.675 94.152C488.227 93.424 488.003 92.6027 488.003 91.688C488.003 90.176 488.573 89 489.711 88.16C490.85 87.3013 492.287 86.872 494.023 86.872C494.882 86.872 495.675 86.9653 496.403 87.152C497.15 87.3387 497.719 87.5533 498.111 87.796V86.928C498.111 85.864 497.738 85.0147 496.991 84.38C496.245 83.7267 495.302 83.4 494.163 83.4C493.361 83.4 492.623 83.5773 491.951 83.932C491.279 84.268 490.747 84.744 490.355 85.36L488.563 84.016C489.123 83.1573 489.889 82.4853 490.859 82C491.849 81.5147 492.941 81.272 494.135 81.272C496.077 81.272 497.598 81.7853 498.699 82.812C499.819 83.82 500.379 85.2013 500.379 86.956V96H498.111V93.956H497.999C497.589 94.6467 496.973 95.2347 496.151 95.72C495.33 96.2053 494.406 96.448 493.379 96.448ZM493.603 94.348C494.406 94.348 495.153 94.1427 495.843 93.732C496.534 93.3213 497.085 92.7707 497.495 92.08C497.906 91.3893 498.111 90.6333 498.111 89.812C497.663 89.5133 497.113 89.2707 496.459 89.084C495.806 88.8973 495.115 88.804 494.387 88.804C493.081 88.804 492.091 89.0747 491.419 89.616C490.766 90.1573 490.439 90.8573 490.439 91.716C490.439 92.5 490.738 93.1347 491.335 93.62C491.933 94.1053 492.689 94.348 493.603 94.348Z" fill="white"/>
<path d="M4.91924 94.8208C3.39557 93.9501 2.17666 92.7313 1.30599 91.2075C0.43533 89.6841 0 87.9861 0 86.1142C0 84.2424 0.43533 82.5882 1.30599 81.0209C2.17666 79.4972 3.39557 78.2784 4.91924 77.4076C6.44291 76.5369 8.09713 76.1016 9.88198 76.1016C11.275 76.1016 12.6246 76.363 13.8435 76.8418C15.0624 77.3207 16.1072 78.0607 16.8908 78.9314L15.2801 80.5421C14.6706 79.8021 13.887 79.236 12.9293 78.8007C11.9716 78.4088 10.9703 78.1911 9.88198 78.1911C8.53246 78.1911 7.31354 78.496 6.13816 79.1491C4.96277 79.8021 4.04855 80.7163 3.35203 81.8917C2.6555 83.067 2.30725 84.46 2.30725 85.9838C2.30725 87.5508 2.6555 88.9003 3.35203 90.0757C4.04855 91.2513 5.00631 92.1655 6.13816 92.8183C7.31354 93.4713 8.57599 93.7762 9.88198 93.7762C11.1445 93.7762 12.2328 93.5585 13.1035 93.1667C13.9741 92.7748 14.7142 92.2525 15.3672 91.5559C15.8461 91.0771 16.1943 90.4675 16.499 89.7275C16.8038 89.031 16.9344 88.2473 17.0214 87.4203H9.96906V85.3308H19.1546C19.2416 85.8096 19.2852 86.2884 19.2852 86.7238C19.2852 87.8992 19.111 89.031 18.7193 90.1629C18.3274 91.2948 17.7615 92.2525 16.9344 93.0797C15.1495 94.995 12.7987 95.9527 9.92555 95.9527C8.09716 96.1269 6.44291 95.6916 4.91924 94.8208Z" fill="white"/>
<path d="M24.2477 95.2121C23.203 94.6026 22.4194 93.7318 21.8099 92.6872C21.244 91.5988 20.9392 90.4234 20.9392 89.0739C20.9392 87.7678 21.244 86.549 21.8099 85.4606C22.3758 84.3725 23.203 83.5452 24.2477 82.9357C25.2925 82.3264 26.4679 82.0215 27.7304 82.0215C29.0363 82.0215 30.2119 82.3264 31.2566 82.9357C32.3015 83.5452 33.1284 84.416 33.6945 85.4606C34.2603 86.549 34.5652 87.7243 34.5652 89.0739C34.5652 90.38 34.2603 91.5988 33.6945 92.6872C33.1284 93.7756 32.3015 94.6026 31.2566 95.2121C30.2119 95.8217 29.0363 96.1263 27.7304 96.1263C26.4679 96.1263 25.2925 95.8217 24.2477 95.2121ZM29.9942 93.4707C30.6908 93.0791 31.2566 92.4695 31.6484 91.7295C32.0838 90.9892 32.2577 90.075 32.2577 89.1174C32.2577 88.1162 32.0403 87.2455 31.6484 86.5055C31.2131 85.7655 30.6908 85.156 29.9942 84.7641C29.2977 84.3722 28.5574 84.1548 27.7304 84.1548C26.9468 84.1548 26.2067 84.3722 25.5102 84.7641C24.8137 85.156 24.2478 85.7655 23.856 86.5055C23.4206 87.2455 23.2465 88.1597 23.2465 89.1174C23.2465 90.1188 23.4642 90.9892 23.856 91.7295C24.2913 92.4695 24.8137 93.0791 25.5102 93.4707C26.2067 93.8626 26.9468 94.0802 27.7304 94.0802C28.5574 94.0802 29.2977 93.8626 29.9942 93.4707Z" fill="white"/>
<path d="M39.3974 95.2121C38.3527 94.6026 37.569 93.7318 36.9597 92.6872C36.3936 91.5988 36.089 90.4234 36.089 89.0739C36.089 87.7678 36.3936 86.549 36.9597 85.4606C37.5255 84.3725 38.3527 83.5452 39.3974 82.9357C40.4423 82.3264 41.6176 82.0215 42.8802 82.0215C44.186 82.0215 45.3614 82.3264 46.4063 82.9357C47.4512 83.5452 48.2782 84.416 48.8443 85.4606C49.41 86.549 49.7147 87.7243 49.7147 89.0739C49.7147 90.38 49.41 91.5988 48.8443 92.6872C48.2782 93.7756 47.4512 94.6026 46.4063 95.2121C45.3614 95.8217 44.186 96.1263 42.8802 96.1263C41.6176 96.1263 40.4423 95.8217 39.3974 95.2121ZM45.1437 93.4707C45.8402 93.0791 46.4063 92.4695 46.7982 91.7295C47.2335 90.9892 47.4075 90.075 47.4075 89.1174C47.4075 88.1162 47.1898 87.2455 46.7982 86.5055C46.3628 85.7655 45.8402 85.156 45.1437 84.7641C44.4472 84.3722 43.7072 84.1548 42.8802 84.1548C42.0965 84.1548 41.3565 84.3722 40.66 84.7641C39.9635 85.156 39.3974 85.7655 39.0058 86.5055C38.5704 87.2455 38.3962 88.1597 38.3962 89.1174C38.3962 90.1188 38.6139 90.9892 39.0058 91.7295C39.4411 92.4695 39.9635 93.0791 40.66 93.4707C41.3565 93.8626 42.0965 94.0802 42.8802 94.0802C43.7072 94.0802 44.4472 93.8626 45.1437 93.4707Z" fill="white"/>
<path d="M53.9376 100.741C52.9361 99.9573 52.2396 99.0866 51.8915 98.0851L53.981 97.2147C54.2422 97.9982 54.721 98.6512 55.4176 99.13C56.1141 99.6089 56.8976 99.87 57.8555 99.87C59.2485 99.87 60.3369 99.4784 61.1204 98.6512C61.8604 97.824 62.2523 96.6921 62.2523 95.2121V93.7756H62.1653C61.73 94.4721 61.1204 94.9944 60.3369 95.4733C59.5532 95.9086 58.639 96.1263 57.5944 96.1263C56.4625 96.1263 55.4176 95.8217 54.4599 95.2121C53.5022 94.6026 52.7185 93.7756 52.1527 92.6872C51.5866 91.5988 51.2819 90.4234 51.2819 89.0739C51.2819 87.7243 51.5866 86.549 52.1527 85.4606C52.7185 84.3725 53.5022 83.5452 54.4599 82.9357C55.4176 82.3264 56.4625 82.0215 57.5944 82.0215C58.5955 82.0215 59.5097 82.2392 60.3369 82.6745C61.1204 83.1099 61.7735 83.6757 62.1653 84.3725H62.2523V82.4568H64.4288V95.1686C64.4288 96.6486 64.1242 97.8677 63.5584 98.8689C62.9923 99.87 62.2088 100.654 61.2074 101.133C60.2062 101.611 59.1178 101.873 57.8555 101.873C56.2448 101.916 54.9387 101.525 53.9376 100.741ZM60.0755 93.4707C60.7285 93.0791 61.2511 92.513 61.6862 91.7295C62.0781 90.9892 62.2958 90.075 62.2958 89.0739C62.2958 88.0727 62.0781 87.1585 61.6862 86.4183C61.2946 85.6783 60.772 85.069 60.0755 84.6771C59.4227 84.2852 58.6825 84.0676 57.899 84.0676C57.1152 84.0676 56.3752 84.2852 55.7222 84.6771C55.0694 85.069 54.5468 85.6783 54.1115 86.4183C53.7199 87.1585 53.5022 88.0727 53.5022 89.0739C53.5022 90.075 53.7199 90.9892 54.1115 91.7295C54.5034 92.4695 55.0257 93.0791 55.7222 93.4707C56.3752 93.8626 57.1152 94.0802 57.899 94.0802C58.6825 94.0802 59.4227 93.8626 60.0755 93.4707Z" fill="white"/>
<path d="M69.7401 76.5801H67.4763V95.6912H69.7401V76.5801Z" fill="white"/>
<path d="M75.0942 95.2121C74.093 94.6026 73.3093 93.7756 72.7435 92.6872C72.1774 91.5988 71.8728 90.4234 71.8728 89.0739C71.8728 87.8116 72.1339 86.5925 72.6562 85.5478C73.1786 84.4594 73.9623 83.6322 74.92 82.9792C75.9212 82.3264 77.053 82.0215 78.3156 82.0215C79.5779 82.0215 80.7098 82.3264 81.7112 82.8922C82.6689 83.458 83.4089 84.2852 83.9315 85.3301C84.4538 86.3748 84.715 87.5939 84.715 88.9435C84.715 89.2046 84.715 89.3785 84.6715 89.4658H74.1365C74.18 90.4669 74.3977 91.2942 74.8765 91.9907C75.3119 92.6872 75.8777 93.2095 76.5307 93.5144C77.1838 93.8626 77.8803 94.0368 78.6203 94.0368C80.2747 94.0368 81.5805 93.2095 82.4947 91.5988L84.4973 92.5565C83.9315 93.6449 83.1478 94.4721 82.1466 95.1251C81.1452 95.7779 79.9263 96.0828 78.5333 96.0828C77.2707 96.1263 76.1388 95.8217 75.0942 95.2121ZM82.3643 87.5939C82.3205 87.0713 82.1901 86.5055 81.9289 85.9832C81.6678 85.4606 81.2324 84.9818 80.6229 84.6336C80.0133 84.2418 79.2733 84.0676 78.3591 84.0676C77.358 84.0676 76.4872 84.3725 75.7472 85.0252C75.0072 85.6783 74.5719 86.5055 74.3542 87.5939H82.3643Z" fill="white"/>
<path d="M93.4654 76.5801H99.2552C101.214 76.5801 102.912 76.972 104.392 77.7992C105.872 78.6262 106.961 79.7146 107.744 81.1948C108.528 82.6313 108.919 84.2855 108.919 86.1574C108.919 88.0293 108.528 89.6837 107.744 91.1203C106.961 92.5568 105.829 93.6887 104.392 94.5159C102.912 95.3428 101.214 95.7347 99.2552 95.7347H93.4654V76.5801ZM99.2552 93.5582C101.519 93.5582 103.304 92.9052 104.61 91.5991C105.916 90.293 106.569 88.4646 106.569 86.1574C106.569 83.8067 105.916 82.0218 104.61 80.7157C103.304 79.4099 101.519 78.7569 99.2552 78.7569H95.7291V93.5582H99.2552Z" fill="white"/>
<path d="M114.057 95.2121C113.056 94.6026 112.272 93.7756 111.706 92.6872C111.14 91.5988 110.835 90.4234 110.835 89.0739C110.835 87.8116 111.097 86.5925 111.619 85.5478C112.141 84.4594 112.925 83.6322 113.883 82.9792C114.884 82.3264 116.016 82.0215 117.278 82.0215C118.541 82.0215 119.673 82.3264 120.674 82.8922C121.632 83.458 122.372 84.2852 122.894 85.3301C123.416 86.3748 123.678 87.5939 123.678 88.9435C123.678 89.2046 123.678 89.3785 123.634 89.4658H113.099C113.143 90.4669 113.36 91.2942 113.839 91.9907C114.274 92.6872 114.841 93.2095 115.493 93.5144C116.146 93.8626 116.843 94.0368 117.583 94.0368C119.237 94.0368 120.543 93.2095 121.457 91.5988L123.46 92.5565C122.894 93.6449 122.11 94.4721 121.109 95.1251C120.108 95.7779 118.889 96.0828 117.496 96.0828C116.19 96.1263 115.058 95.8217 114.057 95.2121ZM121.327 87.5939C121.283 87.0713 121.153 86.5055 120.892 85.9832C120.63 85.4606 120.195 84.9818 119.585 84.6336C118.976 84.2418 118.236 84.0676 117.322 84.0676C116.321 84.0676 115.45 84.3725 114.71 85.0252C113.97 85.6783 113.534 86.5055 113.317 87.5939H121.327Z" fill="white"/>
<path d="M124.244 82.457H126.725L130.774 93.0355H130.817L134.953 82.457H137.347L131.906 95.6911H129.598L124.244 82.457Z" fill="white"/>
<path d="M141.482 95.2121C140.481 94.6026 139.698 93.7756 139.131 92.6872C138.566 91.5988 138.261 90.4234 138.261 89.0739C138.261 87.8116 138.522 86.5925 139.045 85.5478C139.567 84.4594 140.35 83.6322 141.308 82.9792C142.309 82.3264 143.441 82.0215 144.704 82.0215C145.966 82.0215 147.098 82.3264 148.099 82.8922C149.057 83.458 149.797 84.2852 150.319 85.3301C150.842 86.3748 151.103 87.5939 151.103 88.9435C151.103 89.2046 151.103 89.3785 151.059 89.4658H140.524C140.568 90.4669 140.786 91.2942 141.264 91.9907C141.7 92.6872 142.266 93.2095 142.919 93.5144C143.572 93.8626 144.269 94.0368 145.009 94.0368C146.663 94.0368 147.969 93.2095 148.883 91.5988L150.886 92.5565C150.319 93.6449 149.536 94.4721 148.535 95.1251C147.533 95.7779 146.314 96.0828 144.921 96.0828C143.659 96.1263 142.484 95.8217 141.482 95.2121ZM148.752 87.5939C148.709 87.0713 148.578 86.5055 148.317 85.9832C148.056 85.4606 147.62 84.9818 147.011 84.6336C146.402 84.2418 145.662 84.0676 144.747 84.0676C143.746 84.0676 142.875 84.3725 142.135 85.0252C141.395 85.6783 140.96 86.5055 140.742 87.5939H148.752Z" fill="white"/>
<path d="M155.717 76.5801H153.454V95.6912H155.717V76.5801Z" fill="white"/>
<path d="M161.159 95.2121C160.114 94.6026 159.331 93.7318 158.721 92.6872C158.156 91.5988 157.851 90.4234 157.851 89.0739C157.851 87.7678 158.156 86.549 158.721 85.4606C159.287 84.3725 160.114 83.5452 161.159 82.9357C162.204 82.3264 163.336 82.0215 164.642 82.0215C165.948 82.0215 167.123 82.3264 168.168 82.9357C169.213 83.5452 170.04 84.416 170.606 85.4606C171.172 86.549 171.477 87.7243 171.477 89.0739C171.477 90.38 171.172 91.5988 170.606 92.6872C170.04 93.7756 169.213 94.6026 168.168 95.2121C167.123 95.8217 165.948 96.1263 164.642 96.1263C163.336 96.1263 162.204 95.8217 161.159 95.2121ZM166.906 93.4707C167.602 93.0791 168.168 92.4695 168.56 91.7295C168.995 90.9892 169.169 90.075 169.169 89.1174C169.169 88.1162 168.952 87.2455 168.56 86.5055C168.125 85.7655 167.602 85.156 166.906 84.7641C166.209 84.3722 165.469 84.1548 164.642 84.1548C163.858 84.1548 163.118 84.3722 162.422 84.7641C161.725 85.156 161.159 85.7655 160.767 86.5055C160.332 87.2455 160.158 88.1597 160.158 89.1174C160.158 90.1188 160.376 90.9892 160.767 91.7295C161.203 92.4695 161.725 93.0791 162.422 93.4707C163.118 93.8626 163.858 94.0802 164.642 94.0802C165.469 94.0802 166.209 93.8626 166.906 93.4707Z" fill="white"/>
<path d="M173.523 82.4568H175.7V84.416H175.787C176.222 83.7194 176.832 83.1534 177.615 82.718C178.399 82.2826 179.357 82.0215 180.401 82.0215C181.533 82.0215 182.578 82.3264 183.536 82.9357C184.493 83.5452 185.277 84.3725 185.843 85.4606C186.409 86.549 186.714 87.7243 186.714 89.0739C186.714 90.4234 186.409 91.5988 185.843 92.6872C185.277 93.7756 184.493 94.6026 183.536 95.2121C182.578 95.8217 181.533 96.1263 180.401 96.1263C179.357 96.1263 178.399 95.9086 177.615 95.4298C176.788 94.9944 176.179 94.3849 175.787 93.6884H175.7L175.787 95.5167V101.437H173.523V82.4568ZM182.273 93.4707C182.926 93.0791 183.492 92.4695 183.884 91.7295C184.276 90.9892 184.493 90.075 184.493 89.1174C184.493 88.1162 184.276 87.2455 183.884 86.5055C183.492 85.7655 182.97 85.156 182.273 84.7641C181.62 84.3722 180.88 84.1548 180.097 84.1548C179.313 84.1548 178.573 84.3722 177.92 84.7641C177.267 85.156 176.701 85.7217 176.309 86.5055C175.917 87.2455 175.7 88.1597 175.7 89.1609C175.7 90.1623 175.917 91.033 176.309 91.8165C176.701 92.6 177.223 93.166 177.92 93.5579C178.573 93.9495 179.313 94.1672 180.097 94.1672C180.88 94.1672 181.577 93.8626 182.273 93.4707Z" fill="white"/>
<path d="M192.024 95.2121C191.023 94.6026 190.239 93.7756 189.674 92.6872C189.108 91.5988 188.803 90.4234 188.803 89.0739C188.803 87.8116 189.064 86.5925 189.586 85.5478C190.109 84.4594 190.892 83.6322 191.85 82.9792C192.852 82.3264 193.983 82.0215 195.246 82.0215C196.508 82.0215 197.64 82.3264 198.641 82.8922C199.599 83.458 200.339 84.2852 200.862 85.3301C201.384 86.3748 201.645 87.5939 201.645 88.9435C201.645 89.2046 201.645 89.3785 201.602 89.4658H191.067C191.11 90.4669 191.328 91.2942 191.807 91.9907C192.242 92.6872 192.808 93.2095 193.461 93.5144C194.114 93.8626 194.81 94.0368 195.55 94.0368C197.205 94.0368 198.511 93.2095 199.425 91.5988L201.427 92.5565C200.862 93.6449 200.078 94.4721 199.077 95.1251C198.075 95.7779 196.856 96.0828 195.463 96.0828C194.201 96.1263 193.026 95.8217 192.024 95.2121ZM199.294 87.5939C199.251 87.0713 199.12 86.5055 198.859 85.9832C198.598 85.4606 198.163 84.9818 197.553 84.6336C196.943 84.2418 196.203 84.0676 195.289 84.0676C194.288 84.0676 193.417 84.3725 192.721 85.0252C191.981 85.6783 191.545 86.5055 191.328 87.5939H199.294Z" fill="white"/>
<path d="M203.996 82.4573H206.173V84.6341H206.26C206.521 83.8938 207 83.2845 207.784 82.8057C208.567 82.3269 209.351 82.0654 210.091 82.0654C210.657 82.0654 211.179 82.1527 211.658 82.3269V84.7645C211.179 84.5034 210.57 84.3729 209.786 84.3729C209.177 84.3729 208.567 84.5469 208.045 84.9387C207.523 85.2871 207.087 85.8095 206.739 86.4187C206.434 87.0283 206.26 87.6813 206.26 88.4213V95.8221H203.996V82.4573Z" fill="white"/>
<path d="M221.584 95.5169C220.67 95.1253 219.886 94.5157 219.19 93.7757C218.493 92.992 218.014 92.0778 217.709 90.9459L219.886 90.0752C220.191 91.2071 220.757 92.165 221.584 92.8616C222.411 93.6015 223.369 93.9497 224.457 93.9497C225.589 93.9497 226.503 93.645 227.287 93.0355C228.07 92.4262 228.419 91.6424 228.419 90.5978C228.419 89.7271 228.114 88.9871 227.461 88.3775C226.808 87.8117 225.763 87.2457 224.283 86.7668L223.064 86.3315C221.715 85.8526 220.626 85.1996 219.755 84.4161C218.885 83.6324 218.493 82.5442 218.493 81.1509C218.493 80.2367 218.754 79.4098 219.233 78.626C219.712 77.8425 220.408 77.233 221.323 76.7541C222.193 76.2753 223.195 76.0576 224.283 76.0576C225.371 76.0576 226.372 76.2753 227.2 76.6672C228.027 77.0591 228.68 77.5814 229.159 78.1472C229.638 78.7567 229.986 79.3225 230.16 79.8886L228.07 80.8028C227.853 80.1063 227.461 79.5402 226.851 79.0179C226.242 78.4956 225.415 78.2344 224.37 78.2344C223.412 78.2344 222.542 78.4956 221.845 79.0614C221.148 79.6274 220.8 80.324 220.8 81.1509C220.8 81.8912 221.105 82.5005 221.671 82.9793C222.237 83.4584 223.151 83.8935 224.326 84.2854L225.546 84.7207C227.156 85.2868 228.419 86.0268 229.333 86.941C230.247 87.8117 230.726 89.0306 230.726 90.5543C230.726 91.7732 230.421 92.8178 229.768 93.645C229.115 94.4723 228.332 95.0815 227.374 95.4734C226.416 95.8653 225.415 96.083 224.37 96.083C223.412 96.1265 222.498 95.9523 221.584 95.5169Z" fill="white"/>
<path d="M236.254 95.8648C235.819 95.6906 235.427 95.4295 235.079 95.1248C234.731 94.7764 234.47 94.3846 234.295 93.9057C234.121 93.4269 234.034 92.9046 234.034 92.2515V84.5026H231.683V82.4565H234.034V78.4951H236.298V82.4565H239.563V84.5026H236.298V91.7292C236.298 92.5127 236.428 93.0788 236.733 93.4269C237.038 93.8188 237.517 94.0365 238.126 94.0365C238.692 94.0365 239.171 93.9057 239.563 93.6446V95.8214C239.258 95.9083 238.997 95.9953 238.736 96.039C238.474 96.0825 238.126 96.126 237.691 96.126C237.168 96.126 236.69 96.039 236.254 95.8648Z" fill="white"/>
<path d="M243.089 94.7329C242.262 93.7753 241.827 92.4692 241.827 90.815V82.5H244.09V90.4666C244.09 92.9046 245.179 94.1234 247.355 94.1234C248.095 94.1234 248.748 93.9057 249.314 93.5141C249.88 93.1222 250.359 92.5562 250.664 91.9031C250.969 91.2504 251.143 90.5538 251.143 89.8136V82.5H253.407V95.7341H251.273V93.7753H251.186C250.794 94.4718 250.185 95.0376 249.401 95.4729C248.618 95.9518 247.747 96.1695 246.833 96.1695C245.179 96.126 243.916 95.6471 243.089 94.7329Z" fill="white"/>
<path d="M258.717 95.2124C257.76 94.6028 256.976 93.7759 256.41 92.6875C255.844 91.5991 255.54 90.4237 255.54 89.0742C255.54 87.7246 255.844 86.5493 256.41 85.4609C256.976 84.3725 257.76 83.5455 258.717 82.936C259.675 82.3267 260.72 82.0218 261.852 82.0218C262.897 82.0218 263.811 82.2395 264.638 82.7183C265.465 83.1537 266.075 83.7197 266.466 84.4163H266.553L266.466 82.5879V76.5801H268.73V95.6912H266.597V93.7321H266.51C266.118 94.4286 265.465 94.9947 264.682 95.4736C263.854 95.9089 262.94 96.1701 261.895 96.1701C260.72 96.1266 259.675 95.8217 258.717 95.2124ZM264.377 93.471C265.03 93.0794 265.596 92.4698 265.987 91.7298C266.379 90.9461 266.597 90.0753 266.597 89.0742C266.597 88.073 266.379 87.1588 265.987 86.4186C265.596 85.6786 265.073 85.0693 264.377 84.6774C263.724 84.2855 262.984 84.0679 262.2 84.0679C261.416 84.0679 260.676 84.2855 260.023 84.6774C259.37 85.0693 258.804 85.6786 258.413 86.4186C258.021 87.1588 257.803 88.073 257.803 89.0307C257.803 90.0319 258.021 90.9026 258.413 91.6426C258.804 92.3829 259.327 92.9921 260.023 93.384C260.676 93.7759 261.416 93.9936 262.2 93.9936C262.984 94.0805 263.724 93.8629 264.377 93.471Z" fill="white"/>
<path d="M274.128 95.2121C273.127 94.6026 272.343 93.7756 271.777 92.6872C271.211 91.5988 270.907 90.4234 270.907 89.0739C270.907 87.8116 271.168 86.5925 271.69 85.5478C272.212 84.4594 272.996 83.6322 273.954 82.9792C274.955 82.3264 276.087 82.0215 277.35 82.0215C278.612 82.0215 279.744 82.3264 280.744 82.8922C281.704 83.458 282.444 84.2852 282.966 85.3301C283.488 86.3748 283.749 87.5939 283.749 88.9435C283.749 89.2046 283.749 89.3785 283.707 89.4658H273.17C273.214 90.4669 273.432 91.2942 273.91 91.9907C274.346 92.6872 274.912 93.2095 275.565 93.5144C276.218 93.8626 276.914 94.0368 277.654 94.0368C279.308 94.0368 280.615 93.2095 281.53 91.5988L283.53 92.5565C282.966 93.6449 282.181 94.4721 281.179 95.1251C280.179 95.7779 278.96 96.0828 277.567 96.0828C276.305 96.1263 275.129 95.8217 274.128 95.2121ZM281.398 87.5939C281.356 87.0713 281.224 86.5055 280.963 85.9832C280.702 85.4606 280.266 84.9818 279.657 84.6336C279.047 84.2418 278.307 84.0676 277.393 84.0676C276.392 84.0676 275.521 84.3725 274.825 85.0252C274.084 85.6783 273.649 86.5055 273.432 87.5939H281.398Z" fill="white"/>
<path d="M286.099 82.4568H288.276V84.416H288.363C288.756 83.7194 289.32 83.1534 290.147 82.718C290.933 82.2392 291.802 82.0215 292.717 82.0215C294.327 82.0215 295.589 82.5003 296.417 83.458C297.244 84.416 297.679 85.6783 297.679 87.3325V95.7344H295.415V87.6809C295.415 85.2864 294.285 84.111 292.063 84.111C291.367 84.111 290.714 84.3287 290.147 84.7206C289.583 85.1125 289.146 85.6783 288.843 86.3313C288.537 86.9843 288.363 87.6809 288.363 88.4209V95.7344H286.099V82.4568Z" fill="white"/>
<path d="M303.556 95.8648C303.121 95.6906 302.728 95.4295 302.38 95.1248C302.033 94.7764 301.772 94.3846 301.598 93.9057C301.424 93.4269 301.337 92.9046 301.337 92.2515V84.5026H298.986V82.4565H301.337V78.4951H303.601V82.4565H306.866V84.5026H303.601V91.7292C303.601 92.5127 303.73 93.0788 304.035 93.4269C304.341 93.8188 304.818 94.0365 305.43 94.0365C305.993 94.0365 306.473 93.9057 306.866 93.6446V95.8214C306.56 95.9083 306.299 95.9953 306.038 96.039C305.777 96.0825 305.43 96.126 304.992 96.126C304.515 96.126 304.035 96.039 303.556 95.8648Z" fill="white"/>
<path d="M319.012 94.8199C317.486 93.9494 316.311 92.7303 315.441 91.2068C314.571 89.6831 314.134 87.9851 314.134 86.1133C314.134 84.2414 314.571 82.5872 315.441 81.02C316.311 79.4962 317.486 78.2774 319.012 77.4067C320.535 76.5359 322.187 76.1006 324.016 76.1006C325.453 76.1006 326.76 76.362 327.977 76.9278C329.153 77.4501 330.199 78.2339 331.026 79.2351L329.416 80.8023C328.718 79.9316 327.89 79.2785 327.021 78.8869C326.151 78.4951 325.15 78.2774 324.016 78.2774C322.667 78.2774 321.363 78.582 320.229 79.2351C319.054 79.8881 318.14 80.8023 317.444 81.9776C316.748 83.153 316.398 84.546 316.398 86.0698C316.398 87.637 316.748 88.9866 317.444 90.1619C318.14 91.3373 319.054 92.2515 320.229 92.9045C321.405 93.5576 322.667 93.8622 324.016 93.8622C326.367 93.8622 328.328 92.9045 329.938 90.9892L331.548 92.5999C330.679 93.6445 329.59 94.4718 328.283 95.081C326.979 95.6906 325.54 95.9952 323.974 95.9952C322.232 96.1259 320.535 95.6906 319.012 94.8199Z" fill="white"/>
<path d="M336.076 76.5801H333.812V95.6912H336.076V76.5801Z" fill="white"/>
<path d="M340.298 94.7329C339.47 93.7753 339.035 92.4692 339.035 90.815V82.5H341.299V90.4666C341.299 92.9046 342.387 94.1234 344.564 94.1234C345.305 94.1234 345.958 93.9057 346.522 93.5141C347.089 93.1222 347.568 92.5562 347.874 91.9031C348.177 91.2504 348.351 90.5538 348.351 89.8136V82.5H350.615V95.7341H348.483V93.7753H348.396C348.003 94.4718 347.395 95.0376 346.609 95.4729C345.826 95.9518 344.957 96.1695 344.042 96.1695C342.387 96.126 341.17 95.6471 340.298 94.7329Z" fill="white"/>
<path d="M357.754 95.4736C356.926 95.0382 356.318 94.4286 355.928 93.7321H355.841V95.6912H353.664V76.5801H355.928V82.5879L355.841 84.4163H355.928C356.363 83.7197 356.971 83.1537 357.754 82.7183C358.539 82.2829 359.496 82.0218 360.542 82.0218C361.673 82.0218 362.719 82.3267 363.676 82.936C364.632 83.5455 365.418 84.3725 365.981 85.4609C366.548 86.5493 366.854 87.7246 366.854 89.0742C366.854 90.4237 366.548 91.5991 365.981 92.6875C365.418 93.7759 364.632 94.6028 363.676 95.2124C362.719 95.8217 361.673 96.1266 360.542 96.1266C359.496 96.1266 358.581 95.9089 357.754 95.4736ZM362.413 93.471C363.067 93.0794 363.631 92.4698 364.023 91.7298C364.416 90.9895 364.632 90.0753 364.632 89.1177C364.632 88.1165 364.416 87.2458 364.023 86.5058C363.631 85.7658 363.109 85.1562 362.413 84.7644C361.76 84.3725 361.019 84.1551 360.236 84.1551C359.454 84.1551 358.713 84.3725 358.06 84.7644C357.406 85.1562 356.839 85.722 356.45 86.5058C356.057 87.2458 355.841 88.16 355.841 89.1611C355.841 90.1626 356.057 91.0333 356.45 91.8168C356.839 92.6003 357.364 93.1663 358.06 93.5582C358.713 93.9498 359.454 94.1675 360.236 94.1675C361.019 94.0805 361.718 93.8629 362.413 93.471Z" fill="white"/>
<path d="M370.119 95.0811C369.16 94.3845 368.464 93.4703 368.071 92.4257L370.074 91.555C370.422 92.3822 370.946 93.035 371.597 93.4703C372.251 93.9057 372.949 94.1234 373.732 94.1234C374.602 94.1234 375.3 93.9492 375.864 93.5576C376.43 93.1657 376.691 92.7304 376.691 92.208C376.691 91.6857 376.475 91.2504 376.083 90.9454C375.648 90.5973 374.949 90.2924 373.948 90.0747L372.122 89.6396C371.12 89.422 370.293 88.9866 369.552 88.377C368.857 87.7675 368.509 86.984 368.509 85.9829C368.509 85.1556 368.725 84.4591 369.204 83.893C369.684 83.2838 370.293 82.8484 371.075 82.5438C371.861 82.2388 372.73 82.1084 373.645 82.1084C374.775 82.1084 375.822 82.3696 376.736 82.8919C377.651 83.4142 378.346 84.1545 378.739 85.1121L376.736 85.9829C376.43 85.3298 376.038 84.851 375.429 84.5461C374.862 84.2414 374.212 84.1107 373.513 84.1107C372.817 84.1107 372.209 84.2849 371.642 84.6333C371.075 84.9814 370.815 85.4168 370.815 85.9391C370.815 86.4179 370.988 86.7663 371.381 87.0275C371.729 87.2886 372.338 87.5498 373.123 87.7675L375.081 88.2463C376.388 88.5947 377.387 89.0736 378.041 89.7701C378.694 90.4231 379 91.2504 379 92.1646C379 92.948 378.781 93.6445 378.346 94.2541C377.912 94.8634 377.258 95.386 376.475 95.7341C375.69 96.0825 374.775 96.2567 373.732 96.2567C372.296 96.126 371.12 95.7776 370.119 95.0811Z" fill="white"/>
<path d="M223.126 25.6492L240.304 15.7086C244.315 13.3542 245.71 8.20959 243.356 4.19849C241.001 0.187397 235.857 -1.20777 231.845 1.14657L202.198 18.2374L223.126 25.6492Z" fill="#EA4335"/>
<path d="M236.031 51.1106C238.909 51.1106 241.786 49.6283 243.356 46.925C245.71 42.9139 244.315 37.7693 240.304 35.415L210.657 18.3243C206.646 15.97 201.501 17.3651 199.146 21.3762C196.792 25.3873 198.187 30.532 202.198 32.8864L231.846 49.977C233.154 50.7619 234.636 51.1106 236.031 51.1106Z" fill="#4285F4"/>
<path d="M265.504 51.1113C266.899 51.1113 268.382 50.7626 269.689 49.9777L299.337 32.8871L278.671 25.3008L261.231 35.3284C257.22 37.6828 255.825 42.8277 258.179 46.8388C259.749 49.629 262.627 51.1113 265.504 51.1113Z" fill="#FBBC04"/>
<path d="M295.152 34.0199C298.029 34.0199 300.907 32.5374 302.476 29.8344C304.831 25.8232 303.436 20.6786 299.424 18.3242L269.777 1.23348C265.766 -1.12086 260.621 0.274331 258.267 4.28542C255.913 8.29652 257.308 13.4411 261.319 15.7955L290.966 32.8864C292.274 33.671 293.756 34.0199 295.152 34.0199Z" fill="#34A853"/>
</g>
<defs>
<clipPath id="clip0_105_81">
<rect width="502" height="102" fill="white"/>
</clipPath>
</defs>
</svg>
