<svg width="966" height="94" viewBox="0 0 966 94" fill="none" xmlns="http://www.w3.org/2000/svg">
<path d="M0.272365 2.30472H17.1842V38.1327H54.8913V2.30472H71.8031V92H54.8913V54.1676H17.1842V92H0.272365V2.30472ZM117.572 2.30472H136.989L170.687 92H152.022L144.505 70.5784H110.181L102.664 92H83.9986L117.572 2.30472ZM138.993 55.0445L131.101 32.4954L127.844 21.722H126.842L123.585 32.4954L115.567 55.0445H138.993ZM222.819 94.0044C214.134 94.0044 206.2 91.9582 199.018 87.866C191.835 83.6902 186.156 78.053 181.98 70.9542C177.888 63.7719 175.842 55.8379 175.842 47.1524C175.842 38.4668 177.888 30.5746 181.98 23.4758C186.156 16.2935 191.835 10.6562 199.018 6.56399C206.2 2.38823 214.134 0.300351 222.819 0.300351C236.349 0.300351 247.54 5.18599 256.392 14.9573L244.492 26.4824C238.729 19.7176 231.547 16.3353 222.945 16.3353C217.349 16.3353 212.255 17.6297 207.661 20.2187C203.068 22.7242 199.435 26.3153 196.763 30.9922C194.174 35.669 192.879 41.0558 192.879 47.1524C192.879 53.249 194.174 58.6357 196.763 63.3125C199.435 67.9894 203.068 71.6223 207.661 74.2113C212.255 76.7167 217.349 77.9695 222.945 77.9695C232.382 77.9695 240.274 74.0442 246.621 66.1938L258.647 77.5936C254.221 82.9386 248.96 87.0308 242.863 89.8704C236.85 92.6264 230.169 94.0044 222.819 94.0044ZM274.306 2.30472H291.218V40.7634H292.22L325.042 2.30472H345.461V3.3069L313.016 40.3876L348.844 90.9978V92H328.174L301.365 53.7918L291.218 65.6927V92H274.306V2.30472ZM359.82 2.30472H416.694V18.3396H376.732V40.1371H412.685V56.172H376.732V92H359.82V2.30472ZM431.631 2.30472H488.505V18.3396H448.543V39.1349H484.496V55.1698H448.543V75.9651H488.505V92H431.631V2.30472ZM532.949 94.0044C525.098 94.0044 518.166 91.7912 512.153 87.3649C506.14 82.9386 501.923 76.675 499.501 68.574L515.41 62.3104C516.663 67.0707 518.793 70.8707 521.799 73.7102C524.806 76.5497 528.564 77.9695 533.074 77.9695C536.832 77.9695 540.047 77.0508 542.72 75.2135C545.392 73.2926 546.729 70.6619 546.729 67.3213C546.729 63.9807 545.434 61.2664 542.845 59.1785C540.34 57.0071 535.83 54.7105 529.316 52.2885L523.804 50.2842C518.041 48.2798 513.114 45.2315 509.022 41.1393C504.929 36.9635 502.883 31.7438 502.883 25.4802C502.883 20.8033 504.094 16.5441 506.516 12.7024C508.938 8.86066 512.362 5.85411 516.788 3.68272C521.215 1.42781 526.226 0.300351 531.821 0.300351C539.922 0.300351 546.311 2.2212 550.988 6.0629C555.665 9.82108 558.88 14.2474 560.634 19.3418L545.726 25.6054C544.808 22.8494 543.179 20.5528 540.841 18.7154C538.586 16.7946 535.663 15.8342 532.072 15.8342C528.397 15.8342 525.349 16.7111 522.927 18.4649C520.588 20.1352 519.419 22.3484 519.419 25.1044C519.419 27.7768 520.547 30.0735 522.802 31.9944C525.056 33.8317 528.773 35.6273 533.951 37.3811L539.588 39.2602C547.355 41.9327 553.285 45.4821 557.377 49.9084C561.553 54.2511 563.64 59.9719 563.64 67.0707C563.64 72.9168 562.137 77.8859 559.131 81.9782C556.124 85.9869 552.241 88.9935 547.48 90.9978C542.803 93.0022 537.96 94.0044 532.949 94.0044ZM596.6 18.3396H571.545V2.30472H638.566V18.3396H613.512V92H596.6V18.3396ZM677.685 77.0925C680.441 74.3365 685.744 69.0333 693.594 61.1829C701.528 53.249 706.623 48.071 708.878 45.6491C711.884 42.392 713.93 39.6778 715.016 37.5064C716.185 35.335 716.77 32.8713 716.77 30.1153C716.77 27.1922 715.684 24.7285 713.513 22.7242C711.341 20.7198 708.46 19.7176 704.869 19.7176C701.361 19.7176 698.522 20.7198 696.35 22.7242C694.179 24.7285 692.634 27.234 691.715 30.2405L676.933 24.1022C677.852 20.8451 679.522 17.7133 681.944 14.7067C684.449 11.6167 687.665 9.1112 691.59 7.19035C695.515 5.2695 700.025 4.30908 705.119 4.30908C710.798 4.30908 715.768 5.43653 720.027 7.69144C724.286 9.86284 727.585 12.8694 729.923 16.7111C732.262 20.4693 733.431 24.6868 733.431 29.3636C733.431 38.6338 728.921 47.6952 719.902 56.5478C716.227 60.139 709.42 66.9037 699.482 76.842L699.858 77.5936H734.558V92H677.685V77.0925ZM782.997 94.0044C775.815 94.0044 769.509 92.0835 764.081 88.2418C758.652 84.3166 754.435 78.9716 751.428 72.2069C748.505 65.3587 747.044 57.6753 747.044 49.1567C747.044 40.6382 748.505 32.9965 751.428 26.2318C754.435 19.3836 758.652 14.0386 764.081 10.1969C769.509 6.27168 775.815 4.30908 782.997 4.30908C790.179 4.30908 796.485 6.27168 801.913 10.1969C807.342 14.0386 811.517 19.3836 814.44 26.2318C817.447 32.9965 818.95 40.6382 818.95 49.1567C818.95 57.6753 817.447 65.3587 814.44 72.2069C811.517 78.9716 807.342 84.3166 801.913 88.2418C796.485 92.0835 790.179 94.0044 782.997 94.0044ZM782.997 78.5958C787.006 78.5958 790.472 77.3431 793.395 74.8376C796.401 72.2487 798.656 68.741 800.159 64.3147C801.746 59.8049 802.539 54.7522 802.539 49.1567C802.539 40.4711 800.786 33.4141 797.278 27.9856C793.77 22.4736 789.01 19.7176 782.997 19.7176C777.067 19.7176 772.349 22.4736 768.841 27.9856C765.333 33.4976 763.58 40.5547 763.58 49.1567C763.58 54.7522 764.331 59.8049 765.835 64.3147C767.421 68.741 769.676 72.2487 772.599 74.8376C775.606 77.3431 779.072 78.5958 782.997 78.5958ZM830.605 77.0925C833.361 74.3365 838.665 69.0333 846.515 61.1829C854.449 53.249 859.543 48.071 861.798 45.6491C864.805 42.392 866.851 39.6778 867.937 37.5064C869.106 35.335 869.691 32.8713 869.691 30.1153C869.691 27.1922 868.605 24.7285 866.433 22.7242C864.262 20.7198 861.381 19.7176 857.79 19.7176C854.282 19.7176 851.443 20.7198 849.271 22.7242C847.1 24.7285 845.555 27.234 844.636 30.2405L829.854 24.1022C830.773 20.8451 832.443 17.7133 834.865 14.7067C837.37 11.6167 840.586 9.1112 844.511 7.19035C848.436 5.2695 852.946 4.30908 858.04 4.30908C863.719 4.30908 868.688 5.43653 872.948 7.69144C877.207 9.86284 880.506 12.8694 882.844 16.7111C885.183 20.4693 886.352 24.6868 886.352 29.3636C886.352 38.6338 881.842 47.6952 872.822 56.5478C869.148 60.139 862.341 66.9037 852.403 76.842L852.779 77.5936H887.479V92H830.605V77.0925ZM938.924 76.2156H899.463V62.9367L937.546 6.31345H955.335V60.9324H965.983V76.2156H955.335V92H938.924V76.2156ZM938.924 60.9324V30.7416H937.922L917.628 60.9324H938.924Z" fill="#166CF3"/>
</svg>
