<svg width="972" height="95" viewBox="0 0 972 95" fill="none" xmlns="http://www.w3.org/2000/svg">
<path d="M0 2.03209H17.1375V38.3556H55.3479V2.03209H72.4854V92.9679H55.3479V54.6123H17.1375V92.9679H0V2.03209ZM118.865 2.03209H138.541L172.689 92.9679H153.775L146.158 71.25H111.375L103.758 92.9679H84.8437L118.865 2.03209ZM140.572 55.5013L132.575 32.6404L129.274 21.7179H128.259L124.958 32.6404L116.834 55.5013H140.572ZM225.517 95C216.716 95 208.675 92.9256 201.398 88.7767C194.12 84.5433 188.365 78.8281 184.133 71.631C179.986 64.3494 177.913 56.3056 177.913 47.5C177.913 38.6944 179.986 30.693 184.133 23.496C188.365 16.2143 194.12 10.4991 201.398 6.35027C208.675 2.11675 216.716 0 225.517 0C239.227 0 250.567 4.95321 259.539 14.8596L247.479 26.5441C241.639 19.6858 234.362 16.2567 225.644 16.2567C219.973 16.2567 214.812 17.5691 210.157 20.1939C205.502 22.734 201.82 26.3748 199.113 31.1163C196.489 35.8578 195.178 41.319 195.178 47.5C195.178 53.681 196.489 59.1422 199.113 63.8837C201.82 68.6252 205.502 72.3083 210.157 74.9332C214.812 77.4733 219.973 78.7433 225.644 78.7433C235.207 78.7433 243.204 74.7639 249.637 66.8048L261.824 78.3623C257.339 83.7813 252.007 87.93 245.828 90.8088C239.735 93.6029 232.965 95 225.517 95ZM277.692 2.03209H294.829V41.0227H295.845L329.104 2.03209H349.796V3.04813L316.918 40.6417L353.224 91.9519V92.9679H332.278L305.112 54.2313L294.829 66.2968V92.9679H277.692V2.03209ZM364.347 2.03209H421.98V18.2888H381.485V40.3877H417.918V56.6444H381.485V92.9679H364.347V2.03209ZM437.116 2.03209H494.749V18.2888H454.254V39.3717H490.687V55.6283H454.254V76.7112H494.749V92.9679H437.116V2.03209ZM539.787 95C531.831 95 524.807 92.7562 518.712 88.2687C512.621 83.7813 508.346 77.431 505.893 69.2179L522.015 62.8677C523.284 67.6939 525.442 71.5463 528.489 74.4251C531.536 77.304 535.344 78.7433 539.914 78.7433C543.722 78.7433 546.979 77.812 549.689 75.9492C552.396 74.0019 553.751 71.3347 553.751 67.9479C553.751 64.561 552.438 61.8093 549.816 59.6925C547.277 57.4912 542.707 55.1626 536.106 52.7072L530.52 50.6751C524.681 48.6431 519.686 45.5527 515.54 41.4037C511.393 37.1703 509.32 31.8783 509.32 25.5281C509.32 20.7866 510.546 16.4684 513.002 12.5735C515.455 8.6787 518.924 5.63057 523.411 3.42915C527.896 1.14305 532.974 0 538.644 0C546.852 0 553.326 1.94741 558.067 5.84225C562.806 9.65241 566.064 14.1399 567.842 19.3048L552.735 25.6551C551.803 22.861 550.153 20.5326 547.784 18.6698C545.499 16.7224 542.536 15.7487 538.898 15.7487C535.173 15.7487 532.085 16.6377 529.631 18.4158C527.261 20.1091 526.077 22.3529 526.077 25.1471C526.077 27.8564 527.219 30.185 529.504 32.1324C531.789 33.9952 535.554 35.8155 540.802 37.5936L546.515 39.4987C554.386 42.2081 560.394 45.8067 564.541 50.2941C568.772 54.697 570.888 60.4968 570.888 67.6939C570.888 73.6208 569.365 78.6586 566.318 82.8075C563.272 86.8717 559.336 89.9198 554.513 91.9519C549.772 93.984 544.865 95 539.787 95ZM604.287 18.2888H578.898V2.03209H646.813V18.2888H621.424V92.9679H604.287V18.2888ZM686.454 77.8543C689.247 75.0602 694.62 69.6837 702.576 61.7246C710.615 53.681 715.778 48.4313 718.063 45.9759C721.11 42.6738 723.182 39.922 724.283 37.7206C725.467 35.5192 726.06 33.0214 726.06 30.2273C726.06 27.2639 724.96 24.766 722.76 22.734C720.56 20.7019 717.64 19.6858 714.001 19.6858C710.446 19.6858 707.568 20.7019 705.369 22.734C703.169 24.766 701.602 27.3062 700.672 30.3543L685.692 24.131C686.622 20.8289 688.316 17.6537 690.77 14.6056C693.309 11.4728 696.568 8.93271 700.545 6.9853C704.522 5.03787 709.091 4.06418 714.255 4.06418C720.009 4.06418 725.045 5.20722 729.361 7.49332C733.677 9.69474 737.019 12.7429 739.39 16.6377C741.76 20.4479 742.944 24.7238 742.944 29.4652C742.944 38.8636 738.374 48.0503 729.234 57.0254C725.511 60.6663 718.612 67.5246 708.542 77.6003L708.923 78.3623H744.087V92.9679H686.454V77.8543ZM793.173 95C785.893 95 779.504 93.0527 774.004 89.1578C768.502 85.1783 764.229 79.7594 761.182 72.9011C758.219 65.958 756.739 58.1685 756.739 49.5321C756.739 40.8957 758.219 33.1484 761.182 26.2901C764.229 19.3471 768.502 13.9282 774.004 10.0334C779.504 6.05391 785.893 4.06418 793.173 4.06418C800.45 4.06418 806.839 6.05391 812.341 10.0334C817.842 13.9282 822.072 19.3471 825.034 26.2901C828.082 33.1484 829.606 40.8957 829.606 49.5321C829.606 58.1685 828.082 65.958 825.034 72.9011C822.072 79.7594 817.842 85.1783 812.341 89.1578C806.839 93.0527 800.45 95 793.173 95ZM793.173 79.3783C797.235 79.3783 800.746 78.1083 803.709 75.5682C806.756 72.9433 809.041 69.3872 810.564 64.8997C812.171 60.3275 812.976 55.2051 812.976 49.5321C812.976 40.7265 811.199 33.5717 807.644 28.0682C804.09 22.48 799.266 19.6858 793.173 19.6858C787.163 19.6858 782.382 22.48 778.828 28.0682C775.273 33.6564 773.496 40.811 773.496 49.5321C773.496 55.2051 774.258 60.3275 775.781 64.8997C777.388 69.3872 779.673 72.9433 782.636 75.5682C785.683 78.1083 789.194 79.3783 793.173 79.3783ZM841.416 77.8543C844.208 75.0602 849.582 69.6837 857.538 61.7246C865.577 53.681 870.74 48.4313 873.025 45.9759C876.071 42.6738 878.144 39.922 879.245 37.7206C880.429 35.5192 881.022 33.0214 881.022 30.2273C881.022 27.2639 879.921 24.766 877.722 22.734C875.522 20.7019 872.602 19.6858 868.963 19.6858C865.408 19.6858 862.53 20.7019 860.33 22.734C858.131 24.766 856.564 27.3062 855.633 30.3543L840.654 24.131C841.584 20.8289 843.278 17.6537 845.732 14.6056C848.271 11.4728 851.529 8.93271 855.506 6.9853C859.483 5.03787 864.053 4.06418 869.216 4.06418C874.971 4.06418 880.007 5.20722 884.323 7.49332C888.639 9.69474 891.981 12.7429 894.352 16.6377C896.722 20.4479 897.906 24.7238 897.906 29.4652C897.906 38.8636 893.336 48.0503 884.196 57.0254C880.473 60.6663 873.574 67.5246 863.504 77.6003L863.885 78.3623H899.048V92.9679H841.416V77.8543ZM941.533 95C934.171 95 927.653 93.0527 921.984 89.1578C916.398 85.2629 912.546 79.5901 910.432 72.139L926.173 65.9158C927.189 70.0647 929.007 73.2821 931.632 75.5682C934.254 77.7695 937.554 78.8703 941.533 78.8703C945.171 78.8703 948.303 77.7695 950.927 75.5682C953.635 73.3668 954.989 70.5727 954.989 67.1858C954.989 63.5449 953.549 60.6663 950.673 58.5495C947.881 56.3481 944.072 55.2473 939.248 55.2473H931.759V40.1337H938.614C942.337 40.1337 945.469 39.2024 948.007 37.3396C950.63 35.4768 951.943 32.7674 951.943 29.2112C951.943 26.3324 950.884 23.9617 948.769 22.0989C946.653 20.2361 943.945 19.3048 940.645 19.3048C937.174 19.3048 934.381 20.2361 932.266 22.0989C930.15 23.9617 928.668 26.2901 927.823 29.0842L912.717 22.861C914.494 17.7808 917.751 13.3779 922.492 9.65241C927.315 5.92691 933.409 4.06418 940.772 4.06418C946.187 4.06418 951.011 5.08022 955.243 7.11231C959.559 9.14439 962.902 11.9385 965.272 15.4947C967.64 18.9661 968.826 22.9032 968.826 27.3062C968.826 31.9631 967.726 35.9425 965.526 39.2447C963.409 42.5468 960.829 44.9599 957.782 46.484V47.5C962.013 49.1933 965.441 51.8605 968.065 55.5013C970.687 59.1422 972 63.545 972 68.7099C972 73.7054 970.731 78.193 968.192 82.1725C965.653 86.1519 962.055 89.2848 957.401 91.5709C952.831 93.857 947.541 95 941.533 95Z" fill="#166CF3"/>
</svg>
