<svg width="801" height="659" viewBox="0 0 801 659" fill="none" xmlns="http://www.w3.org/2000/svg">
<g opacity="0.2">
<mask id="path-1-inside-1_37_310" fill="white">
<path d="M0 0H47.1034V47.1H0V0Z"/>
</mask>
<path d="M47.1034 47.1V48.1H48.1034V47.1H47.1034ZM46.1034 0V47.1H48.1034V0H46.1034ZM47.1034 46.1H0V48.1H47.1034V46.1Z" fill="#34A853" mask="url(#path-1-inside-1_37_310)"/>
<mask id="path-3-inside-2_37_310" fill="white">
<path d="M47.1035 0H94.2069V47.1H47.1035V0Z"/>
</mask>
<path d="M94.2069 47.1V48.1H95.2069V47.1H94.2069ZM93.2069 0V47.1H95.2069V0H93.2069ZM94.2069 46.1H47.1035V48.1H94.2069V46.1Z" fill="#34A853" mask="url(#path-3-inside-2_37_310)"/>
<mask id="path-5-inside-3_37_310" fill="white">
<path d="M94.2069 0H141.31V47.1H94.2069V0Z"/>
</mask>
<path d="M141.31 47.1V48.1H142.31V47.1H141.31ZM140.31 0V47.1H142.31V0H140.31ZM141.31 46.1H94.2069V48.1H141.31V46.1Z" fill="#34A853" mask="url(#path-5-inside-3_37_310)"/>
<mask id="path-7-inside-4_37_310" fill="white">
<path d="M141.31 0H188.414V47.1H141.31V0Z"/>
</mask>
<path d="M188.414 47.1V48.1H189.414V47.1H188.414ZM187.414 0V47.1H189.414V0H187.414ZM188.414 46.1H141.31V48.1H188.414V46.1Z" fill="#34A853" mask="url(#path-7-inside-4_37_310)"/>
<mask id="path-9-inside-5_37_310" fill="white">
<path d="M188.414 0H235.517V47.1H188.414V0Z"/>
</mask>
<path d="M235.517 47.1V48.1H236.517V47.1H235.517ZM234.517 0V47.1H236.517V0H234.517ZM235.517 46.1H188.414V48.1H235.517V46.1Z" fill="#34A853" mask="url(#path-9-inside-5_37_310)"/>
<mask id="path-11-inside-6_37_310" fill="white">
<path d="M235.517 0H282.621V47.1H235.517V0Z"/>
</mask>
<path d="M282.621 47.1V48.1H283.621V47.1H282.621ZM281.621 0V47.1H283.621V0H281.621ZM282.621 46.1H235.517V48.1H282.621V46.1Z" fill="#34A853" mask="url(#path-11-inside-6_37_310)"/>
<mask id="path-13-inside-7_37_310" fill="white">
<path d="M282.621 0H329.724V47.1H282.621V0Z"/>
</mask>
<path d="M329.724 47.1V48.1H330.724V47.1H329.724ZM328.724 0V47.1H330.724V0H328.724ZM329.724 46.1H282.621V48.1H329.724V46.1Z" fill="#34A853" mask="url(#path-13-inside-7_37_310)"/>
<mask id="path-15-inside-8_37_310" fill="white">
<path d="M329.724 0H376.828V47.1H329.724V0Z"/>
</mask>
<path d="M376.828 47.1V48.1H377.828V47.1H376.828ZM375.828 0V47.1H377.828V0H375.828ZM376.828 46.1H329.724V48.1H376.828V46.1Z" fill="#34A853" mask="url(#path-15-inside-8_37_310)"/>
<mask id="path-17-inside-9_37_310" fill="white">
<path d="M376.828 0H423.931V47.1H376.828V0Z"/>
</mask>
<path d="M423.931 47.1V48.1H424.931V47.1H423.931ZM422.931 0V47.1H424.931V0H422.931ZM423.931 46.1H376.828V48.1H423.931V46.1Z" fill="#34A853" mask="url(#path-17-inside-9_37_310)"/>
<mask id="path-19-inside-10_37_310" fill="white">
<path d="M423.931 0H471.034V47.1H423.931V0Z"/>
</mask>
<path d="M471.034 47.1V48.1H472.034V47.1H471.034ZM470.034 0V47.1H472.034V0H470.034ZM471.034 46.1H423.931V48.1H471.034V46.1Z" fill="#34A853" mask="url(#path-19-inside-10_37_310)"/>
<mask id="path-21-inside-11_37_310" fill="white">
<path d="M471.035 0H518.138V47.1H471.035V0Z"/>
</mask>
<path d="M518.138 47.1V48.1H519.138V47.1H518.138ZM517.138 0V47.1H519.138V0H517.138ZM518.138 46.1H471.035V48.1H518.138V46.1Z" fill="#34A853" mask="url(#path-21-inside-11_37_310)"/>
<mask id="path-23-inside-12_37_310" fill="white">
<path d="M518.138 0H565.241V47.1H518.138V0Z"/>
</mask>
<path d="M565.241 47.1V48.1H566.241V47.1H565.241ZM564.241 0V47.1H566.241V0H564.241ZM565.241 46.1H518.138V48.1H565.241V46.1Z" fill="#34A853" mask="url(#path-23-inside-12_37_310)"/>
<mask id="path-25-inside-13_37_310" fill="white">
<path d="M565.241 0H612.345V47.1H565.241V0Z"/>
</mask>
<path d="M612.345 47.1V48.1H613.345V47.1H612.345ZM611.345 0V47.1H613.345V0H611.345ZM612.345 46.1H565.241V48.1H612.345V46.1Z" fill="#34A853" mask="url(#path-25-inside-13_37_310)"/>
<mask id="path-27-inside-14_37_310" fill="white">
<path d="M612.345 0H659.448V47.1H612.345V0Z"/>
</mask>
<path d="M659.448 47.1V48.1H660.448V47.1H659.448ZM658.448 0V47.1H660.448V0H658.448ZM659.448 46.1H612.345V48.1H659.448V46.1Z" fill="#34A853" mask="url(#path-27-inside-14_37_310)"/>
<mask id="path-29-inside-15_37_310" fill="white">
<path d="M659.448 0H706.552V47.1H659.448V0Z"/>
</mask>
<path d="M706.552 47.1V48.1H707.552V47.1H706.552ZM705.552 0V47.1H707.552V0H705.552ZM706.552 46.1H659.448V48.1H706.552V46.1Z" fill="#34A853" mask="url(#path-29-inside-15_37_310)"/>
<mask id="path-31-inside-16_37_310" fill="white">
<path d="M706.552 0H753.655V47.1H706.552V0Z"/>
</mask>
<path d="M753.655 47.1V48.1H754.655V47.1H753.655ZM752.655 0V47.1H754.655V0H752.655ZM753.655 46.1H706.552V48.1H753.655V46.1Z" fill="#34A853" mask="url(#path-31-inside-16_37_310)"/>
<mask id="path-33-inside-17_37_310" fill="white">
<path d="M753.655 0H800.759V47.1H753.655V0Z"/>
</mask>
<path d="M800.759 47.1V48.1H801.759V47.1H800.759ZM799.759 0V47.1H801.759V0H799.759ZM800.759 46.1H753.655V48.1H800.759V46.1Z" fill="#34A853" mask="url(#path-33-inside-17_37_310)"/>
<mask id="path-35-inside-18_37_310" fill="white">
<path d="M0 376H47.1034V423.1H0V376Z"/>
</mask>
<path d="M47.1034 423.1V424.1H48.1034V423.1H47.1034ZM46.1034 376V423.1H48.1034V376H46.1034ZM47.1034 422.1H0V424.1H47.1034V422.1Z" fill="#34A853" mask="url(#path-35-inside-18_37_310)"/>
<mask id="path-37-inside-19_37_310" fill="white">
<path d="M47.1035 376H94.2069V423.1H47.1035V376Z"/>
</mask>
<path d="M94.2069 423.1V424.1H95.2069V423.1H94.2069ZM93.2069 376V423.1H95.2069V376H93.2069ZM94.2069 422.1H47.1035V424.1H94.2069V422.1Z" fill="#34A853" mask="url(#path-37-inside-19_37_310)"/>
<mask id="path-39-inside-20_37_310" fill="white">
<path d="M94.2069 376H141.31V423.1H94.2069V376Z"/>
</mask>
<path d="M141.31 423.1V424.1H142.31V423.1H141.31ZM140.31 376V423.1H142.31V376H140.31ZM141.31 422.1H94.2069V424.1H141.31V422.1Z" fill="#34A853" mask="url(#path-39-inside-20_37_310)"/>
<mask id="path-41-inside-21_37_310" fill="white">
<path d="M141.31 376H188.414V423.1H141.31V376Z"/>
</mask>
<path d="M188.414 423.1V424.1H189.414V423.1H188.414ZM187.414 376V423.1H189.414V376H187.414ZM188.414 422.1H141.31V424.1H188.414V422.1Z" fill="#34A853" mask="url(#path-41-inside-21_37_310)"/>
<mask id="path-43-inside-22_37_310" fill="white">
<path d="M188.414 376H235.517V423.1H188.414V376Z"/>
</mask>
<path d="M235.517 423.1V424.1H236.517V423.1H235.517ZM234.517 376V423.1H236.517V376H234.517ZM235.517 422.1H188.414V424.1H235.517V422.1Z" fill="#34A853" mask="url(#path-43-inside-22_37_310)"/>
<mask id="path-45-inside-23_37_310" fill="white">
<path d="M235.517 376H282.621V423.1H235.517V376Z"/>
</mask>
<path d="M282.621 423.1V424.1H283.621V423.1H282.621ZM281.621 376V423.1H283.621V376H281.621ZM282.621 422.1H235.517V424.1H282.621V422.1Z" fill="#34A853" mask="url(#path-45-inside-23_37_310)"/>
<mask id="path-47-inside-24_37_310" fill="white">
<path d="M282.621 376H329.724V423.1H282.621V376Z"/>
</mask>
<path d="M329.724 423.1V424.1H330.724V423.1H329.724ZM328.724 376V423.1H330.724V376H328.724ZM329.724 422.1H282.621V424.1H329.724V422.1Z" fill="#34A853" mask="url(#path-47-inside-24_37_310)"/>
<mask id="path-49-inside-25_37_310" fill="white">
<path d="M329.724 376H376.828V423.1H329.724V376Z"/>
</mask>
<path d="M376.828 423.1V424.1H377.828V423.1H376.828ZM375.828 376V423.1H377.828V376H375.828ZM376.828 422.1H329.724V424.1H376.828V422.1Z" fill="#34A853" mask="url(#path-49-inside-25_37_310)"/>
<mask id="path-51-inside-26_37_310" fill="white">
<path d="M376.828 376H423.931V423.1H376.828V376Z"/>
</mask>
<path d="M423.931 423.1V424.1H424.931V423.1H423.931ZM422.931 376V423.1H424.931V376H422.931ZM423.931 422.1H376.828V424.1H423.931V422.1Z" fill="#34A853" mask="url(#path-51-inside-26_37_310)"/>
<mask id="path-53-inside-27_37_310" fill="white">
<path d="M423.931 376H471.034V423.1H423.931V376Z"/>
</mask>
<path d="M471.034 423.1V424.1H472.034V423.1H471.034ZM470.034 376V423.1H472.034V376H470.034ZM471.034 422.1H423.931V424.1H471.034V422.1Z" fill="#34A853" mask="url(#path-53-inside-27_37_310)"/>
<mask id="path-55-inside-28_37_310" fill="white">
<path d="M471.035 376H518.138V423.1H471.035V376Z"/>
</mask>
<path d="M518.138 423.1V424.1H519.138V423.1H518.138ZM517.138 376V423.1H519.138V376H517.138ZM518.138 422.1H471.035V424.1H518.138V422.1Z" fill="#34A853" mask="url(#path-55-inside-28_37_310)"/>
<mask id="path-57-inside-29_37_310" fill="white">
<path d="M518.138 376H565.241V423.1H518.138V376Z"/>
</mask>
<path d="M565.241 423.1V424.1H566.241V423.1H565.241ZM564.241 376V423.1H566.241V376H564.241ZM565.241 422.1H518.138V424.1H565.241V422.1Z" fill="#34A853" mask="url(#path-57-inside-29_37_310)"/>
<mask id="path-59-inside-30_37_310" fill="white">
<path d="M565.241 376H612.345V423.1H565.241V376Z"/>
</mask>
<path d="M612.345 423.1V424.1H613.345V423.1H612.345ZM611.345 376V423.1H613.345V376H611.345ZM612.345 422.1H565.241V424.1H612.345V422.1Z" fill="#34A853" mask="url(#path-59-inside-30_37_310)"/>
<mask id="path-61-inside-31_37_310" fill="white">
<path d="M612.345 376H659.448V423.1H612.345V376Z"/>
</mask>
<path d="M659.448 423.1V424.1H660.448V423.1H659.448ZM658.448 376V423.1H660.448V376H658.448ZM659.448 422.1H612.345V424.1H659.448V422.1Z" fill="#34A853" mask="url(#path-61-inside-31_37_310)"/>
<mask id="path-63-inside-32_37_310" fill="white">
<path d="M659.448 376H706.552V423.1H659.448V376Z"/>
</mask>
<path d="M706.552 423.1V424.1H707.552V423.1H706.552ZM705.552 376V423.1H707.552V376H705.552ZM706.552 422.1H659.448V424.1H706.552V422.1Z" fill="#34A853" mask="url(#path-63-inside-32_37_310)"/>
<mask id="path-65-inside-33_37_310" fill="white">
<path d="M706.552 376H753.655V423.1H706.552V376Z"/>
</mask>
<path d="M753.655 423.1V424.1H754.655V423.1H753.655ZM752.655 376V423.1H754.655V376H752.655ZM753.655 422.1H706.552V424.1H753.655V422.1Z" fill="#34A853" mask="url(#path-65-inside-33_37_310)"/>
<mask id="path-67-inside-34_37_310" fill="white">
<path d="M753.655 376H800.759V423.1H753.655V376Z"/>
</mask>
<path d="M800.759 423.1V424.1H801.759V423.1H800.759ZM799.759 376V423.1H801.759V376H799.759ZM800.759 422.1H753.655V424.1H800.759V422.1Z" fill="#34A853" mask="url(#path-67-inside-34_37_310)"/>
<mask id="path-69-inside-35_37_310" fill="white">
<path d="M0 188H47.1034V235.1H0V188Z"/>
</mask>
<path d="M47.1034 235.1V236.1H48.1034V235.1H47.1034ZM46.1034 188V235.1H48.1034V188H46.1034ZM47.1034 234.1H0V236.1H47.1034V234.1Z" fill="#34A853" mask="url(#path-69-inside-35_37_310)"/>
<mask id="path-71-inside-36_37_310" fill="white">
<path d="M47.1035 188H94.2069V235.1H47.1035V188Z"/>
</mask>
<path d="M94.2069 235.1V236.1H95.2069V235.1H94.2069ZM93.2069 188V235.1H95.2069V188H93.2069ZM94.2069 234.1H47.1035V236.1H94.2069V234.1Z" fill="#34A853" mask="url(#path-71-inside-36_37_310)"/>
<mask id="path-73-inside-37_37_310" fill="white">
<path d="M94.2069 188H141.31V235.1H94.2069V188Z"/>
</mask>
<path d="M141.31 235.1V236.1H142.31V235.1H141.31ZM140.31 188V235.1H142.31V188H140.31ZM141.31 234.1H94.2069V236.1H141.31V234.1Z" fill="#34A853" mask="url(#path-73-inside-37_37_310)"/>
<mask id="path-75-inside-38_37_310" fill="white">
<path d="M141.31 188H188.414V235.1H141.31V188Z"/>
</mask>
<path d="M188.414 235.1V236.1H189.414V235.1H188.414ZM187.414 188V235.1H189.414V188H187.414ZM188.414 234.1H141.31V236.1H188.414V234.1Z" fill="#34A853" mask="url(#path-75-inside-38_37_310)"/>
<mask id="path-77-inside-39_37_310" fill="white">
<path d="M188.414 188H235.517V235.1H188.414V188Z"/>
</mask>
<path d="M235.517 235.1V236.1H236.517V235.1H235.517ZM234.517 188V235.1H236.517V188H234.517ZM235.517 234.1H188.414V236.1H235.517V234.1Z" fill="#34A853" mask="url(#path-77-inside-39_37_310)"/>
<mask id="path-79-inside-40_37_310" fill="white">
<path d="M235.517 188H282.621V235.1H235.517V188Z"/>
</mask>
<path d="M282.621 235.1V236.1H283.621V235.1H282.621ZM281.621 188V235.1H283.621V188H281.621ZM282.621 234.1H235.517V236.1H282.621V234.1Z" fill="#34A853" mask="url(#path-79-inside-40_37_310)"/>
<mask id="path-81-inside-41_37_310" fill="white">
<path d="M282.621 188H329.724V235.1H282.621V188Z"/>
</mask>
<path d="M329.724 235.1V236.1H330.724V235.1H329.724ZM328.724 188V235.1H330.724V188H328.724ZM329.724 234.1H282.621V236.1H329.724V234.1Z" fill="#34A853" mask="url(#path-81-inside-41_37_310)"/>
<mask id="path-83-inside-42_37_310" fill="white">
<path d="M329.724 188H376.828V235.1H329.724V188Z"/>
</mask>
<path d="M376.828 235.1V236.1H377.828V235.1H376.828ZM375.828 188V235.1H377.828V188H375.828ZM376.828 234.1H329.724V236.1H376.828V234.1Z" fill="#34A853" mask="url(#path-83-inside-42_37_310)"/>
<mask id="path-85-inside-43_37_310" fill="white">
<path d="M376.828 188H423.931V235.1H376.828V188Z"/>
</mask>
<path d="M423.931 235.1V236.1H424.931V235.1H423.931ZM422.931 188V235.1H424.931V188H422.931ZM423.931 234.1H376.828V236.1H423.931V234.1Z" fill="#34A853" mask="url(#path-85-inside-43_37_310)"/>
<mask id="path-87-inside-44_37_310" fill="white">
<path d="M423.931 188H471.034V235.1H423.931V188Z"/>
</mask>
<path d="M471.034 235.1V236.1H472.034V235.1H471.034ZM470.034 188V235.1H472.034V188H470.034ZM471.034 234.1H423.931V236.1H471.034V234.1Z" fill="#34A853" mask="url(#path-87-inside-44_37_310)"/>
<mask id="path-89-inside-45_37_310" fill="white">
<path d="M471.035 188H518.138V235.1H471.035V188Z"/>
</mask>
<path d="M518.138 235.1V236.1H519.138V235.1H518.138ZM517.138 188V235.1H519.138V188H517.138ZM518.138 234.1H471.035V236.1H518.138V234.1Z" fill="#34A853" mask="url(#path-89-inside-45_37_310)"/>
<mask id="path-91-inside-46_37_310" fill="white">
<path d="M518.138 188H565.241V235.1H518.138V188Z"/>
</mask>
<path d="M565.241 235.1V236.1H566.241V235.1H565.241ZM564.241 188V235.1H566.241V188H564.241ZM565.241 234.1H518.138V236.1H565.241V234.1Z" fill="#34A853" mask="url(#path-91-inside-46_37_310)"/>
<mask id="path-93-inside-47_37_310" fill="white">
<path d="M565.241 188H612.345V235.1H565.241V188Z"/>
</mask>
<path d="M612.345 235.1V236.1H613.345V235.1H612.345ZM611.345 188V235.1H613.345V188H611.345ZM612.345 234.1H565.241V236.1H612.345V234.1Z" fill="#34A853" mask="url(#path-93-inside-47_37_310)"/>
<mask id="path-95-inside-48_37_310" fill="white">
<path d="M612.345 188H659.448V235.1H612.345V188Z"/>
</mask>
<path d="M659.448 235.1V236.1H660.448V235.1H659.448ZM658.448 188V235.1H660.448V188H658.448ZM659.448 234.1H612.345V236.1H659.448V234.1Z" fill="#34A853" mask="url(#path-95-inside-48_37_310)"/>
<mask id="path-97-inside-49_37_310" fill="white">
<path d="M659.448 188H706.552V235.1H659.448V188Z"/>
</mask>
<path d="M706.552 235.1V236.1H707.552V235.1H706.552ZM705.552 188V235.1H707.552V188H705.552ZM706.552 234.1H659.448V236.1H706.552V234.1Z" fill="#34A853" mask="url(#path-97-inside-49_37_310)"/>
<mask id="path-99-inside-50_37_310" fill="white">
<path d="M706.552 188H753.655V235.1H706.552V188Z"/>
</mask>
<path d="M753.655 235.1V236.1H754.655V235.1H753.655ZM752.655 188V235.1H754.655V188H752.655ZM753.655 234.1H706.552V236.1H753.655V234.1Z" fill="#34A853" mask="url(#path-99-inside-50_37_310)"/>
<mask id="path-101-inside-51_37_310" fill="white">
<path d="M753.655 188H800.759V235.1H753.655V188Z"/>
</mask>
<path d="M800.759 235.1V236.1H801.759V235.1H800.759ZM799.759 188V235.1H801.759V188H799.759ZM800.759 234.1H753.655V236.1H800.759V234.1Z" fill="#34A853" mask="url(#path-101-inside-51_37_310)"/>
<mask id="path-103-inside-52_37_310" fill="white">
<path d="M0 564H47.1034V611.1H0V564Z"/>
</mask>
<path d="M47.1034 611.1V612.1H48.1034V611.1H47.1034ZM46.1034 564V611.1H48.1034V564H46.1034ZM47.1034 610.1H0V612.1H47.1034V610.1Z" fill="#34A853" mask="url(#path-103-inside-52_37_310)"/>
<mask id="path-105-inside-53_37_310" fill="white">
<path d="M47.1035 564H94.2069V611.1H47.1035V564Z"/>
</mask>
<path d="M94.2069 611.1V612.1H95.2069V611.1H94.2069ZM93.2069 564V611.1H95.2069V564H93.2069ZM94.2069 610.1H47.1035V612.1H94.2069V610.1Z" fill="#34A853" mask="url(#path-105-inside-53_37_310)"/>
<mask id="path-107-inside-54_37_310" fill="white">
<path d="M94.2069 564H141.31V611.1H94.2069V564Z"/>
</mask>
<path d="M141.31 611.1V612.1H142.31V611.1H141.31ZM140.31 564V611.1H142.31V564H140.31ZM141.31 610.1H94.2069V612.1H141.31V610.1Z" fill="#34A853" mask="url(#path-107-inside-54_37_310)"/>
<mask id="path-109-inside-55_37_310" fill="white">
<path d="M141.31 564H188.414V611.1H141.31V564Z"/>
</mask>
<path d="M188.414 611.1V612.1H189.414V611.1H188.414ZM187.414 564V611.1H189.414V564H187.414ZM188.414 610.1H141.31V612.1H188.414V610.1Z" fill="#34A853" mask="url(#path-109-inside-55_37_310)"/>
<mask id="path-111-inside-56_37_310" fill="white">
<path d="M188.414 564H235.517V611.1H188.414V564Z"/>
</mask>
<path d="M235.517 611.1V612.1H236.517V611.1H235.517ZM234.517 564V611.1H236.517V564H234.517ZM235.517 610.1H188.414V612.1H235.517V610.1Z" fill="#34A853" mask="url(#path-111-inside-56_37_310)"/>
<mask id="path-113-inside-57_37_310" fill="white">
<path d="M235.517 564H282.621V611.1H235.517V564Z"/>
</mask>
<path d="M282.621 611.1V612.1H283.621V611.1H282.621ZM281.621 564V611.1H283.621V564H281.621ZM282.621 610.1H235.517V612.1H282.621V610.1Z" fill="#34A853" mask="url(#path-113-inside-57_37_310)"/>
<mask id="path-115-inside-58_37_310" fill="white">
<path d="M282.621 564H329.724V611.1H282.621V564Z"/>
</mask>
<path d="M329.724 611.1V612.1H330.724V611.1H329.724ZM328.724 564V611.1H330.724V564H328.724ZM329.724 610.1H282.621V612.1H329.724V610.1Z" fill="#34A853" mask="url(#path-115-inside-58_37_310)"/>
<mask id="path-117-inside-59_37_310" fill="white">
<path d="M329.724 564H376.828V611.1H329.724V564Z"/>
</mask>
<path d="M376.828 611.1V612.1H377.828V611.1H376.828ZM375.828 564V611.1H377.828V564H375.828ZM376.828 610.1H329.724V612.1H376.828V610.1Z" fill="#34A853" mask="url(#path-117-inside-59_37_310)"/>
<mask id="path-119-inside-60_37_310" fill="white">
<path d="M376.828 564H423.931V611.1H376.828V564Z"/>
</mask>
<path d="M423.931 611.1V612.1H424.931V611.1H423.931ZM422.931 564V611.1H424.931V564H422.931ZM423.931 610.1H376.828V612.1H423.931V610.1Z" fill="#34A853" mask="url(#path-119-inside-60_37_310)"/>
<mask id="path-121-inside-61_37_310" fill="white">
<path d="M423.931 564H471.034V611.1H423.931V564Z"/>
</mask>
<path d="M471.034 611.1V612.1H472.034V611.1H471.034ZM470.034 564V611.1H472.034V564H470.034ZM471.034 610.1H423.931V612.1H471.034V610.1Z" fill="#34A853" mask="url(#path-121-inside-61_37_310)"/>
<mask id="path-123-inside-62_37_310" fill="white">
<path d="M471.035 564H518.138V611.1H471.035V564Z"/>
</mask>
<path d="M518.138 611.1V612.1H519.138V611.1H518.138ZM517.138 564V611.1H519.138V564H517.138ZM518.138 610.1H471.035V612.1H518.138V610.1Z" fill="#34A853" mask="url(#path-123-inside-62_37_310)"/>
<mask id="path-125-inside-63_37_310" fill="white">
<path d="M518.138 564H565.241V611.1H518.138V564Z"/>
</mask>
<path d="M565.241 611.1V612.1H566.241V611.1H565.241ZM564.241 564V611.1H566.241V564H564.241ZM565.241 610.1H518.138V612.1H565.241V610.1Z" fill="#34A853" mask="url(#path-125-inside-63_37_310)"/>
<mask id="path-127-inside-64_37_310" fill="white">
<path d="M565.241 564H612.345V611.1H565.241V564Z"/>
</mask>
<path d="M612.345 611.1V612.1H613.345V611.1H612.345ZM611.345 564V611.1H613.345V564H611.345ZM612.345 610.1H565.241V612.1H612.345V610.1Z" fill="#34A853" mask="url(#path-127-inside-64_37_310)"/>
<mask id="path-129-inside-65_37_310" fill="white">
<path d="M612.345 564H659.448V611.1H612.345V564Z"/>
</mask>
<path d="M659.448 611.1V612.1H660.448V611.1H659.448ZM658.448 564V611.1H660.448V564H658.448ZM659.448 610.1H612.345V612.1H659.448V610.1Z" fill="#34A853" mask="url(#path-129-inside-65_37_310)"/>
<mask id="path-131-inside-66_37_310" fill="white">
<path d="M659.448 564H706.552V611.1H659.448V564Z"/>
</mask>
<path d="M706.552 611.1V612.1H707.552V611.1H706.552ZM705.552 564V611.1H707.552V564H705.552ZM706.552 610.1H659.448V612.1H706.552V610.1Z" fill="#34A853" mask="url(#path-131-inside-66_37_310)"/>
<mask id="path-133-inside-67_37_310" fill="white">
<path d="M706.552 564H753.655V611.1H706.552V564Z"/>
</mask>
<path d="M753.655 611.1V612.1H754.655V611.1H753.655ZM752.655 564V611.1H754.655V564H752.655ZM753.655 610.1H706.552V612.1H753.655V610.1Z" fill="#34A853" mask="url(#path-133-inside-67_37_310)"/>
<mask id="path-135-inside-68_37_310" fill="white">
<path d="M753.655 564H800.759V611.1H753.655V564Z"/>
</mask>
<path d="M800.759 611.1V612.1H801.759V611.1H800.759ZM799.759 564V611.1H801.759V564H799.759ZM800.759 610.1H753.655V612.1H800.759V610.1Z" fill="#34A853" mask="url(#path-135-inside-68_37_310)"/>
<mask id="path-137-inside-69_37_310" fill="white">
<path d="M0 94H47.1034V141.1H0V94Z"/>
</mask>
<path d="M47.1034 141.1V142.1H48.1034V141.1H47.1034ZM46.1034 94V141.1H48.1034V94H46.1034ZM47.1034 140.1H0V142.1H47.1034V140.1Z" fill="#34A853" mask="url(#path-137-inside-69_37_310)"/>
<mask id="path-139-inside-70_37_310" fill="white">
<path d="M47.1035 94H94.2069V141.1H47.1035V94Z"/>
</mask>
<path d="M94.2069 141.1V142.1H95.2069V141.1H94.2069ZM93.2069 94V141.1H95.2069V94H93.2069ZM94.2069 140.1H47.1035V142.1H94.2069V140.1Z" fill="#34A853" mask="url(#path-139-inside-70_37_310)"/>
<mask id="path-141-inside-71_37_310" fill="white">
<path d="M94.2069 94H141.31V141.1H94.2069V94Z"/>
</mask>
<path d="M141.31 141.1V142.1H142.31V141.1H141.31ZM140.31 94V141.1H142.31V94H140.31ZM141.31 140.1H94.2069V142.1H141.31V140.1Z" fill="#34A853" mask="url(#path-141-inside-71_37_310)"/>
<mask id="path-143-inside-72_37_310" fill="white">
<path d="M141.31 94H188.414V141.1H141.31V94Z"/>
</mask>
<path d="M188.414 141.1V142.1H189.414V141.1H188.414ZM187.414 94V141.1H189.414V94H187.414ZM188.414 140.1H141.31V142.1H188.414V140.1Z" fill="#34A853" mask="url(#path-143-inside-72_37_310)"/>
<mask id="path-145-inside-73_37_310" fill="white">
<path d="M188.414 94H235.517V141.1H188.414V94Z"/>
</mask>
<path d="M235.517 141.1V142.1H236.517V141.1H235.517ZM234.517 94V141.1H236.517V94H234.517ZM235.517 140.1H188.414V142.1H235.517V140.1Z" fill="#34A853" mask="url(#path-145-inside-73_37_310)"/>
<mask id="path-147-inside-74_37_310" fill="white">
<path d="M235.517 94H282.621V141.1H235.517V94Z"/>
</mask>
<path d="M282.621 141.1V142.1H283.621V141.1H282.621ZM281.621 94V141.1H283.621V94H281.621ZM282.621 140.1H235.517V142.1H282.621V140.1Z" fill="#34A853" mask="url(#path-147-inside-74_37_310)"/>
<mask id="path-149-inside-75_37_310" fill="white">
<path d="M282.621 94H329.724V141.1H282.621V94Z"/>
</mask>
<path d="M329.724 141.1V142.1H330.724V141.1H329.724ZM328.724 94V141.1H330.724V94H328.724ZM329.724 140.1H282.621V142.1H329.724V140.1Z" fill="#34A853" mask="url(#path-149-inside-75_37_310)"/>
<mask id="path-151-inside-76_37_310" fill="white">
<path d="M329.724 94H376.828V141.1H329.724V94Z"/>
</mask>
<path d="M376.828 141.1V142.1H377.828V141.1H376.828ZM375.828 94V141.1H377.828V94H375.828ZM376.828 140.1H329.724V142.1H376.828V140.1Z" fill="#34A853" mask="url(#path-151-inside-76_37_310)"/>
<mask id="path-153-inside-77_37_310" fill="white">
<path d="M376.828 94H423.931V141.1H376.828V94Z"/>
</mask>
<path d="M423.931 141.1V142.1H424.931V141.1H423.931ZM422.931 94V141.1H424.931V94H422.931ZM423.931 140.1H376.828V142.1H423.931V140.1Z" fill="#34A853" mask="url(#path-153-inside-77_37_310)"/>
<mask id="path-155-inside-78_37_310" fill="white">
<path d="M423.931 94H471.034V141.1H423.931V94Z"/>
</mask>
<path d="M471.034 141.1V142.1H472.034V141.1H471.034ZM470.034 94V141.1H472.034V94H470.034ZM471.034 140.1H423.931V142.1H471.034V140.1Z" fill="#34A853" mask="url(#path-155-inside-78_37_310)"/>
<mask id="path-157-inside-79_37_310" fill="white">
<path d="M471.035 94H518.138V141.1H471.035V94Z"/>
</mask>
<path d="M518.138 141.1V142.1H519.138V141.1H518.138ZM517.138 94V141.1H519.138V94H517.138ZM518.138 140.1H471.035V142.1H518.138V140.1Z" fill="#34A853" mask="url(#path-157-inside-79_37_310)"/>
<mask id="path-159-inside-80_37_310" fill="white">
<path d="M518.138 94H565.241V141.1H518.138V94Z"/>
</mask>
<path d="M565.241 141.1V142.1H566.241V141.1H565.241ZM564.241 94V141.1H566.241V94H564.241ZM565.241 140.1H518.138V142.1H565.241V140.1Z" fill="#34A853" mask="url(#path-159-inside-80_37_310)"/>
<mask id="path-161-inside-81_37_310" fill="white">
<path d="M565.241 94H612.345V141.1H565.241V94Z"/>
</mask>
<path d="M612.345 141.1V142.1H613.345V141.1H612.345ZM611.345 94V141.1H613.345V94H611.345ZM612.345 140.1H565.241V142.1H612.345V140.1Z" fill="#34A853" mask="url(#path-161-inside-81_37_310)"/>
<mask id="path-163-inside-82_37_310" fill="white">
<path d="M612.345 94H659.448V141.1H612.345V94Z"/>
</mask>
<path d="M659.448 141.1V142.1H660.448V141.1H659.448ZM658.448 94V141.1H660.448V94H658.448ZM659.448 140.1H612.345V142.1H659.448V140.1Z" fill="#34A853" mask="url(#path-163-inside-82_37_310)"/>
<mask id="path-165-inside-83_37_310" fill="white">
<path d="M659.448 94H706.552V141.1H659.448V94Z"/>
</mask>
<path d="M706.552 141.1V142.1H707.552V141.1H706.552ZM705.552 94V141.1H707.552V94H705.552ZM706.552 140.1H659.448V142.1H706.552V140.1Z" fill="#34A853" mask="url(#path-165-inside-83_37_310)"/>
<mask id="path-167-inside-84_37_310" fill="white">
<path d="M706.552 94H753.655V141.1H706.552V94Z"/>
</mask>
<path d="M753.655 141.1V142.1H754.655V141.1H753.655ZM752.655 94V141.1H754.655V94H752.655ZM753.655 140.1H706.552V142.1H753.655V140.1Z" fill="#34A853" mask="url(#path-167-inside-84_37_310)"/>
<mask id="path-169-inside-85_37_310" fill="white">
<path d="M753.655 94H800.759V141.1H753.655V94Z"/>
</mask>
<path d="M800.759 141.1V142.1H801.759V141.1H800.759ZM799.759 94V141.1H801.759V94H799.759ZM800.759 140.1H753.655V142.1H800.759V140.1Z" fill="#34A853" mask="url(#path-169-inside-85_37_310)"/>
<mask id="path-171-inside-86_37_310" fill="white">
<path d="M0 470H47.1034V517.1H0V470Z"/>
</mask>
<path d="M47.1034 517.1V518.1H48.1034V517.1H47.1034ZM46.1034 470V517.1H48.1034V470H46.1034ZM47.1034 516.1H0V518.1H47.1034V516.1Z" fill="#34A853" mask="url(#path-171-inside-86_37_310)"/>
<mask id="path-173-inside-87_37_310" fill="white">
<path d="M47.1035 470H94.2069V517.1H47.1035V470Z"/>
</mask>
<path d="M94.2069 517.1V518.1H95.2069V517.1H94.2069ZM93.2069 470V517.1H95.2069V470H93.2069ZM94.2069 516.1H47.1035V518.1H94.2069V516.1Z" fill="#34A853" mask="url(#path-173-inside-87_37_310)"/>
<mask id="path-175-inside-88_37_310" fill="white">
<path d="M94.2069 470H141.31V517.1H94.2069V470Z"/>
</mask>
<path d="M141.31 517.1V518.1H142.31V517.1H141.31ZM140.31 470V517.1H142.31V470H140.31ZM141.31 516.1H94.2069V518.1H141.31V516.1Z" fill="#34A853" mask="url(#path-175-inside-88_37_310)"/>
<mask id="path-177-inside-89_37_310" fill="white">
<path d="M141.31 470H188.414V517.1H141.31V470Z"/>
</mask>
<path d="M188.414 517.1V518.1H189.414V517.1H188.414ZM187.414 470V517.1H189.414V470H187.414ZM188.414 516.1H141.31V518.1H188.414V516.1Z" fill="#34A853" mask="url(#path-177-inside-89_37_310)"/>
<mask id="path-179-inside-90_37_310" fill="white">
<path d="M188.414 470H235.517V517.1H188.414V470Z"/>
</mask>
<path d="M235.517 517.1V518.1H236.517V517.1H235.517ZM234.517 470V517.1H236.517V470H234.517ZM235.517 516.1H188.414V518.1H235.517V516.1Z" fill="#34A853" mask="url(#path-179-inside-90_37_310)"/>
<mask id="path-181-inside-91_37_310" fill="white">
<path d="M235.517 470H282.621V517.1H235.517V470Z"/>
</mask>
<path d="M282.621 517.1V518.1H283.621V517.1H282.621ZM281.621 470V517.1H283.621V470H281.621ZM282.621 516.1H235.517V518.1H282.621V516.1Z" fill="#34A853" mask="url(#path-181-inside-91_37_310)"/>
<mask id="path-183-inside-92_37_310" fill="white">
<path d="M282.621 470H329.724V517.1H282.621V470Z"/>
</mask>
<path d="M329.724 517.1V518.1H330.724V517.1H329.724ZM328.724 470V517.1H330.724V470H328.724ZM329.724 516.1H282.621V518.1H329.724V516.1Z" fill="#34A853" mask="url(#path-183-inside-92_37_310)"/>
<mask id="path-185-inside-93_37_310" fill="white">
<path d="M329.724 470H376.828V517.1H329.724V470Z"/>
</mask>
<path d="M376.828 517.1V518.1H377.828V517.1H376.828ZM375.828 470V517.1H377.828V470H375.828ZM376.828 516.1H329.724V518.1H376.828V516.1Z" fill="#34A853" mask="url(#path-185-inside-93_37_310)"/>
<mask id="path-187-inside-94_37_310" fill="white">
<path d="M376.828 470H423.931V517.1H376.828V470Z"/>
</mask>
<path d="M423.931 517.1V518.1H424.931V517.1H423.931ZM422.931 470V517.1H424.931V470H422.931ZM423.931 516.1H376.828V518.1H423.931V516.1Z" fill="#34A853" mask="url(#path-187-inside-94_37_310)"/>
<mask id="path-189-inside-95_37_310" fill="white">
<path d="M423.931 470H471.034V517.1H423.931V470Z"/>
</mask>
<path d="M471.034 517.1V518.1H472.034V517.1H471.034ZM470.034 470V517.1H472.034V470H470.034ZM471.034 516.1H423.931V518.1H471.034V516.1Z" fill="#34A853" mask="url(#path-189-inside-95_37_310)"/>
<mask id="path-191-inside-96_37_310" fill="white">
<path d="M471.035 470H518.138V517.1H471.035V470Z"/>
</mask>
<path d="M518.138 517.1V518.1H519.138V517.1H518.138ZM517.138 470V517.1H519.138V470H517.138ZM518.138 516.1H471.035V518.1H518.138V516.1Z" fill="#34A853" mask="url(#path-191-inside-96_37_310)"/>
<mask id="path-193-inside-97_37_310" fill="white">
<path d="M518.138 470H565.241V517.1H518.138V470Z"/>
</mask>
<path d="M565.241 517.1V518.1H566.241V517.1H565.241ZM564.241 470V517.1H566.241V470H564.241ZM565.241 516.1H518.138V518.1H565.241V516.1Z" fill="#34A853" mask="url(#path-193-inside-97_37_310)"/>
<mask id="path-195-inside-98_37_310" fill="white">
<path d="M565.241 470H612.345V517.1H565.241V470Z"/>
</mask>
<path d="M612.345 517.1V518.1H613.345V517.1H612.345ZM611.345 470V517.1H613.345V470H611.345ZM612.345 516.1H565.241V518.1H612.345V516.1Z" fill="#34A853" mask="url(#path-195-inside-98_37_310)"/>
<mask id="path-197-inside-99_37_310" fill="white">
<path d="M612.345 470H659.448V517.1H612.345V470Z"/>
</mask>
<path d="M659.448 517.1V518.1H660.448V517.1H659.448ZM658.448 470V517.1H660.448V470H658.448ZM659.448 516.1H612.345V518.1H659.448V516.1Z" fill="#34A853" mask="url(#path-197-inside-99_37_310)"/>
<mask id="path-199-inside-100_37_310" fill="white">
<path d="M659.448 470H706.552V517.1H659.448V470Z"/>
</mask>
<path d="M706.552 517.1V518.1H707.552V517.1H706.552ZM705.552 470V517.1H707.552V470H705.552ZM706.552 516.1H659.448V518.1H706.552V516.1Z" fill="#34A853" mask="url(#path-199-inside-100_37_310)"/>
<mask id="path-201-inside-101_37_310" fill="white">
<path d="M706.552 470H753.655V517.1H706.552V470Z"/>
</mask>
<path d="M753.655 517.1V518.1H754.655V517.1H753.655ZM752.655 470V517.1H754.655V470H752.655ZM753.655 516.1H706.552V518.1H753.655V516.1Z" fill="#34A853" mask="url(#path-201-inside-101_37_310)"/>
<mask id="path-203-inside-102_37_310" fill="white">
<path d="M753.655 470H800.759V517.1H753.655V470Z"/>
</mask>
<path d="M800.759 517.1V518.1H801.759V517.1H800.759ZM799.759 470V517.1H801.759V470H799.759ZM800.759 516.1H753.655V518.1H800.759V516.1Z" fill="#34A853" mask="url(#path-203-inside-102_37_310)"/>
<mask id="path-205-inside-103_37_310" fill="white">
<path d="M0 282H47.1034V329.1H0V282Z"/>
</mask>
<path d="M47.1034 329.1V330.1H48.1034V329.1H47.1034ZM46.1034 282V329.1H48.1034V282H46.1034ZM47.1034 328.1H0V330.1H47.1034V328.1Z" fill="#34A853" mask="url(#path-205-inside-103_37_310)"/>
<mask id="path-207-inside-104_37_310" fill="white">
<path d="M47.1035 282H94.2069V329.1H47.1035V282Z"/>
</mask>
<path d="M94.2069 329.1V330.1H95.2069V329.1H94.2069ZM93.2069 282V329.1H95.2069V282H93.2069ZM94.2069 328.1H47.1035V330.1H94.2069V328.1Z" fill="#34A853" mask="url(#path-207-inside-104_37_310)"/>
<mask id="path-209-inside-105_37_310" fill="white">
<path d="M94.2069 282H141.31V329.1H94.2069V282Z"/>
</mask>
<path d="M141.31 329.1V330.1H142.31V329.1H141.31ZM140.31 282V329.1H142.31V282H140.31ZM141.31 328.1H94.2069V330.1H141.31V328.1Z" fill="#34A853" mask="url(#path-209-inside-105_37_310)"/>
<mask id="path-211-inside-106_37_310" fill="white">
<path d="M141.31 282H188.414V329.1H141.31V282Z"/>
</mask>
<path d="M188.414 329.1V330.1H189.414V329.1H188.414ZM187.414 282V329.1H189.414V282H187.414ZM188.414 328.1H141.31V330.1H188.414V328.1Z" fill="#34A853" mask="url(#path-211-inside-106_37_310)"/>
<mask id="path-213-inside-107_37_310" fill="white">
<path d="M188.414 282H235.517V329.1H188.414V282Z"/>
</mask>
<path d="M235.517 329.1V330.1H236.517V329.1H235.517ZM234.517 282V329.1H236.517V282H234.517ZM235.517 328.1H188.414V330.1H235.517V328.1Z" fill="#34A853" mask="url(#path-213-inside-107_37_310)"/>
<mask id="path-215-inside-108_37_310" fill="white">
<path d="M235.517 282H282.621V329.1H235.517V282Z"/>
</mask>
<path d="M282.621 329.1V330.1H283.621V329.1H282.621ZM281.621 282V329.1H283.621V282H281.621ZM282.621 328.1H235.517V330.1H282.621V328.1Z" fill="#34A853" mask="url(#path-215-inside-108_37_310)"/>
<mask id="path-217-inside-109_37_310" fill="white">
<path d="M282.621 282H329.724V329.1H282.621V282Z"/>
</mask>
<path d="M329.724 329.1V330.1H330.724V329.1H329.724ZM328.724 282V329.1H330.724V282H328.724ZM329.724 328.1H282.621V330.1H329.724V328.1Z" fill="#34A853" mask="url(#path-217-inside-109_37_310)"/>
<mask id="path-219-inside-110_37_310" fill="white">
<path d="M329.724 282H376.828V329.1H329.724V282Z"/>
</mask>
<path d="M376.828 329.1V330.1H377.828V329.1H376.828ZM375.828 282V329.1H377.828V282H375.828ZM376.828 328.1H329.724V330.1H376.828V328.1Z" fill="#34A853" mask="url(#path-219-inside-110_37_310)"/>
<mask id="path-221-inside-111_37_310" fill="white">
<path d="M376.828 282H423.931V329.1H376.828V282Z"/>
</mask>
<path d="M423.931 329.1V330.1H424.931V329.1H423.931ZM422.931 282V329.1H424.931V282H422.931ZM423.931 328.1H376.828V330.1H423.931V328.1Z" fill="#34A853" mask="url(#path-221-inside-111_37_310)"/>
<mask id="path-223-inside-112_37_310" fill="white">
<path d="M423.931 282H471.034V329.1H423.931V282Z"/>
</mask>
<path d="M471.034 329.1V330.1H472.034V329.1H471.034ZM470.034 282V329.1H472.034V282H470.034ZM471.034 328.1H423.931V330.1H471.034V328.1Z" fill="#34A853" mask="url(#path-223-inside-112_37_310)"/>
<mask id="path-225-inside-113_37_310" fill="white">
<path d="M471.035 282H518.138V329.1H471.035V282Z"/>
</mask>
<path d="M518.138 329.1V330.1H519.138V329.1H518.138ZM517.138 282V329.1H519.138V282H517.138ZM518.138 328.1H471.035V330.1H518.138V328.1Z" fill="#34A853" mask="url(#path-225-inside-113_37_310)"/>
<mask id="path-227-inside-114_37_310" fill="white">
<path d="M518.138 282H565.241V329.1H518.138V282Z"/>
</mask>
<path d="M565.241 329.1V330.1H566.241V329.1H565.241ZM564.241 282V329.1H566.241V282H564.241ZM565.241 328.1H518.138V330.1H565.241V328.1Z" fill="#34A853" mask="url(#path-227-inside-114_37_310)"/>
<mask id="path-229-inside-115_37_310" fill="white">
<path d="M565.241 282H612.345V329.1H565.241V282Z"/>
</mask>
<path d="M612.345 329.1V330.1H613.345V329.1H612.345ZM611.345 282V329.1H613.345V282H611.345ZM612.345 328.1H565.241V330.1H612.345V328.1Z" fill="#34A853" mask="url(#path-229-inside-115_37_310)"/>
<mask id="path-231-inside-116_37_310" fill="white">
<path d="M612.345 282H659.448V329.1H612.345V282Z"/>
</mask>
<path d="M659.448 329.1V330.1H660.448V329.1H659.448ZM658.448 282V329.1H660.448V282H658.448ZM659.448 328.1H612.345V330.1H659.448V328.1Z" fill="#34A853" mask="url(#path-231-inside-116_37_310)"/>
<mask id="path-233-inside-117_37_310" fill="white">
<path d="M659.448 282H706.552V329.1H659.448V282Z"/>
</mask>
<path d="M706.552 329.1V330.1H707.552V329.1H706.552ZM705.552 282V329.1H707.552V282H705.552ZM706.552 328.1H659.448V330.1H706.552V328.1Z" fill="#34A853" mask="url(#path-233-inside-117_37_310)"/>
<mask id="path-235-inside-118_37_310" fill="white">
<path d="M706.552 282H753.655V329.1H706.552V282Z"/>
</mask>
<path d="M753.655 329.1V330.1H754.655V329.1H753.655ZM752.655 282V329.1H754.655V282H752.655ZM753.655 328.1H706.552V330.1H753.655V328.1Z" fill="#34A853" mask="url(#path-235-inside-118_37_310)"/>
<mask id="path-237-inside-119_37_310" fill="white">
<path d="M753.655 282H800.759V329.1H753.655V282Z"/>
</mask>
<path d="M800.759 329.1V330.1H801.759V329.1H800.759ZM799.759 282V329.1H801.759V282H799.759ZM800.759 328.1H753.655V330.1H800.759V328.1Z" fill="#34A853" mask="url(#path-237-inside-119_37_310)"/>
<mask id="path-239-inside-120_37_310" fill="white">
<path d="M0 47H47.1034V94.1H0V47Z"/>
</mask>
<path d="M47.1034 94.1V95.1H48.1034V94.1H47.1034ZM46.1034 47V94.1H48.1034V47H46.1034ZM47.1034 93.1H0V95.1H47.1034V93.1Z" fill="#34A853" mask="url(#path-239-inside-120_37_310)"/>
<mask id="path-241-inside-121_37_310" fill="white">
<path d="M47.1035 47H94.2069V94.1H47.1035V47Z"/>
</mask>
<path d="M94.2069 94.1V95.1H95.2069V94.1H94.2069ZM93.2069 47V94.1H95.2069V47H93.2069ZM94.2069 93.1H47.1035V95.1H94.2069V93.1Z" fill="#34A853" mask="url(#path-241-inside-121_37_310)"/>
<mask id="path-243-inside-122_37_310" fill="white">
<path d="M94.2069 47H141.31V94.1H94.2069V47Z"/>
</mask>
<path d="M141.31 94.1V95.1H142.31V94.1H141.31ZM140.31 47V94.1H142.31V47H140.31ZM141.31 93.1H94.2069V95.1H141.31V93.1Z" fill="#34A853" mask="url(#path-243-inside-122_37_310)"/>
<mask id="path-245-inside-123_37_310" fill="white">
<path d="M141.31 47H188.414V94.1H141.31V47Z"/>
</mask>
<path d="M188.414 94.1V95.1H189.414V94.1H188.414ZM187.414 47V94.1H189.414V47H187.414ZM188.414 93.1H141.31V95.1H188.414V93.1Z" fill="#34A853" mask="url(#path-245-inside-123_37_310)"/>
<mask id="path-247-inside-124_37_310" fill="white">
<path d="M188.414 47H235.517V94.1H188.414V47Z"/>
</mask>
<path d="M235.517 94.1V95.1H236.517V94.1H235.517ZM234.517 47V94.1H236.517V47H234.517ZM235.517 93.1H188.414V95.1H235.517V93.1Z" fill="#34A853" mask="url(#path-247-inside-124_37_310)"/>
<mask id="path-249-inside-125_37_310" fill="white">
<path d="M235.517 47H282.621V94.1H235.517V47Z"/>
</mask>
<path d="M282.621 94.1V95.1H283.621V94.1H282.621ZM281.621 47V94.1H283.621V47H281.621ZM282.621 93.1H235.517V95.1H282.621V93.1Z" fill="#34A853" mask="url(#path-249-inside-125_37_310)"/>
<mask id="path-251-inside-126_37_310" fill="white">
<path d="M282.621 47H329.724V94.1H282.621V47Z"/>
</mask>
<path d="M329.724 94.1V95.1H330.724V94.1H329.724ZM328.724 47V94.1H330.724V47H328.724ZM329.724 93.1H282.621V95.1H329.724V93.1Z" fill="#34A853" mask="url(#path-251-inside-126_37_310)"/>
<mask id="path-253-inside-127_37_310" fill="white">
<path d="M329.724 47H376.828V94.1H329.724V47Z"/>
</mask>
<path d="M376.828 94.1V95.1H377.828V94.1H376.828ZM375.828 47V94.1H377.828V47H375.828ZM376.828 93.1H329.724V95.1H376.828V93.1Z" fill="#34A853" mask="url(#path-253-inside-127_37_310)"/>
<mask id="path-255-inside-128_37_310" fill="white">
<path d="M376.828 47H423.931V94.1H376.828V47Z"/>
</mask>
<path d="M423.931 94.1V95.1H424.931V94.1H423.931ZM422.931 47V94.1H424.931V47H422.931ZM423.931 93.1H376.828V95.1H423.931V93.1Z" fill="#34A853" mask="url(#path-255-inside-128_37_310)"/>
<mask id="path-257-inside-129_37_310" fill="white">
<path d="M423.931 47H471.034V94.1H423.931V47Z"/>
</mask>
<path d="M471.034 94.1V95.1H472.034V94.1H471.034ZM470.034 47V94.1H472.034V47H470.034ZM471.034 93.1H423.931V95.1H471.034V93.1Z" fill="#34A853" mask="url(#path-257-inside-129_37_310)"/>
<mask id="path-259-inside-130_37_310" fill="white">
<path d="M471.035 47H518.138V94.1H471.035V47Z"/>
</mask>
<path d="M518.138 94.1V95.1H519.138V94.1H518.138ZM517.138 47V94.1H519.138V47H517.138ZM518.138 93.1H471.035V95.1H518.138V93.1Z" fill="#34A853" mask="url(#path-259-inside-130_37_310)"/>
<mask id="path-261-inside-131_37_310" fill="white">
<path d="M518.138 47H565.241V94.1H518.138V47Z"/>
</mask>
<path d="M565.241 94.1V95.1H566.241V94.1H565.241ZM564.241 47V94.1H566.241V47H564.241ZM565.241 93.1H518.138V95.1H565.241V93.1Z" fill="#34A853" mask="url(#path-261-inside-131_37_310)"/>
<mask id="path-263-inside-132_37_310" fill="white">
<path d="M565.241 47H612.345V94.1H565.241V47Z"/>
</mask>
<path d="M612.345 94.1V95.1H613.345V94.1H612.345ZM611.345 47V94.1H613.345V47H611.345ZM612.345 93.1H565.241V95.1H612.345V93.1Z" fill="#34A853" mask="url(#path-263-inside-132_37_310)"/>
<mask id="path-265-inside-133_37_310" fill="white">
<path d="M612.345 47H659.448V94.1H612.345V47Z"/>
</mask>
<path d="M659.448 94.1V95.1H660.448V94.1H659.448ZM658.448 47V94.1H660.448V47H658.448ZM659.448 93.1H612.345V95.1H659.448V93.1Z" fill="#34A853" mask="url(#path-265-inside-133_37_310)"/>
<mask id="path-267-inside-134_37_310" fill="white">
<path d="M659.448 47H706.552V94.1H659.448V47Z"/>
</mask>
<path d="M706.552 94.1V95.1H707.552V94.1H706.552ZM705.552 47V94.1H707.552V47H705.552ZM706.552 93.1H659.448V95.1H706.552V93.1Z" fill="#34A853" mask="url(#path-267-inside-134_37_310)"/>
<mask id="path-269-inside-135_37_310" fill="white">
<path d="M706.552 47H753.655V94.1H706.552V47Z"/>
</mask>
<path d="M753.655 94.1V95.1H754.655V94.1H753.655ZM752.655 47V94.1H754.655V47H752.655ZM753.655 93.1H706.552V95.1H753.655V93.1Z" fill="#34A853" mask="url(#path-269-inside-135_37_310)"/>
<mask id="path-271-inside-136_37_310" fill="white">
<path d="M753.655 47H800.759V94.1H753.655V47Z"/>
</mask>
<path d="M800.759 94.1V95.1H801.759V94.1H800.759ZM799.759 47V94.1H801.759V47H799.759ZM800.759 93.1H753.655V95.1H800.759V93.1Z" fill="#34A853" mask="url(#path-271-inside-136_37_310)"/>
<mask id="path-273-inside-137_37_310" fill="white">
<path d="M0 423H47.1034V470.1H0V423Z"/>
</mask>
<path d="M47.1034 470.1V471.1H48.1034V470.1H47.1034ZM46.1034 423V470.1H48.1034V423H46.1034ZM47.1034 469.1H0V471.1H47.1034V469.1Z" fill="#34A853" mask="url(#path-273-inside-137_37_310)"/>
<mask id="path-275-inside-138_37_310" fill="white">
<path d="M47.1035 423H94.2069V470.1H47.1035V423Z"/>
</mask>
<path d="M94.2069 470.1V471.1H95.2069V470.1H94.2069ZM93.2069 423V470.1H95.2069V423H93.2069ZM94.2069 469.1H47.1035V471.1H94.2069V469.1Z" fill="#34A853" mask="url(#path-275-inside-138_37_310)"/>
<mask id="path-277-inside-139_37_310" fill="white">
<path d="M94.2069 423H141.31V470.1H94.2069V423Z"/>
</mask>
<path d="M141.31 470.1V471.1H142.31V470.1H141.31ZM140.31 423V470.1H142.31V423H140.31ZM141.31 469.1H94.2069V471.1H141.31V469.1Z" fill="#34A853" mask="url(#path-277-inside-139_37_310)"/>
<mask id="path-279-inside-140_37_310" fill="white">
<path d="M141.31 423H188.414V470.1H141.31V423Z"/>
</mask>
<path d="M188.414 470.1V471.1H189.414V470.1H188.414ZM187.414 423V470.1H189.414V423H187.414ZM188.414 469.1H141.31V471.1H188.414V469.1Z" fill="#34A853" mask="url(#path-279-inside-140_37_310)"/>
<mask id="path-281-inside-141_37_310" fill="white">
<path d="M188.414 423H235.517V470.1H188.414V423Z"/>
</mask>
<path d="M235.517 470.1V471.1H236.517V470.1H235.517ZM234.517 423V470.1H236.517V423H234.517ZM235.517 469.1H188.414V471.1H235.517V469.1Z" fill="#34A853" mask="url(#path-281-inside-141_37_310)"/>
<mask id="path-283-inside-142_37_310" fill="white">
<path d="M235.517 423H282.621V470.1H235.517V423Z"/>
</mask>
<path d="M282.621 470.1V471.1H283.621V470.1H282.621ZM281.621 423V470.1H283.621V423H281.621ZM282.621 469.1H235.517V471.1H282.621V469.1Z" fill="#34A853" mask="url(#path-283-inside-142_37_310)"/>
<mask id="path-285-inside-143_37_310" fill="white">
<path d="M282.621 423H329.724V470.1H282.621V423Z"/>
</mask>
<path d="M329.724 470.1V471.1H330.724V470.1H329.724ZM328.724 423V470.1H330.724V423H328.724ZM329.724 469.1H282.621V471.1H329.724V469.1Z" fill="#34A853" mask="url(#path-285-inside-143_37_310)"/>
<mask id="path-287-inside-144_37_310" fill="white">
<path d="M329.724 423H376.828V470.1H329.724V423Z"/>
</mask>
<path d="M376.828 470.1V471.1H377.828V470.1H376.828ZM375.828 423V470.1H377.828V423H375.828ZM376.828 469.1H329.724V471.1H376.828V469.1Z" fill="#34A853" mask="url(#path-287-inside-144_37_310)"/>
<mask id="path-289-inside-145_37_310" fill="white">
<path d="M376.828 423H423.931V470.1H376.828V423Z"/>
</mask>
<path d="M423.931 470.1V471.1H424.931V470.1H423.931ZM422.931 423V470.1H424.931V423H422.931ZM423.931 469.1H376.828V471.1H423.931V469.1Z" fill="#34A853" mask="url(#path-289-inside-145_37_310)"/>
<mask id="path-291-inside-146_37_310" fill="white">
<path d="M423.931 423H471.034V470.1H423.931V423Z"/>
</mask>
<path d="M471.034 470.1V471.1H472.034V470.1H471.034ZM470.034 423V470.1H472.034V423H470.034ZM471.034 469.1H423.931V471.1H471.034V469.1Z" fill="#34A853" mask="url(#path-291-inside-146_37_310)"/>
<mask id="path-293-inside-147_37_310" fill="white">
<path d="M471.035 423H518.138V470.1H471.035V423Z"/>
</mask>
<path d="M518.138 470.1V471.1H519.138V470.1H518.138ZM517.138 423V470.1H519.138V423H517.138ZM518.138 469.1H471.035V471.1H518.138V469.1Z" fill="#34A853" mask="url(#path-293-inside-147_37_310)"/>
<mask id="path-295-inside-148_37_310" fill="white">
<path d="M518.138 423H565.241V470.1H518.138V423Z"/>
</mask>
<path d="M565.241 470.1V471.1H566.241V470.1H565.241ZM564.241 423V470.1H566.241V423H564.241ZM565.241 469.1H518.138V471.1H565.241V469.1Z" fill="#34A853" mask="url(#path-295-inside-148_37_310)"/>
<mask id="path-297-inside-149_37_310" fill="white">
<path d="M565.241 423H612.345V470.1H565.241V423Z"/>
</mask>
<path d="M612.345 470.1V471.1H613.345V470.1H612.345ZM611.345 423V470.1H613.345V423H611.345ZM612.345 469.1H565.241V471.1H612.345V469.1Z" fill="#34A853" mask="url(#path-297-inside-149_37_310)"/>
<mask id="path-299-inside-150_37_310" fill="white">
<path d="M612.345 423H659.448V470.1H612.345V423Z"/>
</mask>
<path d="M659.448 470.1V471.1H660.448V470.1H659.448ZM658.448 423V470.1H660.448V423H658.448ZM659.448 469.1H612.345V471.1H659.448V469.1Z" fill="#34A853" mask="url(#path-299-inside-150_37_310)"/>
<mask id="path-301-inside-151_37_310" fill="white">
<path d="M659.448 423H706.552V470.1H659.448V423Z"/>
</mask>
<path d="M706.552 470.1V471.1H707.552V470.1H706.552ZM705.552 423V470.1H707.552V423H705.552ZM706.552 469.1H659.448V471.1H706.552V469.1Z" fill="#34A853" mask="url(#path-301-inside-151_37_310)"/>
<mask id="path-303-inside-152_37_310" fill="white">
<path d="M706.552 423H753.655V470.1H706.552V423Z"/>
</mask>
<path d="M753.655 470.1V471.1H754.655V470.1H753.655ZM752.655 423V470.1H754.655V423H752.655ZM753.655 469.1H706.552V471.1H753.655V469.1Z" fill="#34A853" mask="url(#path-303-inside-152_37_310)"/>
<mask id="path-305-inside-153_37_310" fill="white">
<path d="M753.655 423H800.759V470.1H753.655V423Z"/>
</mask>
<path d="M800.759 470.1V471.1H801.759V470.1H800.759ZM799.759 423V470.1H801.759V423H799.759ZM800.759 469.1H753.655V471.1H800.759V469.1Z" fill="#34A853" mask="url(#path-305-inside-153_37_310)"/>
<mask id="path-307-inside-154_37_310" fill="white">
<path d="M0 235H47.1034V282.1H0V235Z"/>
</mask>
<path d="M47.1034 282.1V283.1H48.1034V282.1H47.1034ZM46.1034 235V282.1H48.1034V235H46.1034ZM47.1034 281.1H0V283.1H47.1034V281.1Z" fill="#34A853" mask="url(#path-307-inside-154_37_310)"/>
<mask id="path-309-inside-155_37_310" fill="white">
<path d="M47.1035 235H94.2069V282.1H47.1035V235Z"/>
</mask>
<path d="M94.2069 282.1V283.1H95.2069V282.1H94.2069ZM93.2069 235V282.1H95.2069V235H93.2069ZM94.2069 281.1H47.1035V283.1H94.2069V281.1Z" fill="#34A853" mask="url(#path-309-inside-155_37_310)"/>
<mask id="path-311-inside-156_37_310" fill="white">
<path d="M94.2069 235H141.31V282.1H94.2069V235Z"/>
</mask>
<path d="M141.31 282.1V283.1H142.31V282.1H141.31ZM140.31 235V282.1H142.31V235H140.31ZM141.31 281.1H94.2069V283.1H141.31V281.1Z" fill="#34A853" mask="url(#path-311-inside-156_37_310)"/>
<mask id="path-313-inside-157_37_310" fill="white">
<path d="M141.31 235H188.414V282.1H141.31V235Z"/>
</mask>
<path d="M188.414 282.1V283.1H189.414V282.1H188.414ZM187.414 235V282.1H189.414V235H187.414ZM188.414 281.1H141.31V283.1H188.414V281.1Z" fill="#34A853" mask="url(#path-313-inside-157_37_310)"/>
<mask id="path-315-inside-158_37_310" fill="white">
<path d="M188.414 235H235.517V282.1H188.414V235Z"/>
</mask>
<path d="M235.517 282.1V283.1H236.517V282.1H235.517ZM234.517 235V282.1H236.517V235H234.517ZM235.517 281.1H188.414V283.1H235.517V281.1Z" fill="#34A853" mask="url(#path-315-inside-158_37_310)"/>
<mask id="path-317-inside-159_37_310" fill="white">
<path d="M235.517 235H282.621V282.1H235.517V235Z"/>
</mask>
<path d="M282.621 282.1V283.1H283.621V282.1H282.621ZM281.621 235V282.1H283.621V235H281.621ZM282.621 281.1H235.517V283.1H282.621V281.1Z" fill="#34A853" mask="url(#path-317-inside-159_37_310)"/>
<mask id="path-319-inside-160_37_310" fill="white">
<path d="M282.621 235H329.724V282.1H282.621V235Z"/>
</mask>
<path d="M329.724 282.1V283.1H330.724V282.1H329.724ZM328.724 235V282.1H330.724V235H328.724ZM329.724 281.1H282.621V283.1H329.724V281.1Z" fill="#34A853" mask="url(#path-319-inside-160_37_310)"/>
<mask id="path-321-inside-161_37_310" fill="white">
<path d="M329.724 235H376.828V282.1H329.724V235Z"/>
</mask>
<path d="M376.828 282.1V283.1H377.828V282.1H376.828ZM375.828 235V282.1H377.828V235H375.828ZM376.828 281.1H329.724V283.1H376.828V281.1Z" fill="#34A853" mask="url(#path-321-inside-161_37_310)"/>
<mask id="path-323-inside-162_37_310" fill="white">
<path d="M376.828 235H423.931V282.1H376.828V235Z"/>
</mask>
<path d="M423.931 282.1V283.1H424.931V282.1H423.931ZM422.931 235V282.1H424.931V235H422.931ZM423.931 281.1H376.828V283.1H423.931V281.1Z" fill="#34A853" mask="url(#path-323-inside-162_37_310)"/>
<mask id="path-325-inside-163_37_310" fill="white">
<path d="M423.931 235H471.034V282.1H423.931V235Z"/>
</mask>
<path d="M471.034 282.1V283.1H472.034V282.1H471.034ZM470.034 235V282.1H472.034V235H470.034ZM471.034 281.1H423.931V283.1H471.034V281.1Z" fill="#34A853" mask="url(#path-325-inside-163_37_310)"/>
<mask id="path-327-inside-164_37_310" fill="white">
<path d="M471.035 235H518.138V282.1H471.035V235Z"/>
</mask>
<path d="M518.138 282.1V283.1H519.138V282.1H518.138ZM517.138 235V282.1H519.138V235H517.138ZM518.138 281.1H471.035V283.1H518.138V281.1Z" fill="#34A853" mask="url(#path-327-inside-164_37_310)"/>
<mask id="path-329-inside-165_37_310" fill="white">
<path d="M518.138 235H565.241V282.1H518.138V235Z"/>
</mask>
<path d="M565.241 282.1V283.1H566.241V282.1H565.241ZM564.241 235V282.1H566.241V235H564.241ZM565.241 281.1H518.138V283.1H565.241V281.1Z" fill="#34A853" mask="url(#path-329-inside-165_37_310)"/>
<mask id="path-331-inside-166_37_310" fill="white">
<path d="M565.241 235H612.345V282.1H565.241V235Z"/>
</mask>
<path d="M612.345 282.1V283.1H613.345V282.1H612.345ZM611.345 235V282.1H613.345V235H611.345ZM612.345 281.1H565.241V283.1H612.345V281.1Z" fill="#34A853" mask="url(#path-331-inside-166_37_310)"/>
<mask id="path-333-inside-167_37_310" fill="white">
<path d="M612.345 235H659.448V282.1H612.345V235Z"/>
</mask>
<path d="M659.448 282.1V283.1H660.448V282.1H659.448ZM658.448 235V282.1H660.448V235H658.448ZM659.448 281.1H612.345V283.1H659.448V281.1Z" fill="#34A853" mask="url(#path-333-inside-167_37_310)"/>
<mask id="path-335-inside-168_37_310" fill="white">
<path d="M659.448 235H706.552V282.1H659.448V235Z"/>
</mask>
<path d="M706.552 282.1V283.1H707.552V282.1H706.552ZM705.552 235V282.1H707.552V235H705.552ZM706.552 281.1H659.448V283.1H706.552V281.1Z" fill="#34A853" mask="url(#path-335-inside-168_37_310)"/>
<mask id="path-337-inside-169_37_310" fill="white">
<path d="M706.552 235H753.655V282.1H706.552V235Z"/>
</mask>
<path d="M753.655 282.1V283.1H754.655V282.1H753.655ZM752.655 235V282.1H754.655V235H752.655ZM753.655 281.1H706.552V283.1H753.655V281.1Z" fill="#34A853" mask="url(#path-337-inside-169_37_310)"/>
<mask id="path-339-inside-170_37_310" fill="white">
<path d="M753.655 235H800.759V282.1H753.655V235Z"/>
</mask>
<path d="M800.759 282.1V283.1H801.759V282.1H800.759ZM799.759 235V282.1H801.759V235H799.759ZM800.759 281.1H753.655V283.1H800.759V281.1Z" fill="#34A853" mask="url(#path-339-inside-170_37_310)"/>
<mask id="path-341-inside-171_37_310" fill="white">
<path d="M0 611H47.1034V658.1H0V611Z"/>
</mask>
<path d="M47.1034 658.1V659.1H48.1034V658.1H47.1034ZM46.1034 611V658.1H48.1034V611H46.1034ZM47.1034 657.1H0V659.1H47.1034V657.1Z" fill="#34A853" mask="url(#path-341-inside-171_37_310)"/>
<mask id="path-343-inside-172_37_310" fill="white">
<path d="M47.1035 611H94.2069V658.1H47.1035V611Z"/>
</mask>
<path d="M94.2069 658.1V659.1H95.2069V658.1H94.2069ZM93.2069 611V658.1H95.2069V611H93.2069ZM94.2069 657.1H47.1035V659.1H94.2069V657.1Z" fill="#34A853" mask="url(#path-343-inside-172_37_310)"/>
<mask id="path-345-inside-173_37_310" fill="white">
<path d="M94.2069 611H141.31V658.1H94.2069V611Z"/>
</mask>
<path d="M141.31 658.1V659.1H142.31V658.1H141.31ZM140.31 611V658.1H142.31V611H140.31ZM141.31 657.1H94.2069V659.1H141.31V657.1Z" fill="#34A853" mask="url(#path-345-inside-173_37_310)"/>
<mask id="path-347-inside-174_37_310" fill="white">
<path d="M141.31 611H188.414V658.1H141.31V611Z"/>
</mask>
<path d="M188.414 658.1V659.1H189.414V658.1H188.414ZM187.414 611V658.1H189.414V611H187.414ZM188.414 657.1H141.31V659.1H188.414V657.1Z" fill="#34A853" mask="url(#path-347-inside-174_37_310)"/>
<mask id="path-349-inside-175_37_310" fill="white">
<path d="M188.414 611H235.517V658.1H188.414V611Z"/>
</mask>
<path d="M235.517 658.1V659.1H236.517V658.1H235.517ZM234.517 611V658.1H236.517V611H234.517ZM235.517 657.1H188.414V659.1H235.517V657.1Z" fill="#34A853" mask="url(#path-349-inside-175_37_310)"/>
<mask id="path-351-inside-176_37_310" fill="white">
<path d="M235.517 611H282.621V658.1H235.517V611Z"/>
</mask>
<path d="M282.621 658.1V659.1H283.621V658.1H282.621ZM281.621 611V658.1H283.621V611H281.621ZM282.621 657.1H235.517V659.1H282.621V657.1Z" fill="#34A853" mask="url(#path-351-inside-176_37_310)"/>
<mask id="path-353-inside-177_37_310" fill="white">
<path d="M282.621 611H329.724V658.1H282.621V611Z"/>
</mask>
<path d="M329.724 658.1V659.1H330.724V658.1H329.724ZM328.724 611V658.1H330.724V611H328.724ZM329.724 657.1H282.621V659.1H329.724V657.1Z" fill="#34A853" mask="url(#path-353-inside-177_37_310)"/>
<mask id="path-355-inside-178_37_310" fill="white">
<path d="M329.724 611H376.828V658.1H329.724V611Z"/>
</mask>
<path d="M376.828 658.1V659.1H377.828V658.1H376.828ZM375.828 611V658.1H377.828V611H375.828ZM376.828 657.1H329.724V659.1H376.828V657.1Z" fill="#34A853" mask="url(#path-355-inside-178_37_310)"/>
<mask id="path-357-inside-179_37_310" fill="white">
<path d="M376.828 611H423.931V658.1H376.828V611Z"/>
</mask>
<path d="M423.931 658.1V659.1H424.931V658.1H423.931ZM422.931 611V658.1H424.931V611H422.931ZM423.931 657.1H376.828V659.1H423.931V657.1Z" fill="#34A853" mask="url(#path-357-inside-179_37_310)"/>
<mask id="path-359-inside-180_37_310" fill="white">
<path d="M423.931 611H471.034V658.1H423.931V611Z"/>
</mask>
<path d="M471.034 658.1V659.1H472.034V658.1H471.034ZM470.034 611V658.1H472.034V611H470.034ZM471.034 657.1H423.931V659.1H471.034V657.1Z" fill="#34A853" mask="url(#path-359-inside-180_37_310)"/>
<mask id="path-361-inside-181_37_310" fill="white">
<path d="M471.035 611H518.138V658.1H471.035V611Z"/>
</mask>
<path d="M518.138 658.1V659.1H519.138V658.1H518.138ZM517.138 611V658.1H519.138V611H517.138ZM518.138 657.1H471.035V659.1H518.138V657.1Z" fill="#34A853" mask="url(#path-361-inside-181_37_310)"/>
<mask id="path-363-inside-182_37_310" fill="white">
<path d="M518.138 611H565.241V658.1H518.138V611Z"/>
</mask>
<path d="M565.241 658.1V659.1H566.241V658.1H565.241ZM564.241 611V658.1H566.241V611H564.241ZM565.241 657.1H518.138V659.1H565.241V657.1Z" fill="#34A853" mask="url(#path-363-inside-182_37_310)"/>
<mask id="path-365-inside-183_37_310" fill="white">
<path d="M565.241 611H612.345V658.1H565.241V611Z"/>
</mask>
<path d="M612.345 658.1V659.1H613.345V658.1H612.345ZM611.345 611V658.1H613.345V611H611.345ZM612.345 657.1H565.241V659.1H612.345V657.1Z" fill="#34A853" mask="url(#path-365-inside-183_37_310)"/>
<mask id="path-367-inside-184_37_310" fill="white">
<path d="M612.345 611H659.448V658.1H612.345V611Z"/>
</mask>
<path d="M659.448 658.1V659.1H660.448V658.1H659.448ZM658.448 611V658.1H660.448V611H658.448ZM659.448 657.1H612.345V659.1H659.448V657.1Z" fill="#34A853" mask="url(#path-367-inside-184_37_310)"/>
<mask id="path-369-inside-185_37_310" fill="white">
<path d="M659.448 611H706.552V658.1H659.448V611Z"/>
</mask>
<path d="M706.552 658.1V659.1H707.552V658.1H706.552ZM705.552 611V658.1H707.552V611H705.552ZM706.552 657.1H659.448V659.1H706.552V657.1Z" fill="#34A853" mask="url(#path-369-inside-185_37_310)"/>
<mask id="path-371-inside-186_37_310" fill="white">
<path d="M706.552 611H753.655V658.1H706.552V611Z"/>
</mask>
<path d="M753.655 658.1V659.1H754.655V658.1H753.655ZM752.655 611V658.1H754.655V611H752.655ZM753.655 657.1H706.552V659.1H753.655V657.1Z" fill="#34A853" mask="url(#path-371-inside-186_37_310)"/>
<mask id="path-373-inside-187_37_310" fill="white">
<path d="M753.655 611H800.759V658.1H753.655V611Z"/>
</mask>
<path d="M800.759 658.1V659.1H801.759V658.1H800.759ZM799.759 611V658.1H801.759V611H799.759ZM800.759 657.1H753.655V659.1H800.759V657.1Z" fill="#34A853" mask="url(#path-373-inside-187_37_310)"/>
<mask id="path-375-inside-188_37_310" fill="white">
<path d="M0 141H47.1034V188.1H0V141Z"/>
</mask>
<path d="M47.1034 188.1V189.1H48.1034V188.1H47.1034ZM46.1034 141V188.1H48.1034V141H46.1034ZM47.1034 187.1H0V189.1H47.1034V187.1Z" fill="#34A853" mask="url(#path-375-inside-188_37_310)"/>
<mask id="path-377-inside-189_37_310" fill="white">
<path d="M47.1035 141H94.2069V188.1H47.1035V141Z"/>
</mask>
<path d="M94.2069 188.1V189.1H95.2069V188.1H94.2069ZM93.2069 141V188.1H95.2069V141H93.2069ZM94.2069 187.1H47.1035V189.1H94.2069V187.1Z" fill="#34A853" mask="url(#path-377-inside-189_37_310)"/>
<mask id="path-379-inside-190_37_310" fill="white">
<path d="M94.2069 141H141.31V188.1H94.2069V141Z"/>
</mask>
<path d="M141.31 188.1V189.1H142.31V188.1H141.31ZM140.31 141V188.1H142.31V141H140.31ZM141.31 187.1H94.2069V189.1H141.31V187.1Z" fill="#34A853" mask="url(#path-379-inside-190_37_310)"/>
<mask id="path-381-inside-191_37_310" fill="white">
<path d="M141.31 141H188.414V188.1H141.31V141Z"/>
</mask>
<path d="M188.414 188.1V189.1H189.414V188.1H188.414ZM187.414 141V188.1H189.414V141H187.414ZM188.414 187.1H141.31V189.1H188.414V187.1Z" fill="#34A853" mask="url(#path-381-inside-191_37_310)"/>
<mask id="path-383-inside-192_37_310" fill="white">
<path d="M188.414 141H235.517V188.1H188.414V141Z"/>
</mask>
<path d="M235.517 188.1V189.1H236.517V188.1H235.517ZM234.517 141V188.1H236.517V141H234.517ZM235.517 187.1H188.414V189.1H235.517V187.1Z" fill="#34A853" mask="url(#path-383-inside-192_37_310)"/>
<mask id="path-385-inside-193_37_310" fill="white">
<path d="M235.517 141H282.621V188.1H235.517V141Z"/>
</mask>
<path d="M282.621 188.1V189.1H283.621V188.1H282.621ZM281.621 141V188.1H283.621V141H281.621ZM282.621 187.1H235.517V189.1H282.621V187.1Z" fill="#34A853" mask="url(#path-385-inside-193_37_310)"/>
<mask id="path-387-inside-194_37_310" fill="white">
<path d="M282.621 141H329.724V188.1H282.621V141Z"/>
</mask>
<path d="M329.724 188.1V189.1H330.724V188.1H329.724ZM328.724 141V188.1H330.724V141H328.724ZM329.724 187.1H282.621V189.1H329.724V187.1Z" fill="#34A853" mask="url(#path-387-inside-194_37_310)"/>
<mask id="path-389-inside-195_37_310" fill="white">
<path d="M329.724 141H376.828V188.1H329.724V141Z"/>
</mask>
<path d="M376.828 188.1V189.1H377.828V188.1H376.828ZM375.828 141V188.1H377.828V141H375.828ZM376.828 187.1H329.724V189.1H376.828V187.1Z" fill="#34A853" mask="url(#path-389-inside-195_37_310)"/>
<mask id="path-391-inside-196_37_310" fill="white">
<path d="M376.828 141H423.931V188.1H376.828V141Z"/>
</mask>
<path d="M423.931 188.1V189.1H424.931V188.1H423.931ZM422.931 141V188.1H424.931V141H422.931ZM423.931 187.1H376.828V189.1H423.931V187.1Z" fill="#34A853" mask="url(#path-391-inside-196_37_310)"/>
<mask id="path-393-inside-197_37_310" fill="white">
<path d="M423.931 141H471.034V188.1H423.931V141Z"/>
</mask>
<path d="M471.034 188.1V189.1H472.034V188.1H471.034ZM470.034 141V188.1H472.034V141H470.034ZM471.034 187.1H423.931V189.1H471.034V187.1Z" fill="#34A853" mask="url(#path-393-inside-197_37_310)"/>
<mask id="path-395-inside-198_37_310" fill="white">
<path d="M471.035 141H518.138V188.1H471.035V141Z"/>
</mask>
<path d="M518.138 188.1V189.1H519.138V188.1H518.138ZM517.138 141V188.1H519.138V141H517.138ZM518.138 187.1H471.035V189.1H518.138V187.1Z" fill="#34A853" mask="url(#path-395-inside-198_37_310)"/>
<mask id="path-397-inside-199_37_310" fill="white">
<path d="M518.138 141H565.241V188.1H518.138V141Z"/>
</mask>
<path d="M565.241 188.1V189.1H566.241V188.1H565.241ZM564.241 141V188.1H566.241V141H564.241ZM565.241 187.1H518.138V189.1H565.241V187.1Z" fill="#34A853" mask="url(#path-397-inside-199_37_310)"/>
<mask id="path-399-inside-200_37_310" fill="white">
<path d="M565.241 141H612.345V188.1H565.241V141Z"/>
</mask>
<path d="M612.345 188.1V189.1H613.345V188.1H612.345ZM611.345 141V188.1H613.345V141H611.345ZM612.345 187.1H565.241V189.1H612.345V187.1Z" fill="#34A853" mask="url(#path-399-inside-200_37_310)"/>
<mask id="path-401-inside-201_37_310" fill="white">
<path d="M612.345 141H659.448V188.1H612.345V141Z"/>
</mask>
<path d="M659.448 188.1V189.1H660.448V188.1H659.448ZM658.448 141V188.1H660.448V141H658.448ZM659.448 187.1H612.345V189.1H659.448V187.1Z" fill="#34A853" mask="url(#path-401-inside-201_37_310)"/>
<mask id="path-403-inside-202_37_310" fill="white">
<path d="M659.448 141H706.552V188.1H659.448V141Z"/>
</mask>
<path d="M706.552 188.1V189.1H707.552V188.1H706.552ZM705.552 141V188.1H707.552V141H705.552ZM706.552 187.1H659.448V189.1H706.552V187.1Z" fill="#34A853" mask="url(#path-403-inside-202_37_310)"/>
<mask id="path-405-inside-203_37_310" fill="white">
<path d="M706.552 141H753.655V188.1H706.552V141Z"/>
</mask>
<path d="M753.655 188.1V189.1H754.655V188.1H753.655ZM752.655 141V188.1H754.655V141H752.655ZM753.655 187.1H706.552V189.1H753.655V187.1Z" fill="#34A853" mask="url(#path-405-inside-203_37_310)"/>
<mask id="path-407-inside-204_37_310" fill="white">
<path d="M753.655 141H800.759V188.1H753.655V141Z"/>
</mask>
<path d="M800.759 188.1V189.1H801.759V188.1H800.759ZM799.759 141V188.1H801.759V141H799.759ZM800.759 187.1H753.655V189.1H800.759V187.1Z" fill="#34A853" mask="url(#path-407-inside-204_37_310)"/>
<mask id="path-409-inside-205_37_310" fill="white">
<path d="M0 517H47.1034V564.1H0V517Z"/>
</mask>
<path d="M47.1034 564.1V565.1H48.1034V564.1H47.1034ZM46.1034 517V564.1H48.1034V517H46.1034ZM47.1034 563.1H0V565.1H47.1034V563.1Z" fill="#34A853" mask="url(#path-409-inside-205_37_310)"/>
<mask id="path-411-inside-206_37_310" fill="white">
<path d="M47.1035 517H94.2069V564.1H47.1035V517Z"/>
</mask>
<path d="M94.2069 564.1V565.1H95.2069V564.1H94.2069ZM93.2069 517V564.1H95.2069V517H93.2069ZM94.2069 563.1H47.1035V565.1H94.2069V563.1Z" fill="#34A853" mask="url(#path-411-inside-206_37_310)"/>
<mask id="path-413-inside-207_37_310" fill="white">
<path d="M94.2069 517H141.31V564.1H94.2069V517Z"/>
</mask>
<path d="M141.31 564.1V565.1H142.31V564.1H141.31ZM140.31 517V564.1H142.31V517H140.31ZM141.31 563.1H94.2069V565.1H141.31V563.1Z" fill="#34A853" mask="url(#path-413-inside-207_37_310)"/>
<mask id="path-415-inside-208_37_310" fill="white">
<path d="M141.31 517H188.414V564.1H141.31V517Z"/>
</mask>
<path d="M188.414 564.1V565.1H189.414V564.1H188.414ZM187.414 517V564.1H189.414V517H187.414ZM188.414 563.1H141.31V565.1H188.414V563.1Z" fill="#34A853" mask="url(#path-415-inside-208_37_310)"/>
<mask id="path-417-inside-209_37_310" fill="white">
<path d="M188.414 517H235.517V564.1H188.414V517Z"/>
</mask>
<path d="M235.517 564.1V565.1H236.517V564.1H235.517ZM234.517 517V564.1H236.517V517H234.517ZM235.517 563.1H188.414V565.1H235.517V563.1Z" fill="#34A853" mask="url(#path-417-inside-209_37_310)"/>
<mask id="path-419-inside-210_37_310" fill="white">
<path d="M235.517 517H282.621V564.1H235.517V517Z"/>
</mask>
<path d="M282.621 564.1V565.1H283.621V564.1H282.621ZM281.621 517V564.1H283.621V517H281.621ZM282.621 563.1H235.517V565.1H282.621V563.1Z" fill="#34A853" mask="url(#path-419-inside-210_37_310)"/>
<mask id="path-421-inside-211_37_310" fill="white">
<path d="M282.621 517H329.724V564.1H282.621V517Z"/>
</mask>
<path d="M329.724 564.1V565.1H330.724V564.1H329.724ZM328.724 517V564.1H330.724V517H328.724ZM329.724 563.1H282.621V565.1H329.724V563.1Z" fill="#34A853" mask="url(#path-421-inside-211_37_310)"/>
<mask id="path-423-inside-212_37_310" fill="white">
<path d="M329.724 517H376.828V564.1H329.724V517Z"/>
</mask>
<path d="M376.828 564.1V565.1H377.828V564.1H376.828ZM375.828 517V564.1H377.828V517H375.828ZM376.828 563.1H329.724V565.1H376.828V563.1Z" fill="#34A853" mask="url(#path-423-inside-212_37_310)"/>
<mask id="path-425-inside-213_37_310" fill="white">
<path d="M376.828 517H423.931V564.1H376.828V517Z"/>
</mask>
<path d="M423.931 564.1V565.1H424.931V564.1H423.931ZM422.931 517V564.1H424.931V517H422.931ZM423.931 563.1H376.828V565.1H423.931V563.1Z" fill="#34A853" mask="url(#path-425-inside-213_37_310)"/>
<mask id="path-427-inside-214_37_310" fill="white">
<path d="M423.931 517H471.034V564.1H423.931V517Z"/>
</mask>
<path d="M471.034 564.1V565.1H472.034V564.1H471.034ZM470.034 517V564.1H472.034V517H470.034ZM471.034 563.1H423.931V565.1H471.034V563.1Z" fill="#34A853" mask="url(#path-427-inside-214_37_310)"/>
<mask id="path-429-inside-215_37_310" fill="white">
<path d="M471.035 517H518.138V564.1H471.035V517Z"/>
</mask>
<path d="M518.138 564.1V565.1H519.138V564.1H518.138ZM517.138 517V564.1H519.138V517H517.138ZM518.138 563.1H471.035V565.1H518.138V563.1Z" fill="#34A853" mask="url(#path-429-inside-215_37_310)"/>
<mask id="path-431-inside-216_37_310" fill="white">
<path d="M518.138 517H565.241V564.1H518.138V517Z"/>
</mask>
<path d="M565.241 564.1V565.1H566.241V564.1H565.241ZM564.241 517V564.1H566.241V517H564.241ZM565.241 563.1H518.138V565.1H565.241V563.1Z" fill="#34A853" mask="url(#path-431-inside-216_37_310)"/>
<mask id="path-433-inside-217_37_310" fill="white">
<path d="M565.241 517H612.345V564.1H565.241V517Z"/>
</mask>
<path d="M612.345 564.1V565.1H613.345V564.1H612.345ZM611.345 517V564.1H613.345V517H611.345ZM612.345 563.1H565.241V565.1H612.345V563.1Z" fill="#34A853" mask="url(#path-433-inside-217_37_310)"/>
<mask id="path-435-inside-218_37_310" fill="white">
<path d="M612.345 517H659.448V564.1H612.345V517Z"/>
</mask>
<path d="M659.448 564.1V565.1H660.448V564.1H659.448ZM658.448 517V564.1H660.448V517H658.448ZM659.448 563.1H612.345V565.1H659.448V563.1Z" fill="#34A853" mask="url(#path-435-inside-218_37_310)"/>
<mask id="path-437-inside-219_37_310" fill="white">
<path d="M659.448 517H706.552V564.1H659.448V517Z"/>
</mask>
<path d="M706.552 564.1V565.1H707.552V564.1H706.552ZM705.552 517V564.1H707.552V517H705.552ZM706.552 563.1H659.448V565.1H706.552V563.1Z" fill="#34A853" mask="url(#path-437-inside-219_37_310)"/>
<mask id="path-439-inside-220_37_310" fill="white">
<path d="M706.552 517H753.655V564.1H706.552V517Z"/>
</mask>
<path d="M753.655 564.1V565.1H754.655V564.1H753.655ZM752.655 517V564.1H754.655V517H752.655ZM753.655 563.1H706.552V565.1H753.655V563.1Z" fill="#34A853" mask="url(#path-439-inside-220_37_310)"/>
<mask id="path-441-inside-221_37_310" fill="white">
<path d="M753.655 517H800.759V564.1H753.655V517Z"/>
</mask>
<path d="M800.759 564.1V565.1H801.759V564.1H800.759ZM799.759 517V564.1H801.759V517H799.759ZM800.759 563.1H753.655V565.1H800.759V563.1Z" fill="#34A853" mask="url(#path-441-inside-221_37_310)"/>
<mask id="path-443-inside-222_37_310" fill="white">
<path d="M0 329H47.1034V376.1H0V329Z"/>
</mask>
<path d="M47.1034 376.1V377.1H48.1034V376.1H47.1034ZM46.1034 329V376.1H48.1034V329H46.1034ZM47.1034 375.1H0V377.1H47.1034V375.1Z" fill="#34A853" mask="url(#path-443-inside-222_37_310)"/>
<mask id="path-445-inside-223_37_310" fill="white">
<path d="M47.1035 329H94.2069V376.1H47.1035V329Z"/>
</mask>
<path d="M94.2069 376.1V377.1H95.2069V376.1H94.2069ZM93.2069 329V376.1H95.2069V329H93.2069ZM94.2069 375.1H47.1035V377.1H94.2069V375.1Z" fill="#34A853" mask="url(#path-445-inside-223_37_310)"/>
<mask id="path-447-inside-224_37_310" fill="white">
<path d="M94.2069 329H141.31V376.1H94.2069V329Z"/>
</mask>
<path d="M141.31 376.1V377.1H142.31V376.1H141.31ZM140.31 329V376.1H142.31V329H140.31ZM141.31 375.1H94.2069V377.1H141.31V375.1Z" fill="#34A853" mask="url(#path-447-inside-224_37_310)"/>
<mask id="path-449-inside-225_37_310" fill="white">
<path d="M141.31 329H188.414V376.1H141.31V329Z"/>
</mask>
<path d="M188.414 376.1V377.1H189.414V376.1H188.414ZM187.414 329V376.1H189.414V329H187.414ZM188.414 375.1H141.31V377.1H188.414V375.1Z" fill="#34A853" mask="url(#path-449-inside-225_37_310)"/>
<mask id="path-451-inside-226_37_310" fill="white">
<path d="M188.414 329H235.517V376.1H188.414V329Z"/>
</mask>
<path d="M235.517 376.1V377.1H236.517V376.1H235.517ZM234.517 329V376.1H236.517V329H234.517ZM235.517 375.1H188.414V377.1H235.517V375.1Z" fill="#34A853" mask="url(#path-451-inside-226_37_310)"/>
<mask id="path-453-inside-227_37_310" fill="white">
<path d="M235.517 329H282.621V376.1H235.517V329Z"/>
</mask>
<path d="M282.621 376.1V377.1H283.621V376.1H282.621ZM281.621 329V376.1H283.621V329H281.621ZM282.621 375.1H235.517V377.1H282.621V375.1Z" fill="#34A853" mask="url(#path-453-inside-227_37_310)"/>
<mask id="path-455-inside-228_37_310" fill="white">
<path d="M282.621 329H329.724V376.1H282.621V329Z"/>
</mask>
<path d="M329.724 376.1V377.1H330.724V376.1H329.724ZM328.724 329V376.1H330.724V329H328.724ZM329.724 375.1H282.621V377.1H329.724V375.1Z" fill="#34A853" mask="url(#path-455-inside-228_37_310)"/>
<mask id="path-457-inside-229_37_310" fill="white">
<path d="M329.724 329H376.828V376.1H329.724V329Z"/>
</mask>
<path d="M376.828 376.1V377.1H377.828V376.1H376.828ZM375.828 329V376.1H377.828V329H375.828ZM376.828 375.1H329.724V377.1H376.828V375.1Z" fill="#34A853" mask="url(#path-457-inside-229_37_310)"/>
<mask id="path-459-inside-230_37_310" fill="white">
<path d="M376.828 329H423.931V376.1H376.828V329Z"/>
</mask>
<path d="M423.931 376.1V377.1H424.931V376.1H423.931ZM422.931 329V376.1H424.931V329H422.931ZM423.931 375.1H376.828V377.1H423.931V375.1Z" fill="#34A853" mask="url(#path-459-inside-230_37_310)"/>
<mask id="path-461-inside-231_37_310" fill="white">
<path d="M423.931 329H471.034V376.1H423.931V329Z"/>
</mask>
<path d="M471.034 376.1V377.1H472.034V376.1H471.034ZM470.034 329V376.1H472.034V329H470.034ZM471.034 375.1H423.931V377.1H471.034V375.1Z" fill="#34A853" mask="url(#path-461-inside-231_37_310)"/>
<mask id="path-463-inside-232_37_310" fill="white">
<path d="M471.035 329H518.138V376.1H471.035V329Z"/>
</mask>
<path d="M518.138 376.1V377.1H519.138V376.1H518.138ZM517.138 329V376.1H519.138V329H517.138ZM518.138 375.1H471.035V377.1H518.138V375.1Z" fill="#34A853" mask="url(#path-463-inside-232_37_310)"/>
<mask id="path-465-inside-233_37_310" fill="white">
<path d="M518.138 329H565.241V376.1H518.138V329Z"/>
</mask>
<path d="M565.241 376.1V377.1H566.241V376.1H565.241ZM564.241 329V376.1H566.241V329H564.241ZM565.241 375.1H518.138V377.1H565.241V375.1Z" fill="#34A853" mask="url(#path-465-inside-233_37_310)"/>
<mask id="path-467-inside-234_37_310" fill="white">
<path d="M565.241 329H612.345V376.1H565.241V329Z"/>
</mask>
<path d="M612.345 376.1V377.1H613.345V376.1H612.345ZM611.345 329V376.1H613.345V329H611.345ZM612.345 375.1H565.241V377.1H612.345V375.1Z" fill="#34A853" mask="url(#path-467-inside-234_37_310)"/>
<mask id="path-469-inside-235_37_310" fill="white">
<path d="M612.345 329H659.448V376.1H612.345V329Z"/>
</mask>
<path d="M659.448 376.1V377.1H660.448V376.1H659.448ZM658.448 329V376.1H660.448V329H658.448ZM659.448 375.1H612.345V377.1H659.448V375.1Z" fill="#34A853" mask="url(#path-469-inside-235_37_310)"/>
<mask id="path-471-inside-236_37_310" fill="white">
<path d="M659.448 329H706.552V376.1H659.448V329Z"/>
</mask>
<path d="M706.552 376.1V377.1H707.552V376.1H706.552ZM705.552 329V376.1H707.552V329H705.552ZM706.552 375.1H659.448V377.1H706.552V375.1Z" fill="#34A853" mask="url(#path-471-inside-236_37_310)"/>
<mask id="path-473-inside-237_37_310" fill="white">
<path d="M706.552 329H753.655V376.1H706.552V329Z"/>
</mask>
<path d="M753.655 376.1V377.1H754.655V376.1H753.655ZM752.655 329V376.1H754.655V329H752.655ZM753.655 375.1H706.552V377.1H753.655V375.1Z" fill="#34A853" mask="url(#path-473-inside-237_37_310)"/>
<mask id="path-475-inside-238_37_310" fill="white">
<path d="M753.655 329H800.759V376.1H753.655V329Z"/>
</mask>
<path d="M800.759 376.1V377.1H801.759V376.1H800.759ZM799.759 329V376.1H801.759V329H799.759ZM800.759 375.1H753.655V377.1H800.759V375.1Z" fill="#34A853" mask="url(#path-475-inside-238_37_310)"/>
</g>
</svg>
