<svg width="1366" height="189" viewBox="0 0 1366 189" fill="none" xmlns="http://www.w3.org/2000/svg">
<g opacity="0.2">
<mask id="path-1-inside-1_201_226" fill="white">
<path d="M0 47H47.1034V94.1H0V47Z"/>
</mask>
<path d="M47.1034 94.1V95.1H48.1034V94.1H47.1034ZM46.1034 47V94.1H48.1034V47H46.1034ZM47.1034 93.1H0V95.1H47.1034V93.1Z" fill="#FBBC04" mask="url(#path-1-inside-1_201_226)"/>
<mask id="path-3-inside-2_201_226" fill="white">
<path d="M47.1035 47H94.207V94.1H47.1035V47Z"/>
</mask>
<path d="M94.207 94.1V95.1H95.207V94.1H94.207ZM93.207 47V94.1H95.207V47H93.207ZM94.207 93.1H47.1035V95.1H94.207V93.1Z" fill="#FBBC04" mask="url(#path-3-inside-2_201_226)"/>
<mask id="path-5-inside-3_201_226" fill="white">
<path d="M94.2068 47H141.31V94.1H94.2068V47Z"/>
</mask>
<path d="M141.31 94.1V95.1H142.31V94.1H141.31ZM140.31 47V94.1H142.31V47H140.31ZM141.31 93.1H94.2068V95.1H141.31V93.1Z" fill="#FBBC04" mask="url(#path-5-inside-3_201_226)"/>
<mask id="path-7-inside-4_201_226" fill="white">
<path d="M141.31 47H188.414V94.1H141.31V47Z"/>
</mask>
<path d="M188.414 94.1V95.1H189.414V94.1H188.414ZM187.414 47V94.1H189.414V47H187.414ZM188.414 93.1H141.31V95.1H188.414V93.1Z" fill="#FBBC04" mask="url(#path-7-inside-4_201_226)"/>
<mask id="path-9-inside-5_201_226" fill="white">
<path d="M188.414 47H235.517V94.1H188.414V47Z"/>
</mask>
<path d="M235.517 94.1V95.1H236.517V94.1H235.517ZM234.517 47V94.1H236.517V47H234.517ZM235.517 93.1H188.414V95.1H235.517V93.1Z" fill="#FBBC04" mask="url(#path-9-inside-5_201_226)"/>
<mask id="path-11-inside-6_201_226" fill="white">
<path d="M235.517 47H282.621V94.1H235.517V47Z"/>
</mask>
<path d="M282.621 94.1V95.1H283.621V94.1H282.621ZM281.621 47V94.1H283.621V47H281.621ZM282.621 93.1H235.517V95.1H282.621V93.1Z" fill="#FBBC04" mask="url(#path-11-inside-6_201_226)"/>
<mask id="path-13-inside-7_201_226" fill="white">
<path d="M282.621 47H329.724V94.1H282.621V47Z"/>
</mask>
<path d="M329.724 94.1V95.1H330.724V94.1H329.724ZM328.724 47V94.1H330.724V47H328.724ZM329.724 93.1H282.621V95.1H329.724V93.1Z" fill="#FBBC04" mask="url(#path-13-inside-7_201_226)"/>
<mask id="path-15-inside-8_201_226" fill="white">
<path d="M329.724 47H376.828V94.1H329.724V47Z"/>
</mask>
<path d="M376.828 94.1V95.1H377.828V94.1H376.828ZM375.828 47V94.1H377.828V47H375.828ZM376.828 93.1H329.724V95.1H376.828V93.1Z" fill="#FBBC04" mask="url(#path-15-inside-8_201_226)"/>
<mask id="path-17-inside-9_201_226" fill="white">
<path d="M376.828 47H423.931V94.1H376.828V47Z"/>
</mask>
<path d="M423.931 94.1V95.1H424.931V94.1H423.931ZM422.931 47V94.1H424.931V47H422.931ZM423.931 93.1H376.828V95.1H423.931V93.1Z" fill="#FBBC04" mask="url(#path-17-inside-9_201_226)"/>
<mask id="path-19-inside-10_201_226" fill="white">
<path d="M423.931 47H471.034V94.1H423.931V47Z"/>
</mask>
<path d="M471.034 94.1V95.1H472.034V94.1H471.034ZM470.034 47V94.1H472.034V47H470.034ZM471.034 93.1H423.931V95.1H471.034V93.1Z" fill="#FBBC04" mask="url(#path-19-inside-10_201_226)"/>
<mask id="path-21-inside-11_201_226" fill="white">
<path d="M471.035 47H518.138V94.1H471.035V47Z"/>
</mask>
<path d="M518.138 94.1V95.1H519.138V94.1H518.138ZM517.138 47V94.1H519.138V47H517.138ZM518.138 93.1H471.035V95.1H518.138V93.1Z" fill="#FBBC04" mask="url(#path-21-inside-11_201_226)"/>
<mask id="path-23-inside-12_201_226" fill="white">
<path d="M518.138 47H565.241V94.1H518.138V47Z"/>
</mask>
<path d="M565.241 94.1V95.1H566.241V94.1H565.241ZM564.241 47V94.1H566.241V47H564.241ZM565.241 93.1H518.138V95.1H565.241V93.1Z" fill="#FBBC04" mask="url(#path-23-inside-12_201_226)"/>
<mask id="path-25-inside-13_201_226" fill="white">
<path d="M565.241 47H612.345V94.1H565.241V47Z"/>
</mask>
<path d="M612.345 94.1V95.1H613.345V94.1H612.345ZM611.345 47V94.1H613.345V47H611.345ZM612.345 93.1H565.241V95.1H612.345V93.1Z" fill="#FBBC04" mask="url(#path-25-inside-13_201_226)"/>
<mask id="path-27-inside-14_201_226" fill="white">
<path d="M612.345 47H659.448V94.1H612.345V47Z"/>
</mask>
<path d="M659.448 94.1V95.1H660.448V94.1H659.448ZM658.448 47V94.1H660.448V47H658.448ZM659.448 93.1H612.345V95.1H659.448V93.1Z" fill="#FBBC04" mask="url(#path-27-inside-14_201_226)"/>
<mask id="path-29-inside-15_201_226" fill="white">
<path d="M659.448 47H706.552V94.1H659.448V47Z"/>
</mask>
<path d="M706.552 94.1V95.1H707.552V94.1H706.552ZM705.552 47V94.1H707.552V47H705.552ZM706.552 93.1H659.448V95.1H706.552V93.1Z" fill="#FBBC04" mask="url(#path-29-inside-15_201_226)"/>
<mask id="path-31-inside-16_201_226" fill="white">
<path d="M706.552 47H753.655V94.1H706.552V47Z"/>
</mask>
<path d="M753.655 94.1V95.1H754.655V94.1H753.655ZM752.655 47V94.1H754.655V47H752.655ZM753.655 93.1H706.552V95.1H753.655V93.1Z" fill="#FBBC04" mask="url(#path-31-inside-16_201_226)"/>
<mask id="path-33-inside-17_201_226" fill="white">
<path d="M753.655 47H800.759V94.1H753.655V47Z"/>
</mask>
<path d="M800.759 94.1V95.1H801.759V94.1H800.759ZM799.759 47V94.1H801.759V47H799.759ZM800.759 93.1H753.655V95.1H800.759V93.1Z" fill="#FBBC04" mask="url(#path-33-inside-17_201_226)"/>
<mask id="path-35-inside-18_201_226" fill="white">
<path d="M800.759 47H847.862V94.1H800.759V47Z"/>
</mask>
<path d="M847.862 94.1V95.1H848.862V94.1H847.862ZM846.862 47V94.1H848.862V47H846.862ZM847.862 93.1H800.759V95.1H847.862V93.1Z" fill="#FBBC04" mask="url(#path-35-inside-18_201_226)"/>
<mask id="path-37-inside-19_201_226" fill="white">
<path d="M847.862 47H894.966V94.1H847.862V47Z"/>
</mask>
<path d="M894.966 94.1V95.1H895.966V94.1H894.966ZM893.966 47V94.1H895.966V47H893.966ZM894.966 93.1H847.862V95.1H894.966V93.1Z" fill="#FBBC04" mask="url(#path-37-inside-19_201_226)"/>
<mask id="path-39-inside-20_201_226" fill="white">
<path d="M894.966 47H942.069V94.1H894.966V47Z"/>
</mask>
<path d="M942.069 94.1V95.1H943.069V94.1H942.069ZM941.069 47V94.1H943.069V47H941.069ZM942.069 93.1H894.966V95.1H942.069V93.1Z" fill="#FBBC04" mask="url(#path-39-inside-20_201_226)"/>
<mask id="path-41-inside-21_201_226" fill="white">
<path d="M942.069 47H989.173V94.1H942.069V47Z"/>
</mask>
<path d="M989.173 94.1V95.1H990.173V94.1H989.173ZM988.173 47V94.1H990.173V47H988.173ZM989.173 93.1H942.069V95.1H989.173V93.1Z" fill="#FBBC04" mask="url(#path-41-inside-21_201_226)"/>
<mask id="path-43-inside-22_201_226" fill="white">
<path d="M989.172 47H1036.28V94.1H989.172V47Z"/>
</mask>
<path d="M1036.28 94.1V95.1H1037.28V94.1H1036.28ZM1035.28 47V94.1H1037.28V47H1035.28ZM1036.28 93.1H989.172V95.1H1036.28V93.1Z" fill="#FBBC04" mask="url(#path-43-inside-22_201_226)"/>
<mask id="path-45-inside-23_201_226" fill="white">
<path d="M1036.28 47H1083.38V94.1H1036.28V47Z"/>
</mask>
<path d="M1083.38 94.1V95.1H1084.38V94.1H1083.38ZM1082.38 47V94.1H1084.38V47H1082.38ZM1083.38 93.1H1036.28V95.1H1083.38V93.1Z" fill="#FBBC04" mask="url(#path-45-inside-23_201_226)"/>
<mask id="path-47-inside-24_201_226" fill="white">
<path d="M1083.38 47H1130.48V94.1H1083.38V47Z"/>
</mask>
<path d="M1130.48 94.1V95.1H1131.48V94.1H1130.48ZM1129.48 47V94.1H1131.48V47H1129.48ZM1130.48 93.1H1083.38V95.1H1130.48V93.1Z" fill="#FBBC04" mask="url(#path-47-inside-24_201_226)"/>
<mask id="path-49-inside-25_201_226" fill="white">
<path d="M1130.48 47H1177.59V94.1H1130.48V47Z"/>
</mask>
<path d="M1177.59 94.1V95.1H1178.59V94.1H1177.59ZM1176.59 47V94.1H1178.59V47H1176.59ZM1177.59 93.1H1130.48V95.1H1177.59V93.1Z" fill="#FBBC04" mask="url(#path-49-inside-25_201_226)"/>
<mask id="path-51-inside-26_201_226" fill="white">
<path d="M1177.59 47H1224.69V94.1H1177.59V47Z"/>
</mask>
<path d="M1224.69 94.1V95.1H1225.69V94.1H1224.69ZM1223.69 47V94.1H1225.69V47H1223.69ZM1224.69 93.1H1177.59V95.1H1224.69V93.1Z" fill="#FBBC04" mask="url(#path-51-inside-26_201_226)"/>
<mask id="path-53-inside-27_201_226" fill="white">
<path d="M1224.69 47H1271.79V94.1H1224.69V47Z"/>
</mask>
<path d="M1271.79 94.1V95.1H1272.79V94.1H1271.79ZM1270.79 47V94.1H1272.79V47H1270.79ZM1271.79 93.1H1224.69V95.1H1271.79V93.1Z" fill="#FBBC04" mask="url(#path-53-inside-27_201_226)"/>
<mask id="path-55-inside-28_201_226" fill="white">
<path d="M1271.79 47H1318.9V94.1H1271.79V47Z"/>
</mask>
<path d="M1318.9 94.1V95.1H1319.9V94.1H1318.9ZM1317.9 47V94.1H1319.9V47H1317.9ZM1318.9 93.1H1271.79V95.1H1318.9V93.1Z" fill="#FBBC04" mask="url(#path-55-inside-28_201_226)"/>
<mask id="path-57-inside-29_201_226" fill="white">
<path d="M1318.9 47H1366V94.1H1318.9V47Z"/>
</mask>
<path d="M1366 94.1V95.1H1367V94.1H1366ZM1365 47V94.1H1367V47H1365ZM1366 93.1H1318.9V95.1H1366V93.1Z" fill="#FBBC04" mask="url(#path-57-inside-29_201_226)"/>
<mask id="path-59-inside-30_201_226" fill="white">
<path d="M0 0H47.1034V47.1H0V0Z"/>
</mask>
<path d="M47.1034 47.1V48.1H48.1034V47.1H47.1034ZM46.1034 0V47.1H48.1034V0H46.1034ZM47.1034 46.1H0V48.1H47.1034V46.1Z" fill="#FBBC04" mask="url(#path-59-inside-30_201_226)"/>
<mask id="path-61-inside-31_201_226" fill="white">
<path d="M47.1035 0H94.207V47.1H47.1035V0Z"/>
</mask>
<path d="M94.207 47.1V48.1H95.207V47.1H94.207ZM93.207 0V47.1H95.207V0H93.207ZM94.207 46.1H47.1035V48.1H94.207V46.1Z" fill="#FBBC04" mask="url(#path-61-inside-31_201_226)"/>
<mask id="path-63-inside-32_201_226" fill="white">
<path d="M94.2068 0H141.31V47.1H94.2068V0Z"/>
</mask>
<path d="M141.31 47.1V48.1H142.31V47.1H141.31ZM140.31 0V47.1H142.31V0H140.31ZM141.31 46.1H94.2068V48.1H141.31V46.1Z" fill="#FBBC04" mask="url(#path-63-inside-32_201_226)"/>
<mask id="path-65-inside-33_201_226" fill="white">
<path d="M141.31 0H188.414V47.1H141.31V0Z"/>
</mask>
<path d="M188.414 47.1V48.1H189.414V47.1H188.414ZM187.414 0V47.1H189.414V0H187.414ZM188.414 46.1H141.31V48.1H188.414V46.1Z" fill="#FBBC04" mask="url(#path-65-inside-33_201_226)"/>
<mask id="path-67-inside-34_201_226" fill="white">
<path d="M188.414 0H235.517V47.1H188.414V0Z"/>
</mask>
<path d="M235.517 47.1V48.1H236.517V47.1H235.517ZM234.517 0V47.1H236.517V0H234.517ZM235.517 46.1H188.414V48.1H235.517V46.1Z" fill="#FBBC04" mask="url(#path-67-inside-34_201_226)"/>
<mask id="path-69-inside-35_201_226" fill="white">
<path d="M235.517 0H282.621V47.1H235.517V0Z"/>
</mask>
<path d="M282.621 47.1V48.1H283.621V47.1H282.621ZM281.621 0V47.1H283.621V0H281.621ZM282.621 46.1H235.517V48.1H282.621V46.1Z" fill="#FBBC04" mask="url(#path-69-inside-35_201_226)"/>
<mask id="path-71-inside-36_201_226" fill="white">
<path d="M282.621 0H329.724V47.1H282.621V0Z"/>
</mask>
<path d="M329.724 47.1V48.1H330.724V47.1H329.724ZM328.724 0V47.1H330.724V0H328.724ZM329.724 46.1H282.621V48.1H329.724V46.1Z" fill="#FBBC04" mask="url(#path-71-inside-36_201_226)"/>
<mask id="path-73-inside-37_201_226" fill="white">
<path d="M329.724 0H376.828V47.1H329.724V0Z"/>
</mask>
<path d="M376.828 47.1V48.1H377.828V47.1H376.828ZM375.828 0V47.1H377.828V0H375.828ZM376.828 46.1H329.724V48.1H376.828V46.1Z" fill="#FBBC04" mask="url(#path-73-inside-37_201_226)"/>
<mask id="path-75-inside-38_201_226" fill="white">
<path d="M376.828 0H423.931V47.1H376.828V0Z"/>
</mask>
<path d="M423.931 47.1V48.1H424.931V47.1H423.931ZM422.931 0V47.1H424.931V0H422.931ZM423.931 46.1H376.828V48.1H423.931V46.1Z" fill="#FBBC04" mask="url(#path-75-inside-38_201_226)"/>
<mask id="path-77-inside-39_201_226" fill="white">
<path d="M423.931 0H471.034V47.1H423.931V0Z"/>
</mask>
<path d="M471.034 47.1V48.1H472.034V47.1H471.034ZM470.034 0V47.1H472.034V0H470.034ZM471.034 46.1H423.931V48.1H471.034V46.1Z" fill="#FBBC04" mask="url(#path-77-inside-39_201_226)"/>
<mask id="path-79-inside-40_201_226" fill="white">
<path d="M471.035 0H518.138V47.1H471.035V0Z"/>
</mask>
<path d="M518.138 47.1V48.1H519.138V47.1H518.138ZM517.138 0V47.1H519.138V0H517.138ZM518.138 46.1H471.035V48.1H518.138V46.1Z" fill="#FBBC04" mask="url(#path-79-inside-40_201_226)"/>
<mask id="path-81-inside-41_201_226" fill="white">
<path d="M518.138 0H565.241V47.1H518.138V0Z"/>
</mask>
<path d="M565.241 47.1V48.1H566.241V47.1H565.241ZM564.241 0V47.1H566.241V0H564.241ZM565.241 46.1H518.138V48.1H565.241V46.1Z" fill="#FBBC04" mask="url(#path-81-inside-41_201_226)"/>
<mask id="path-83-inside-42_201_226" fill="white">
<path d="M565.241 0H612.345V47.1H565.241V0Z"/>
</mask>
<path d="M612.345 47.1V48.1H613.345V47.1H612.345ZM611.345 0V47.1H613.345V0H611.345ZM612.345 46.1H565.241V48.1H612.345V46.1Z" fill="#FBBC04" mask="url(#path-83-inside-42_201_226)"/>
<mask id="path-85-inside-43_201_226" fill="white">
<path d="M612.345 0H659.448V47.1H612.345V0Z"/>
</mask>
<path d="M659.448 47.1V48.1H660.448V47.1H659.448ZM658.448 0V47.1H660.448V0H658.448ZM659.448 46.1H612.345V48.1H659.448V46.1Z" fill="#FBBC04" mask="url(#path-85-inside-43_201_226)"/>
<mask id="path-87-inside-44_201_226" fill="white">
<path d="M659.448 0H706.552V47.1H659.448V0Z"/>
</mask>
<path d="M706.552 47.1V48.1H707.552V47.1H706.552ZM705.552 0V47.1H707.552V0H705.552ZM706.552 46.1H659.448V48.1H706.552V46.1Z" fill="#FBBC04" mask="url(#path-87-inside-44_201_226)"/>
<mask id="path-89-inside-45_201_226" fill="white">
<path d="M706.552 0H753.655V47.1H706.552V0Z"/>
</mask>
<path d="M753.655 47.1V48.1H754.655V47.1H753.655ZM752.655 0V47.1H754.655V0H752.655ZM753.655 46.1H706.552V48.1H753.655V46.1Z" fill="#FBBC04" mask="url(#path-89-inside-45_201_226)"/>
<mask id="path-91-inside-46_201_226" fill="white">
<path d="M753.655 0H800.759V47.1H753.655V0Z"/>
</mask>
<path d="M800.759 47.1V48.1H801.759V47.1H800.759ZM799.759 0V47.1H801.759V0H799.759ZM800.759 46.1H753.655V48.1H800.759V46.1Z" fill="#FBBC04" mask="url(#path-91-inside-46_201_226)"/>
<mask id="path-93-inside-47_201_226" fill="white">
<path d="M800.759 0H847.862V47.1H800.759V0Z"/>
</mask>
<path d="M847.862 47.1V48.1H848.862V47.1H847.862ZM846.862 0V47.1H848.862V0H846.862ZM847.862 46.1H800.759V48.1H847.862V46.1Z" fill="#FBBC04" mask="url(#path-93-inside-47_201_226)"/>
<mask id="path-95-inside-48_201_226" fill="white">
<path d="M847.862 0H894.966V47.1H847.862V0Z"/>
</mask>
<path d="M894.966 47.1V48.1H895.966V47.1H894.966ZM893.966 0V47.1H895.966V0H893.966ZM894.966 46.1H847.862V48.1H894.966V46.1Z" fill="#FBBC04" mask="url(#path-95-inside-48_201_226)"/>
<mask id="path-97-inside-49_201_226" fill="white">
<path d="M894.966 0H942.069V47.1H894.966V0Z"/>
</mask>
<path d="M942.069 47.1V48.1H943.069V47.1H942.069ZM941.069 0V47.1H943.069V0H941.069ZM942.069 46.1H894.966V48.1H942.069V46.1Z" fill="#FBBC04" mask="url(#path-97-inside-49_201_226)"/>
<mask id="path-99-inside-50_201_226" fill="white">
<path d="M942.069 0H989.173V47.1H942.069V0Z"/>
</mask>
<path d="M989.173 47.1V48.1H990.173V47.1H989.173ZM988.173 0V47.1H990.173V0H988.173ZM989.173 46.1H942.069V48.1H989.173V46.1Z" fill="#FBBC04" mask="url(#path-99-inside-50_201_226)"/>
<mask id="path-101-inside-51_201_226" fill="white">
<path d="M989.172 0H1036.28V47.1H989.172V0Z"/>
</mask>
<path d="M1036.28 47.1V48.1H1037.28V47.1H1036.28ZM1035.28 0V47.1H1037.28V0H1035.28ZM1036.28 46.1H989.172V48.1H1036.28V46.1Z" fill="#FBBC04" mask="url(#path-101-inside-51_201_226)"/>
<mask id="path-103-inside-52_201_226" fill="white">
<path d="M1036.28 0H1083.38V47.1H1036.28V0Z"/>
</mask>
<path d="M1083.38 47.1V48.1H1084.38V47.1H1083.38ZM1082.38 0V47.1H1084.38V0H1082.38ZM1083.38 46.1H1036.28V48.1H1083.38V46.1Z" fill="#FBBC04" mask="url(#path-103-inside-52_201_226)"/>
<mask id="path-105-inside-53_201_226" fill="white">
<path d="M1083.38 0H1130.48V47.1H1083.38V0Z"/>
</mask>
<path d="M1130.48 47.1V48.1H1131.48V47.1H1130.48ZM1129.48 0V47.1H1131.48V0H1129.48ZM1130.48 46.1H1083.38V48.1H1130.48V46.1Z" fill="#FBBC04" mask="url(#path-105-inside-53_201_226)"/>
<mask id="path-107-inside-54_201_226" fill="white">
<path d="M1130.48 0H1177.59V47.1H1130.48V0Z"/>
</mask>
<path d="M1177.59 47.1V48.1H1178.59V47.1H1177.59ZM1176.59 0V47.1H1178.59V0H1176.59ZM1177.59 46.1H1130.48V48.1H1177.59V46.1Z" fill="#FBBC04" mask="url(#path-107-inside-54_201_226)"/>
<mask id="path-109-inside-55_201_226" fill="white">
<path d="M1177.59 0H1224.69V47.1H1177.59V0Z"/>
</mask>
<path d="M1224.69 47.1V48.1H1225.69V47.1H1224.69ZM1223.69 0V47.1H1225.69V0H1223.69ZM1224.69 46.1H1177.59V48.1H1224.69V46.1Z" fill="#FBBC04" mask="url(#path-109-inside-55_201_226)"/>
<mask id="path-111-inside-56_201_226" fill="white">
<path d="M1224.69 0H1271.79V47.1H1224.69V0Z"/>
</mask>
<path d="M1271.79 47.1V48.1H1272.79V47.1H1271.79ZM1270.79 0V47.1H1272.79V0H1270.79ZM1271.79 46.1H1224.69V48.1H1271.79V46.1Z" fill="#FBBC04" mask="url(#path-111-inside-56_201_226)"/>
<mask id="path-113-inside-57_201_226" fill="white">
<path d="M1271.79 0H1318.9V47.1H1271.79V0Z"/>
</mask>
<path d="M1318.9 47.1V48.1H1319.9V47.1H1318.9ZM1317.9 0V47.1H1319.9V0H1317.9ZM1318.9 46.1H1271.79V48.1H1318.9V46.1Z" fill="#FBBC04" mask="url(#path-113-inside-57_201_226)"/>
<mask id="path-115-inside-58_201_226" fill="white">
<path d="M1318.9 0H1366V47.1H1318.9V0Z"/>
</mask>
<path d="M1366 47.1V48.1H1367V47.1H1366ZM1365 0V47.1H1367V0H1365ZM1366 46.1H1318.9V48.1H1366V46.1Z" fill="#FBBC04" mask="url(#path-115-inside-58_201_226)"/>
<mask id="path-117-inside-59_201_226" fill="white">
<path d="M0 94H47.1034V141.1H0V94Z"/>
</mask>
<path d="M47.1034 141.1V142.1H48.1034V141.1H47.1034ZM46.1034 94V141.1H48.1034V94H46.1034ZM47.1034 140.1H0V142.1H47.1034V140.1Z" fill="#FBBC04" mask="url(#path-117-inside-59_201_226)"/>
<mask id="path-119-inside-60_201_226" fill="white">
<path d="M47.1035 94H94.207V141.1H47.1035V94Z"/>
</mask>
<path d="M94.207 141.1V142.1H95.207V141.1H94.207ZM93.207 94V141.1H95.207V94H93.207ZM94.207 140.1H47.1035V142.1H94.207V140.1Z" fill="#FBBC04" mask="url(#path-119-inside-60_201_226)"/>
<mask id="path-121-inside-61_201_226" fill="white">
<path d="M94.2068 94H141.31V141.1H94.2068V94Z"/>
</mask>
<path d="M141.31 141.1V142.1H142.31V141.1H141.31ZM140.31 94V141.1H142.31V94H140.31ZM141.31 140.1H94.2068V142.1H141.31V140.1Z" fill="#FBBC04" mask="url(#path-121-inside-61_201_226)"/>
<mask id="path-123-inside-62_201_226" fill="white">
<path d="M141.31 94H188.414V141.1H141.31V94Z"/>
</mask>
<path d="M188.414 141.1V142.1H189.414V141.1H188.414ZM187.414 94V141.1H189.414V94H187.414ZM188.414 140.1H141.31V142.1H188.414V140.1Z" fill="#FBBC04" mask="url(#path-123-inside-62_201_226)"/>
<mask id="path-125-inside-63_201_226" fill="white">
<path d="M188.414 94H235.517V141.1H188.414V94Z"/>
</mask>
<path d="M235.517 141.1V142.1H236.517V141.1H235.517ZM234.517 94V141.1H236.517V94H234.517ZM235.517 140.1H188.414V142.1H235.517V140.1Z" fill="#FBBC04" mask="url(#path-125-inside-63_201_226)"/>
<mask id="path-127-inside-64_201_226" fill="white">
<path d="M235.517 94H282.621V141.1H235.517V94Z"/>
</mask>
<path d="M282.621 141.1V142.1H283.621V141.1H282.621ZM281.621 94V141.1H283.621V94H281.621ZM282.621 140.1H235.517V142.1H282.621V140.1Z" fill="#FBBC04" mask="url(#path-127-inside-64_201_226)"/>
<mask id="path-129-inside-65_201_226" fill="white">
<path d="M282.621 94H329.724V141.1H282.621V94Z"/>
</mask>
<path d="M329.724 141.1V142.1H330.724V141.1H329.724ZM328.724 94V141.1H330.724V94H328.724ZM329.724 140.1H282.621V142.1H329.724V140.1Z" fill="#FBBC04" mask="url(#path-129-inside-65_201_226)"/>
<mask id="path-131-inside-66_201_226" fill="white">
<path d="M329.724 94H376.828V141.1H329.724V94Z"/>
</mask>
<path d="M376.828 141.1V142.1H377.828V141.1H376.828ZM375.828 94V141.1H377.828V94H375.828ZM376.828 140.1H329.724V142.1H376.828V140.1Z" fill="#FBBC04" mask="url(#path-131-inside-66_201_226)"/>
<mask id="path-133-inside-67_201_226" fill="white">
<path d="M376.828 94H423.931V141.1H376.828V94Z"/>
</mask>
<path d="M423.931 141.1V142.1H424.931V141.1H423.931ZM422.931 94V141.1H424.931V94H422.931ZM423.931 140.1H376.828V142.1H423.931V140.1Z" fill="#FBBC04" mask="url(#path-133-inside-67_201_226)"/>
<mask id="path-135-inside-68_201_226" fill="white">
<path d="M423.931 94H471.034V141.1H423.931V94Z"/>
</mask>
<path d="M471.034 141.1V142.1H472.034V141.1H471.034ZM470.034 94V141.1H472.034V94H470.034ZM471.034 140.1H423.931V142.1H471.034V140.1Z" fill="#FBBC04" mask="url(#path-135-inside-68_201_226)"/>
<mask id="path-137-inside-69_201_226" fill="white">
<path d="M471.035 94H518.138V141.1H471.035V94Z"/>
</mask>
<path d="M518.138 141.1V142.1H519.138V141.1H518.138ZM517.138 94V141.1H519.138V94H517.138ZM518.138 140.1H471.035V142.1H518.138V140.1Z" fill="#FBBC04" mask="url(#path-137-inside-69_201_226)"/>
<mask id="path-139-inside-70_201_226" fill="white">
<path d="M518.138 94H565.241V141.1H518.138V94Z"/>
</mask>
<path d="M565.241 141.1V142.1H566.241V141.1H565.241ZM564.241 94V141.1H566.241V94H564.241ZM565.241 140.1H518.138V142.1H565.241V140.1Z" fill="#FBBC04" mask="url(#path-139-inside-70_201_226)"/>
<mask id="path-141-inside-71_201_226" fill="white">
<path d="M565.241 94H612.345V141.1H565.241V94Z"/>
</mask>
<path d="M612.345 141.1V142.1H613.345V141.1H612.345ZM611.345 94V141.1H613.345V94H611.345ZM612.345 140.1H565.241V142.1H612.345V140.1Z" fill="#FBBC04" mask="url(#path-141-inside-71_201_226)"/>
<mask id="path-143-inside-72_201_226" fill="white">
<path d="M612.345 94H659.448V141.1H612.345V94Z"/>
</mask>
<path d="M659.448 141.1V142.1H660.448V141.1H659.448ZM658.448 94V141.1H660.448V94H658.448ZM659.448 140.1H612.345V142.1H659.448V140.1Z" fill="#FBBC04" mask="url(#path-143-inside-72_201_226)"/>
<mask id="path-145-inside-73_201_226" fill="white">
<path d="M659.448 94H706.552V141.1H659.448V94Z"/>
</mask>
<path d="M706.552 141.1V142.1H707.552V141.1H706.552ZM705.552 94V141.1H707.552V94H705.552ZM706.552 140.1H659.448V142.1H706.552V140.1Z" fill="#FBBC04" mask="url(#path-145-inside-73_201_226)"/>
<mask id="path-147-inside-74_201_226" fill="white">
<path d="M706.552 94H753.655V141.1H706.552V94Z"/>
</mask>
<path d="M753.655 141.1V142.1H754.655V141.1H753.655ZM752.655 94V141.1H754.655V94H752.655ZM753.655 140.1H706.552V142.1H753.655V140.1Z" fill="#FBBC04" mask="url(#path-147-inside-74_201_226)"/>
<mask id="path-149-inside-75_201_226" fill="white">
<path d="M753.655 94H800.759V141.1H753.655V94Z"/>
</mask>
<path d="M800.759 141.1V142.1H801.759V141.1H800.759ZM799.759 94V141.1H801.759V94H799.759ZM800.759 140.1H753.655V142.1H800.759V140.1Z" fill="#FBBC04" mask="url(#path-149-inside-75_201_226)"/>
<mask id="path-151-inside-76_201_226" fill="white">
<path d="M800.759 94H847.862V141.1H800.759V94Z"/>
</mask>
<path d="M847.862 141.1V142.1H848.862V141.1H847.862ZM846.862 94V141.1H848.862V94H846.862ZM847.862 140.1H800.759V142.1H847.862V140.1Z" fill="#FBBC04" mask="url(#path-151-inside-76_201_226)"/>
<mask id="path-153-inside-77_201_226" fill="white">
<path d="M847.862 94H894.966V141.1H847.862V94Z"/>
</mask>
<path d="M894.966 141.1V142.1H895.966V141.1H894.966ZM893.966 94V141.1H895.966V94H893.966ZM894.966 140.1H847.862V142.1H894.966V140.1Z" fill="#FBBC04" mask="url(#path-153-inside-77_201_226)"/>
<mask id="path-155-inside-78_201_226" fill="white">
<path d="M894.966 94H942.069V141.1H894.966V94Z"/>
</mask>
<path d="M942.069 141.1V142.1H943.069V141.1H942.069ZM941.069 94V141.1H943.069V94H941.069ZM942.069 140.1H894.966V142.1H942.069V140.1Z" fill="#FBBC04" mask="url(#path-155-inside-78_201_226)"/>
<mask id="path-157-inside-79_201_226" fill="white">
<path d="M942.069 94H989.173V141.1H942.069V94Z"/>
</mask>
<path d="M989.173 141.1V142.1H990.173V141.1H989.173ZM988.173 94V141.1H990.173V94H988.173ZM989.173 140.1H942.069V142.1H989.173V140.1Z" fill="#FBBC04" mask="url(#path-157-inside-79_201_226)"/>
<mask id="path-159-inside-80_201_226" fill="white">
<path d="M989.172 94H1036.28V141.1H989.172V94Z"/>
</mask>
<path d="M1036.28 141.1V142.1H1037.28V141.1H1036.28ZM1035.28 94V141.1H1037.28V94H1035.28ZM1036.28 140.1H989.172V142.1H1036.28V140.1Z" fill="#FBBC04" mask="url(#path-159-inside-80_201_226)"/>
<mask id="path-161-inside-81_201_226" fill="white">
<path d="M1036.28 94H1083.38V141.1H1036.28V94Z"/>
</mask>
<path d="M1083.38 141.1V142.1H1084.38V141.1H1083.38ZM1082.38 94V141.1H1084.38V94H1082.38ZM1083.38 140.1H1036.28V142.1H1083.38V140.1Z" fill="#FBBC04" mask="url(#path-161-inside-81_201_226)"/>
<mask id="path-163-inside-82_201_226" fill="white">
<path d="M1083.38 94H1130.48V141.1H1083.38V94Z"/>
</mask>
<path d="M1130.48 141.1V142.1H1131.48V141.1H1130.48ZM1129.48 94V141.1H1131.48V94H1129.48ZM1130.48 140.1H1083.38V142.1H1130.48V140.1Z" fill="#FBBC04" mask="url(#path-163-inside-82_201_226)"/>
<mask id="path-165-inside-83_201_226" fill="white">
<path d="M1130.48 94H1177.59V141.1H1130.48V94Z"/>
</mask>
<path d="M1177.59 141.1V142.1H1178.59V141.1H1177.59ZM1176.59 94V141.1H1178.59V94H1176.59ZM1177.59 140.1H1130.48V142.1H1177.59V140.1Z" fill="#FBBC04" mask="url(#path-165-inside-83_201_226)"/>
<mask id="path-167-inside-84_201_226" fill="white">
<path d="M1177.59 94H1224.69V141.1H1177.59V94Z"/>
</mask>
<path d="M1224.69 141.1V142.1H1225.69V141.1H1224.69ZM1223.69 94V141.1H1225.69V94H1223.69ZM1224.69 140.1H1177.59V142.1H1224.69V140.1Z" fill="#FBBC04" mask="url(#path-167-inside-84_201_226)"/>
<mask id="path-169-inside-85_201_226" fill="white">
<path d="M1224.69 94H1271.79V141.1H1224.69V94Z"/>
</mask>
<path d="M1271.79 141.1V142.1H1272.79V141.1H1271.79ZM1270.79 94V141.1H1272.79V94H1270.79ZM1271.79 140.1H1224.69V142.1H1271.79V140.1Z" fill="#FBBC04" mask="url(#path-169-inside-85_201_226)"/>
<mask id="path-171-inside-86_201_226" fill="white">
<path d="M1271.79 94H1318.9V141.1H1271.79V94Z"/>
</mask>
<path d="M1318.9 141.1V142.1H1319.9V141.1H1318.9ZM1317.9 94V141.1H1319.9V94H1317.9ZM1318.9 140.1H1271.79V142.1H1318.9V140.1Z" fill="#FBBC04" mask="url(#path-171-inside-86_201_226)"/>
<mask id="path-173-inside-87_201_226" fill="white">
<path d="M1318.9 94H1366V141.1H1318.9V94Z"/>
</mask>
<path d="M1366 141.1V142.1H1367V141.1H1366ZM1365 94V141.1H1367V94H1365ZM1366 140.1H1318.9V142.1H1366V140.1Z" fill="#FBBC04" mask="url(#path-173-inside-87_201_226)"/>
<mask id="path-175-inside-88_201_226" fill="white">
<path d="M0 141H47.1034V188.1H0V141Z"/>
</mask>
<path d="M47.1034 188.1V189.1H48.1034V188.1H47.1034ZM46.1034 141V188.1H48.1034V141H46.1034ZM47.1034 187.1H0V189.1H47.1034V187.1Z" fill="#FBBC04" mask="url(#path-175-inside-88_201_226)"/>
<mask id="path-177-inside-89_201_226" fill="white">
<path d="M47.1035 141H94.207V188.1H47.1035V141Z"/>
</mask>
<path d="M94.207 188.1V189.1H95.207V188.1H94.207ZM93.207 141V188.1H95.207V141H93.207ZM94.207 187.1H47.1035V189.1H94.207V187.1Z" fill="#FBBC04" mask="url(#path-177-inside-89_201_226)"/>
<mask id="path-179-inside-90_201_226" fill="white">
<path d="M94.2068 141H141.31V188.1H94.2068V141Z"/>
</mask>
<path d="M141.31 188.1V189.1H142.31V188.1H141.31ZM140.31 141V188.1H142.31V141H140.31ZM141.31 187.1H94.2068V189.1H141.31V187.1Z" fill="#FBBC04" mask="url(#path-179-inside-90_201_226)"/>
<mask id="path-181-inside-91_201_226" fill="white">
<path d="M141.31 141H188.414V188.1H141.31V141Z"/>
</mask>
<path d="M188.414 188.1V189.1H189.414V188.1H188.414ZM187.414 141V188.1H189.414V141H187.414ZM188.414 187.1H141.31V189.1H188.414V187.1Z" fill="#FBBC04" mask="url(#path-181-inside-91_201_226)"/>
<mask id="path-183-inside-92_201_226" fill="white">
<path d="M188.414 141H235.517V188.1H188.414V141Z"/>
</mask>
<path d="M235.517 188.1V189.1H236.517V188.1H235.517ZM234.517 141V188.1H236.517V141H234.517ZM235.517 187.1H188.414V189.1H235.517V187.1Z" fill="#FBBC04" mask="url(#path-183-inside-92_201_226)"/>
<mask id="path-185-inside-93_201_226" fill="white">
<path d="M235.517 141H282.621V188.1H235.517V141Z"/>
</mask>
<path d="M282.621 188.1V189.1H283.621V188.1H282.621ZM281.621 141V188.1H283.621V141H281.621ZM282.621 187.1H235.517V189.1H282.621V187.1Z" fill="#FBBC04" mask="url(#path-185-inside-93_201_226)"/>
<mask id="path-187-inside-94_201_226" fill="white">
<path d="M282.621 141H329.724V188.1H282.621V141Z"/>
</mask>
<path d="M329.724 188.1V189.1H330.724V188.1H329.724ZM328.724 141V188.1H330.724V141H328.724ZM329.724 187.1H282.621V189.1H329.724V187.1Z" fill="#FBBC04" mask="url(#path-187-inside-94_201_226)"/>
<mask id="path-189-inside-95_201_226" fill="white">
<path d="M329.724 141H376.828V188.1H329.724V141Z"/>
</mask>
<path d="M376.828 188.1V189.1H377.828V188.1H376.828ZM375.828 141V188.1H377.828V141H375.828ZM376.828 187.1H329.724V189.1H376.828V187.1Z" fill="#FBBC04" mask="url(#path-189-inside-95_201_226)"/>
<mask id="path-191-inside-96_201_226" fill="white">
<path d="M376.828 141H423.931V188.1H376.828V141Z"/>
</mask>
<path d="M423.931 188.1V189.1H424.931V188.1H423.931ZM422.931 141V188.1H424.931V141H422.931ZM423.931 187.1H376.828V189.1H423.931V187.1Z" fill="#FBBC04" mask="url(#path-191-inside-96_201_226)"/>
<mask id="path-193-inside-97_201_226" fill="white">
<path d="M423.931 141H471.034V188.1H423.931V141Z"/>
</mask>
<path d="M471.034 188.1V189.1H472.034V188.1H471.034ZM470.034 141V188.1H472.034V141H470.034ZM471.034 187.1H423.931V189.1H471.034V187.1Z" fill="#FBBC04" mask="url(#path-193-inside-97_201_226)"/>
<mask id="path-195-inside-98_201_226" fill="white">
<path d="M471.035 141H518.138V188.1H471.035V141Z"/>
</mask>
<path d="M518.138 188.1V189.1H519.138V188.1H518.138ZM517.138 141V188.1H519.138V141H517.138ZM518.138 187.1H471.035V189.1H518.138V187.1Z" fill="#FBBC04" mask="url(#path-195-inside-98_201_226)"/>
<mask id="path-197-inside-99_201_226" fill="white">
<path d="M518.138 141H565.241V188.1H518.138V141Z"/>
</mask>
<path d="M565.241 188.1V189.1H566.241V188.1H565.241ZM564.241 141V188.1H566.241V141H564.241ZM565.241 187.1H518.138V189.1H565.241V187.1Z" fill="#FBBC04" mask="url(#path-197-inside-99_201_226)"/>
<mask id="path-199-inside-100_201_226" fill="white">
<path d="M565.241 141H612.345V188.1H565.241V141Z"/>
</mask>
<path d="M612.345 188.1V189.1H613.345V188.1H612.345ZM611.345 141V188.1H613.345V141H611.345ZM612.345 187.1H565.241V189.1H612.345V187.1Z" fill="#FBBC04" mask="url(#path-199-inside-100_201_226)"/>
<mask id="path-201-inside-101_201_226" fill="white">
<path d="M612.345 141H659.448V188.1H612.345V141Z"/>
</mask>
<path d="M659.448 188.1V189.1H660.448V188.1H659.448ZM658.448 141V188.1H660.448V141H658.448ZM659.448 187.1H612.345V189.1H659.448V187.1Z" fill="#FBBC04" mask="url(#path-201-inside-101_201_226)"/>
<mask id="path-203-inside-102_201_226" fill="white">
<path d="M659.448 141H706.552V188.1H659.448V141Z"/>
</mask>
<path d="M706.552 188.1V189.1H707.552V188.1H706.552ZM705.552 141V188.1H707.552V141H705.552ZM706.552 187.1H659.448V189.1H706.552V187.1Z" fill="#FBBC04" mask="url(#path-203-inside-102_201_226)"/>
<mask id="path-205-inside-103_201_226" fill="white">
<path d="M706.552 141H753.655V188.1H706.552V141Z"/>
</mask>
<path d="M753.655 188.1V189.1H754.655V188.1H753.655ZM752.655 141V188.1H754.655V141H752.655ZM753.655 187.1H706.552V189.1H753.655V187.1Z" fill="#FBBC04" mask="url(#path-205-inside-103_201_226)"/>
<mask id="path-207-inside-104_201_226" fill="white">
<path d="M753.655 141H800.759V188.1H753.655V141Z"/>
</mask>
<path d="M800.759 188.1V189.1H801.759V188.1H800.759ZM799.759 141V188.1H801.759V141H799.759ZM800.759 187.1H753.655V189.1H800.759V187.1Z" fill="#FBBC04" mask="url(#path-207-inside-104_201_226)"/>
<mask id="path-209-inside-105_201_226" fill="white">
<path d="M800.759 141H847.862V188.1H800.759V141Z"/>
</mask>
<path d="M847.862 188.1V189.1H848.862V188.1H847.862ZM846.862 141V188.1H848.862V141H846.862ZM847.862 187.1H800.759V189.1H847.862V187.1Z" fill="#FBBC04" mask="url(#path-209-inside-105_201_226)"/>
<mask id="path-211-inside-106_201_226" fill="white">
<path d="M847.862 141H894.966V188.1H847.862V141Z"/>
</mask>
<path d="M894.966 188.1V189.1H895.966V188.1H894.966ZM893.966 141V188.1H895.966V141H893.966ZM894.966 187.1H847.862V189.1H894.966V187.1Z" fill="#FBBC04" mask="url(#path-211-inside-106_201_226)"/>
<mask id="path-213-inside-107_201_226" fill="white">
<path d="M894.966 141H942.069V188.1H894.966V141Z"/>
</mask>
<path d="M942.069 188.1V189.1H943.069V188.1H942.069ZM941.069 141V188.1H943.069V141H941.069ZM942.069 187.1H894.966V189.1H942.069V187.1Z" fill="#FBBC04" mask="url(#path-213-inside-107_201_226)"/>
<mask id="path-215-inside-108_201_226" fill="white">
<path d="M942.069 141H989.173V188.1H942.069V141Z"/>
</mask>
<path d="M989.173 188.1V189.1H990.173V188.1H989.173ZM988.173 141V188.1H990.173V141H988.173ZM989.173 187.1H942.069V189.1H989.173V187.1Z" fill="#FBBC04" mask="url(#path-215-inside-108_201_226)"/>
<mask id="path-217-inside-109_201_226" fill="white">
<path d="M989.172 141H1036.28V188.1H989.172V141Z"/>
</mask>
<path d="M1036.28 188.1V189.1H1037.28V188.1H1036.28ZM1035.28 141V188.1H1037.28V141H1035.28ZM1036.28 187.1H989.172V189.1H1036.28V187.1Z" fill="#FBBC04" mask="url(#path-217-inside-109_201_226)"/>
<mask id="path-219-inside-110_201_226" fill="white">
<path d="M1036.28 141H1083.38V188.1H1036.28V141Z"/>
</mask>
<path d="M1083.38 188.1V189.1H1084.38V188.1H1083.38ZM1082.38 141V188.1H1084.38V141H1082.38ZM1083.38 187.1H1036.28V189.1H1083.38V187.1Z" fill="#FBBC04" mask="url(#path-219-inside-110_201_226)"/>
<mask id="path-221-inside-111_201_226" fill="white">
<path d="M1083.38 141H1130.48V188.1H1083.38V141Z"/>
</mask>
<path d="M1130.48 188.1V189.1H1131.48V188.1H1130.48ZM1129.48 141V188.1H1131.48V141H1129.48ZM1130.48 187.1H1083.38V189.1H1130.48V187.1Z" fill="#FBBC04" mask="url(#path-221-inside-111_201_226)"/>
<mask id="path-223-inside-112_201_226" fill="white">
<path d="M1130.48 141H1177.59V188.1H1130.48V141Z"/>
</mask>
<path d="M1177.59 188.1V189.1H1178.59V188.1H1177.59ZM1176.59 141V188.1H1178.59V141H1176.59ZM1177.59 187.1H1130.48V189.1H1177.59V187.1Z" fill="#FBBC04" mask="url(#path-223-inside-112_201_226)"/>
<mask id="path-225-inside-113_201_226" fill="white">
<path d="M1177.59 141H1224.69V188.1H1177.59V141Z"/>
</mask>
<path d="M1224.69 188.1V189.1H1225.69V188.1H1224.69ZM1223.69 141V188.1H1225.69V141H1223.69ZM1224.69 187.1H1177.59V189.1H1224.69V187.1Z" fill="#FBBC04" mask="url(#path-225-inside-113_201_226)"/>
<mask id="path-227-inside-114_201_226" fill="white">
<path d="M1224.69 141H1271.79V188.1H1224.69V141Z"/>
</mask>
<path d="M1271.79 188.1V189.1H1272.79V188.1H1271.79ZM1270.79 141V188.1H1272.79V141H1270.79ZM1271.79 187.1H1224.69V189.1H1271.79V187.1Z" fill="#FBBC04" mask="url(#path-227-inside-114_201_226)"/>
<mask id="path-229-inside-115_201_226" fill="white">
<path d="M1271.79 141H1318.9V188.1H1271.79V141Z"/>
</mask>
<path d="M1318.9 188.1V189.1H1319.9V188.1H1318.9ZM1317.9 141V188.1H1319.9V141H1317.9ZM1318.9 187.1H1271.79V189.1H1318.9V187.1Z" fill="#FBBC04" mask="url(#path-229-inside-115_201_226)"/>
<mask id="path-231-inside-116_201_226" fill="white">
<path d="M1318.9 141H1366V188.1H1318.9V141Z"/>
</mask>
<path d="M1366 188.1V189.1H1367V188.1H1366ZM1365 141V188.1H1367V141H1365ZM1366 187.1H1318.9V189.1H1366V187.1Z" fill="#FBBC04" mask="url(#path-231-inside-116_201_226)"/>
</g>
</svg>
