<svg width="1366" height="377" viewBox="0 0 1366 377" fill="none" xmlns="http://www.w3.org/2000/svg">
<g opacity="0.2">
<mask id="path-1-inside-1_37_6" fill="white">
<path d="M0 47H47.1034V94.1H0V47Z"/>
</mask>
<path d="M47.1034 94.1V95.1H48.1034V94.1H47.1034ZM46.1034 47V94.1H48.1034V47H46.1034ZM47.1034 93.1H0V95.1H47.1034V93.1Z" fill="#166CF3" fill-opacity="0.45" mask="url(#path-1-inside-1_37_6)"/>
<mask id="path-3-inside-2_37_6" fill="white">
<path d="M47.1035 47H94.2069V94.1H47.1035V47Z"/>
</mask>
<path d="M94.2069 94.1V95.1H95.2069V94.1H94.2069ZM93.2069 47V94.1H95.2069V47H93.2069ZM94.2069 93.1H47.1035V95.1H94.2069V93.1Z" fill="#166CF3" fill-opacity="0.45" mask="url(#path-3-inside-2_37_6)"/>
<mask id="path-5-inside-3_37_6" fill="white">
<path d="M94.2069 47H141.31V94.1H94.2069V47Z"/>
</mask>
<path d="M141.31 94.1V95.1H142.31V94.1H141.31ZM140.31 47V94.1H142.31V47H140.31ZM141.31 93.1H94.2069V95.1H141.31V93.1Z" fill="#166CF3" fill-opacity="0.45" mask="url(#path-5-inside-3_37_6)"/>
<mask id="path-7-inside-4_37_6" fill="white">
<path d="M141.31 47H188.414V94.1H141.31V47Z"/>
</mask>
<path d="M188.414 94.1V95.1H189.414V94.1H188.414ZM187.414 47V94.1H189.414V47H187.414ZM188.414 93.1H141.31V95.1H188.414V93.1Z" fill="#166CF3" fill-opacity="0.45" mask="url(#path-7-inside-4_37_6)"/>
<mask id="path-9-inside-5_37_6" fill="white">
<path d="M188.414 47H235.517V94.1H188.414V47Z"/>
</mask>
<path d="M235.517 94.1V95.1H236.517V94.1H235.517ZM234.517 47V94.1H236.517V47H234.517ZM235.517 93.1H188.414V95.1H235.517V93.1Z" fill="#166CF3" fill-opacity="0.45" mask="url(#path-9-inside-5_37_6)"/>
<mask id="path-11-inside-6_37_6" fill="white">
<path d="M235.517 47H282.621V94.1H235.517V47Z"/>
</mask>
<path d="M282.621 94.1V95.1H283.621V94.1H282.621ZM281.621 47V94.1H283.621V47H281.621ZM282.621 93.1H235.517V95.1H282.621V93.1Z" fill="#166CF3" fill-opacity="0.45" mask="url(#path-11-inside-6_37_6)"/>
<mask id="path-13-inside-7_37_6" fill="white">
<path d="M282.621 47H329.724V94.1H282.621V47Z"/>
</mask>
<path d="M329.724 94.1V95.1H330.724V94.1H329.724ZM328.724 47V94.1H330.724V47H328.724ZM329.724 93.1H282.621V95.1H329.724V93.1Z" fill="#166CF3" fill-opacity="0.45" mask="url(#path-13-inside-7_37_6)"/>
<mask id="path-15-inside-8_37_6" fill="white">
<path d="M329.724 47H376.828V94.1H329.724V47Z"/>
</mask>
<path d="M376.828 94.1V95.1H377.828V94.1H376.828ZM375.828 47V94.1H377.828V47H375.828ZM376.828 93.1H329.724V95.1H376.828V93.1Z" fill="#166CF3" fill-opacity="0.45" mask="url(#path-15-inside-8_37_6)"/>
<mask id="path-17-inside-9_37_6" fill="white">
<path d="M376.828 47H423.931V94.1H376.828V47Z"/>
</mask>
<path d="M423.931 94.1V95.1H424.931V94.1H423.931ZM422.931 47V94.1H424.931V47H422.931ZM423.931 93.1H376.828V95.1H423.931V93.1Z" fill="#166CF3" fill-opacity="0.45" mask="url(#path-17-inside-9_37_6)"/>
<mask id="path-19-inside-10_37_6" fill="white">
<path d="M423.931 47H471.035V94.1H423.931V47Z"/>
</mask>
<path d="M471.035 94.1V95.1H472.035V94.1H471.035ZM470.035 47V94.1H472.035V47H470.035ZM471.035 93.1H423.931V95.1H471.035V93.1Z" fill="#166CF3" fill-opacity="0.45" mask="url(#path-19-inside-10_37_6)"/>
<mask id="path-21-inside-11_37_6" fill="white">
<path d="M471.035 47H518.138V94.1H471.035V47Z"/>
</mask>
<path d="M518.138 94.1V95.1H519.138V94.1H518.138ZM517.138 47V94.1H519.138V47H517.138ZM518.138 93.1H471.035V95.1H518.138V93.1Z" fill="#166CF3" fill-opacity="0.45" mask="url(#path-21-inside-11_37_6)"/>
<mask id="path-23-inside-12_37_6" fill="white">
<path d="M518.138 47H565.241V94.1H518.138V47Z"/>
</mask>
<path d="M565.241 94.1V95.1H566.241V94.1H565.241ZM564.241 47V94.1H566.241V47H564.241ZM565.241 93.1H518.138V95.1H565.241V93.1Z" fill="#166CF3" fill-opacity="0.45" mask="url(#path-23-inside-12_37_6)"/>
<mask id="path-25-inside-13_37_6" fill="white">
<path d="M565.241 47H612.345V94.1H565.241V47Z"/>
</mask>
<path d="M612.345 94.1V95.1H613.345V94.1H612.345ZM611.345 47V94.1H613.345V47H611.345ZM612.345 93.1H565.241V95.1H612.345V93.1Z" fill="#166CF3" fill-opacity="0.45" mask="url(#path-25-inside-13_37_6)"/>
<mask id="path-27-inside-14_37_6" fill="white">
<path d="M612.345 47H659.448V94.1H612.345V47Z"/>
</mask>
<path d="M659.448 94.1V95.1H660.448V94.1H659.448ZM658.448 47V94.1H660.448V47H658.448ZM659.448 93.1H612.345V95.1H659.448V93.1Z" fill="#166CF3" fill-opacity="0.45" mask="url(#path-27-inside-14_37_6)"/>
<mask id="path-29-inside-15_37_6" fill="white">
<path d="M659.448 47H706.552V94.1H659.448V47Z"/>
</mask>
<path d="M706.552 94.1V95.1H707.552V94.1H706.552ZM705.552 47V94.1H707.552V47H705.552ZM706.552 93.1H659.448V95.1H706.552V93.1Z" fill="#166CF3" fill-opacity="0.45" mask="url(#path-29-inside-15_37_6)"/>
<mask id="path-31-inside-16_37_6" fill="white">
<path d="M706.552 47H753.655V94.1H706.552V47Z"/>
</mask>
<path d="M753.655 94.1V95.1H754.655V94.1H753.655ZM752.655 47V94.1H754.655V47H752.655ZM753.655 93.1H706.552V95.1H753.655V93.1Z" fill="#166CF3" fill-opacity="0.45" mask="url(#path-31-inside-16_37_6)"/>
<mask id="path-33-inside-17_37_6" fill="white">
<path d="M753.655 47H800.759V94.1H753.655V47Z"/>
</mask>
<path d="M800.759 94.1V95.1H801.759V94.1H800.759ZM799.759 47V94.1H801.759V47H799.759ZM800.759 93.1H753.655V95.1H800.759V93.1Z" fill="#166CF3" fill-opacity="0.45" mask="url(#path-33-inside-17_37_6)"/>
<mask id="path-35-inside-18_37_6" fill="white">
<path d="M800.759 47H847.862V94.1H800.759V47Z"/>
</mask>
<path d="M847.862 94.1V95.1H848.862V94.1H847.862ZM846.862 47V94.1H848.862V47H846.862ZM847.862 93.1H800.759V95.1H847.862V93.1Z" fill="#166CF3" fill-opacity="0.45" mask="url(#path-35-inside-18_37_6)"/>
<mask id="path-37-inside-19_37_6" fill="white">
<path d="M847.862 47H894.966V94.1H847.862V47Z"/>
</mask>
<path d="M894.966 94.1V95.1H895.966V94.1H894.966ZM893.966 47V94.1H895.966V47H893.966ZM894.966 93.1H847.862V95.1H894.966V93.1Z" fill="#166CF3" fill-opacity="0.45" mask="url(#path-37-inside-19_37_6)"/>
<mask id="path-39-inside-20_37_6" fill="white">
<path d="M894.966 47H942.069V94.1H894.966V47Z"/>
</mask>
<path d="M942.069 94.1V95.1H943.069V94.1H942.069ZM941.069 47V94.1H943.069V47H941.069ZM942.069 93.1H894.966V95.1H942.069V93.1Z" fill="#166CF3" fill-opacity="0.45" mask="url(#path-39-inside-20_37_6)"/>
<mask id="path-41-inside-21_37_6" fill="white">
<path d="M942.069 47H989.172V94.1H942.069V47Z"/>
</mask>
<path d="M989.172 94.1V95.1H990.172V94.1H989.172ZM988.172 47V94.1H990.172V47H988.172ZM989.172 93.1H942.069V95.1H989.172V93.1Z" fill="#166CF3" fill-opacity="0.45" mask="url(#path-41-inside-21_37_6)"/>
<mask id="path-43-inside-22_37_6" fill="white">
<path d="M989.172 47H1036.28V94.1H989.172V47Z"/>
</mask>
<path d="M1036.28 94.1V95.1H1037.28V94.1H1036.28ZM1035.28 47V94.1H1037.28V47H1035.28ZM1036.28 93.1H989.172V95.1H1036.28V93.1Z" fill="#166CF3" fill-opacity="0.45" mask="url(#path-43-inside-22_37_6)"/>
<mask id="path-45-inside-23_37_6" fill="white">
<path d="M1036.28 47H1083.38V94.1H1036.28V47Z"/>
</mask>
<path d="M1083.38 94.1V95.1H1084.38V94.1H1083.38ZM1082.38 47V94.1H1084.38V47H1082.38ZM1083.38 93.1H1036.28V95.1H1083.38V93.1Z" fill="#166CF3" fill-opacity="0.45" mask="url(#path-45-inside-23_37_6)"/>
<mask id="path-47-inside-24_37_6" fill="white">
<path d="M1083.38 47H1130.48V94.1H1083.38V47Z"/>
</mask>
<path d="M1130.48 94.1V95.1H1131.48V94.1H1130.48ZM1129.48 47V94.1H1131.48V47H1129.48ZM1130.48 93.1H1083.38V95.1H1130.48V93.1Z" fill="#166CF3" fill-opacity="0.45" mask="url(#path-47-inside-24_37_6)"/>
<mask id="path-49-inside-25_37_6" fill="white">
<path d="M1130.48 47H1177.59V94.1H1130.48V47Z"/>
</mask>
<path d="M1177.59 94.1V95.1H1178.59V94.1H1177.59ZM1176.59 47V94.1H1178.59V47H1176.59ZM1177.59 93.1H1130.48V95.1H1177.59V93.1Z" fill="#166CF3" fill-opacity="0.45" mask="url(#path-49-inside-25_37_6)"/>
<mask id="path-51-inside-26_37_6" fill="white">
<path d="M1177.59 47H1224.69V94.1H1177.59V47Z"/>
</mask>
<path d="M1224.69 94.1V95.1H1225.69V94.1H1224.69ZM1223.69 47V94.1H1225.69V47H1223.69ZM1224.69 93.1H1177.59V95.1H1224.69V93.1Z" fill="#166CF3" fill-opacity="0.45" mask="url(#path-51-inside-26_37_6)"/>
<mask id="path-53-inside-27_37_6" fill="white">
<path d="M1224.69 47H1271.79V94.1H1224.69V47Z"/>
</mask>
<path d="M1271.79 94.1V95.1H1272.79V94.1H1271.79ZM1270.79 47V94.1H1272.79V47H1270.79ZM1271.79 93.1H1224.69V95.1H1271.79V93.1Z" fill="#166CF3" fill-opacity="0.45" mask="url(#path-53-inside-27_37_6)"/>
<mask id="path-55-inside-28_37_6" fill="white">
<path d="M1271.79 47H1318.9V94.1H1271.79V47Z"/>
</mask>
<path d="M1318.9 94.1V95.1H1319.9V94.1H1318.9ZM1317.9 47V94.1H1319.9V47H1317.9ZM1318.9 93.1H1271.79V95.1H1318.9V93.1Z" fill="#166CF3" fill-opacity="0.45" mask="url(#path-55-inside-28_37_6)"/>
<mask id="path-57-inside-29_37_6" fill="white">
<path d="M1318.9 47H1366V94.1H1318.9V47Z"/>
</mask>
<path d="M1366 94.1V95.1H1367V94.1H1366ZM1365 47V94.1H1367V47H1365ZM1366 93.1H1318.9V95.1H1366V93.1Z" fill="#166CF3" fill-opacity="0.45" mask="url(#path-57-inside-29_37_6)"/>
<mask id="path-59-inside-30_37_6" fill="white">
<path d="M0 0H47.1034V47.1H0V0Z"/>
</mask>
<path d="M47.1034 47.1V48.1H48.1034V47.1H47.1034ZM46.1034 0V47.1H48.1034V0H46.1034ZM47.1034 46.1H0V48.1H47.1034V46.1Z" fill="#166CF3" fill-opacity="0.45" mask="url(#path-59-inside-30_37_6)"/>
<mask id="path-61-inside-31_37_6" fill="white">
<path d="M47.1035 0H94.2069V47.1H47.1035V0Z"/>
</mask>
<path d="M94.2069 47.1V48.1H95.2069V47.1H94.2069ZM93.2069 0V47.1H95.2069V0H93.2069ZM94.2069 46.1H47.1035V48.1H94.2069V46.1Z" fill="#166CF3" fill-opacity="0.45" mask="url(#path-61-inside-31_37_6)"/>
<mask id="path-63-inside-32_37_6" fill="white">
<path d="M94.2069 0H141.31V47.1H94.2069V0Z"/>
</mask>
<path d="M141.31 47.1V48.1H142.31V47.1H141.31ZM140.31 0V47.1H142.31V0H140.31ZM141.31 46.1H94.2069V48.1H141.31V46.1Z" fill="#166CF3" fill-opacity="0.45" mask="url(#path-63-inside-32_37_6)"/>
<mask id="path-65-inside-33_37_6" fill="white">
<path d="M141.31 0H188.414V47.1H141.31V0Z"/>
</mask>
<path d="M188.414 47.1V48.1H189.414V47.1H188.414ZM187.414 0V47.1H189.414V0H187.414ZM188.414 46.1H141.31V48.1H188.414V46.1Z" fill="#166CF3" fill-opacity="0.45" mask="url(#path-65-inside-33_37_6)"/>
<mask id="path-67-inside-34_37_6" fill="white">
<path d="M188.414 0H235.517V47.1H188.414V0Z"/>
</mask>
<path d="M235.517 47.1V48.1H236.517V47.1H235.517ZM234.517 0V47.1H236.517V0H234.517ZM235.517 46.1H188.414V48.1H235.517V46.1Z" fill="#166CF3" fill-opacity="0.45" mask="url(#path-67-inside-34_37_6)"/>
<mask id="path-69-inside-35_37_6" fill="white">
<path d="M235.517 0H282.621V47.1H235.517V0Z"/>
</mask>
<path d="M282.621 47.1V48.1H283.621V47.1H282.621ZM281.621 0V47.1H283.621V0H281.621ZM282.621 46.1H235.517V48.1H282.621V46.1Z" fill="#166CF3" fill-opacity="0.45" mask="url(#path-69-inside-35_37_6)"/>
<mask id="path-71-inside-36_37_6" fill="white">
<path d="M282.621 0H329.724V47.1H282.621V0Z"/>
</mask>
<path d="M329.724 47.1V48.1H330.724V47.1H329.724ZM328.724 0V47.1H330.724V0H328.724ZM329.724 46.1H282.621V48.1H329.724V46.1Z" fill="#166CF3" fill-opacity="0.45" mask="url(#path-71-inside-36_37_6)"/>
<mask id="path-73-inside-37_37_6" fill="white">
<path d="M329.724 0H376.828V47.1H329.724V0Z"/>
</mask>
<path d="M376.828 47.1V48.1H377.828V47.1H376.828ZM375.828 0V47.1H377.828V0H375.828ZM376.828 46.1H329.724V48.1H376.828V46.1Z" fill="#166CF3" fill-opacity="0.45" mask="url(#path-73-inside-37_37_6)"/>
<mask id="path-75-inside-38_37_6" fill="white">
<path d="M376.828 0H423.931V47.1H376.828V0Z"/>
</mask>
<path d="M423.931 47.1V48.1H424.931V47.1H423.931ZM422.931 0V47.1H424.931V0H422.931ZM423.931 46.1H376.828V48.1H423.931V46.1Z" fill="#166CF3" fill-opacity="0.45" mask="url(#path-75-inside-38_37_6)"/>
<mask id="path-77-inside-39_37_6" fill="white">
<path d="M423.931 0H471.035V47.1H423.931V0Z"/>
</mask>
<path d="M471.035 47.1V48.1H472.035V47.1H471.035ZM470.035 0V47.1H472.035V0H470.035ZM471.035 46.1H423.931V48.1H471.035V46.1Z" fill="#166CF3" fill-opacity="0.45" mask="url(#path-77-inside-39_37_6)"/>
<mask id="path-79-inside-40_37_6" fill="white">
<path d="M471.035 0H518.138V47.1H471.035V0Z"/>
</mask>
<path d="M518.138 47.1V48.1H519.138V47.1H518.138ZM517.138 0V47.1H519.138V0H517.138ZM518.138 46.1H471.035V48.1H518.138V46.1Z" fill="#166CF3" fill-opacity="0.45" mask="url(#path-79-inside-40_37_6)"/>
<mask id="path-81-inside-41_37_6" fill="white">
<path d="M518.138 0H565.241V47.1H518.138V0Z"/>
</mask>
<path d="M565.241 47.1V48.1H566.241V47.1H565.241ZM564.241 0V47.1H566.241V0H564.241ZM565.241 46.1H518.138V48.1H565.241V46.1Z" fill="#166CF3" fill-opacity="0.45" mask="url(#path-81-inside-41_37_6)"/>
<mask id="path-83-inside-42_37_6" fill="white">
<path d="M565.241 0H612.345V47.1H565.241V0Z"/>
</mask>
<path d="M612.345 47.1V48.1H613.345V47.1H612.345ZM611.345 0V47.1H613.345V0H611.345ZM612.345 46.1H565.241V48.1H612.345V46.1Z" fill="#166CF3" fill-opacity="0.45" mask="url(#path-83-inside-42_37_6)"/>
<mask id="path-85-inside-43_37_6" fill="white">
<path d="M612.345 0H659.448V47.1H612.345V0Z"/>
</mask>
<path d="M659.448 47.1V48.1H660.448V47.1H659.448ZM658.448 0V47.1H660.448V0H658.448ZM659.448 46.1H612.345V48.1H659.448V46.1Z" fill="#166CF3" fill-opacity="0.45" mask="url(#path-85-inside-43_37_6)"/>
<mask id="path-87-inside-44_37_6" fill="white">
<path d="M659.448 0H706.552V47.1H659.448V0Z"/>
</mask>
<path d="M706.552 47.1V48.1H707.552V47.1H706.552ZM705.552 0V47.1H707.552V0H705.552ZM706.552 46.1H659.448V48.1H706.552V46.1Z" fill="#166CF3" fill-opacity="0.45" mask="url(#path-87-inside-44_37_6)"/>
<mask id="path-89-inside-45_37_6" fill="white">
<path d="M706.552 0H753.655V47.1H706.552V0Z"/>
</mask>
<path d="M753.655 47.1V48.1H754.655V47.1H753.655ZM752.655 0V47.1H754.655V0H752.655ZM753.655 46.1H706.552V48.1H753.655V46.1Z" fill="#166CF3" fill-opacity="0.45" mask="url(#path-89-inside-45_37_6)"/>
<mask id="path-91-inside-46_37_6" fill="white">
<path d="M753.655 0H800.759V47.1H753.655V0Z"/>
</mask>
<path d="M800.759 47.1V48.1H801.759V47.1H800.759ZM799.759 0V47.1H801.759V0H799.759ZM800.759 46.1H753.655V48.1H800.759V46.1Z" fill="#166CF3" fill-opacity="0.45" mask="url(#path-91-inside-46_37_6)"/>
<mask id="path-93-inside-47_37_6" fill="white">
<path d="M800.759 0H847.862V47.1H800.759V0Z"/>
</mask>
<path d="M847.862 47.1V48.1H848.862V47.1H847.862ZM846.862 0V47.1H848.862V0H846.862ZM847.862 46.1H800.759V48.1H847.862V46.1Z" fill="#166CF3" fill-opacity="0.45" mask="url(#path-93-inside-47_37_6)"/>
<mask id="path-95-inside-48_37_6" fill="white">
<path d="M847.862 0H894.966V47.1H847.862V0Z"/>
</mask>
<path d="M894.966 47.1V48.1H895.966V47.1H894.966ZM893.966 0V47.1H895.966V0H893.966ZM894.966 46.1H847.862V48.1H894.966V46.1Z" fill="#166CF3" fill-opacity="0.45" mask="url(#path-95-inside-48_37_6)"/>
<mask id="path-97-inside-49_37_6" fill="white">
<path d="M894.966 0H942.069V47.1H894.966V0Z"/>
</mask>
<path d="M942.069 47.1V48.1H943.069V47.1H942.069ZM941.069 0V47.1H943.069V0H941.069ZM942.069 46.1H894.966V48.1H942.069V46.1Z" fill="#166CF3" fill-opacity="0.45" mask="url(#path-97-inside-49_37_6)"/>
<mask id="path-99-inside-50_37_6" fill="white">
<path d="M942.069 0H989.172V47.1H942.069V0Z"/>
</mask>
<path d="M989.172 47.1V48.1H990.172V47.1H989.172ZM988.172 0V47.1H990.172V0H988.172ZM989.172 46.1H942.069V48.1H989.172V46.1Z" fill="#166CF3" fill-opacity="0.45" mask="url(#path-99-inside-50_37_6)"/>
<mask id="path-101-inside-51_37_6" fill="white">
<path d="M989.172 0H1036.28V47.1H989.172V0Z"/>
</mask>
<path d="M1036.28 47.1V48.1H1037.28V47.1H1036.28ZM1035.28 0V47.1H1037.28V0H1035.28ZM1036.28 46.1H989.172V48.1H1036.28V46.1Z" fill="#166CF3" fill-opacity="0.45" mask="url(#path-101-inside-51_37_6)"/>
<mask id="path-103-inside-52_37_6" fill="white">
<path d="M1036.28 0H1083.38V47.1H1036.28V0Z"/>
</mask>
<path d="M1083.38 47.1V48.1H1084.38V47.1H1083.38ZM1082.38 0V47.1H1084.38V0H1082.38ZM1083.38 46.1H1036.28V48.1H1083.38V46.1Z" fill="#166CF3" fill-opacity="0.45" mask="url(#path-103-inside-52_37_6)"/>
<mask id="path-105-inside-53_37_6" fill="white">
<path d="M1083.38 0H1130.48V47.1H1083.38V0Z"/>
</mask>
<path d="M1130.48 47.1V48.1H1131.48V47.1H1130.48ZM1129.48 0V47.1H1131.48V0H1129.48ZM1130.48 46.1H1083.38V48.1H1130.48V46.1Z" fill="#166CF3" fill-opacity="0.45" mask="url(#path-105-inside-53_37_6)"/>
<mask id="path-107-inside-54_37_6" fill="white">
<path d="M1130.48 0H1177.59V47.1H1130.48V0Z"/>
</mask>
<path d="M1177.59 47.1V48.1H1178.59V47.1H1177.59ZM1176.59 0V47.1H1178.59V0H1176.59ZM1177.59 46.1H1130.48V48.1H1177.59V46.1Z" fill="#166CF3" fill-opacity="0.45" mask="url(#path-107-inside-54_37_6)"/>
<mask id="path-109-inside-55_37_6" fill="white">
<path d="M1177.59 0H1224.69V47.1H1177.59V0Z"/>
</mask>
<path d="M1224.69 47.1V48.1H1225.69V47.1H1224.69ZM1223.69 0V47.1H1225.69V0H1223.69ZM1224.69 46.1H1177.59V48.1H1224.69V46.1Z" fill="#166CF3" fill-opacity="0.45" mask="url(#path-109-inside-55_37_6)"/>
<mask id="path-111-inside-56_37_6" fill="white">
<path d="M1224.69 0H1271.79V47.1H1224.69V0Z"/>
</mask>
<path d="M1271.79 47.1V48.1H1272.79V47.1H1271.79ZM1270.79 0V47.1H1272.79V0H1270.79ZM1271.79 46.1H1224.69V48.1H1271.79V46.1Z" fill="#166CF3" fill-opacity="0.45" mask="url(#path-111-inside-56_37_6)"/>
<mask id="path-113-inside-57_37_6" fill="white">
<path d="M1271.79 0H1318.9V47.1H1271.79V0Z"/>
</mask>
<path d="M1318.9 47.1V48.1H1319.9V47.1H1318.9ZM1317.9 0V47.1H1319.9V0H1317.9ZM1318.9 46.1H1271.79V48.1H1318.9V46.1Z" fill="#166CF3" fill-opacity="0.45" mask="url(#path-113-inside-57_37_6)"/>
<mask id="path-115-inside-58_37_6" fill="white">
<path d="M1318.9 0H1366V47.1H1318.9V0Z"/>
</mask>
<path d="M1366 47.1V48.1H1367V47.1H1366ZM1365 0V47.1H1367V0H1365ZM1366 46.1H1318.9V48.1H1366V46.1Z" fill="#166CF3" fill-opacity="0.45" mask="url(#path-115-inside-58_37_6)"/>
<mask id="path-117-inside-59_37_6" fill="white">
<path d="M0 94H47.1034V141.1H0V94Z"/>
</mask>
<path d="M47.1034 141.1V142.1H48.1034V141.1H47.1034ZM46.1034 94V141.1H48.1034V94H46.1034ZM47.1034 140.1H0V142.1H47.1034V140.1Z" fill="#166CF3" fill-opacity="0.45" mask="url(#path-117-inside-59_37_6)"/>
<mask id="path-119-inside-60_37_6" fill="white">
<path d="M47.1035 94H94.2069V141.1H47.1035V94Z"/>
</mask>
<path d="M94.2069 141.1V142.1H95.2069V141.1H94.2069ZM93.2069 94V141.1H95.2069V94H93.2069ZM94.2069 140.1H47.1035V142.1H94.2069V140.1Z" fill="#166CF3" fill-opacity="0.45" mask="url(#path-119-inside-60_37_6)"/>
<mask id="path-121-inside-61_37_6" fill="white">
<path d="M94.2069 94H141.31V141.1H94.2069V94Z"/>
</mask>
<path d="M141.31 141.1V142.1H142.31V141.1H141.31ZM140.31 94V141.1H142.31V94H140.31ZM141.31 140.1H94.2069V142.1H141.31V140.1Z" fill="#166CF3" fill-opacity="0.45" mask="url(#path-121-inside-61_37_6)"/>
<mask id="path-123-inside-62_37_6" fill="white">
<path d="M141.31 94H188.414V141.1H141.31V94Z"/>
</mask>
<path d="M188.414 141.1V142.1H189.414V141.1H188.414ZM187.414 94V141.1H189.414V94H187.414ZM188.414 140.1H141.31V142.1H188.414V140.1Z" fill="#166CF3" fill-opacity="0.45" mask="url(#path-123-inside-62_37_6)"/>
<mask id="path-125-inside-63_37_6" fill="white">
<path d="M188.414 94H235.517V141.1H188.414V94Z"/>
</mask>
<path d="M235.517 141.1V142.1H236.517V141.1H235.517ZM234.517 94V141.1H236.517V94H234.517ZM235.517 140.1H188.414V142.1H235.517V140.1Z" fill="#166CF3" fill-opacity="0.45" mask="url(#path-125-inside-63_37_6)"/>
<mask id="path-127-inside-64_37_6" fill="white">
<path d="M235.517 94H282.621V141.1H235.517V94Z"/>
</mask>
<path d="M282.621 141.1V142.1H283.621V141.1H282.621ZM281.621 94V141.1H283.621V94H281.621ZM282.621 140.1H235.517V142.1H282.621V140.1Z" fill="#166CF3" fill-opacity="0.45" mask="url(#path-127-inside-64_37_6)"/>
<mask id="path-129-inside-65_37_6" fill="white">
<path d="M282.621 94H329.724V141.1H282.621V94Z"/>
</mask>
<path d="M329.724 141.1V142.1H330.724V141.1H329.724ZM328.724 94V141.1H330.724V94H328.724ZM329.724 140.1H282.621V142.1H329.724V140.1Z" fill="#166CF3" fill-opacity="0.45" mask="url(#path-129-inside-65_37_6)"/>
<mask id="path-131-inside-66_37_6" fill="white">
<path d="M329.724 94H376.828V141.1H329.724V94Z"/>
</mask>
<path d="M376.828 141.1V142.1H377.828V141.1H376.828ZM375.828 94V141.1H377.828V94H375.828ZM376.828 140.1H329.724V142.1H376.828V140.1Z" fill="#166CF3" fill-opacity="0.45" mask="url(#path-131-inside-66_37_6)"/>
<mask id="path-133-inside-67_37_6" fill="white">
<path d="M376.828 94H423.931V141.1H376.828V94Z"/>
</mask>
<path d="M423.931 141.1V142.1H424.931V141.1H423.931ZM422.931 94V141.1H424.931V94H422.931ZM423.931 140.1H376.828V142.1H423.931V140.1Z" fill="#166CF3" fill-opacity="0.45" mask="url(#path-133-inside-67_37_6)"/>
<mask id="path-135-inside-68_37_6" fill="white">
<path d="M423.931 94H471.035V141.1H423.931V94Z"/>
</mask>
<path d="M471.035 141.1V142.1H472.035V141.1H471.035ZM470.035 94V141.1H472.035V94H470.035ZM471.035 140.1H423.931V142.1H471.035V140.1Z" fill="#166CF3" fill-opacity="0.45" mask="url(#path-135-inside-68_37_6)"/>
<mask id="path-137-inside-69_37_6" fill="white">
<path d="M471.035 94H518.138V141.1H471.035V94Z"/>
</mask>
<path d="M518.138 141.1V142.1H519.138V141.1H518.138ZM517.138 94V141.1H519.138V94H517.138ZM518.138 140.1H471.035V142.1H518.138V140.1Z" fill="#166CF3" fill-opacity="0.45" mask="url(#path-137-inside-69_37_6)"/>
<mask id="path-139-inside-70_37_6" fill="white">
<path d="M518.138 94H565.241V141.1H518.138V94Z"/>
</mask>
<path d="M565.241 141.1V142.1H566.241V141.1H565.241ZM564.241 94V141.1H566.241V94H564.241ZM565.241 140.1H518.138V142.1H565.241V140.1Z" fill="#166CF3" fill-opacity="0.45" mask="url(#path-139-inside-70_37_6)"/>
<mask id="path-141-inside-71_37_6" fill="white">
<path d="M565.241 94H612.345V141.1H565.241V94Z"/>
</mask>
<path d="M612.345 141.1V142.1H613.345V141.1H612.345ZM611.345 94V141.1H613.345V94H611.345ZM612.345 140.1H565.241V142.1H612.345V140.1Z" fill="#166CF3" fill-opacity="0.45" mask="url(#path-141-inside-71_37_6)"/>
<mask id="path-143-inside-72_37_6" fill="white">
<path d="M612.345 94H659.448V141.1H612.345V94Z"/>
</mask>
<path d="M659.448 141.1V142.1H660.448V141.1H659.448ZM658.448 94V141.1H660.448V94H658.448ZM659.448 140.1H612.345V142.1H659.448V140.1Z" fill="#166CF3" fill-opacity="0.45" mask="url(#path-143-inside-72_37_6)"/>
<mask id="path-145-inside-73_37_6" fill="white">
<path d="M659.448 94H706.552V141.1H659.448V94Z"/>
</mask>
<path d="M706.552 141.1V142.1H707.552V141.1H706.552ZM705.552 94V141.1H707.552V94H705.552ZM706.552 140.1H659.448V142.1H706.552V140.1Z" fill="#166CF3" fill-opacity="0.45" mask="url(#path-145-inside-73_37_6)"/>
<mask id="path-147-inside-74_37_6" fill="white">
<path d="M706.552 94H753.655V141.1H706.552V94Z"/>
</mask>
<path d="M753.655 141.1V142.1H754.655V141.1H753.655ZM752.655 94V141.1H754.655V94H752.655ZM753.655 140.1H706.552V142.1H753.655V140.1Z" fill="#166CF3" fill-opacity="0.45" mask="url(#path-147-inside-74_37_6)"/>
<mask id="path-149-inside-75_37_6" fill="white">
<path d="M753.655 94H800.759V141.1H753.655V94Z"/>
</mask>
<path d="M800.759 141.1V142.1H801.759V141.1H800.759ZM799.759 94V141.1H801.759V94H799.759ZM800.759 140.1H753.655V142.1H800.759V140.1Z" fill="#166CF3" fill-opacity="0.45" mask="url(#path-149-inside-75_37_6)"/>
<mask id="path-151-inside-76_37_6" fill="white">
<path d="M800.759 94H847.862V141.1H800.759V94Z"/>
</mask>
<path d="M847.862 141.1V142.1H848.862V141.1H847.862ZM846.862 94V141.1H848.862V94H846.862ZM847.862 140.1H800.759V142.1H847.862V140.1Z" fill="#166CF3" fill-opacity="0.45" mask="url(#path-151-inside-76_37_6)"/>
<mask id="path-153-inside-77_37_6" fill="white">
<path d="M847.862 94H894.966V141.1H847.862V94Z"/>
</mask>
<path d="M894.966 141.1V142.1H895.966V141.1H894.966ZM893.966 94V141.1H895.966V94H893.966ZM894.966 140.1H847.862V142.1H894.966V140.1Z" fill="#166CF3" fill-opacity="0.45" mask="url(#path-153-inside-77_37_6)"/>
<mask id="path-155-inside-78_37_6" fill="white">
<path d="M894.966 94H942.069V141.1H894.966V94Z"/>
</mask>
<path d="M942.069 141.1V142.1H943.069V141.1H942.069ZM941.069 94V141.1H943.069V94H941.069ZM942.069 140.1H894.966V142.1H942.069V140.1Z" fill="#166CF3" fill-opacity="0.45" mask="url(#path-155-inside-78_37_6)"/>
<mask id="path-157-inside-79_37_6" fill="white">
<path d="M942.069 94H989.172V141.1H942.069V94Z"/>
</mask>
<path d="M989.172 141.1V142.1H990.172V141.1H989.172ZM988.172 94V141.1H990.172V94H988.172ZM989.172 140.1H942.069V142.1H989.172V140.1Z" fill="#166CF3" fill-opacity="0.45" mask="url(#path-157-inside-79_37_6)"/>
<mask id="path-159-inside-80_37_6" fill="white">
<path d="M989.172 94H1036.28V141.1H989.172V94Z"/>
</mask>
<path d="M1036.28 141.1V142.1H1037.28V141.1H1036.28ZM1035.28 94V141.1H1037.28V94H1035.28ZM1036.28 140.1H989.172V142.1H1036.28V140.1Z" fill="#166CF3" fill-opacity="0.45" mask="url(#path-159-inside-80_37_6)"/>
<mask id="path-161-inside-81_37_6" fill="white">
<path d="M1036.28 94H1083.38V141.1H1036.28V94Z"/>
</mask>
<path d="M1083.38 141.1V142.1H1084.38V141.1H1083.38ZM1082.38 94V141.1H1084.38V94H1082.38ZM1083.38 140.1H1036.28V142.1H1083.38V140.1Z" fill="#166CF3" fill-opacity="0.45" mask="url(#path-161-inside-81_37_6)"/>
<mask id="path-163-inside-82_37_6" fill="white">
<path d="M1083.38 94H1130.48V141.1H1083.38V94Z"/>
</mask>
<path d="M1130.48 141.1V142.1H1131.48V141.1H1130.48ZM1129.48 94V141.1H1131.48V94H1129.48ZM1130.48 140.1H1083.38V142.1H1130.48V140.1Z" fill="#166CF3" fill-opacity="0.45" mask="url(#path-163-inside-82_37_6)"/>
<mask id="path-165-inside-83_37_6" fill="white">
<path d="M1130.48 94H1177.59V141.1H1130.48V94Z"/>
</mask>
<path d="M1177.59 141.1V142.1H1178.59V141.1H1177.59ZM1176.59 94V141.1H1178.59V94H1176.59ZM1177.59 140.1H1130.48V142.1H1177.59V140.1Z" fill="#166CF3" fill-opacity="0.45" mask="url(#path-165-inside-83_37_6)"/>
<mask id="path-167-inside-84_37_6" fill="white">
<path d="M1177.59 94H1224.69V141.1H1177.59V94Z"/>
</mask>
<path d="M1224.69 141.1V142.1H1225.69V141.1H1224.69ZM1223.69 94V141.1H1225.69V94H1223.69ZM1224.69 140.1H1177.59V142.1H1224.69V140.1Z" fill="#166CF3" fill-opacity="0.45" mask="url(#path-167-inside-84_37_6)"/>
<mask id="path-169-inside-85_37_6" fill="white">
<path d="M1224.69 94H1271.79V141.1H1224.69V94Z"/>
</mask>
<path d="M1271.79 141.1V142.1H1272.79V141.1H1271.79ZM1270.79 94V141.1H1272.79V94H1270.79ZM1271.79 140.1H1224.69V142.1H1271.79V140.1Z" fill="#166CF3" fill-opacity="0.45" mask="url(#path-169-inside-85_37_6)"/>
<mask id="path-171-inside-86_37_6" fill="white">
<path d="M1271.79 94H1318.9V141.1H1271.79V94Z"/>
</mask>
<path d="M1318.9 141.1V142.1H1319.9V141.1H1318.9ZM1317.9 94V141.1H1319.9V94H1317.9ZM1318.9 140.1H1271.79V142.1H1318.9V140.1Z" fill="#166CF3" fill-opacity="0.45" mask="url(#path-171-inside-86_37_6)"/>
<mask id="path-173-inside-87_37_6" fill="white">
<path d="M1318.9 94H1366V141.1H1318.9V94Z"/>
</mask>
<path d="M1366 141.1V142.1H1367V141.1H1366ZM1365 94V141.1H1367V94H1365ZM1366 140.1H1318.9V142.1H1366V140.1Z" fill="#166CF3" fill-opacity="0.45" mask="url(#path-173-inside-87_37_6)"/>
<mask id="path-175-inside-88_37_6" fill="white">
<path d="M0 141H47.1034V188.1H0V141Z"/>
</mask>
<path d="M47.1034 188.1V189.1H48.1034V188.1H47.1034ZM46.1034 141V188.1H48.1034V141H46.1034ZM47.1034 187.1H0V189.1H47.1034V187.1Z" fill="#166CF3" fill-opacity="0.45" mask="url(#path-175-inside-88_37_6)"/>
<mask id="path-177-inside-89_37_6" fill="white">
<path d="M47.1035 141H94.2069V188.1H47.1035V141Z"/>
</mask>
<path d="M94.2069 188.1V189.1H95.2069V188.1H94.2069ZM93.2069 141V188.1H95.2069V141H93.2069ZM94.2069 187.1H47.1035V189.1H94.2069V187.1Z" fill="#166CF3" fill-opacity="0.45" mask="url(#path-177-inside-89_37_6)"/>
<mask id="path-179-inside-90_37_6" fill="white">
<path d="M94.2069 141H141.31V188.1H94.2069V141Z"/>
</mask>
<path d="M141.31 188.1V189.1H142.31V188.1H141.31ZM140.31 141V188.1H142.31V141H140.31ZM141.31 187.1H94.2069V189.1H141.31V187.1Z" fill="#166CF3" fill-opacity="0.45" mask="url(#path-179-inside-90_37_6)"/>
<mask id="path-181-inside-91_37_6" fill="white">
<path d="M141.31 141H188.414V188.1H141.31V141Z"/>
</mask>
<path d="M188.414 188.1V189.1H189.414V188.1H188.414ZM187.414 141V188.1H189.414V141H187.414ZM188.414 187.1H141.31V189.1H188.414V187.1Z" fill="#166CF3" fill-opacity="0.45" mask="url(#path-181-inside-91_37_6)"/>
<mask id="path-183-inside-92_37_6" fill="white">
<path d="M188.414 141H235.517V188.1H188.414V141Z"/>
</mask>
<path d="M235.517 188.1V189.1H236.517V188.1H235.517ZM234.517 141V188.1H236.517V141H234.517ZM235.517 187.1H188.414V189.1H235.517V187.1Z" fill="#166CF3" fill-opacity="0.45" mask="url(#path-183-inside-92_37_6)"/>
<mask id="path-185-inside-93_37_6" fill="white">
<path d="M235.517 141H282.621V188.1H235.517V141Z"/>
</mask>
<path d="M282.621 188.1V189.1H283.621V188.1H282.621ZM281.621 141V188.1H283.621V141H281.621ZM282.621 187.1H235.517V189.1H282.621V187.1Z" fill="#166CF3" fill-opacity="0.45" mask="url(#path-185-inside-93_37_6)"/>
<mask id="path-187-inside-94_37_6" fill="white">
<path d="M282.621 141H329.724V188.1H282.621V141Z"/>
</mask>
<path d="M329.724 188.1V189.1H330.724V188.1H329.724ZM328.724 141V188.1H330.724V141H328.724ZM329.724 187.1H282.621V189.1H329.724V187.1Z" fill="#166CF3" fill-opacity="0.45" mask="url(#path-187-inside-94_37_6)"/>
<mask id="path-189-inside-95_37_6" fill="white">
<path d="M329.724 141H376.828V188.1H329.724V141Z"/>
</mask>
<path d="M376.828 188.1V189.1H377.828V188.1H376.828ZM375.828 141V188.1H377.828V141H375.828ZM376.828 187.1H329.724V189.1H376.828V187.1Z" fill="#166CF3" fill-opacity="0.45" mask="url(#path-189-inside-95_37_6)"/>
<mask id="path-191-inside-96_37_6" fill="white">
<path d="M376.828 141H423.931V188.1H376.828V141Z"/>
</mask>
<path d="M423.931 188.1V189.1H424.931V188.1H423.931ZM422.931 141V188.1H424.931V141H422.931ZM423.931 187.1H376.828V189.1H423.931V187.1Z" fill="#166CF3" fill-opacity="0.45" mask="url(#path-191-inside-96_37_6)"/>
<mask id="path-193-inside-97_37_6" fill="white">
<path d="M423.931 141H471.035V188.1H423.931V141Z"/>
</mask>
<path d="M471.035 188.1V189.1H472.035V188.1H471.035ZM470.035 141V188.1H472.035V141H470.035ZM471.035 187.1H423.931V189.1H471.035V187.1Z" fill="#166CF3" fill-opacity="0.45" mask="url(#path-193-inside-97_37_6)"/>
<mask id="path-195-inside-98_37_6" fill="white">
<path d="M471.035 141H518.138V188.1H471.035V141Z"/>
</mask>
<path d="M518.138 188.1V189.1H519.138V188.1H518.138ZM517.138 141V188.1H519.138V141H517.138ZM518.138 187.1H471.035V189.1H518.138V187.1Z" fill="#166CF3" fill-opacity="0.45" mask="url(#path-195-inside-98_37_6)"/>
<mask id="path-197-inside-99_37_6" fill="white">
<path d="M518.138 141H565.241V188.1H518.138V141Z"/>
</mask>
<path d="M565.241 188.1V189.1H566.241V188.1H565.241ZM564.241 141V188.1H566.241V141H564.241ZM565.241 187.1H518.138V189.1H565.241V187.1Z" fill="#166CF3" fill-opacity="0.45" mask="url(#path-197-inside-99_37_6)"/>
<mask id="path-199-inside-100_37_6" fill="white">
<path d="M565.241 141H612.345V188.1H565.241V141Z"/>
</mask>
<path d="M612.345 188.1V189.1H613.345V188.1H612.345ZM611.345 141V188.1H613.345V141H611.345ZM612.345 187.1H565.241V189.1H612.345V187.1Z" fill="#166CF3" fill-opacity="0.45" mask="url(#path-199-inside-100_37_6)"/>
<mask id="path-201-inside-101_37_6" fill="white">
<path d="M612.345 141H659.448V188.1H612.345V141Z"/>
</mask>
<path d="M659.448 188.1V189.1H660.448V188.1H659.448ZM658.448 141V188.1H660.448V141H658.448ZM659.448 187.1H612.345V189.1H659.448V187.1Z" fill="#166CF3" fill-opacity="0.45" mask="url(#path-201-inside-101_37_6)"/>
<mask id="path-203-inside-102_37_6" fill="white">
<path d="M659.448 141H706.552V188.1H659.448V141Z"/>
</mask>
<path d="M706.552 188.1V189.1H707.552V188.1H706.552ZM705.552 141V188.1H707.552V141H705.552ZM706.552 187.1H659.448V189.1H706.552V187.1Z" fill="#166CF3" fill-opacity="0.45" mask="url(#path-203-inside-102_37_6)"/>
<mask id="path-205-inside-103_37_6" fill="white">
<path d="M706.552 141H753.655V188.1H706.552V141Z"/>
</mask>
<path d="M753.655 188.1V189.1H754.655V188.1H753.655ZM752.655 141V188.1H754.655V141H752.655ZM753.655 187.1H706.552V189.1H753.655V187.1Z" fill="#166CF3" fill-opacity="0.45" mask="url(#path-205-inside-103_37_6)"/>
<mask id="path-207-inside-104_37_6" fill="white">
<path d="M753.655 141H800.759V188.1H753.655V141Z"/>
</mask>
<path d="M800.759 188.1V189.1H801.759V188.1H800.759ZM799.759 141V188.1H801.759V141H799.759ZM800.759 187.1H753.655V189.1H800.759V187.1Z" fill="#166CF3" fill-opacity="0.45" mask="url(#path-207-inside-104_37_6)"/>
<mask id="path-209-inside-105_37_6" fill="white">
<path d="M800.759 141H847.862V188.1H800.759V141Z"/>
</mask>
<path d="M847.862 188.1V189.1H848.862V188.1H847.862ZM846.862 141V188.1H848.862V141H846.862ZM847.862 187.1H800.759V189.1H847.862V187.1Z" fill="#166CF3" fill-opacity="0.45" mask="url(#path-209-inside-105_37_6)"/>
<mask id="path-211-inside-106_37_6" fill="white">
<path d="M847.862 141H894.966V188.1H847.862V141Z"/>
</mask>
<path d="M894.966 188.1V189.1H895.966V188.1H894.966ZM893.966 141V188.1H895.966V141H893.966ZM894.966 187.1H847.862V189.1H894.966V187.1Z" fill="#166CF3" fill-opacity="0.45" mask="url(#path-211-inside-106_37_6)"/>
<mask id="path-213-inside-107_37_6" fill="white">
<path d="M894.966 141H942.069V188.1H894.966V141Z"/>
</mask>
<path d="M942.069 188.1V189.1H943.069V188.1H942.069ZM941.069 141V188.1H943.069V141H941.069ZM942.069 187.1H894.966V189.1H942.069V187.1Z" fill="#166CF3" fill-opacity="0.45" mask="url(#path-213-inside-107_37_6)"/>
<mask id="path-215-inside-108_37_6" fill="white">
<path d="M942.069 141H989.172V188.1H942.069V141Z"/>
</mask>
<path d="M989.172 188.1V189.1H990.172V188.1H989.172ZM988.172 141V188.1H990.172V141H988.172ZM989.172 187.1H942.069V189.1H989.172V187.1Z" fill="#166CF3" fill-opacity="0.45" mask="url(#path-215-inside-108_37_6)"/>
<mask id="path-217-inside-109_37_6" fill="white">
<path d="M989.172 141H1036.28V188.1H989.172V141Z"/>
</mask>
<path d="M1036.28 188.1V189.1H1037.28V188.1H1036.28ZM1035.28 141V188.1H1037.28V141H1035.28ZM1036.28 187.1H989.172V189.1H1036.28V187.1Z" fill="#166CF3" fill-opacity="0.45" mask="url(#path-217-inside-109_37_6)"/>
<mask id="path-219-inside-110_37_6" fill="white">
<path d="M1036.28 141H1083.38V188.1H1036.28V141Z"/>
</mask>
<path d="M1083.38 188.1V189.1H1084.38V188.1H1083.38ZM1082.38 141V188.1H1084.38V141H1082.38ZM1083.38 187.1H1036.28V189.1H1083.38V187.1Z" fill="#166CF3" fill-opacity="0.45" mask="url(#path-219-inside-110_37_6)"/>
<mask id="path-221-inside-111_37_6" fill="white">
<path d="M1083.38 141H1130.48V188.1H1083.38V141Z"/>
</mask>
<path d="M1130.48 188.1V189.1H1131.48V188.1H1130.48ZM1129.48 141V188.1H1131.48V141H1129.48ZM1130.48 187.1H1083.38V189.1H1130.48V187.1Z" fill="#166CF3" fill-opacity="0.45" mask="url(#path-221-inside-111_37_6)"/>
<mask id="path-223-inside-112_37_6" fill="white">
<path d="M1130.48 141H1177.59V188.1H1130.48V141Z"/>
</mask>
<path d="M1177.59 188.1V189.1H1178.59V188.1H1177.59ZM1176.59 141V188.1H1178.59V141H1176.59ZM1177.59 187.1H1130.48V189.1H1177.59V187.1Z" fill="#166CF3" fill-opacity="0.45" mask="url(#path-223-inside-112_37_6)"/>
<mask id="path-225-inside-113_37_6" fill="white">
<path d="M1177.59 141H1224.69V188.1H1177.59V141Z"/>
</mask>
<path d="M1224.69 188.1V189.1H1225.69V188.1H1224.69ZM1223.69 141V188.1H1225.69V141H1223.69ZM1224.69 187.1H1177.59V189.1H1224.69V187.1Z" fill="#166CF3" fill-opacity="0.45" mask="url(#path-225-inside-113_37_6)"/>
<mask id="path-227-inside-114_37_6" fill="white">
<path d="M1224.69 141H1271.79V188.1H1224.69V141Z"/>
</mask>
<path d="M1271.79 188.1V189.1H1272.79V188.1H1271.79ZM1270.79 141V188.1H1272.79V141H1270.79ZM1271.79 187.1H1224.69V189.1H1271.79V187.1Z" fill="#166CF3" fill-opacity="0.45" mask="url(#path-227-inside-114_37_6)"/>
<mask id="path-229-inside-115_37_6" fill="white">
<path d="M1271.79 141H1318.9V188.1H1271.79V141Z"/>
</mask>
<path d="M1318.9 188.1V189.1H1319.9V188.1H1318.9ZM1317.9 141V188.1H1319.9V141H1317.9ZM1318.9 187.1H1271.79V189.1H1318.9V187.1Z" fill="#166CF3" fill-opacity="0.45" mask="url(#path-229-inside-115_37_6)"/>
<mask id="path-231-inside-116_37_6" fill="white">
<path d="M1318.9 141H1366V188.1H1318.9V141Z"/>
</mask>
<path d="M1366 188.1V189.1H1367V188.1H1366ZM1365 141V188.1H1367V141H1365ZM1366 187.1H1318.9V189.1H1366V187.1Z" fill="#166CF3" fill-opacity="0.45" mask="url(#path-231-inside-116_37_6)"/>
</g>
<g opacity="0.2">
<mask id="path-233-inside-117_37_6" fill="white">
<path d="M0 235H47.1034V282.1H0V235Z"/>
</mask>
<path d="M47.1034 282.1V283.1H48.1034V282.1H47.1034ZM46.1034 235V282.1H48.1034V235H46.1034ZM47.1034 281.1H0V283.1H47.1034V281.1Z" fill="#166CF3" fill-opacity="0.45" mask="url(#path-233-inside-117_37_6)"/>
<mask id="path-235-inside-118_37_6" fill="white">
<path d="M47.1035 235H94.2069V282.1H47.1035V235Z"/>
</mask>
<path d="M94.2069 282.1V283.1H95.2069V282.1H94.2069ZM93.2069 235V282.1H95.2069V235H93.2069ZM94.2069 281.1H47.1035V283.1H94.2069V281.1Z" fill="#166CF3" fill-opacity="0.45" mask="url(#path-235-inside-118_37_6)"/>
<mask id="path-237-inside-119_37_6" fill="white">
<path d="M94.2069 235H141.31V282.1H94.2069V235Z"/>
</mask>
<path d="M141.31 282.1V283.1H142.31V282.1H141.31ZM140.31 235V282.1H142.31V235H140.31ZM141.31 281.1H94.2069V283.1H141.31V281.1Z" fill="#166CF3" fill-opacity="0.45" mask="url(#path-237-inside-119_37_6)"/>
<mask id="path-239-inside-120_37_6" fill="white">
<path d="M141.31 235H188.414V282.1H141.31V235Z"/>
</mask>
<path d="M188.414 282.1V283.1H189.414V282.1H188.414ZM187.414 235V282.1H189.414V235H187.414ZM188.414 281.1H141.31V283.1H188.414V281.1Z" fill="#166CF3" fill-opacity="0.45" mask="url(#path-239-inside-120_37_6)"/>
<mask id="path-241-inside-121_37_6" fill="white">
<path d="M188.414 235H235.517V282.1H188.414V235Z"/>
</mask>
<path d="M235.517 282.1V283.1H236.517V282.1H235.517ZM234.517 235V282.1H236.517V235H234.517ZM235.517 281.1H188.414V283.1H235.517V281.1Z" fill="#166CF3" fill-opacity="0.45" mask="url(#path-241-inside-121_37_6)"/>
<mask id="path-243-inside-122_37_6" fill="white">
<path d="M235.517 235H282.621V282.1H235.517V235Z"/>
</mask>
<path d="M282.621 282.1V283.1H283.621V282.1H282.621ZM281.621 235V282.1H283.621V235H281.621ZM282.621 281.1H235.517V283.1H282.621V281.1Z" fill="#166CF3" fill-opacity="0.45" mask="url(#path-243-inside-122_37_6)"/>
<mask id="path-245-inside-123_37_6" fill="white">
<path d="M282.621 235H329.724V282.1H282.621V235Z"/>
</mask>
<path d="M329.724 282.1V283.1H330.724V282.1H329.724ZM328.724 235V282.1H330.724V235H328.724ZM329.724 281.1H282.621V283.1H329.724V281.1Z" fill="#166CF3" fill-opacity="0.45" mask="url(#path-245-inside-123_37_6)"/>
<mask id="path-247-inside-124_37_6" fill="white">
<path d="M329.724 235H376.828V282.1H329.724V235Z"/>
</mask>
<path d="M376.828 282.1V283.1H377.828V282.1H376.828ZM375.828 235V282.1H377.828V235H375.828ZM376.828 281.1H329.724V283.1H376.828V281.1Z" fill="#166CF3" fill-opacity="0.45" mask="url(#path-247-inside-124_37_6)"/>
<mask id="path-249-inside-125_37_6" fill="white">
<path d="M376.828 235H423.931V282.1H376.828V235Z"/>
</mask>
<path d="M423.931 282.1V283.1H424.931V282.1H423.931ZM422.931 235V282.1H424.931V235H422.931ZM423.931 281.1H376.828V283.1H423.931V281.1Z" fill="#166CF3" fill-opacity="0.45" mask="url(#path-249-inside-125_37_6)"/>
<mask id="path-251-inside-126_37_6" fill="white">
<path d="M423.931 235H471.035V282.1H423.931V235Z"/>
</mask>
<path d="M471.035 282.1V283.1H472.035V282.1H471.035ZM470.035 235V282.1H472.035V235H470.035ZM471.035 281.1H423.931V283.1H471.035V281.1Z" fill="#166CF3" fill-opacity="0.45" mask="url(#path-251-inside-126_37_6)"/>
<mask id="path-253-inside-127_37_6" fill="white">
<path d="M471.035 235H518.138V282.1H471.035V235Z"/>
</mask>
<path d="M518.138 282.1V283.1H519.138V282.1H518.138ZM517.138 235V282.1H519.138V235H517.138ZM518.138 281.1H471.035V283.1H518.138V281.1Z" fill="#166CF3" fill-opacity="0.45" mask="url(#path-253-inside-127_37_6)"/>
<mask id="path-255-inside-128_37_6" fill="white">
<path d="M518.138 235H565.241V282.1H518.138V235Z"/>
</mask>
<path d="M565.241 282.1V283.1H566.241V282.1H565.241ZM564.241 235V282.1H566.241V235H564.241ZM565.241 281.1H518.138V283.1H565.241V281.1Z" fill="#166CF3" fill-opacity="0.45" mask="url(#path-255-inside-128_37_6)"/>
<mask id="path-257-inside-129_37_6" fill="white">
<path d="M565.241 235H612.345V282.1H565.241V235Z"/>
</mask>
<path d="M612.345 282.1V283.1H613.345V282.1H612.345ZM611.345 235V282.1H613.345V235H611.345ZM612.345 281.1H565.241V283.1H612.345V281.1Z" fill="#166CF3" fill-opacity="0.45" mask="url(#path-257-inside-129_37_6)"/>
<mask id="path-259-inside-130_37_6" fill="white">
<path d="M612.345 235H659.448V282.1H612.345V235Z"/>
</mask>
<path d="M659.448 282.1V283.1H660.448V282.1H659.448ZM658.448 235V282.1H660.448V235H658.448ZM659.448 281.1H612.345V283.1H659.448V281.1Z" fill="#166CF3" fill-opacity="0.45" mask="url(#path-259-inside-130_37_6)"/>
<mask id="path-261-inside-131_37_6" fill="white">
<path d="M659.448 235H706.552V282.1H659.448V235Z"/>
</mask>
<path d="M706.552 282.1V283.1H707.552V282.1H706.552ZM705.552 235V282.1H707.552V235H705.552ZM706.552 281.1H659.448V283.1H706.552V281.1Z" fill="#166CF3" fill-opacity="0.45" mask="url(#path-261-inside-131_37_6)"/>
<mask id="path-263-inside-132_37_6" fill="white">
<path d="M706.552 235H753.655V282.1H706.552V235Z"/>
</mask>
<path d="M753.655 282.1V283.1H754.655V282.1H753.655ZM752.655 235V282.1H754.655V235H752.655ZM753.655 281.1H706.552V283.1H753.655V281.1Z" fill="#166CF3" fill-opacity="0.45" mask="url(#path-263-inside-132_37_6)"/>
<mask id="path-265-inside-133_37_6" fill="white">
<path d="M753.655 235H800.759V282.1H753.655V235Z"/>
</mask>
<path d="M800.759 282.1V283.1H801.759V282.1H800.759ZM799.759 235V282.1H801.759V235H799.759ZM800.759 281.1H753.655V283.1H800.759V281.1Z" fill="#166CF3" fill-opacity="0.45" mask="url(#path-265-inside-133_37_6)"/>
<mask id="path-267-inside-134_37_6" fill="white">
<path d="M800.759 235H847.862V282.1H800.759V235Z"/>
</mask>
<path d="M847.862 282.1V283.1H848.862V282.1H847.862ZM846.862 235V282.1H848.862V235H846.862ZM847.862 281.1H800.759V283.1H847.862V281.1Z" fill="#166CF3" fill-opacity="0.45" mask="url(#path-267-inside-134_37_6)"/>
<mask id="path-269-inside-135_37_6" fill="white">
<path d="M847.862 235H894.966V282.1H847.862V235Z"/>
</mask>
<path d="M894.966 282.1V283.1H895.966V282.1H894.966ZM893.966 235V282.1H895.966V235H893.966ZM894.966 281.1H847.862V283.1H894.966V281.1Z" fill="#166CF3" fill-opacity="0.45" mask="url(#path-269-inside-135_37_6)"/>
<mask id="path-271-inside-136_37_6" fill="white">
<path d="M894.966 235H942.069V282.1H894.966V235Z"/>
</mask>
<path d="M942.069 282.1V283.1H943.069V282.1H942.069ZM941.069 235V282.1H943.069V235H941.069ZM942.069 281.1H894.966V283.1H942.069V281.1Z" fill="#166CF3" fill-opacity="0.45" mask="url(#path-271-inside-136_37_6)"/>
<mask id="path-273-inside-137_37_6" fill="white">
<path d="M942.069 235H989.172V282.1H942.069V235Z"/>
</mask>
<path d="M989.172 282.1V283.1H990.172V282.1H989.172ZM988.172 235V282.1H990.172V235H988.172ZM989.172 281.1H942.069V283.1H989.172V281.1Z" fill="#166CF3" fill-opacity="0.45" mask="url(#path-273-inside-137_37_6)"/>
<mask id="path-275-inside-138_37_6" fill="white">
<path d="M989.172 235H1036.28V282.1H989.172V235Z"/>
</mask>
<path d="M1036.28 282.1V283.1H1037.28V282.1H1036.28ZM1035.28 235V282.1H1037.28V235H1035.28ZM1036.28 281.1H989.172V283.1H1036.28V281.1Z" fill="#166CF3" fill-opacity="0.45" mask="url(#path-275-inside-138_37_6)"/>
<mask id="path-277-inside-139_37_6" fill="white">
<path d="M1036.28 235H1083.38V282.1H1036.28V235Z"/>
</mask>
<path d="M1083.38 282.1V283.1H1084.38V282.1H1083.38ZM1082.38 235V282.1H1084.38V235H1082.38ZM1083.38 281.1H1036.28V283.1H1083.38V281.1Z" fill="#166CF3" fill-opacity="0.45" mask="url(#path-277-inside-139_37_6)"/>
<mask id="path-279-inside-140_37_6" fill="white">
<path d="M1083.38 235H1130.48V282.1H1083.38V235Z"/>
</mask>
<path d="M1130.48 282.1V283.1H1131.48V282.1H1130.48ZM1129.48 235V282.1H1131.48V235H1129.48ZM1130.48 281.1H1083.38V283.1H1130.48V281.1Z" fill="#166CF3" fill-opacity="0.45" mask="url(#path-279-inside-140_37_6)"/>
<mask id="path-281-inside-141_37_6" fill="white">
<path d="M1130.48 235H1177.59V282.1H1130.48V235Z"/>
</mask>
<path d="M1177.59 282.1V283.1H1178.59V282.1H1177.59ZM1176.59 235V282.1H1178.59V235H1176.59ZM1177.59 281.1H1130.48V283.1H1177.59V281.1Z" fill="#166CF3" fill-opacity="0.45" mask="url(#path-281-inside-141_37_6)"/>
<mask id="path-283-inside-142_37_6" fill="white">
<path d="M1177.59 235H1224.69V282.1H1177.59V235Z"/>
</mask>
<path d="M1224.69 282.1V283.1H1225.69V282.1H1224.69ZM1223.69 235V282.1H1225.69V235H1223.69ZM1224.69 281.1H1177.59V283.1H1224.69V281.1Z" fill="#166CF3" fill-opacity="0.45" mask="url(#path-283-inside-142_37_6)"/>
<mask id="path-285-inside-143_37_6" fill="white">
<path d="M1224.69 235H1271.79V282.1H1224.69V235Z"/>
</mask>
<path d="M1271.79 282.1V283.1H1272.79V282.1H1271.79ZM1270.79 235V282.1H1272.79V235H1270.79ZM1271.79 281.1H1224.69V283.1H1271.79V281.1Z" fill="#166CF3" fill-opacity="0.45" mask="url(#path-285-inside-143_37_6)"/>
<mask id="path-287-inside-144_37_6" fill="white">
<path d="M1271.79 235H1318.9V282.1H1271.79V235Z"/>
</mask>
<path d="M1318.9 282.1V283.1H1319.9V282.1H1318.9ZM1317.9 235V282.1H1319.9V235H1317.9ZM1318.9 281.1H1271.79V283.1H1318.9V281.1Z" fill="#166CF3" fill-opacity="0.45" mask="url(#path-287-inside-144_37_6)"/>
<mask id="path-289-inside-145_37_6" fill="white">
<path d="M1318.9 235H1366V282.1H1318.9V235Z"/>
</mask>
<path d="M1366 282.1V283.1H1367V282.1H1366ZM1365 235V282.1H1367V235H1365ZM1366 281.1H1318.9V283.1H1366V281.1Z" fill="#166CF3" fill-opacity="0.45" mask="url(#path-289-inside-145_37_6)"/>
<mask id="path-291-inside-146_37_6" fill="white">
<path d="M0 188H47.1034V235.1H0V188Z"/>
</mask>
<path d="M47.1034 235.1V236.1H48.1034V235.1H47.1034ZM46.1034 188V235.1H48.1034V188H46.1034ZM47.1034 234.1H0V236.1H47.1034V234.1Z" fill="#166CF3" fill-opacity="0.45" mask="url(#path-291-inside-146_37_6)"/>
<mask id="path-293-inside-147_37_6" fill="white">
<path d="M47.1035 188H94.2069V235.1H47.1035V188Z"/>
</mask>
<path d="M94.2069 235.1V236.1H95.2069V235.1H94.2069ZM93.2069 188V235.1H95.2069V188H93.2069ZM94.2069 234.1H47.1035V236.1H94.2069V234.1Z" fill="#166CF3" fill-opacity="0.45" mask="url(#path-293-inside-147_37_6)"/>
<mask id="path-295-inside-148_37_6" fill="white">
<path d="M94.2069 188H141.31V235.1H94.2069V188Z"/>
</mask>
<path d="M141.31 235.1V236.1H142.31V235.1H141.31ZM140.31 188V235.1H142.31V188H140.31ZM141.31 234.1H94.2069V236.1H141.31V234.1Z" fill="#166CF3" fill-opacity="0.45" mask="url(#path-295-inside-148_37_6)"/>
<mask id="path-297-inside-149_37_6" fill="white">
<path d="M141.31 188H188.414V235.1H141.31V188Z"/>
</mask>
<path d="M188.414 235.1V236.1H189.414V235.1H188.414ZM187.414 188V235.1H189.414V188H187.414ZM188.414 234.1H141.31V236.1H188.414V234.1Z" fill="#166CF3" fill-opacity="0.45" mask="url(#path-297-inside-149_37_6)"/>
<mask id="path-299-inside-150_37_6" fill="white">
<path d="M188.414 188H235.517V235.1H188.414V188Z"/>
</mask>
<path d="M235.517 235.1V236.1H236.517V235.1H235.517ZM234.517 188V235.1H236.517V188H234.517ZM235.517 234.1H188.414V236.1H235.517V234.1Z" fill="#166CF3" fill-opacity="0.45" mask="url(#path-299-inside-150_37_6)"/>
<mask id="path-301-inside-151_37_6" fill="white">
<path d="M235.517 188H282.621V235.1H235.517V188Z"/>
</mask>
<path d="M282.621 235.1V236.1H283.621V235.1H282.621ZM281.621 188V235.1H283.621V188H281.621ZM282.621 234.1H235.517V236.1H282.621V234.1Z" fill="#166CF3" fill-opacity="0.45" mask="url(#path-301-inside-151_37_6)"/>
<mask id="path-303-inside-152_37_6" fill="white">
<path d="M282.621 188H329.724V235.1H282.621V188Z"/>
</mask>
<path d="M329.724 235.1V236.1H330.724V235.1H329.724ZM328.724 188V235.1H330.724V188H328.724ZM329.724 234.1H282.621V236.1H329.724V234.1Z" fill="#166CF3" fill-opacity="0.45" mask="url(#path-303-inside-152_37_6)"/>
<mask id="path-305-inside-153_37_6" fill="white">
<path d="M329.724 188H376.828V235.1H329.724V188Z"/>
</mask>
<path d="M376.828 235.1V236.1H377.828V235.1H376.828ZM375.828 188V235.1H377.828V188H375.828ZM376.828 234.1H329.724V236.1H376.828V234.1Z" fill="#166CF3" fill-opacity="0.45" mask="url(#path-305-inside-153_37_6)"/>
<mask id="path-307-inside-154_37_6" fill="white">
<path d="M376.828 188H423.931V235.1H376.828V188Z"/>
</mask>
<path d="M423.931 235.1V236.1H424.931V235.1H423.931ZM422.931 188V235.1H424.931V188H422.931ZM423.931 234.1H376.828V236.1H423.931V234.1Z" fill="#166CF3" fill-opacity="0.45" mask="url(#path-307-inside-154_37_6)"/>
<mask id="path-309-inside-155_37_6" fill="white">
<path d="M423.931 188H471.035V235.1H423.931V188Z"/>
</mask>
<path d="M471.035 235.1V236.1H472.035V235.1H471.035ZM470.035 188V235.1H472.035V188H470.035ZM471.035 234.1H423.931V236.1H471.035V234.1Z" fill="#166CF3" fill-opacity="0.45" mask="url(#path-309-inside-155_37_6)"/>
<mask id="path-311-inside-156_37_6" fill="white">
<path d="M471.035 188H518.138V235.1H471.035V188Z"/>
</mask>
<path d="M518.138 235.1V236.1H519.138V235.1H518.138ZM517.138 188V235.1H519.138V188H517.138ZM518.138 234.1H471.035V236.1H518.138V234.1Z" fill="#166CF3" fill-opacity="0.45" mask="url(#path-311-inside-156_37_6)"/>
<mask id="path-313-inside-157_37_6" fill="white">
<path d="M518.138 188H565.241V235.1H518.138V188Z"/>
</mask>
<path d="M565.241 235.1V236.1H566.241V235.1H565.241ZM564.241 188V235.1H566.241V188H564.241ZM565.241 234.1H518.138V236.1H565.241V234.1Z" fill="#166CF3" fill-opacity="0.45" mask="url(#path-313-inside-157_37_6)"/>
<mask id="path-315-inside-158_37_6" fill="white">
<path d="M565.241 188H612.345V235.1H565.241V188Z"/>
</mask>
<path d="M612.345 235.1V236.1H613.345V235.1H612.345ZM611.345 188V235.1H613.345V188H611.345ZM612.345 234.1H565.241V236.1H612.345V234.1Z" fill="#166CF3" fill-opacity="0.45" mask="url(#path-315-inside-158_37_6)"/>
<mask id="path-317-inside-159_37_6" fill="white">
<path d="M612.345 188H659.448V235.1H612.345V188Z"/>
</mask>
<path d="M659.448 235.1V236.1H660.448V235.1H659.448ZM658.448 188V235.1H660.448V188H658.448ZM659.448 234.1H612.345V236.1H659.448V234.1Z" fill="#166CF3" fill-opacity="0.45" mask="url(#path-317-inside-159_37_6)"/>
<mask id="path-319-inside-160_37_6" fill="white">
<path d="M659.448 188H706.552V235.1H659.448V188Z"/>
</mask>
<path d="M706.552 235.1V236.1H707.552V235.1H706.552ZM705.552 188V235.1H707.552V188H705.552ZM706.552 234.1H659.448V236.1H706.552V234.1Z" fill="#166CF3" fill-opacity="0.45" mask="url(#path-319-inside-160_37_6)"/>
<mask id="path-321-inside-161_37_6" fill="white">
<path d="M706.552 188H753.655V235.1H706.552V188Z"/>
</mask>
<path d="M753.655 235.1V236.1H754.655V235.1H753.655ZM752.655 188V235.1H754.655V188H752.655ZM753.655 234.1H706.552V236.1H753.655V234.1Z" fill="#166CF3" fill-opacity="0.45" mask="url(#path-321-inside-161_37_6)"/>
<mask id="path-323-inside-162_37_6" fill="white">
<path d="M753.655 188H800.759V235.1H753.655V188Z"/>
</mask>
<path d="M800.759 235.1V236.1H801.759V235.1H800.759ZM799.759 188V235.1H801.759V188H799.759ZM800.759 234.1H753.655V236.1H800.759V234.1Z" fill="#166CF3" fill-opacity="0.45" mask="url(#path-323-inside-162_37_6)"/>
<mask id="path-325-inside-163_37_6" fill="white">
<path d="M800.759 188H847.862V235.1H800.759V188Z"/>
</mask>
<path d="M847.862 235.1V236.1H848.862V235.1H847.862ZM846.862 188V235.1H848.862V188H846.862ZM847.862 234.1H800.759V236.1H847.862V234.1Z" fill="#166CF3" fill-opacity="0.45" mask="url(#path-325-inside-163_37_6)"/>
<mask id="path-327-inside-164_37_6" fill="white">
<path d="M847.862 188H894.966V235.1H847.862V188Z"/>
</mask>
<path d="M894.966 235.1V236.1H895.966V235.1H894.966ZM893.966 188V235.1H895.966V188H893.966ZM894.966 234.1H847.862V236.1H894.966V234.1Z" fill="#166CF3" fill-opacity="0.45" mask="url(#path-327-inside-164_37_6)"/>
<mask id="path-329-inside-165_37_6" fill="white">
<path d="M894.966 188H942.069V235.1H894.966V188Z"/>
</mask>
<path d="M942.069 235.1V236.1H943.069V235.1H942.069ZM941.069 188V235.1H943.069V188H941.069ZM942.069 234.1H894.966V236.1H942.069V234.1Z" fill="#166CF3" fill-opacity="0.45" mask="url(#path-329-inside-165_37_6)"/>
<mask id="path-331-inside-166_37_6" fill="white">
<path d="M942.069 188H989.172V235.1H942.069V188Z"/>
</mask>
<path d="M989.172 235.1V236.1H990.172V235.1H989.172ZM988.172 188V235.1H990.172V188H988.172ZM989.172 234.1H942.069V236.1H989.172V234.1Z" fill="#166CF3" fill-opacity="0.45" mask="url(#path-331-inside-166_37_6)"/>
<mask id="path-333-inside-167_37_6" fill="white">
<path d="M989.172 188H1036.28V235.1H989.172V188Z"/>
</mask>
<path d="M1036.28 235.1V236.1H1037.28V235.1H1036.28ZM1035.28 188V235.1H1037.28V188H1035.28ZM1036.28 234.1H989.172V236.1H1036.28V234.1Z" fill="#166CF3" fill-opacity="0.45" mask="url(#path-333-inside-167_37_6)"/>
<mask id="path-335-inside-168_37_6" fill="white">
<path d="M1036.28 188H1083.38V235.1H1036.28V188Z"/>
</mask>
<path d="M1083.38 235.1V236.1H1084.38V235.1H1083.38ZM1082.38 188V235.1H1084.38V188H1082.38ZM1083.38 234.1H1036.28V236.1H1083.38V234.1Z" fill="#166CF3" fill-opacity="0.45" mask="url(#path-335-inside-168_37_6)"/>
<mask id="path-337-inside-169_37_6" fill="white">
<path d="M1083.38 188H1130.48V235.1H1083.38V188Z"/>
</mask>
<path d="M1130.48 235.1V236.1H1131.48V235.1H1130.48ZM1129.48 188V235.1H1131.48V188H1129.48ZM1130.48 234.1H1083.38V236.1H1130.48V234.1Z" fill="#166CF3" fill-opacity="0.45" mask="url(#path-337-inside-169_37_6)"/>
<mask id="path-339-inside-170_37_6" fill="white">
<path d="M1130.48 188H1177.59V235.1H1130.48V188Z"/>
</mask>
<path d="M1177.59 235.1V236.1H1178.59V235.1H1177.59ZM1176.59 188V235.1H1178.59V188H1176.59ZM1177.59 234.1H1130.48V236.1H1177.59V234.1Z" fill="#166CF3" fill-opacity="0.45" mask="url(#path-339-inside-170_37_6)"/>
<mask id="path-341-inside-171_37_6" fill="white">
<path d="M1177.59 188H1224.69V235.1H1177.59V188Z"/>
</mask>
<path d="M1224.69 235.1V236.1H1225.69V235.1H1224.69ZM1223.69 188V235.1H1225.69V188H1223.69ZM1224.69 234.1H1177.59V236.1H1224.69V234.1Z" fill="#166CF3" fill-opacity="0.45" mask="url(#path-341-inside-171_37_6)"/>
<mask id="path-343-inside-172_37_6" fill="white">
<path d="M1224.69 188H1271.79V235.1H1224.69V188Z"/>
</mask>
<path d="M1271.79 235.1V236.1H1272.79V235.1H1271.79ZM1270.79 188V235.1H1272.79V188H1270.79ZM1271.79 234.1H1224.69V236.1H1271.79V234.1Z" fill="#166CF3" fill-opacity="0.45" mask="url(#path-343-inside-172_37_6)"/>
<mask id="path-345-inside-173_37_6" fill="white">
<path d="M1271.79 188H1318.9V235.1H1271.79V188Z"/>
</mask>
<path d="M1318.9 235.1V236.1H1319.9V235.1H1318.9ZM1317.9 188V235.1H1319.9V188H1317.9ZM1318.9 234.1H1271.79V236.1H1318.9V234.1Z" fill="#166CF3" fill-opacity="0.45" mask="url(#path-345-inside-173_37_6)"/>
<mask id="path-347-inside-174_37_6" fill="white">
<path d="M1318.9 188H1366V235.1H1318.9V188Z"/>
</mask>
<path d="M1366 235.1V236.1H1367V235.1H1366ZM1365 188V235.1H1367V188H1365ZM1366 234.1H1318.9V236.1H1366V234.1Z" fill="#166CF3" fill-opacity="0.45" mask="url(#path-347-inside-174_37_6)"/>
<mask id="path-349-inside-175_37_6" fill="white">
<path d="M0 282H47.1034V329.1H0V282Z"/>
</mask>
<path d="M47.1034 329.1V330.1H48.1034V329.1H47.1034ZM46.1034 282V329.1H48.1034V282H46.1034ZM47.1034 328.1H0V330.1H47.1034V328.1Z" fill="#166CF3" fill-opacity="0.45" mask="url(#path-349-inside-175_37_6)"/>
<mask id="path-351-inside-176_37_6" fill="white">
<path d="M47.1035 282H94.2069V329.1H47.1035V282Z"/>
</mask>
<path d="M94.2069 329.1V330.1H95.2069V329.1H94.2069ZM93.2069 282V329.1H95.2069V282H93.2069ZM94.2069 328.1H47.1035V330.1H94.2069V328.1Z" fill="#166CF3" fill-opacity="0.45" mask="url(#path-351-inside-176_37_6)"/>
<mask id="path-353-inside-177_37_6" fill="white">
<path d="M94.2069 282H141.31V329.1H94.2069V282Z"/>
</mask>
<path d="M141.31 329.1V330.1H142.31V329.1H141.31ZM140.31 282V329.1H142.31V282H140.31ZM141.31 328.1H94.2069V330.1H141.31V328.1Z" fill="#166CF3" fill-opacity="0.45" mask="url(#path-353-inside-177_37_6)"/>
<mask id="path-355-inside-178_37_6" fill="white">
<path d="M141.31 282H188.414V329.1H141.31V282Z"/>
</mask>
<path d="M188.414 329.1V330.1H189.414V329.1H188.414ZM187.414 282V329.1H189.414V282H187.414ZM188.414 328.1H141.31V330.1H188.414V328.1Z" fill="#166CF3" fill-opacity="0.45" mask="url(#path-355-inside-178_37_6)"/>
<mask id="path-357-inside-179_37_6" fill="white">
<path d="M188.414 282H235.517V329.1H188.414V282Z"/>
</mask>
<path d="M235.517 329.1V330.1H236.517V329.1H235.517ZM234.517 282V329.1H236.517V282H234.517ZM235.517 328.1H188.414V330.1H235.517V328.1Z" fill="#166CF3" fill-opacity="0.45" mask="url(#path-357-inside-179_37_6)"/>
<mask id="path-359-inside-180_37_6" fill="white">
<path d="M235.517 282H282.621V329.1H235.517V282Z"/>
</mask>
<path d="M282.621 329.1V330.1H283.621V329.1H282.621ZM281.621 282V329.1H283.621V282H281.621ZM282.621 328.1H235.517V330.1H282.621V328.1Z" fill="#166CF3" fill-opacity="0.45" mask="url(#path-359-inside-180_37_6)"/>
<mask id="path-361-inside-181_37_6" fill="white">
<path d="M282.621 282H329.724V329.1H282.621V282Z"/>
</mask>
<path d="M329.724 329.1V330.1H330.724V329.1H329.724ZM328.724 282V329.1H330.724V282H328.724ZM329.724 328.1H282.621V330.1H329.724V328.1Z" fill="#166CF3" fill-opacity="0.45" mask="url(#path-361-inside-181_37_6)"/>
<mask id="path-363-inside-182_37_6" fill="white">
<path d="M329.724 282H376.828V329.1H329.724V282Z"/>
</mask>
<path d="M376.828 329.1V330.1H377.828V329.1H376.828ZM375.828 282V329.1H377.828V282H375.828ZM376.828 328.1H329.724V330.1H376.828V328.1Z" fill="#166CF3" fill-opacity="0.45" mask="url(#path-363-inside-182_37_6)"/>
<mask id="path-365-inside-183_37_6" fill="white">
<path d="M376.828 282H423.931V329.1H376.828V282Z"/>
</mask>
<path d="M423.931 329.1V330.1H424.931V329.1H423.931ZM422.931 282V329.1H424.931V282H422.931ZM423.931 328.1H376.828V330.1H423.931V328.1Z" fill="#166CF3" fill-opacity="0.45" mask="url(#path-365-inside-183_37_6)"/>
<mask id="path-367-inside-184_37_6" fill="white">
<path d="M423.931 282H471.035V329.1H423.931V282Z"/>
</mask>
<path d="M471.035 329.1V330.1H472.035V329.1H471.035ZM470.035 282V329.1H472.035V282H470.035ZM471.035 328.1H423.931V330.1H471.035V328.1Z" fill="#166CF3" fill-opacity="0.45" mask="url(#path-367-inside-184_37_6)"/>
<mask id="path-369-inside-185_37_6" fill="white">
<path d="M471.035 282H518.138V329.1H471.035V282Z"/>
</mask>
<path d="M518.138 329.1V330.1H519.138V329.1H518.138ZM517.138 282V329.1H519.138V282H517.138ZM518.138 328.1H471.035V330.1H518.138V328.1Z" fill="#166CF3" fill-opacity="0.45" mask="url(#path-369-inside-185_37_6)"/>
<mask id="path-371-inside-186_37_6" fill="white">
<path d="M518.138 282H565.241V329.1H518.138V282Z"/>
</mask>
<path d="M565.241 329.1V330.1H566.241V329.1H565.241ZM564.241 282V329.1H566.241V282H564.241ZM565.241 328.1H518.138V330.1H565.241V328.1Z" fill="#166CF3" fill-opacity="0.45" mask="url(#path-371-inside-186_37_6)"/>
<mask id="path-373-inside-187_37_6" fill="white">
<path d="M565.241 282H612.345V329.1H565.241V282Z"/>
</mask>
<path d="M612.345 329.1V330.1H613.345V329.1H612.345ZM611.345 282V329.1H613.345V282H611.345ZM612.345 328.1H565.241V330.1H612.345V328.1Z" fill="#166CF3" fill-opacity="0.45" mask="url(#path-373-inside-187_37_6)"/>
<mask id="path-375-inside-188_37_6" fill="white">
<path d="M612.345 282H659.448V329.1H612.345V282Z"/>
</mask>
<path d="M659.448 329.1V330.1H660.448V329.1H659.448ZM658.448 282V329.1H660.448V282H658.448ZM659.448 328.1H612.345V330.1H659.448V328.1Z" fill="#166CF3" fill-opacity="0.45" mask="url(#path-375-inside-188_37_6)"/>
<mask id="path-377-inside-189_37_6" fill="white">
<path d="M659.448 282H706.552V329.1H659.448V282Z"/>
</mask>
<path d="M706.552 329.1V330.1H707.552V329.1H706.552ZM705.552 282V329.1H707.552V282H705.552ZM706.552 328.1H659.448V330.1H706.552V328.1Z" fill="#166CF3" fill-opacity="0.45" mask="url(#path-377-inside-189_37_6)"/>
<mask id="path-379-inside-190_37_6" fill="white">
<path d="M706.552 282H753.655V329.1H706.552V282Z"/>
</mask>
<path d="M753.655 329.1V330.1H754.655V329.1H753.655ZM752.655 282V329.1H754.655V282H752.655ZM753.655 328.1H706.552V330.1H753.655V328.1Z" fill="#166CF3" fill-opacity="0.45" mask="url(#path-379-inside-190_37_6)"/>
<mask id="path-381-inside-191_37_6" fill="white">
<path d="M753.655 282H800.759V329.1H753.655V282Z"/>
</mask>
<path d="M800.759 329.1V330.1H801.759V329.1H800.759ZM799.759 282V329.1H801.759V282H799.759ZM800.759 328.1H753.655V330.1H800.759V328.1Z" fill="#166CF3" fill-opacity="0.45" mask="url(#path-381-inside-191_37_6)"/>
<mask id="path-383-inside-192_37_6" fill="white">
<path d="M800.759 282H847.862V329.1H800.759V282Z"/>
</mask>
<path d="M847.862 329.1V330.1H848.862V329.1H847.862ZM846.862 282V329.1H848.862V282H846.862ZM847.862 328.1H800.759V330.1H847.862V328.1Z" fill="#166CF3" fill-opacity="0.45" mask="url(#path-383-inside-192_37_6)"/>
<mask id="path-385-inside-193_37_6" fill="white">
<path d="M847.862 282H894.966V329.1H847.862V282Z"/>
</mask>
<path d="M894.966 329.1V330.1H895.966V329.1H894.966ZM893.966 282V329.1H895.966V282H893.966ZM894.966 328.1H847.862V330.1H894.966V328.1Z" fill="#166CF3" fill-opacity="0.45" mask="url(#path-385-inside-193_37_6)"/>
<mask id="path-387-inside-194_37_6" fill="white">
<path d="M894.966 282H942.069V329.1H894.966V282Z"/>
</mask>
<path d="M942.069 329.1V330.1H943.069V329.1H942.069ZM941.069 282V329.1H943.069V282H941.069ZM942.069 328.1H894.966V330.1H942.069V328.1Z" fill="#166CF3" fill-opacity="0.45" mask="url(#path-387-inside-194_37_6)"/>
<mask id="path-389-inside-195_37_6" fill="white">
<path d="M942.069 282H989.172V329.1H942.069V282Z"/>
</mask>
<path d="M989.172 329.1V330.1H990.172V329.1H989.172ZM988.172 282V329.1H990.172V282H988.172ZM989.172 328.1H942.069V330.1H989.172V328.1Z" fill="#166CF3" fill-opacity="0.45" mask="url(#path-389-inside-195_37_6)"/>
<mask id="path-391-inside-196_37_6" fill="white">
<path d="M989.172 282H1036.28V329.1H989.172V282Z"/>
</mask>
<path d="M1036.28 329.1V330.1H1037.28V329.1H1036.28ZM1035.28 282V329.1H1037.28V282H1035.28ZM1036.28 328.1H989.172V330.1H1036.28V328.1Z" fill="#166CF3" fill-opacity="0.45" mask="url(#path-391-inside-196_37_6)"/>
<mask id="path-393-inside-197_37_6" fill="white">
<path d="M1036.28 282H1083.38V329.1H1036.28V282Z"/>
</mask>
<path d="M1083.38 329.1V330.1H1084.38V329.1H1083.38ZM1082.38 282V329.1H1084.38V282H1082.38ZM1083.38 328.1H1036.28V330.1H1083.38V328.1Z" fill="#166CF3" fill-opacity="0.45" mask="url(#path-393-inside-197_37_6)"/>
<mask id="path-395-inside-198_37_6" fill="white">
<path d="M1083.38 282H1130.48V329.1H1083.38V282Z"/>
</mask>
<path d="M1130.48 329.1V330.1H1131.48V329.1H1130.48ZM1129.48 282V329.1H1131.48V282H1129.48ZM1130.48 328.1H1083.38V330.1H1130.48V328.1Z" fill="#166CF3" fill-opacity="0.45" mask="url(#path-395-inside-198_37_6)"/>
<mask id="path-397-inside-199_37_6" fill="white">
<path d="M1130.48 282H1177.59V329.1H1130.48V282Z"/>
</mask>
<path d="M1177.59 329.1V330.1H1178.59V329.1H1177.59ZM1176.59 282V329.1H1178.59V282H1176.59ZM1177.59 328.1H1130.48V330.1H1177.59V328.1Z" fill="#166CF3" fill-opacity="0.45" mask="url(#path-397-inside-199_37_6)"/>
<mask id="path-399-inside-200_37_6" fill="white">
<path d="M1177.59 282H1224.69V329.1H1177.59V282Z"/>
</mask>
<path d="M1224.69 329.1V330.1H1225.69V329.1H1224.69ZM1223.69 282V329.1H1225.69V282H1223.69ZM1224.69 328.1H1177.59V330.1H1224.69V328.1Z" fill="#166CF3" fill-opacity="0.45" mask="url(#path-399-inside-200_37_6)"/>
<mask id="path-401-inside-201_37_6" fill="white">
<path d="M1224.69 282H1271.79V329.1H1224.69V282Z"/>
</mask>
<path d="M1271.79 329.1V330.1H1272.79V329.1H1271.79ZM1270.79 282V329.1H1272.79V282H1270.79ZM1271.79 328.1H1224.69V330.1H1271.79V328.1Z" fill="#166CF3" fill-opacity="0.45" mask="url(#path-401-inside-201_37_6)"/>
<mask id="path-403-inside-202_37_6" fill="white">
<path d="M1271.79 282H1318.9V329.1H1271.79V282Z"/>
</mask>
<path d="M1318.9 329.1V330.1H1319.9V329.1H1318.9ZM1317.9 282V329.1H1319.9V282H1317.9ZM1318.9 328.1H1271.79V330.1H1318.9V328.1Z" fill="#166CF3" fill-opacity="0.45" mask="url(#path-403-inside-202_37_6)"/>
<mask id="path-405-inside-203_37_6" fill="white">
<path d="M1318.9 282H1366V329.1H1318.9V282Z"/>
</mask>
<path d="M1366 329.1V330.1H1367V329.1H1366ZM1365 282V329.1H1367V282H1365ZM1366 328.1H1318.9V330.1H1366V328.1Z" fill="#166CF3" fill-opacity="0.45" mask="url(#path-405-inside-203_37_6)"/>
<mask id="path-407-inside-204_37_6" fill="white">
<path d="M0 329H47.1034V376.1H0V329Z"/>
</mask>
<path d="M47.1034 376.1V377.1H48.1034V376.1H47.1034ZM46.1034 329V376.1H48.1034V329H46.1034ZM47.1034 375.1H0V377.1H47.1034V375.1Z" fill="#166CF3" fill-opacity="0.45" mask="url(#path-407-inside-204_37_6)"/>
<mask id="path-409-inside-205_37_6" fill="white">
<path d="M47.1035 329H94.2069V376.1H47.1035V329Z"/>
</mask>
<path d="M94.2069 376.1V377.1H95.2069V376.1H94.2069ZM93.2069 329V376.1H95.2069V329H93.2069ZM94.2069 375.1H47.1035V377.1H94.2069V375.1Z" fill="#166CF3" fill-opacity="0.45" mask="url(#path-409-inside-205_37_6)"/>
<mask id="path-411-inside-206_37_6" fill="white">
<path d="M94.2069 329H141.31V376.1H94.2069V329Z"/>
</mask>
<path d="M141.31 376.1V377.1H142.31V376.1H141.31ZM140.31 329V376.1H142.31V329H140.31ZM141.31 375.1H94.2069V377.1H141.31V375.1Z" fill="#166CF3" fill-opacity="0.45" mask="url(#path-411-inside-206_37_6)"/>
<mask id="path-413-inside-207_37_6" fill="white">
<path d="M141.31 329H188.414V376.1H141.31V329Z"/>
</mask>
<path d="M188.414 376.1V377.1H189.414V376.1H188.414ZM187.414 329V376.1H189.414V329H187.414ZM188.414 375.1H141.31V377.1H188.414V375.1Z" fill="#166CF3" fill-opacity="0.45" mask="url(#path-413-inside-207_37_6)"/>
<mask id="path-415-inside-208_37_6" fill="white">
<path d="M188.414 329H235.517V376.1H188.414V329Z"/>
</mask>
<path d="M235.517 376.1V377.1H236.517V376.1H235.517ZM234.517 329V376.1H236.517V329H234.517ZM235.517 375.1H188.414V377.1H235.517V375.1Z" fill="#166CF3" fill-opacity="0.45" mask="url(#path-415-inside-208_37_6)"/>
<mask id="path-417-inside-209_37_6" fill="white">
<path d="M235.517 329H282.621V376.1H235.517V329Z"/>
</mask>
<path d="M282.621 376.1V377.1H283.621V376.1H282.621ZM281.621 329V376.1H283.621V329H281.621ZM282.621 375.1H235.517V377.1H282.621V375.1Z" fill="#166CF3" fill-opacity="0.45" mask="url(#path-417-inside-209_37_6)"/>
<mask id="path-419-inside-210_37_6" fill="white">
<path d="M282.621 329H329.724V376.1H282.621V329Z"/>
</mask>
<path d="M329.724 376.1V377.1H330.724V376.1H329.724ZM328.724 329V376.1H330.724V329H328.724ZM329.724 375.1H282.621V377.1H329.724V375.1Z" fill="#166CF3" fill-opacity="0.45" mask="url(#path-419-inside-210_37_6)"/>
<mask id="path-421-inside-211_37_6" fill="white">
<path d="M329.724 329H376.828V376.1H329.724V329Z"/>
</mask>
<path d="M376.828 376.1V377.1H377.828V376.1H376.828ZM375.828 329V376.1H377.828V329H375.828ZM376.828 375.1H329.724V377.1H376.828V375.1Z" fill="#166CF3" fill-opacity="0.45" mask="url(#path-421-inside-211_37_6)"/>
<mask id="path-423-inside-212_37_6" fill="white">
<path d="M376.828 329H423.931V376.1H376.828V329Z"/>
</mask>
<path d="M423.931 376.1V377.1H424.931V376.1H423.931ZM422.931 329V376.1H424.931V329H422.931ZM423.931 375.1H376.828V377.1H423.931V375.1Z" fill="#166CF3" fill-opacity="0.45" mask="url(#path-423-inside-212_37_6)"/>
<mask id="path-425-inside-213_37_6" fill="white">
<path d="M423.931 329H471.035V376.1H423.931V329Z"/>
</mask>
<path d="M471.035 376.1V377.1H472.035V376.1H471.035ZM470.035 329V376.1H472.035V329H470.035ZM471.035 375.1H423.931V377.1H471.035V375.1Z" fill="#166CF3" fill-opacity="0.45" mask="url(#path-425-inside-213_37_6)"/>
<mask id="path-427-inside-214_37_6" fill="white">
<path d="M471.035 329H518.138V376.1H471.035V329Z"/>
</mask>
<path d="M518.138 376.1V377.1H519.138V376.1H518.138ZM517.138 329V376.1H519.138V329H517.138ZM518.138 375.1H471.035V377.1H518.138V375.1Z" fill="#166CF3" fill-opacity="0.45" mask="url(#path-427-inside-214_37_6)"/>
<mask id="path-429-inside-215_37_6" fill="white">
<path d="M518.138 329H565.241V376.1H518.138V329Z"/>
</mask>
<path d="M565.241 376.1V377.1H566.241V376.1H565.241ZM564.241 329V376.1H566.241V329H564.241ZM565.241 375.1H518.138V377.1H565.241V375.1Z" fill="#166CF3" fill-opacity="0.45" mask="url(#path-429-inside-215_37_6)"/>
<mask id="path-431-inside-216_37_6" fill="white">
<path d="M565.241 329H612.345V376.1H565.241V329Z"/>
</mask>
<path d="M612.345 376.1V377.1H613.345V376.1H612.345ZM611.345 329V376.1H613.345V329H611.345ZM612.345 375.1H565.241V377.1H612.345V375.1Z" fill="#166CF3" fill-opacity="0.45" mask="url(#path-431-inside-216_37_6)"/>
<mask id="path-433-inside-217_37_6" fill="white">
<path d="M612.345 329H659.448V376.1H612.345V329Z"/>
</mask>
<path d="M659.448 376.1V377.1H660.448V376.1H659.448ZM658.448 329V376.1H660.448V329H658.448ZM659.448 375.1H612.345V377.1H659.448V375.1Z" fill="#166CF3" fill-opacity="0.45" mask="url(#path-433-inside-217_37_6)"/>
<mask id="path-435-inside-218_37_6" fill="white">
<path d="M659.448 329H706.552V376.1H659.448V329Z"/>
</mask>
<path d="M706.552 376.1V377.1H707.552V376.1H706.552ZM705.552 329V376.1H707.552V329H705.552ZM706.552 375.1H659.448V377.1H706.552V375.1Z" fill="#166CF3" fill-opacity="0.45" mask="url(#path-435-inside-218_37_6)"/>
<mask id="path-437-inside-219_37_6" fill="white">
<path d="M706.552 329H753.655V376.1H706.552V329Z"/>
</mask>
<path d="M753.655 376.1V377.1H754.655V376.1H753.655ZM752.655 329V376.1H754.655V329H752.655ZM753.655 375.1H706.552V377.1H753.655V375.1Z" fill="#166CF3" fill-opacity="0.45" mask="url(#path-437-inside-219_37_6)"/>
<mask id="path-439-inside-220_37_6" fill="white">
<path d="M753.655 329H800.759V376.1H753.655V329Z"/>
</mask>
<path d="M800.759 376.1V377.1H801.759V376.1H800.759ZM799.759 329V376.1H801.759V329H799.759ZM800.759 375.1H753.655V377.1H800.759V375.1Z" fill="#166CF3" fill-opacity="0.45" mask="url(#path-439-inside-220_37_6)"/>
<mask id="path-441-inside-221_37_6" fill="white">
<path d="M800.759 329H847.862V376.1H800.759V329Z"/>
</mask>
<path d="M847.862 376.1V377.1H848.862V376.1H847.862ZM846.862 329V376.1H848.862V329H846.862ZM847.862 375.1H800.759V377.1H847.862V375.1Z" fill="#166CF3" fill-opacity="0.45" mask="url(#path-441-inside-221_37_6)"/>
<mask id="path-443-inside-222_37_6" fill="white">
<path d="M847.862 329H894.966V376.1H847.862V329Z"/>
</mask>
<path d="M894.966 376.1V377.1H895.966V376.1H894.966ZM893.966 329V376.1H895.966V329H893.966ZM894.966 375.1H847.862V377.1H894.966V375.1Z" fill="#166CF3" fill-opacity="0.45" mask="url(#path-443-inside-222_37_6)"/>
<mask id="path-445-inside-223_37_6" fill="white">
<path d="M894.966 329H942.069V376.1H894.966V329Z"/>
</mask>
<path d="M942.069 376.1V377.1H943.069V376.1H942.069ZM941.069 329V376.1H943.069V329H941.069ZM942.069 375.1H894.966V377.1H942.069V375.1Z" fill="#166CF3" fill-opacity="0.45" mask="url(#path-445-inside-223_37_6)"/>
<mask id="path-447-inside-224_37_6" fill="white">
<path d="M942.069 329H989.172V376.1H942.069V329Z"/>
</mask>
<path d="M989.172 376.1V377.1H990.172V376.1H989.172ZM988.172 329V376.1H990.172V329H988.172ZM989.172 375.1H942.069V377.1H989.172V375.1Z" fill="#166CF3" fill-opacity="0.45" mask="url(#path-447-inside-224_37_6)"/>
<mask id="path-449-inside-225_37_6" fill="white">
<path d="M989.172 329H1036.28V376.1H989.172V329Z"/>
</mask>
<path d="M1036.28 376.1V377.1H1037.28V376.1H1036.28ZM1035.28 329V376.1H1037.28V329H1035.28ZM1036.28 375.1H989.172V377.1H1036.28V375.1Z" fill="#166CF3" fill-opacity="0.45" mask="url(#path-449-inside-225_37_6)"/>
<mask id="path-451-inside-226_37_6" fill="white">
<path d="M1036.28 329H1083.38V376.1H1036.28V329Z"/>
</mask>
<path d="M1083.38 376.1V377.1H1084.38V376.1H1083.38ZM1082.38 329V376.1H1084.38V329H1082.38ZM1083.38 375.1H1036.28V377.1H1083.38V375.1Z" fill="#166CF3" fill-opacity="0.45" mask="url(#path-451-inside-226_37_6)"/>
<mask id="path-453-inside-227_37_6" fill="white">
<path d="M1083.38 329H1130.48V376.1H1083.38V329Z"/>
</mask>
<path d="M1130.48 376.1V377.1H1131.48V376.1H1130.48ZM1129.48 329V376.1H1131.48V329H1129.48ZM1130.48 375.1H1083.38V377.1H1130.48V375.1Z" fill="#166CF3" fill-opacity="0.45" mask="url(#path-453-inside-227_37_6)"/>
<mask id="path-455-inside-228_37_6" fill="white">
<path d="M1130.48 329H1177.59V376.1H1130.48V329Z"/>
</mask>
<path d="M1177.59 376.1V377.1H1178.59V376.1H1177.59ZM1176.59 329V376.1H1178.59V329H1176.59ZM1177.59 375.1H1130.48V377.1H1177.59V375.1Z" fill="#166CF3" fill-opacity="0.45" mask="url(#path-455-inside-228_37_6)"/>
<mask id="path-457-inside-229_37_6" fill="white">
<path d="M1177.59 329H1224.69V376.1H1177.59V329Z"/>
</mask>
<path d="M1224.69 376.1V377.1H1225.69V376.1H1224.69ZM1223.69 329V376.1H1225.69V329H1223.69ZM1224.69 375.1H1177.59V377.1H1224.69V375.1Z" fill="#166CF3" fill-opacity="0.45" mask="url(#path-457-inside-229_37_6)"/>
<mask id="path-459-inside-230_37_6" fill="white">
<path d="M1224.69 329H1271.79V376.1H1224.69V329Z"/>
</mask>
<path d="M1271.79 376.1V377.1H1272.79V376.1H1271.79ZM1270.79 329V376.1H1272.79V329H1270.79ZM1271.79 375.1H1224.69V377.1H1271.79V375.1Z" fill="#166CF3" fill-opacity="0.45" mask="url(#path-459-inside-230_37_6)"/>
<mask id="path-461-inside-231_37_6" fill="white">
<path d="M1271.79 329H1318.9V376.1H1271.79V329Z"/>
</mask>
<path d="M1318.9 376.1V377.1H1319.9V376.1H1318.9ZM1317.9 329V376.1H1319.9V329H1317.9ZM1318.9 375.1H1271.79V377.1H1318.9V375.1Z" fill="#166CF3" fill-opacity="0.45" mask="url(#path-461-inside-231_37_6)"/>
<mask id="path-463-inside-232_37_6" fill="white">
<path d="M1318.9 329H1366V376.1H1318.9V329Z"/>
</mask>
<path d="M1366 376.1V377.1H1367V376.1H1366ZM1365 329V376.1H1367V329H1365ZM1366 375.1H1318.9V377.1H1366V375.1Z" fill="#166CF3" fill-opacity="0.45" mask="url(#path-463-inside-232_37_6)"/>
</g>
</svg>
