<svg width="814" height="113" viewBox="0 0 814 113" fill="none" xmlns="http://www.w3.org/2000/svg">
<path d="M28.308 28.8977L47.6615 17.6981C52.1806 15.0456 53.7525 9.24934 51.1 4.73023C48.4475 0.211131 42.6513 -1.36073 38.1319 1.29179L4.73004 20.5471L28.308 28.8977Z" fill="#EA4335"/>
<path d="M42.8479 57.5841C46.0899 57.5841 49.3319 55.9141 51.1001 52.8684C53.7527 48.3493 52.181 42.5531 47.6616 39.9006L14.2598 20.6454C9.74068 17.9929 3.94417 19.5647 1.29163 24.0838C-1.36059 28.603 0.211076 34.3993 4.73016 37.0518L38.1323 56.307C39.606 57.1912 41.276 57.5841 42.8479 57.5841Z" fill="#4285F4"/>
<path d="M76.0533 57.584C77.625 57.584 79.2952 57.1912 80.7686 56.3069L114.171 37.0518L90.8876 28.5046L71.2393 39.8023C66.7203 42.4548 65.1483 48.2513 67.8008 52.7704C69.5694 55.9141 72.8113 57.584 76.0533 57.584Z" fill="#FBBC04"/>
<path d="M109.456 38.3288C112.698 38.3288 115.94 36.6586 117.708 33.6132C120.36 29.094 118.789 23.2978 114.27 20.6453L80.8676 1.38996C76.3485 -1.26255 70.5523 0.309338 67.8998 4.82843C65.2472 9.34754 66.8189 15.1437 71.338 17.7963L104.74 37.0517C106.214 37.9357 107.884 38.3288 109.456 38.3288Z" fill="#34A853"/>
<path d="M171.96 52.96C167.92 52.96 164.2 51.98 160.8 50.02C157.4 48.06 154.7 45.36 152.7 41.92C150.7 38.48 149.7 34.68 149.7 30.52C149.7 26.36 150.7 22.56 152.7 19.12C154.7 15.68 157.4 12.98 160.8 11.02C164.2 9.06 167.92 8.08 171.96 8.08C175.12 8.08 178.08 8.64 180.84 9.76C183.64 10.88 185.94 12.46 187.74 14.5L184.08 18.16C182.72 16.48 180.98 15.2 178.86 14.32C176.74 13.4 174.46 12.94 172.02 12.94C168.98 12.94 166.14 13.68 163.5 15.16C160.9 16.6 158.8 18.66 157.2 21.34C155.64 23.98 154.86 27.04 154.86 30.52C154.86 34 155.64 37.08 157.2 39.76C158.8 42.4 160.92 44.46 163.56 45.94C166.2 47.38 169.02 48.1 172.02 48.1C174.9 48.1 177.3 47.66 179.22 46.78C181.18 45.86 182.86 44.66 184.26 43.18C185.3 42.06 186.14 40.72 186.78 39.16C187.42 37.56 187.82 35.8 187.98 33.88H172.08V29.14H192.72C192.92 30.26 193.02 31.3 193.02 32.26C193.02 34.9 192.6 37.48 191.76 40C190.92 42.48 189.58 44.66 187.74 46.54C183.78 50.82 178.52 52.96 171.96 52.96Z" fill="#656C73"/>
<path d="M211.596 52.96C208.596 52.96 205.896 52.24 203.496 50.8C201.096 49.36 199.216 47.4 197.856 44.92C196.536 42.44 195.876 39.7 195.876 36.7C195.876 33.7 196.536 30.96 197.856 28.48C199.216 26 201.096 24.04 203.496 22.6C205.896 21.16 208.596 20.44 211.596 20.44C214.596 20.44 217.296 21.16 219.696 22.6C222.096 24.04 223.956 26 225.276 28.48C226.636 30.96 227.316 33.7 227.316 36.7C227.316 39.7 226.636 42.44 225.276 44.92C223.956 47.4 222.096 49.36 219.696 50.8C217.296 52.24 214.596 52.96 211.596 52.96ZM211.596 48.34C213.476 48.34 215.216 47.88 216.816 46.96C218.456 46 219.756 44.64 220.716 42.88C221.716 41.12 222.216 39.06 222.216 36.7C222.216 34.34 221.716 32.28 220.716 30.52C219.756 28.76 218.456 27.42 216.816 26.5C215.216 25.54 213.476 25.06 211.596 25.06C209.716 25.06 207.956 25.54 206.316 26.5C204.676 27.42 203.356 28.76 202.356 30.52C201.396 32.28 200.916 34.34 200.916 36.7C200.916 39.06 201.396 41.12 202.356 42.88C203.356 44.64 204.676 46 206.316 46.96C207.956 47.88 209.716 48.34 211.596 48.34Z" fill="#656C73"/>
<path d="M245.538 52.96C242.538 52.96 239.838 52.24 237.438 50.8C235.038 49.36 233.158 47.4 231.798 44.92C230.478 42.44 229.818 39.7 229.818 36.7C229.818 33.7 230.478 30.96 231.798 28.48C233.158 26 235.038 24.04 237.438 22.6C239.838 21.16 242.538 20.44 245.538 20.44C248.538 20.44 251.238 21.16 253.638 22.6C256.038 24.04 257.898 26 259.218 28.48C260.578 30.96 261.258 33.7 261.258 36.7C261.258 39.7 260.578 42.44 259.218 44.92C257.898 47.4 256.038 49.36 253.638 50.8C251.238 52.24 248.538 52.96 245.538 52.96ZM245.538 48.34C247.418 48.34 249.158 47.88 250.758 46.96C252.398 46 253.698 44.64 254.658 42.88C255.658 41.12 256.158 39.06 256.158 36.7C256.158 34.34 255.658 32.28 254.658 30.52C253.698 28.76 252.398 27.42 250.758 26.5C249.158 25.54 247.418 25.06 245.538 25.06C243.658 25.06 241.898 25.54 240.258 26.5C238.618 27.42 237.298 28.76 236.298 30.52C235.338 32.28 234.858 34.34 234.858 36.7C234.858 39.06 235.338 41.12 236.298 42.88C237.298 44.64 238.618 46 240.258 46.96C241.898 47.88 243.658 48.34 245.538 48.34Z" fill="#656C73"/>
<path d="M278.82 65.92C275.22 65.92 272.24 65.08 269.88 63.4C267.56 61.72 266 59.7 265.2 57.34L269.82 55.36C270.5 57.12 271.62 58.54 273.18 59.62C274.78 60.74 276.66 61.3 278.82 61.3C281.98 61.3 284.42 60.38 286.14 58.54C287.9 56.7 288.78 54.1 288.78 50.74V47.32H288.54C287.54 48.88 286.12 50.16 284.28 51.16C282.48 52.12 280.42 52.6 278.1 52.6C275.46 52.6 273.04 51.92 270.84 50.56C268.68 49.2 266.96 47.3 265.68 44.86C264.4 42.42 263.76 39.64 263.76 36.52C263.76 33.44 264.4 30.68 265.68 28.24C266.96 25.76 268.68 23.84 270.84 22.48C273.04 21.12 275.46 20.44 278.1 20.44C280.42 20.44 282.48 20.94 284.28 21.94C286.12 22.9 287.54 24.18 288.54 25.78H288.78V21.4H293.64V50.8C293.64 55.72 292.28 59.46 289.56 62.02C286.84 64.62 283.26 65.92 278.82 65.92ZM278.82 47.98C280.66 47.98 282.32 47.52 283.8 46.6C285.32 45.68 286.52 44.36 287.4 42.64C288.32 40.92 288.78 38.88 288.78 36.52C288.78 34.12 288.32 32.06 287.4 30.34C286.52 28.62 285.32 27.32 283.8 26.44C282.32 25.52 280.66 25.06 278.82 25.06C276.98 25.06 275.3 25.52 273.78 26.44C272.26 27.36 271.04 28.68 270.12 30.4C269.24 32.12 268.8 34.16 268.8 36.52C268.8 38.88 269.24 40.94 270.12 42.7C271.04 44.42 272.26 45.74 273.78 46.66C275.3 47.54 276.98 47.98 278.82 47.98Z" fill="#656C73"/>
<path d="M299.381 9.04H304.481V52H299.381V9.04Z" fill="#656C73"/>
<path d="M323.564 52.96C320.644 52.96 318.024 52.26 315.704 50.86C313.384 49.46 311.564 47.54 310.244 45.1C308.964 42.62 308.324 39.84 308.324 36.76C308.324 33.8 308.924 31.08 310.124 28.6C311.364 26.12 313.104 24.14 315.344 22.66C317.584 21.18 320.184 20.44 323.144 20.44C326.144 20.44 328.744 21.12 330.944 22.48C333.144 23.8 334.824 25.64 335.984 28C337.184 30.36 337.784 33.06 337.784 36.1C337.784 36.7 337.724 37.22 337.604 37.66H313.424C313.544 39.98 314.104 41.94 315.104 43.54C316.104 45.14 317.364 46.34 318.884 47.14C320.444 47.94 322.064 48.34 323.744 48.34C327.664 48.34 330.684 46.5 332.804 42.82L337.124 44.92C335.804 47.4 334.004 49.36 331.724 50.8C329.484 52.24 326.764 52.96 323.564 52.96ZM332.384 33.46C332.304 32.18 331.944 30.9 331.304 29.62C330.664 28.34 329.644 27.26 328.244 26.38C326.884 25.5 325.164 25.06 323.084 25.06C320.684 25.06 318.644 25.84 316.964 27.4C315.324 28.92 314.244 30.94 313.724 33.46H332.384Z" fill="#656C73"/>
<path d="M355.118 9.04H368.078C372.478 9.04 376.318 9.96 379.598 11.8C382.878 13.6 385.398 16.12 387.158 19.36C388.918 22.6 389.798 26.32 389.798 30.52C389.798 34.72 388.918 38.44 387.158 41.68C385.398 44.92 382.878 47.46 379.598 49.3C376.318 51.1 372.478 52 368.078 52H355.118V9.04ZM368.078 47.14C373.158 47.14 377.178 45.68 380.138 42.76C383.138 39.84 384.638 35.76 384.638 30.52C384.638 25.28 383.138 21.2 380.138 18.28C377.178 15.36 373.158 13.9 368.078 13.9H360.158V47.14H368.078Z" fill="#656C73"/>
<path d="M407.227 52.96C404.307 52.96 401.687 52.26 399.367 50.86C397.047 49.46 395.227 47.54 393.907 45.1C392.627 42.62 391.987 39.84 391.987 36.76C391.987 33.8 392.587 31.08 393.787 28.6C395.027 26.12 396.767 24.14 399.007 22.66C401.247 21.18 403.847 20.44 406.807 20.44C409.807 20.44 412.407 21.12 414.607 22.48C416.807 23.8 418.487 25.64 419.647 28C420.847 30.36 421.447 33.06 421.447 36.1C421.447 36.7 421.387 37.22 421.267 37.66H397.087C397.207 39.98 397.767 41.94 398.767 43.54C399.767 45.14 401.027 46.34 402.547 47.14C404.107 47.94 405.727 48.34 407.407 48.34C411.327 48.34 414.347 46.5 416.467 42.82L420.787 44.92C419.467 47.4 417.667 49.36 415.387 50.8C413.147 52.24 410.427 52.96 407.227 52.96ZM416.047 33.46C415.967 32.18 415.607 30.9 414.967 29.62C414.327 28.34 413.307 27.26 411.907 26.38C410.547 25.5 408.827 25.06 406.747 25.06C404.347 25.06 402.307 25.84 400.627 27.4C398.987 28.92 397.907 30.94 397.387 33.46H416.047Z" fill="#656C73"/>
<path d="M421.669 21.4H427.129L436.609 46H436.729L446.329 21.4H451.669L439.189 52H434.029L421.669 21.4Z" fill="#656C73"/>
<path d="M466.791 52.96C463.871 52.96 461.251 52.26 458.931 50.86C456.611 49.46 454.791 47.54 453.471 45.1C452.191 42.62 451.551 39.84 451.551 36.76C451.551 33.8 452.151 31.08 453.351 28.6C454.591 26.12 456.331 24.14 458.571 22.66C460.811 21.18 463.411 20.44 466.371 20.44C469.371 20.44 471.971 21.12 474.171 22.48C476.371 23.8 478.051 25.64 479.211 28C480.411 30.36 481.011 33.06 481.011 36.1C481.011 36.7 480.951 37.22 480.831 37.66H456.651C456.771 39.98 457.331 41.94 458.331 43.54C459.331 45.14 460.591 46.34 462.111 47.14C463.671 47.94 465.291 48.34 466.971 48.34C470.891 48.34 473.911 46.5 476.031 42.82L480.351 44.92C479.031 47.4 477.231 49.36 474.951 50.8C472.711 52.24 469.991 52.96 466.791 52.96ZM475.611 33.46C475.531 32.18 475.171 30.9 474.531 29.62C473.891 28.34 472.871 27.26 471.471 26.38C470.111 25.5 468.391 25.06 466.311 25.06C463.911 25.06 461.871 25.84 460.191 27.4C458.551 28.92 457.471 30.94 456.951 33.46H475.611Z" fill="#656C73"/>
<path d="M485.179 9.04H490.279V52H485.179V9.04Z" fill="#656C73"/>
<path d="M509.842 52.96C506.842 52.96 504.142 52.24 501.742 50.8C499.342 49.36 497.462 47.4 496.103 44.92C494.783 42.44 494.122 39.7 494.122 36.7C494.122 33.7 494.783 30.96 496.103 28.48C497.462 26 499.342 24.04 501.742 22.6C504.142 21.16 506.842 20.44 509.842 20.44C512.843 20.44 515.542 21.16 517.943 22.6C520.343 24.04 522.203 26 523.523 28.48C524.883 30.96 525.562 33.7 525.562 36.7C525.562 39.7 524.883 42.44 523.523 44.92C522.203 47.4 520.343 49.36 517.943 50.8C515.542 52.24 512.843 52.96 509.842 52.96ZM509.842 48.34C511.723 48.34 513.463 47.88 515.062 46.96C516.703 46 518.003 44.64 518.963 42.88C519.963 41.12 520.463 39.06 520.463 36.7C520.463 34.34 519.963 32.28 518.963 30.52C518.003 28.76 516.703 27.42 515.062 26.5C513.463 25.54 511.723 25.06 509.842 25.06C507.962 25.06 506.203 25.54 504.562 26.5C502.922 27.42 501.603 28.76 500.603 30.52C499.643 32.28 499.163 34.34 499.163 36.7C499.163 39.06 499.643 41.12 500.603 42.88C501.603 44.64 502.922 46 504.562 46.96C506.203 47.88 507.962 48.34 509.842 48.34Z" fill="#656C73"/>
<path d="M529.152 21.4H534.012V25.96H534.252C535.172 24.4 536.552 23.1 538.392 22.06C540.272 20.98 542.372 20.44 544.692 20.44C547.412 20.44 549.892 21.14 552.132 22.54C554.372 23.94 556.132 25.88 557.412 28.36C558.692 30.84 559.332 33.62 559.332 36.7C559.332 39.82 558.692 42.62 557.412 45.1C556.132 47.54 554.372 49.46 552.132 50.86C549.892 52.26 547.412 52.96 544.692 52.96C542.372 52.96 540.272 52.44 538.392 51.4C536.552 50.32 535.172 49.02 534.252 47.5H534.012L534.252 51.7V64.96H529.152V21.4ZM544.092 48.34C545.852 48.34 547.512 47.86 549.072 46.9C550.632 45.94 551.872 44.58 552.792 42.82C553.752 41.02 554.232 38.98 554.232 36.7C554.232 34.42 553.752 32.4 552.792 30.64C551.872 28.84 550.632 27.46 549.072 26.5C547.512 25.54 545.852 25.06 544.092 25.06C542.332 25.06 540.672 25.54 539.112 26.5C537.552 27.46 536.312 28.82 535.392 30.58C534.472 32.34 534.012 34.38 534.012 36.7C534.012 39.02 534.472 41.06 535.392 42.82C536.312 44.58 537.552 45.94 539.112 46.9C540.672 47.86 542.332 48.34 544.092 48.34Z" fill="#656C73"/>
<path d="M577.071 52.96C574.151 52.96 571.531 52.26 569.211 50.86C566.891 49.46 565.071 47.54 563.751 45.1C562.471 42.62 561.831 39.84 561.831 36.76C561.831 33.8 562.431 31.08 563.631 28.6C564.871 26.12 566.611 24.14 568.851 22.66C571.091 21.18 573.691 20.44 576.651 20.44C579.651 20.44 582.251 21.12 584.451 22.48C586.651 23.8 588.331 25.64 589.491 28C590.691 30.36 591.291 33.06 591.291 36.1C591.291 36.7 591.231 37.22 591.111 37.66H566.931C567.051 39.98 567.611 41.94 568.611 43.54C569.611 45.14 570.871 46.34 572.391 47.14C573.951 47.94 575.571 48.34 577.251 48.34C581.171 48.34 584.191 46.5 586.311 42.82L590.631 44.92C589.311 47.4 587.511 49.36 585.231 50.8C582.991 52.24 580.271 52.96 577.071 52.96ZM585.891 33.46C585.811 32.18 585.451 30.9 584.811 29.62C584.171 28.34 583.151 27.26 581.751 26.38C580.391 25.5 578.671 25.06 576.591 25.06C574.191 25.06 572.151 25.84 570.471 27.4C568.831 28.92 567.751 30.94 567.231 33.46H585.891Z" fill="#656C73"/>
<path d="M595.46 21.4H600.32V26.32H600.56C601.16 24.64 602.32 23.26 604.04 22.18C605.76 21.06 607.56 20.5 609.44 20.5C610.84 20.5 612.04 20.7 613.04 21.1V26.62C611.76 25.98 610.32 25.66 608.72 25.66C607.24 25.66 605.88 26.08 604.64 26.92C603.4 27.76 602.4 28.9 601.64 30.34C600.92 31.74 600.56 33.26 600.56 34.9V52H595.46V21.4Z" fill="#656C73"/>
<path d="M648.313 52.96C644.273 52.96 640.553 51.98 637.153 50.02C633.753 48.06 631.053 45.36 629.053 41.92C627.053 38.48 626.053 34.68 626.053 30.52C626.053 26.36 627.053 22.56 629.053 19.12C631.053 15.68 633.753 12.98 637.153 11.02C640.553 9.06 644.273 8.08 648.313 8.08C651.473 8.08 654.433 8.64 657.193 9.76C659.993 10.88 662.293 12.46 664.093 14.5L660.433 18.16C659.073 16.48 657.333 15.2 655.213 14.32C653.093 13.4 650.813 12.94 648.373 12.94C645.333 12.94 642.493 13.68 639.853 15.16C637.253 16.6 635.153 18.66 633.553 21.34C631.993 23.98 631.213 27.04 631.213 30.52C631.213 34 631.993 37.08 633.553 39.76C635.153 42.4 637.273 44.46 639.913 45.94C642.553 47.38 645.373 48.1 648.373 48.1C651.253 48.1 653.653 47.66 655.573 46.78C657.533 45.86 659.213 44.66 660.613 43.18C661.653 42.06 662.493 40.72 663.133 39.16C663.773 37.56 664.173 35.8 664.333 33.88H648.433V29.14H669.073C669.273 30.26 669.373 31.3 669.373 32.26C669.373 34.9 668.953 37.48 668.113 40C667.273 42.48 665.933 44.66 664.093 46.54C660.133 50.82 654.873 52.96 648.313 52.96Z" fill="#656C73"/>
<path d="M672.97 21.4H677.83V26.32H678.07C678.67 24.64 679.83 23.26 681.55 22.18C683.27 21.06 685.07 20.5 686.95 20.5C688.35 20.5 689.55 20.7 690.55 21.1V26.62C689.27 25.98 687.83 25.66 686.23 25.66C684.75 25.66 683.39 26.08 682.15 26.92C680.91 27.76 679.91 28.9 679.15 30.34C678.43 31.74 678.07 33.26 678.07 34.9V52H672.97V21.4Z" fill="#656C73"/>
<path d="M705.953 52.96C702.953 52.96 700.253 52.24 697.853 50.8C695.453 49.36 693.573 47.4 692.213 44.92C690.893 42.44 690.233 39.7 690.233 36.7C690.233 33.7 690.893 30.96 692.213 28.48C693.573 26 695.453 24.04 697.853 22.6C700.253 21.16 702.953 20.44 705.953 20.44C708.953 20.44 711.653 21.16 714.053 22.6C716.453 24.04 718.313 26 719.633 28.48C720.993 30.96 721.673 33.7 721.673 36.7C721.673 39.7 720.993 42.44 719.633 44.92C718.313 47.4 716.453 49.36 714.053 50.8C711.653 52.24 708.953 52.96 705.953 52.96ZM705.953 48.34C707.833 48.34 709.573 47.88 711.173 46.96C712.813 46 714.113 44.64 715.073 42.88C716.073 41.12 716.573 39.06 716.573 36.7C716.573 34.34 716.073 32.28 715.073 30.52C714.113 28.76 712.813 27.42 711.173 26.5C709.573 25.54 707.833 25.06 705.953 25.06C704.073 25.06 702.313 25.54 700.673 26.5C699.033 27.42 697.713 28.76 696.713 30.52C695.753 32.28 695.273 34.34 695.273 36.7C695.273 39.06 695.753 41.12 696.713 42.88C697.713 44.64 699.033 46 700.673 46.96C702.313 47.88 704.073 48.34 705.953 48.34Z" fill="#656C73"/>
<path d="M736.603 52.96C732.923 52.96 730.103 51.88 728.143 49.72C726.223 47.56 725.263 44.54 725.263 40.66V21.4H730.363V39.88C730.363 42.8 731.023 44.94 732.343 46.3C733.663 47.66 735.443 48.34 737.683 48.34C739.403 48.34 740.923 47.88 742.243 46.96C743.603 46.04 744.643 44.84 745.363 43.36C746.123 41.88 746.503 40.32 746.503 38.68V21.4H751.603V52H746.743V47.56H746.503C745.663 49.08 744.323 50.36 742.483 51.4C740.643 52.44 738.683 52.96 736.603 52.96Z" fill="#656C73"/>
<path d="M757.095 21.4H761.956V25.96H762.195C763.115 24.4 764.495 23.1 766.336 22.06C768.216 20.98 770.315 20.44 772.635 20.44C775.355 20.44 777.836 21.14 780.076 22.54C782.315 23.94 784.075 25.88 785.355 28.36C786.635 30.84 787.276 33.62 787.276 36.7C787.276 39.82 786.635 42.62 785.355 45.1C784.075 47.54 782.315 49.46 780.076 50.86C777.836 52.26 775.355 52.96 772.635 52.96C770.315 52.96 768.216 52.44 766.336 51.4C764.495 50.32 763.115 49.02 762.195 47.5H761.956L762.195 51.7V64.96H757.095V21.4ZM772.035 48.34C773.795 48.34 775.456 47.86 777.016 46.9C778.576 45.94 779.815 44.58 780.735 42.82C781.695 41.02 782.175 38.98 782.175 36.7C782.175 34.42 781.695 32.4 780.735 30.64C779.815 28.84 778.576 27.46 777.016 26.5C775.456 25.54 773.795 25.06 772.035 25.06C770.275 25.06 768.615 25.54 767.055 26.5C765.495 27.46 764.255 28.82 763.336 30.58C762.416 32.34 761.956 34.38 761.956 36.7C761.956 39.02 762.416 41.06 763.336 42.82C764.255 44.58 765.495 45.94 767.055 46.9C768.615 47.86 770.275 48.34 772.035 48.34Z" fill="#656C73"/>
<path d="M801.782 52.96C798.502 52.96 795.762 52.2 793.562 50.68C791.362 49.12 789.802 47.14 788.882 44.74L793.442 42.7C794.202 44.54 795.322 45.96 796.802 46.96C798.322 47.96 799.982 48.46 801.782 48.46C803.702 48.46 805.342 48.08 806.702 47.32C808.062 46.52 808.742 45.4 808.742 43.96C808.742 42.68 808.202 41.66 807.122 40.9C806.042 40.1 804.342 39.42 802.022 38.86L798.302 37.9C795.862 37.3 793.862 36.28 792.302 34.84C790.742 33.4 789.962 31.54 789.962 29.26C789.962 27.5 790.482 25.96 791.522 24.64C792.602 23.28 794.022 22.24 795.782 21.52C797.542 20.8 799.442 20.44 801.482 20.44C804.162 20.44 806.542 21.02 808.622 22.18C810.742 23.34 812.242 24.96 813.122 27.04L808.682 29.08C807.322 26.36 804.902 25 801.422 25C799.742 25 798.262 25.4 796.982 26.2C795.742 26.96 795.122 27.94 795.122 29.14C795.122 30.26 795.562 31.18 796.442 31.9C797.322 32.58 798.642 33.14 800.402 33.58L804.842 34.72C807.842 35.48 810.102 36.62 811.622 38.14C813.142 39.62 813.902 41.44 813.902 43.6C813.902 45.48 813.362 47.14 812.282 48.58C811.202 49.98 809.742 51.06 807.902 51.82C806.062 52.58 804.022 52.96 801.782 52.96Z" fill="#656C73"/>
<path d="M156.868 112.704C154.551 112.704 152.527 112.073 150.796 110.812C149.065 109.521 147.848 107.717 147.144 105.4L150.664 103.948C151.72 107.409 153.788 109.14 156.868 109.14C158.599 109.14 159.977 108.539 161.004 107.336C162.06 106.133 162.588 104.549 162.588 102.584V80.496H166.328V102.276C166.328 104.476 165.917 106.368 165.096 107.952C164.304 109.507 163.189 110.695 161.752 111.516C160.344 112.308 158.716 112.704 156.868 112.704Z" fill="#656C73"/>
<path d="M177.956 112.704C176.313 112.704 174.847 112.381 173.556 111.736C172.265 111.091 171.268 110.211 170.564 109.096C169.86 107.952 169.508 106.661 169.508 105.224C169.508 102.848 170.403 101 172.192 99.68C173.981 98.3307 176.24 97.656 178.968 97.656C180.317 97.656 181.564 97.8027 182.708 98.096C183.881 98.3893 184.776 98.7267 185.392 99.108V97.744C185.392 96.072 184.805 94.7373 183.632 93.74C182.459 92.7133 180.977 92.2 179.188 92.2C177.927 92.2 176.768 92.4787 175.712 93.036C174.656 93.564 173.82 94.312 173.204 95.28L170.388 93.168C171.268 91.8187 172.471 90.7627 173.996 90C175.551 89.2373 177.267 88.856 179.144 88.856C182.195 88.856 184.585 89.6627 186.316 91.276C188.076 92.86 188.956 95.0307 188.956 97.788V112H185.392V108.788H185.216C184.571 109.873 183.603 110.797 182.312 111.56C181.021 112.323 179.569 112.704 177.956 112.704ZM178.308 109.404C179.569 109.404 180.743 109.081 181.828 108.436C182.913 107.791 183.779 106.925 184.424 105.84C185.069 104.755 185.392 103.567 185.392 102.276C184.688 101.807 183.823 101.425 182.796 101.132C181.769 100.839 180.684 100.692 179.54 100.692C177.487 100.692 175.932 101.117 174.876 101.968C173.849 102.819 173.336 103.919 173.336 105.268C173.336 106.5 173.805 107.497 174.744 108.26C175.683 109.023 176.871 109.404 178.308 109.404Z" fill="#656C73"/>
<path d="M192.839 80.496H196.579V100.296L207.139 89.56H211.891V89.736L203.091 98.624L212.111 111.824V112H207.667L200.451 101.22L196.579 105.092V112H192.839V80.496Z" fill="#656C73"/>
<path d="M220.476 112.704C218.834 112.704 217.367 112.381 216.076 111.736C214.786 111.091 213.788 110.211 213.084 109.096C212.38 107.952 212.028 106.661 212.028 105.224C212.028 102.848 212.923 101 214.712 99.68C216.502 98.3307 218.76 97.656 221.488 97.656C222.838 97.656 224.084 97.8027 225.228 98.096C226.402 98.3893 227.296 98.7267 227.912 99.108V97.744C227.912 96.072 227.326 94.7373 226.152 93.74C224.979 92.7133 223.498 92.2 221.708 92.2C220.447 92.2 219.288 92.4787 218.232 93.036C217.176 93.564 216.34 94.312 215.724 95.28L212.908 93.168C213.788 91.8187 214.991 90.7627 216.516 90C218.071 89.2373 219.787 88.856 221.664 88.856C224.715 88.856 227.106 89.6627 228.836 91.276C230.596 92.86 231.476 95.0307 231.476 97.788V112H227.912V108.788H227.736C227.091 109.873 226.123 110.797 224.832 111.56C223.542 112.323 222.09 112.704 220.476 112.704ZM220.828 109.404C222.09 109.404 223.263 109.081 224.348 108.436C225.434 107.791 226.299 106.925 226.944 105.84C227.59 104.755 227.912 103.567 227.912 102.276C227.208 101.807 226.343 101.425 225.316 101.132C224.29 100.839 223.204 100.692 222.06 100.692C220.007 100.692 218.452 101.117 217.396 101.968C216.37 102.819 215.856 103.919 215.856 105.268C215.856 106.5 216.326 107.497 217.264 108.26C218.203 109.023 219.391 109.404 220.828 109.404Z" fill="#656C73"/>
<path d="M235.359 89.56H238.923V93.124H239.099C239.627 91.804 240.522 90.7773 241.783 90.044C243.045 89.3107 244.423 88.944 245.919 88.944C246.565 88.944 247.107 88.988 247.547 89.076V92.904C247.049 92.7867 246.374 92.728 245.523 92.728C243.617 92.728 242.062 93.3587 240.859 94.62C239.686 95.8813 239.099 97.524 239.099 99.548V112H235.359V89.56ZM260.659 112.352C259.75 112.352 258.899 112.205 258.107 111.912C257.345 111.619 256.699 111.223 256.171 110.724C255.585 110.167 255.145 109.521 254.851 108.788C254.558 108.055 254.411 107.16 254.411 106.104V92.948H250.495V89.56H254.411V83.224H258.151V89.56H263.607V92.948H258.151V105.18C258.151 106.412 258.386 107.321 258.855 107.908C259.413 108.553 260.219 108.876 261.275 108.876C262.126 108.876 262.947 108.627 263.739 108.128V111.78C263.299 111.985 262.845 112.132 262.375 112.22C261.935 112.308 261.363 112.352 260.659 112.352Z" fill="#656C73"/>
<path d="M273.567 112.704C271.924 112.704 270.457 112.381 269.167 111.736C267.876 111.091 266.879 110.211 266.175 109.096C265.471 107.952 265.119 106.661 265.119 105.224C265.119 102.848 266.013 101 267.803 99.68C269.592 98.3307 271.851 97.656 274.579 97.656C275.928 97.656 277.175 97.8027 278.319 98.096C279.492 98.3893 280.387 98.7267 281.003 99.108V97.744C281.003 96.072 280.416 94.7373 279.243 93.74C278.069 92.7133 276.588 92.2 274.799 92.2C273.537 92.2 272.379 92.4787 271.323 93.036C270.267 93.564 269.431 94.312 268.815 95.28L265.999 93.168C266.879 91.8187 268.081 90.7627 269.607 90C271.161 89.2373 272.877 88.856 274.755 88.856C277.805 88.856 280.196 89.6627 281.927 91.276C283.687 92.86 284.567 95.0307 284.567 97.788V112H281.003V108.788H280.827C280.181 109.873 279.213 110.797 277.923 111.56C276.632 112.323 275.18 112.704 273.567 112.704ZM273.919 109.404C275.18 109.404 276.353 109.081 277.439 108.436C278.524 107.791 279.389 106.925 280.035 105.84C280.68 104.755 281.003 103.567 281.003 102.276C280.299 101.807 279.433 101.425 278.407 101.132C277.38 100.839 276.295 100.692 275.151 100.692C273.097 100.692 271.543 101.117 270.487 101.968C269.46 102.819 268.947 103.919 268.947 105.268C268.947 106.5 269.416 107.497 270.355 108.26C271.293 109.023 272.481 109.404 273.919 109.404Z" fill="#656C73"/>
</svg>
