<svg width="461" height="535" viewBox="0 0 461 535" fill="none" xmlns="http://www.w3.org/2000/svg">
<g clip-path="url(#clip0_37_1340)">
<path d="M-2.85609 0.00488281H463.204L463.205 0.00731767V350.805H-2.5144L-2.85609 0.00488281Z" fill="#B5ECEF"/>
<g opacity="0.5">
<mask id="mask0_37_1340" style="mask-type:luminance" maskUnits="userSpaceOnUse" x="-2" y="0" width="173" height="28">
<path d="M170.987 0.00488281H-1.54695V27.087H170.987V0.00488281Z" fill="white"/>
</mask>
<g mask="url(#mask0_37_1340)">
<path d="M170.986 27.0862H-1.54695V0.00488281H80.7805L170.986 27.0862Z" fill="white"/>
</g>
</g>
<g opacity="0.5">
<mask id="mask1_37_1340" style="mask-type:luminance" maskUnits="userSpaceOnUse" x="277" y="21" width="188" height="20">
<path d="M464.514 21.4097H277.993V40.891H464.514V21.4097Z" fill="white"/>
</mask>
<g mask="url(#mask1_37_1340)">
<path d="M277.994 40.8918H464.514V21.4105L277.994 40.8918Z" fill="white"/>
</g>
</g>
<mask id="mask2_37_1340" style="mask-type:luminance" maskUnits="userSpaceOnUse" x="275" y="225" width="190" height="311">
<path d="M464.516 225.292H275.162V535.062H464.516V225.292Z" fill="white"/>
</mask>
<g mask="url(#mask2_37_1340)">
<path d="M274.66 535.06L275.163 224.525L465.016 225.293L464.514 535.827L274.66 535.06Z" fill="url(#paint0_linear_37_1340)"/>
</g>
<mask id="mask3_37_1340" style="mask-type:luminance" maskUnits="userSpaceOnUse" x="294" y="179" width="68" height="86">
<path d="M294.887 179.178V264.4H319.269V201.251L361.412 179.178H294.887Z" fill="white"/>
</mask>
<g mask="url(#mask3_37_1340)">
<path d="M362.84 179.203L361.392 265.514L293.459 264.375L294.905 178.064L362.84 179.203Z" fill="url(#paint1_linear_37_1340)"/>
</g>
<path d="M318.736 96.5097H-1.31076V81.9679H259.87L318.736 96.5097Z" fill="#1B6478"/>
<path d="M361.175 177.043H-1.37327L-1.4528 96.5098H318.501V154.705L361.175 177.043Z" fill="#285152"/>
<path d="M295.015 177.043L311.914 165.111L333.798 170.628L318.735 154.705L361.412 177.043H295.015Z" fill="#1B6478"/>
<mask id="mask4_37_1340" style="mask-type:luminance" maskUnits="userSpaceOnUse" x="259" y="81" width="206" height="16">
<path d="M259.87 81.9679L318.736 96.5097H464.514V81.9679H259.87Z" fill="white"/>
</mask>
<g mask="url(#mask4_37_1340)">
<path d="M464.515 81.9679H259.87V96.5097H464.515V81.9679Z" fill="url(#paint2_linear_37_1340)"/>
</g>
<path d="M360.99 96.5097H350.181L313.672 81.9679H320.008L360.99 96.5097Z" fill="#00E3D1"/>
<path d="M390.619 96.5097H374.368L333.405 81.9679H343.295L390.619 96.5097Z" fill="#00E3D1"/>
<path d="M428.435 96.5114L378.321 81.9688H373.792L422.415 96.5114H428.435Z" fill="#00E3D1"/>
<path d="M462.336 96.5114L408.441 81.9688H396.606L445.228 96.5114H462.336Z" fill="#00E3D1"/>
<path d="M464.514 96.5114H318.735V154.705H464.514V96.5114Z" fill="#89EDEE"/>
<path d="M360.99 96.5114H350.181V154.697H360.99V96.5114Z" fill="#B8F4F5"/>
<path d="M428.435 96.5114H422.274V154.697H428.435V96.5114Z" fill="#B8F4F5"/>
<path d="M462.337 96.5114H445.077V154.697H462.337V96.5114Z" fill="#B8F4F5"/>
<path d="M390.619 96.5114H374.791V154.697H390.619V96.5114Z" fill="#B8F4F5"/>
<g opacity="0.5">
<mask id="mask5_37_1340" style="mask-type:luminance" maskUnits="userSpaceOnUse" x="318" y="144" width="21" height="10">
<path d="M338.59 144.154H318.736V153.631H338.59V144.154Z" fill="white"/>
</mask>
<g mask="url(#mask5_37_1340)">
<path d="M318.735 153.63C318.735 148.397 323.18 144.154 328.663 144.154C334.145 144.154 338.589 148.397 338.589 153.63H318.735Z" fill="white"/>
</g>
</g>
<g opacity="0.5">
<mask id="mask6_37_1340" style="mask-type:luminance" maskUnits="userSpaceOnUse" x="345" y="148" width="11" height="6">
<path d="M355.145 148.892H345.219V153.631H355.145V148.892Z" fill="white"/>
</mask>
<g mask="url(#mask6_37_1340)">
<path d="M345.218 153.63C345.218 151.014 347.44 148.892 350.181 148.892C352.922 148.892 355.145 151.014 355.145 153.63H345.218Z" fill="white"/>
</g>
</g>
<g opacity="0.7">
<mask id="mask7_37_1340" style="mask-type:luminance" maskUnits="userSpaceOnUse" x="361" y="140" width="28" height="14">
<path d="M388.169 140.858H361.41V153.631H388.169V140.858Z" fill="white"/>
</mask>
<g mask="url(#mask7_37_1340)">
<path d="M361.412 153.63C361.412 146.578 367.401 140.859 374.791 140.859C382.179 140.859 388.171 146.577 388.171 153.63H361.412Z" fill="white"/>
</g>
</g>
<g opacity="0.5">
<mask id="mask8_37_1340" style="mask-type:luminance" maskUnits="userSpaceOnUse" x="435" y="148" width="11" height="6">
<path d="M445.469 148.739H435.542V153.477H445.469V148.739Z" fill="white"/>
</mask>
<g mask="url(#mask8_37_1340)">
<path d="M435.54 153.478C435.54 150.861 437.762 148.74 440.504 148.74C443.246 148.74 445.469 150.861 445.469 153.478H435.54Z" fill="white"/>
</g>
</g>
<g opacity="0.7">
<mask id="mask9_37_1340" style="mask-type:luminance" maskUnits="userSpaceOnUse" x="451" y="140" width="14" height="14">
<path d="M464.492 140.721H451.736V153.478H464.492V140.721Z" fill="white"/>
</mask>
<g mask="url(#mask9_37_1340)">
<path d="M464.492 140.722V153.478H451.734C451.734 146.623 457.391 141.03 464.492 140.722Z" fill="white"/>
</g>
</g>
<g opacity="0.5">
<mask id="mask10_37_1340" style="mask-type:luminance" maskUnits="userSpaceOnUse" x="384" y="148" width="14" height="6">
<path d="M397.547 148.892H384.442V153.651H397.547V148.892Z" fill="white"/>
</mask>
<g mask="url(#mask10_37_1340)">
<path d="M397.547 153.651H384.443C385.236 150.905 387.867 148.892 390.993 148.892C394.122 148.892 396.754 150.905 397.547 153.651Z" fill="white"/>
</g>
</g>
<g opacity="0.5">
<mask id="mask11_37_1340" style="mask-type:luminance" maskUnits="userSpaceOnUse" x="405" y="145" width="18" height="9">
<path d="M422.743 145.348H405.389V153.631H422.743V145.348Z" fill="white"/>
</mask>
<g mask="url(#mask11_37_1340)">
<path d="M405.389 153.63C405.389 149.057 409.274 145.349 414.065 145.349C418.857 145.349 422.74 149.057 422.74 153.63H405.389Z" fill="white"/>
</g>
</g>
<path d="M426.936 153.63H417.612C418.363 151.876 420.169 150.644 422.276 150.644C424.385 150.644 426.186 151.876 426.936 153.63Z" fill="white"/>
<g opacity="0.5">
<mask id="mask12_37_1340" style="mask-type:luminance" maskUnits="userSpaceOnUse" x="341" y="144" width="5" height="4">
<path d="M345.128 144.154H341.821V147.459H345.128V144.154Z" fill="white"/>
</mask>
<g mask="url(#mask12_37_1340)">
<path d="M345.129 145.806C345.129 146.72 344.388 147.46 343.474 147.46C342.561 147.46 341.822 146.72 341.822 145.806C341.822 144.893 342.561 144.153 343.474 144.153C344.388 144.154 345.129 144.893 345.129 145.806Z" fill="white"/>
</g>
</g>
<path d="M423.929 142.042C423.929 142.956 423.187 143.696 422.274 143.696C421.362 143.696 420.621 142.955 420.621 142.042C420.621 141.13 421.362 140.389 422.274 140.389C423.187 140.39 423.929 141.13 423.929 142.042Z" fill="white"/>
<g opacity="0.5">
<mask id="mask13_37_1340" style="mask-type:luminance" maskUnits="userSpaceOnUse" x="322" y="139" width="5" height="4">
<path d="M326.017 139.205H322.712V142.512H326.017V139.205Z" fill="white"/>
</mask>
<g mask="url(#mask13_37_1340)">
<path d="M326.019 140.859C326.019 141.772 325.278 142.513 324.364 142.513C323.452 142.513 322.711 141.772 322.711 140.859C322.711 139.946 323.452 139.206 324.364 139.206C325.278 139.206 326.019 139.946 326.019 140.859Z" fill="white"/>
</g>
</g>
<path d="M368.056 138.841C368.056 139.439 367.57 139.925 366.97 139.925C366.372 139.925 365.887 139.439 365.887 138.841C365.887 138.242 366.372 137.756 366.97 137.756C367.57 137.756 368.056 138.242 368.056 138.841Z" fill="white"/>
<g opacity="0.5">
<mask id="mask14_37_1340" style="mask-type:luminance" maskUnits="userSpaceOnUse" x="398" y="145" width="4" height="4">
<path d="M401.379 145.807H398.71V148.477H401.379V145.807Z" fill="white"/>
</mask>
<g mask="url(#mask14_37_1340)">
<path d="M401.379 147.142C401.379 147.878 400.781 148.475 400.043 148.475C399.307 148.475 398.709 147.879 398.709 147.142C398.709 146.404 399.306 145.807 400.043 145.807C400.781 145.807 401.379 146.404 401.379 147.142Z" fill="white"/>
</g>
</g>
<path d="M394.71 105.896V138.913" stroke="white" stroke-width="4" stroke-miterlimit="10"/>
<path d="M464.514 97.215H318.736" stroke="white" stroke-width="5" stroke-miterlimit="10"/>
<path d="M318.735 154.092H464.514" stroke="white" stroke-width="5" stroke-miterlimit="10"/>
<path d="M-1.20526 401.184L-1.28236 386.933L288.125 159.93C290.049 158.422 289.208 154.696 286.956 154.668H287.073C291.385 154.642 294.887 159.029 294.887 164.449V401.184H-1.20526V401.184Z" fill="#89EDEE"/>
<path d="M-1.20526 472.249L-1.28236 457.999L288.125 230.996C290.049 229.487 289.208 225.762 286.956 225.733H287.073C291.385 225.707 294.887 230.094 294.887 235.514V472.249H-1.20526Z" fill="#89EDEE"/>
<path d="M225.284 206.181V450.705L199.439 450.709V232.004L225.284 206.181Z" fill="#B8F4F5"/>
<path d="M268.665 224.091H267.412V463.872H268.665V224.091Z" fill="white"/>
<path d="M192.605 217.675H191.352V282.038H192.605V217.675Z" fill="#00E3D1"/>
<path d="M259.537 455.51V176.729L250.26 185.743V455.513L259.537 455.51Z" fill="#B8F4F5"/>
<path d="M299.657 291.084H298.406V293.129H299.657V291.084Z" fill="#00E3D1"/>
<path d="M299.657 243.793H298.406V287.528H299.657V243.793Z" fill="#00E3D1"/>
<path d="M305.764 220.433H304.511V251.437H305.764V220.433Z" fill="#00E3D1"/>
<path d="M299.924 233.32H298.674V166.374C298.674 160.684 294.042 156.053 288.351 156.053H282.047V154.801H288.351C294.732 154.801 299.924 159.992 299.924 166.374V233.32Z" fill="#00E3D1"/>
<path d="M277.995 105.627V154.588C226.676 153.568 185.938 146.09 180.528 136.678C180.125 135.975 179.917 135.264 179.917 134.543C179.917 127.099 201.943 120.594 234.711 117.103C245.221 115.981 256.839 115.17 269.187 114.737C271.643 114.653 273.845 113.603 275.433 111.961C277.02 110.319 277.995 108.084 277.995 105.627Z" fill="#89EDEE"/>
<path d="M282.673 110.689H281.42C281.42 103.605 275.658 97.8416 268.573 97.8416V96.5892C276.348 96.5892 282.673 102.914 282.673 110.689Z" fill="#27CECD"/>
<path d="M282.673 114.646H281.42V117.057H282.673V114.646Z" fill="#27CECD"/>
<path d="M282.673 122.484H281.42V154.626H282.673V122.484Z" fill="#27CECD"/>
<path d="M250.529 115.711V153.371C212.7 150.71 184.929 144.334 180.528 136.678C180.125 135.975 179.917 135.263 179.917 134.542C179.917 127.098 201.943 120.593 234.711 117.102C239.745 116.565 245.03 116.097 250.529 115.711Z" fill="#B8F4F5"/>
<path d="M242.926 122.84H241.674V152.584H242.926V122.84Z" fill="white"/>
<mask id="mask15_37_1340" style="mask-type:luminance" maskUnits="userSpaceOnUse" x="-2" y="96" width="292" height="244">
<path d="M127.537 96.5098L-1.4252 125.353L-1.37326 177.043L-1.21499 339.488L288.259 158.842C290.168 157.652 289.322 154.705 287.072 154.705H289.98C233.134 154.705 186.351 146.81 180.529 136.678C180.125 135.976 179.917 135.264 179.917 134.542C179.917 127.098 201.945 120.593 234.712 117.103C245.223 115.983 256.836 115.171 269.187 114.737C271.643 114.652 273.847 113.602 275.435 111.961C277.021 110.32 277.995 108.085 277.995 105.627C277.995 100.593 273.914 96.5106 268.88 96.5106H127.537V96.5098Z" fill="white"/>
</mask>
<g mask="url(#mask15_37_1340)">
<path d="M290.168 96.5098H-1.4252V339.488H290.168V96.5098Z" fill="url(#paint3_linear_37_1340)"/>
</g>
<path d="M225.284 198.117L199.438 214.244L-1.03238 213.725L-1.04536 198.117H225.284Z" fill="#00E3D1"/>
<path d="M259.537 176.729L252.928 180.855L-1.31076 180.24V176.729H259.537Z" fill="#00E3D1"/>
<path d="M234.411 198.117L208.565 214.244L8.09509 213.725L8.08211 198.117H234.411Z" fill="#00E3D1"/>
<g opacity="0.5">
<mask id="mask16_37_1340" style="mask-type:luminance" maskUnits="userSpaceOnUse" x="238" y="448" width="37" height="17">
<path d="M274.258 448.944H238.206V464.491H274.258V448.944Z" fill="white"/>
</mask>
<g mask="url(#mask16_37_1340)">
<path d="M274.26 464.492H238.208C239.504 455.695 247.081 448.945 256.233 448.945C265.387 448.944 272.965 455.695 274.26 464.492Z" fill="white"/>
</g>
</g>
<g opacity="0.5">
<mask id="mask17_37_1340" style="mask-type:luminance" maskUnits="userSpaceOnUse" x="187" y="462" width="85" height="74">
<path d="M271.685 462.084H187.108V535.062H271.685V462.084Z" fill="white"/>
</mask>
<g mask="url(#mask17_37_1340)">
<path d="M271.685 504.371C271.685 516.457 266.617 527.356 258.485 535.062H200.307C192.179 527.356 187.108 516.456 187.108 504.371C187.108 481.015 206.039 462.084 229.398 462.084C252.752 462.084 271.685 481.015 271.685 504.371Z" fill="white"/>
</g>
</g>
<g opacity="0.7">
<mask id="mask18_37_1340" style="mask-type:luminance" maskUnits="userSpaceOnUse" x="296" y="496" width="14" height="13">
<path d="M309.162 496.245H296.661V508.749H309.162V496.245Z" fill="white"/>
</mask>
<g mask="url(#mask18_37_1340)">
<path d="M309.162 502.499C309.162 505.951 306.364 508.749 302.912 508.749C299.458 508.749 296.661 505.951 296.661 502.499C296.661 499.046 299.458 496.249 302.912 496.249C306.364 496.249 309.162 499.046 309.162 502.499Z" fill="white"/>
</g>
</g>
<g opacity="0.7">
<mask id="mask19_37_1340" style="mask-type:luminance" maskUnits="userSpaceOnUse" x="394" y="328" width="14" height="14">
<path d="M407.454 328.599H394.951V341.103H407.454V328.599Z" fill="white"/>
</mask>
<g mask="url(#mask19_37_1340)">
<path d="M407.453 334.85C407.453 338.303 404.652 341.103 401.199 341.103C397.749 341.103 394.949 338.303 394.949 334.85C394.949 331.4 397.749 328.599 401.199 328.599C404.652 328.599 407.453 331.4 407.453 334.85Z" fill="white"/>
</g>
</g>
<g opacity="0.5">
<mask id="mask20_37_1340" style="mask-type:luminance" maskUnits="userSpaceOnUse" x="452" y="384" width="12" height="22">
<path d="M463.204 384.175H452.588V405.4H463.204V384.175Z" fill="white"/>
</mask>
<g mask="url(#mask20_37_1340)">
<path d="M463.204 405.4C457.341 405.4 452.59 400.648 452.59 394.787C452.59 388.925 457.341 384.175 463.204 384.175V405.4Z" fill="white"/>
</g>
</g>
<g opacity="0.7">
<mask id="mask21_37_1340" style="mask-type:luminance" maskUnits="userSpaceOnUse" x="237" y="298" width="10" height="10">
<path d="M246.758 298.612H237.842V307.528H246.758V298.612Z" fill="white"/>
</mask>
<g mask="url(#mask21_37_1340)">
<path d="M246.757 303.07C246.757 305.533 244.761 307.531 242.299 307.531C239.836 307.531 237.841 305.533 237.841 303.07C237.841 300.608 239.836 298.612 242.299 298.612C244.761 298.612 246.757 300.608 246.757 303.07Z" fill="white"/>
</g>
</g>
<g opacity="0.5">
<mask id="mask22_37_1340" style="mask-type:luminance" maskUnits="userSpaceOnUse" x="220" y="498" width="78" height="38">
<path d="M297.549 498.353H220.1V535.062H297.549V498.353Z" fill="white"/>
</mask>
<g mask="url(#mask22_37_1340)">
<path d="M297.548 535.062H220.099C220.284 514.76 237.55 498.353 258.825 498.353C270.662 498.353 281.266 503.436 288.367 511.445C290.286 513.608 291.949 515.987 293.31 518.528C293.314 518.528 293.314 518.533 293.314 518.533C295.975 523.5 297.496 529.118 297.548 535.062Z" fill="white"/>
</g>
</g>
<g opacity="0.7">
<mask id="mask23_37_1340" style="mask-type:luminance" maskUnits="userSpaceOnUse" x="303" y="510" width="62" height="26">
<path d="M364.235 510.085H303.288V535.062H364.235V510.085Z" fill="white"/>
</mask>
<g mask="url(#mask23_37_1340)">
<path d="M364.235 535.062H303.29C305.56 520.916 318.337 510.085 333.759 510.085C343.19 510.085 351.629 514.132 357.279 520.508C358.81 522.229 360.13 524.121 361.218 526.146C361.222 526.146 361.222 526.15 361.222 526.15C362.691 528.896 363.725 531.897 364.235 535.062Z" fill="white"/>
</g>
</g>
<g opacity="0.5">
<mask id="mask24_37_1340" style="mask-type:luminance" maskUnits="userSpaceOnUse" x="314" y="416" width="120" height="120">
<path d="M433.342 416.432H314.713V535.062H433.342V416.432Z" fill="white"/>
</mask>
<g mask="url(#mask24_37_1340)">
<path d="M433.342 475.749C433.342 508.503 406.786 535.062 374.028 535.062C341.269 535.062 314.713 508.503 314.713 475.749C314.713 442.989 341.269 416.432 374.028 416.432C406.786 416.432 433.342 442.989 433.342 475.749Z" fill="white"/>
</g>
</g>
<g opacity="0.5">
<mask id="mask25_37_1340" style="mask-type:luminance" maskUnits="userSpaceOnUse" x="393" y="481" width="71" height="55">
<path d="M463.204 481.266H393.908V535.062H463.204V481.266Z" fill="white"/>
</mask>
<g mask="url(#mask25_37_1340)">
<path d="M463.206 492.906V535.062H396.034C394.654 530.973 393.908 526.593 393.908 522.039C393.908 499.522 412.162 481.266 434.681 481.266C445.784 481.266 455.852 485.704 463.206 492.906Z" fill="white"/>
</g>
</g>
<path d="M198.728 392.397V463.883H129.398C122.987 463.883 117.79 458.687 117.79 452.273V442.89L198.728 392.397Z" fill="#C49400"/>
<path d="M239.116 466.035H162.772C162.772 443.822 174.622 427.606 189.237 427.606C201.584 427.606 211.955 439.17 214.881 456.143C217.438 454.385 220.689 453.324 224.226 453.324C232.45 453.325 239.116 459.017 239.116 466.035Z" fill="#45774E"/>
<path d="M428.435 66.1324V79.1524H263.358L271.694 71.9793C276.077 68.2077 281.67 66.1324 287.452 66.1324H315.968L322.076 58.7223C326.667 53.1522 333.509 49.9252 340.728 49.9252H349.883C356.734 49.9252 362.595 54.1423 365.017 60.124C368.888 56.8223 374.851 54.708 381.546 54.708C391.736 54.708 400.242 59.611 402.227 66.1324H428.435Z" fill="#799A37"/>
<path d="M-1.42521 125.356V125.353L-1.4528 96.5098H127.833L-1.42521 125.356Z" fill="#7BAE3F"/>
<path d="M275.16 79.154H-1.47146L-1.49338 55.8281H38.7816C44.5044 46.9003 55.1909 40.8918 67.4342 40.8918C81.692 40.8918 93.8443 49.0478 98.4925 60.4738H125.151C129.2 60.4738 132.989 62.4663 135.284 65.7964L137.163 68.5251H157.668C159.795 60.141 167.718 53.9143 177.167 53.9143C182.438 53.9143 187.237 55.8541 190.817 59.0291C191.778 50.1614 197.229 43.3657 203.814 43.3657C210.753 43.3657 216.438 50.9097 216.932 60.4746H230.045C235.728 60.4746 241.328 61.8251 246.386 64.4158L275.16 79.154Z" fill="#45774E"/>
<path d="M306.384 79.0769H293.276L299.831 55.7087L306.384 79.0769Z" fill="#285152"/>
<path d="M273.193 66.6575L267.015 72.8388V74.9814L266.106 74.5156V72.8363L259.926 66.6575L260.244 65.6925L266.106 71.5483V69.7846L260.681 64.3622L260.999 63.3923L266.106 68.4966V66.7321L261.432 62.0637L261.75 61.0946L266.106 65.4465V63.6829L262.186 59.7644L262.505 58.7969L266.106 62.3948V60.6312L262.94 57.4659L263.256 56.4992L266.106 59.3488V57.5844L263.693 55.1714L264.01 54.2015L266.106 56.2963V54.5319L264.446 52.8737L264.765 51.9038L266.106 53.2446V51.4802L265.199 50.5752L265.518 49.6061L266.106 50.1954V47.5739H267.015V50.1978L267.607 49.6061L267.922 50.5752L267.015 51.4834V53.2463L268.359 51.9038L268.676 52.8737L267.015 54.5343V56.2988L269.11 54.2015L269.428 55.1714L267.015 57.586V59.3505L269.864 56.5017L270.182 57.4659L267.015 60.6336V62.3973L270.616 58.7969L270.933 59.7644L267.015 63.6853V65.4498L271.368 61.0946L271.689 62.0637L267.015 66.7354V68.4982L272.121 63.3923L272.44 64.3622L267.015 69.7871V71.5507L272.874 65.6908L273.193 66.6575Z" fill="#81B53D"/>
<path d="M51.2489 76.8384L44.3777 83.7112V86.1777H43.5345V83.7088L36.6633 76.8384L36.9595 75.9408L43.5345 82.5133V80.3114L37.5001 74.2818L37.7979 73.3801L43.5345 79.1158V76.9107L38.3393 71.7212L38.6355 70.8219L43.5345 75.716V73.5132L39.1818 69.1605L39.4772 68.2604L43.5345 72.3185V70.115L40.021 66.6031L40.3115 65.703L43.5345 68.9219V66.72L40.8577 64.0441L41.1532 63.1448L43.5345 65.522V63.3201L41.697 61.4834L41.9932 60.5841L43.5345 62.1246V59.9227L42.5362 58.9252L42.8324 58.0251L43.5345 58.7271V55.6876H44.3777V58.7296L45.0822 58.0251L45.3785 58.9252L44.3777 59.9243V62.127L45.9214 60.5841L46.2177 61.4834L44.3777 63.3225V65.5245L46.759 63.1448L47.0545 64.0441L44.3777 66.7224V68.9251L47.5983 65.7054L47.8937 66.6031L44.3777 70.1174V72.3201L48.4375 68.2604L48.7329 69.1605L44.3777 73.5157V75.7176L49.2742 70.8219L49.5697 71.7212L44.3777 76.9131V79.1183L50.1135 73.3801L50.4097 74.2818L44.3777 80.3138V82.5157L50.9511 75.9408L51.2489 76.8384Z" fill="#81B53D"/>
<path d="M207.427 73.7641L202.761 78.4293V78.775H202.415L202.373 78.8172L202.33 78.775H201.977V78.422L197.314 73.7641L197.59 72.9273L201.977 77.3117V75.3695L198.07 71.4631L198.344 70.6288L201.977 74.26V72.3202L198.822 69.1662L199.095 68.3343L201.977 71.2131V69.2709L199.576 66.8702L199.85 66.0366L201.977 68.1607V66.2193L200.329 64.5733L200.604 63.7381L201.977 65.1114V63.1692L201.082 62.2748L201.355 61.4388L201.977 62.0597V59.3538H202.761V62.067L203.389 61.4388L203.663 62.2748L202.761 63.1765V65.1187L204.142 63.7381L204.415 64.5733L202.761 66.2266V68.168L204.893 66.0366L205.169 66.8702L202.761 69.2782V71.2196L205.645 68.3343L205.921 69.1662L202.761 72.3275V74.2673L206.4 70.6288L206.673 71.4631L202.761 75.3768V77.319L207.151 72.9273L207.427 73.7641Z" fill="#81B53D"/>
<path d="M128.615 78.555H104.423C104.637 73.8541 107.381 70.1353 110.737 70.1353C112.4 70.1353 113.914 71.0475 115.041 72.5409L120.985 51.3479L128.615 78.555Z" fill="#7BAE3F"/>
<path d="M464.514 78.5559H94.2388V81.9688H464.514V78.5559Z" fill="#285152"/>
<path d="M464.514 71.4891V79.1516H350.553C350.553 77.4821 351.229 75.9668 352.325 74.8695C353.423 73.7689 354.938 73.0929 356.609 73.0929H370.043C371.633 67.1786 377.471 62.7991 384.429 62.7991C388.646 62.7991 392.454 64.4077 395.147 66.9935C394.963 65.9392 394.864 64.846 394.864 63.7235C394.864 55.2064 400.477 48.2938 407.407 48.2938C414.333 48.2938 419.949 55.2064 419.949 63.7235V63.7763C421.126 63.4184 422.4 63.2228 423.726 63.2228C429.477 63.2228 434.187 66.871 434.559 71.4891H464.514Z" fill="#285152"/>
<path d="M127.302 96.5098H-1.45361L-1.47147 79.1541H47.7833C49.1866 71.8649 55.6016 66.3589 63.299 66.3589C70.8536 66.3589 77.1721 71.662 78.7336 78.7475C80.8868 76.1422 84.0108 74.5035 87.4894 74.5035C93.9888 74.5035 99.2587 80.2287 99.2587 87.2954C99.2587 87.6988 99.2416 88.0997 99.2035 88.4934H119.285C123.714 88.4926 127.302 92.0832 127.302 96.5098Z" fill="#799A37"/>
<path d="M414.516 74.3249L409.102 79.7393V81.8316H408.317V79.7368L402.899 74.3249L403.173 73.4873L408.317 78.6273V76.6876L403.65 72.0248L403.928 71.1905L408.317 75.5773V73.6359L404.407 69.7271L404.682 68.8928L408.317 72.5256V70.5842L405.161 67.4294L405.432 66.5975L408.317 69.4788V67.5366L405.915 65.1342L406.187 64.299L408.317 66.4263V64.4857L406.666 62.8365L406.941 61.9997L408.317 63.3746V61.4356L407.416 60.5388L407.694 59.7012L408.317 60.3261V57.6145H409.102V60.3277L409.724 59.7012L410 60.5388L409.102 61.4389V63.3778L410.478 61.9997L410.753 62.8365L409.102 64.4881V66.4295L411.232 64.299L411.507 65.1342L409.102 67.5398V69.482L411.981 66.5975L412.258 67.4294L409.102 70.5866V72.528L412.737 68.8928L413.011 69.7271L409.102 73.6383V75.5805L413.489 71.1905L413.765 72.0248L409.102 76.6908V78.6298L414.244 73.4873L414.516 74.3249Z" fill="#81B53D"/>
<path d="M387.755 231.047H402.093L406.276 224.47H383.571L387.755 231.047Z" fill="#C49400"/>
<path d="M351.118 231.047H387.755L383.571 224.47H341.709L351.118 231.047Z" fill="#EEB200"/>
<path d="M406.277 216.603V218.747H403.847V224.472H403.094V218.747H387.07V224.472H386.316V218.747H383.794V216.603H406.277Z" fill="#C49400"/>
<path d="M383.794 216.603V218.747H370.29V224.472H369.539V218.747H353.512V224.472H352.76V218.747H352.748V216.603H383.794Z" fill="#EEB200"/>
<path d="M406.307 222.633V221.631H341.442V222.633H347.167V224.472H341.442V225.599H406.277V224.472H403.847V222.633H406.307ZM352.76 224.472H347.919V222.633H352.76V224.472ZM358.354 224.472H353.512V222.633H358.354V224.472ZM363.945 224.472H359.105V222.633H363.945V224.472ZM369.539 224.472H364.698V222.633H369.539V224.472ZM375.131 224.472H370.29V222.633H375.131V224.472ZM380.724 224.472H375.882V222.633H380.724V224.472ZM386.316 224.472H381.476V222.633H386.316V224.472ZM391.909 224.472H387.07V222.633H391.909V224.472ZM397.503 224.472H392.661V222.633H397.503V224.472ZM403.094 224.472H398.254V222.633H403.094V224.472Z" fill="white"/>
<path d="M402.022 233.897H373.005V234.9H402.022V233.897Z" fill="white"/>
<path d="M418.724 230.448H414.307V231.45H418.724V230.448Z" fill="white"/>
<path d="M408.542 230.448H334.812V231.45H408.542V230.448Z" fill="white"/>
<path d="M417.137 371.875C418.155 373.448 416.238 376.492 412.86 378.675C409.481 380.857 405.917 381.351 404.901 379.777C403.886 378.206 405.801 375.161 409.181 372.981C412.562 370.799 416.122 370.303 417.137 371.875Z" fill="#799A37"/>
<path d="M458.636 366.304C459.652 367.875 457.737 370.92 454.358 373.101C450.981 375.284 447.416 375.779 446.401 374.205C445.386 372.634 447.301 369.589 450.68 367.405C454.057 365.226 457.623 364.731 458.636 366.304Z" fill="#799A37"/>
<path d="M427.152 401.94C427.152 404.019 423.536 405.699 419.075 405.699C414.615 405.699 411.001 404.019 411.001 401.94C411.001 399.864 414.615 398.181 419.075 398.181C423.536 398.182 427.152 399.865 427.152 401.94Z" fill="#799A37"/>
<path d="M406.245 364.302C408.319 364.302 410.003 367.918 410.003 372.374C410.003 376.837 408.319 380.451 406.245 380.451C404.166 380.451 402.483 376.837 402.483 372.374C402.483 367.918 404.167 364.302 406.245 364.302Z" fill="#799A37"/>
<path d="M387.384 340.917C389.458 340.917 391.143 344.532 391.143 348.992C391.143 353.451 389.458 357.066 387.384 357.066C385.307 357.066 383.625 353.451 383.625 348.992C383.625 344.532 385.307 340.917 387.384 340.917Z" fill="#799A37"/>
<path d="M372.381 380.439C374.459 380.439 376.141 384.055 376.141 388.515C376.141 392.974 374.459 396.589 372.381 396.589C370.306 396.589 368.622 392.974 368.622 388.515C368.622 384.055 370.306 380.439 372.381 380.439Z" fill="#799A37"/>
<path d="M362.12 387.764C363.141 386.264 366.583 386.825 369.814 389.017C373.04 391.215 374.828 394.211 373.807 395.712C372.785 397.214 369.341 396.653 366.114 394.459C362.887 392.262 361.098 389.267 362.12 387.764Z" fill="#799A37"/>
<path d="M346.914 336.993C347.73 335.371 351.219 335.474 354.708 337.23C358.194 338.981 360.358 341.717 359.543 343.34C358.729 344.965 355.238 344.86 351.75 343.105C348.263 341.353 346.099 338.617 346.914 336.993Z" fill="#799A37"/>
<path d="M440.615 348.642C442.689 348.642 444.375 352.258 444.375 356.716C444.375 361.177 442.689 364.792 440.615 364.792C438.537 364.792 436.855 361.177 436.855 356.716C436.855 352.258 438.537 348.642 440.615 348.642Z" fill="#799A37"/>
<path d="M458.224 483.979C459.239 485.552 457.325 488.596 453.946 490.777C450.568 492.96 447.004 493.454 445.988 491.881C444.975 490.308 446.888 487.264 450.269 485.084C453.645 482.9 457.209 482.406 458.224 483.979Z" fill="#799A37"/>
<mask id="mask26_37_1340" style="mask-type:luminance" maskUnits="userSpaceOnUse" x="-2" y="96" width="292" height="268">
<path d="M287.073 154.705H289.98C233.134 154.705 186.351 146.809 180.528 136.677C180.125 135.975 179.916 135.264 179.916 134.541C179.916 127.097 201.944 120.592 234.711 117.102C245.223 115.982 256.836 115.171 269.188 114.736C271.643 114.652 273.847 113.602 275.435 111.961C277.022 110.319 277.995 108.084 277.995 105.626C277.995 100.592 273.915 96.5098 268.881 96.5098H127.537L-1.42601 125.353L-1.37407 177.043L-1.2718 282.182V282.187L-1.2507 303.703C-1.258 303.708 -1.2645 303.713 -1.2718 303.716V363.068L29.4853 361.18L95.4595 312.035L281.506 164.47L282.757 162.277L288.259 158.844C290.168 157.652 289.323 154.705 287.073 154.705Z" fill="white"/>
</mask>
<g mask="url(#mask26_37_1340)">
<path d="M290.168 96.5098H-1.42601V339.49H290.168V96.5098Z" fill="url(#paint4_linear_37_1340)"/>
</g>
<path d="M250.292 115.712C244.795 116.098 239.511 116.567 234.477 117.102C201.708 120.593 179.681 127.098 179.681 134.542C179.681 134.886 179.729 135.223 179.822 135.562L-1.41546 135.003L-1.4252 125.357L41.7708 115.713H250.292V115.712Z" fill="#00E3D1"/>
<path d="M242.393 198.117L216.547 214.244L16.0766 213.726L16.0636 198.117H242.393Z" fill="#00E3D1"/>
<path d="M268.666 176.729L262.056 180.855L7.81671 180.24V176.729H268.666Z" fill="#00E3D1"/>
<path d="M188.316 141.53H137.312V142.783H188.316V141.53Z" fill="#00E3D1"/>
<path d="M130.836 141.53H127.62V142.783H130.836V141.53Z" fill="#00E3D1"/>
<path d="M113.073 222.06C113.073 223.449 110.652 224.577 107.665 224.577C104.678 224.577 102.257 223.449 102.257 222.06C102.257 220.669 104.678 219.542 107.665 219.542C110.651 219.542 113.073 220.669 113.073 222.06Z" fill="#799A37"/>
<path d="M44.4865 131.247H16.6926L26.8062 140.047C27.0659 140.275 27.0935 140.671 26.8654 140.931C26.7429 141.071 26.5676 141.146 26.3922 141.146C26.247 141.146 26.1017 141.094 25.9816 140.991L14.7836 131.247H-1.29535V129.995H27.1787V121.396C27.1787 121.068 27.4149 120.77 27.7403 120.736C28.1153 120.699 28.4318 120.992 28.4318 121.36V129.995H44.4857C44.8314 129.995 45.1123 130.275 45.1123 130.62C45.1123 130.966 44.8322 131.247 44.4865 131.247Z" fill="#285152"/>
<path d="M27.7379 107.313C29.1282 107.313 30.2548 109.735 30.2548 112.722C30.2548 115.709 29.1282 118.131 27.7379 118.131C26.3476 118.131 25.2203 115.71 25.2203 112.722C25.2211 109.735 26.3476 107.313 27.7379 107.313Z" fill="#799A37"/>
<path d="M41.9266 119.879C42.7131 121.025 41.3545 123.325 38.8912 125.015C36.4287 126.705 33.7934 127.145 33.0069 125.999C32.2213 124.853 33.5791 122.553 36.0424 120.863C38.5057 119.172 41.1402 118.733 41.9266 119.879Z" fill="#799A37"/>
<path d="M13.7212 133.775C14.5077 134.921 13.1482 137.22 10.6858 138.91C8.22253 140.601 5.58801 141.042 4.80155 139.895C4.01428 138.748 5.37374 136.449 7.83701 134.759C10.3003 133.069 12.9348 132.629 13.7212 133.775Z" fill="#799A37"/>
<path d="M36.604 149C35.7226 150.075 33.136 149.411 30.8253 147.517C28.5146 145.624 27.3581 143.217 28.2395 142.141C29.1201 141.066 31.7075 141.73 34.0174 143.624C36.3273 145.518 37.4855 147.925 36.604 149Z" fill="#799A37"/>
<path d="M58.284 130.62C58.284 132.01 55.8622 133.136 52.8754 133.136C49.8886 133.136 47.4668 132.01 47.4668 130.62C47.4668 129.229 49.8886 128.103 52.8754 128.103C55.8622 128.103 58.284 129.229 58.284 130.62Z" fill="#799A37"/>
<path d="M25.6991 142.624C26.8662 143.378 26.5002 146.023 24.8802 148.533C23.2602 151.042 20.9999 152.467 19.8319 151.712C18.664 150.957 19.0301 148.312 20.65 145.803C22.27 143.293 24.5312 141.869 25.6991 142.624Z" fill="#799A37"/>
<path d="M61.7911 245.661C61.7911 247.051 59.37 248.178 56.3824 248.178C53.3957 248.178 50.9738 247.052 50.9738 245.661C50.9738 244.27 53.3948 243.143 56.3824 243.143C59.3692 243.143 61.7911 244.27 61.7911 245.661Z" fill="#799A37"/>
<path d="M91.5345 186.095C91.5345 187.368 89.3163 188.401 86.5795 188.401C83.8428 188.401 81.6246 187.368 81.6246 186.095C81.6246 184.821 83.8428 183.788 86.5795 183.788C89.3163 183.787 91.5345 184.82 91.5345 186.095Z" fill="#799A37"/>
<path d="M96.9431 166.213C96.9431 167.466 94.7607 168.482 92.0685 168.482C89.3764 168.482 87.1939 167.466 87.1939 166.213C87.1939 164.96 89.3764 163.944 92.0685 163.944C94.7607 163.944 96.9431 164.96 96.9431 166.213Z" fill="#799A37"/>
<path d="M84.7729 148.382C86.1632 148.382 87.2905 150.803 87.2905 153.79C87.2905 156.777 86.164 159.198 84.7729 159.198C83.3834 159.198 82.256 156.777 82.256 153.79C82.256 150.803 83.3834 148.382 84.7729 148.382Z" fill="#799A37"/>
<path d="M43.6887 166.213C45.0798 166.213 46.2063 168.634 46.2063 171.622C46.2063 174.609 45.0798 177.03 43.6887 177.03C42.2992 177.03 41.1718 174.609 41.1718 171.622C41.1718 168.635 42.2992 166.213 43.6887 166.213Z" fill="#799A37"/>
<path d="M11.5656 193.344C12.9559 193.344 14.0832 195.767 14.0832 198.753C14.0832 201.741 12.9559 204.161 11.5656 204.161C10.1761 204.161 9.04875 201.741 9.04875 198.753C9.04875 195.767 10.1761 193.344 11.5656 193.344Z" fill="#799A37"/>
<path d="M54.2503 175.462C55.2332 176.445 54.3177 178.955 52.2058 181.066C50.0932 183.178 47.5845 184.092 46.6016 183.11C45.6187 182.127 46.5342 179.618 48.6461 177.506C50.7579 175.394 53.2666 174.479 54.2503 175.462Z" fill="#799A37"/>
<path d="M22.8544 207.413C23.8365 208.395 22.9218 210.905 20.8099 213.017C18.6973 215.129 16.1886 216.043 15.2057 215.061C14.2228 214.078 15.1375 211.569 17.2502 209.457C19.3612 207.345 21.8715 206.429 22.8544 207.413Z" fill="#799A37"/>
<path d="M32.5955 175.462C31.6126 176.445 32.5281 178.955 34.6399 181.066C36.7526 183.178 39.2613 184.092 40.2442 183.11C41.227 182.127 40.3115 179.618 38.1997 177.506C36.087 175.394 33.5783 174.479 32.5955 175.462Z" fill="#799A37"/>
<path d="M72.6911 157.309C73.3355 156.077 76.0041 156.199 78.6508 157.585C81.2975 158.969 82.9216 161.089 82.2763 162.321C81.6335 163.553 78.9649 163.43 76.3182 162.045C73.6715 160.661 72.0475 158.541 72.6911 157.309Z" fill="#799A37"/>
<path d="M32.5955 189.447C33.5783 188.465 36.087 189.38 38.1989 191.492C40.3115 193.605 41.2262 196.113 40.2434 197.095C39.2605 198.08 36.7518 197.164 34.6391 195.051C32.5281 192.94 31.6126 190.43 32.5955 189.447Z" fill="#799A37"/>
<path d="M100.052 149.933C100.959 150.986 99.8584 153.42 97.594 155.368C95.3296 157.317 92.7592 158.042 91.8526 156.988C90.946 155.934 92.0458 153.5 94.3102 151.553C96.5754 149.604 99.1458 148.879 100.052 149.933Z" fill="#799A37"/>
<path d="M82.4184 178.054C83.0669 178.973 81.9923 180.847 80.0184 182.24C78.0446 183.635 75.9189 184.019 75.2696 183.1C74.6203 182.182 75.6949 180.309 77.6688 178.914C79.6434 177.52 81.7699 177.135 82.4184 178.054Z" fill="#799A37"/>
<path d="M81.5272 196.74C80.4672 197.351 78.5421 196.002 77.2272 193.724C75.9132 191.446 75.7063 189.104 76.7662 188.493C77.8254 187.882 79.7506 189.232 81.0654 191.508C82.3802 193.785 82.5864 196.128 81.5272 196.74Z" fill="#799A37"/>
<path d="M102.906 209.796C104.141 210.435 104.029 213.104 102.656 215.756C101.284 218.409 99.1702 220.042 97.9341 219.402C96.6996 218.763 96.8124 216.095 98.1849 213.443C99.5573 210.789 101.672 209.158 102.906 209.796Z" fill="#799A37"/>
<path d="M96.8368 224.546C97.7896 223.673 100.083 224.625 101.959 226.673C103.835 228.721 104.583 231.088 103.629 231.962C102.677 232.834 100.383 231.881 98.5071 229.835C96.6314 227.786 95.8831 225.418 96.8368 224.546Z" fill="#799A37"/>
<path d="M98.0778 224.577C98.9584 225.457 98.1394 227.704 96.2475 229.596C94.3557 231.488 92.1091 232.307 91.2285 231.425C90.3479 230.545 91.1676 228.299 93.0595 226.407C94.9514 224.515 97.198 223.696 98.0778 224.577Z" fill="#799A37"/>
<path d="M96.4139 202.562C97.2775 203.652 96.0804 206.039 93.7396 207.896C91.3997 209.752 88.8026 210.374 87.939 209.283C87.0746 208.195 88.2718 205.806 90.6125 203.951C92.9516 202.096 95.5504 201.473 96.4139 202.562Z" fill="#799A37"/>
<path d="M72.6432 204.026C73.4142 204.929 72.4622 207.008 70.5168 208.664C68.5705 210.321 66.3678 210.93 65.5959 210.024C64.8257 209.117 65.7785 207.041 67.724 205.385C69.6702 203.728 71.8722 203.118 72.6432 204.026Z" fill="#799A37"/>
<path d="M53.8291 204.535C53.0962 205.397 54.0011 207.37 55.8508 208.944C57.6997 210.519 59.7936 211.097 60.5265 210.238C61.2594 209.376 60.3545 207.402 58.5048 205.827C56.6559 204.254 54.5628 203.675 53.8291 204.535Z" fill="#799A37"/>
<path d="M62.8462 196.426C64.0376 196.382 65.0765 198.423 65.1666 200.984C65.2575 203.542 64.3655 205.651 63.174 205.693C61.9826 205.734 60.9437 203.694 60.8536 201.135C60.7635 198.576 61.6539 196.468 62.8462 196.426Z" fill="#799A37"/>
<path d="M49.2856 247.528C50.4763 247.486 51.5159 249.526 51.606 252.087C51.6969 254.645 50.805 256.753 49.6135 256.796C48.422 256.837 47.3832 254.798 47.2923 252.24C47.2014 249.681 48.0942 247.571 49.2856 247.528Z" fill="#799A37"/>
<path d="M98.4292 222.06C98.4292 222.404 98.1484 222.686 97.8026 222.686H73.1789L40.1265 249.92C40.0112 250.019 39.8708 250.064 39.7304 250.064C39.5478 250.064 39.37 249.987 39.2442 249.837C39.0259 249.57 39.0641 249.175 39.3287 248.953L44.5198 244.676H12.6986L23.0273 253.664C23.2878 253.894 23.3154 254.289 23.0873 254.548C22.964 254.691 22.7887 254.765 22.6158 254.765C22.4681 254.765 22.3228 254.711 22.2051 254.608L10.8286 244.709C10.8165 244.698 10.8035 244.686 10.7937 244.676H-1.29535V243.423H46.0391L62.1684 230.133L62.3843 209.64C62.3876 209.297 62.6676 209.02 63.0109 209.02H63.0158C63.3615 209.023 63.6399 209.305 63.6375 209.651L63.4346 229.093L84.781 211.505C85.0472 211.283 85.4416 211.321 85.6624 211.589C85.8807 211.855 85.8426 212.252 85.5772 212.471L74.7007 221.433H97.8034C98.1484 221.432 98.4292 221.713 98.4292 222.06Z" fill="#285152"/>
<path d="M90.7618 159.489L59.8919 185.701H78.0178C78.3627 185.701 78.6435 185.981 78.6435 186.327C78.6435 186.673 78.3627 186.954 78.0178 186.954H58.4155L-1.30995 237.666V236.024L11.1606 225.435C11.1525 225.4 11.1508 225.362 11.1508 225.325V207.025C11.1508 206.681 11.4325 206.399 11.7774 206.399C12.1232 206.399 12.404 206.681 12.404 207.025V224.38L43.0637 198.345V180.044C43.0637 179.698 43.3446 179.419 43.6895 179.419C44.0352 179.419 44.3161 179.698 44.3161 180.044V197.284L89.9502 158.534C90.2164 158.309 90.6092 158.342 90.8349 158.605C91.0564 158.87 91.0248 159.263 90.7618 159.489Z" fill="#285152"/>
<path d="M25.5214 256.422C26.3906 255.466 28.7614 256.206 30.8156 258.073C32.8698 259.941 33.8307 262.232 32.9599 263.187C32.0906 264.145 29.7199 263.404 27.6665 261.536C25.6115 259.668 24.6521 257.379 25.5214 256.422Z" fill="#799A37"/>
<path d="M84.4701 320.75L290.232 157.548" stroke="white" stroke-width="5" stroke-miterlimit="10"/>
<path d="M429.492 536.075H-1.09975L-1.35947 266.934L198.931 392.634L117.14 443.661V453.379C117.14 460.014 122.52 465.402 129.162 465.402H304.635C311.991 465.402 319.2 467.461 325.445 471.348L429.492 536.075Z" fill="#EEB200"/>
<path d="M187.194 400.671L185.039 402.015L-6.76404 273.327V270.536L7.4531 280.071L14.2009 276.709L16.5035 278.148L9.66315 281.557L38.9764 301.221L46.9287 297.253L49.2304 298.7L41.1873 302.706L70.3358 322.263L79.4965 317.696C80.1612 318.11 81.0962 318.697 81.8048 319.143L72.5474 323.748L93.0035 337.472L103.033 332.476L105.347 333.913L95.22 338.96L117.366 353.823L128.353 348.352L130.661 349.786L119.579 355.304L148.79 374.907L160.988 368.827L163.284 370.27L150.998 376.387L187.194 400.671Z" fill="#C49400"/>
<path d="M399.255 534.616H404.053L364.682 508.713H384.43L380.435 506.238H360.918L314.232 475.525C303.787 468.654 291.742 464.806 279.282 464.346H251.716L251.736 466.207L258.847 466.276V466.336C259.881 466.336 260.908 466.36 261.932 466.413C273.534 466.982 284.646 471.134 294.239 477.798L375.992 534.616H380.616L343.342 508.713H359.879L399.255 534.616ZM339.781 506.238L295.745 475.634C290.236 471.806 284.252 468.893 277.962 466.948C277.396 466.774 276.826 466.608 276.253 466.448L277.412 466.458C277.615 466.458 277.813 466.464 278.015 466.47C290.426 466.698 302.401 470.903 312.783 477.726L356.118 506.239H339.781V506.238Z" fill="#C49400"/>
<path d="M325.718 441.702C319.214 438.25 311.889 436.423 304.524 436.423H125.927C123.534 436.423 121.396 435.333 119.976 433.624C120.536 432.939 121.223 432.347 122.006 431.883L161.492 407.889V415.512L163.597 414.2V406.609L198.488 385.407C198.514 385.391 198.539 385.377 198.56 385.361V392.374L200.666 391.075V381.87H200.653C200.666 381.729 200.671 381.59 200.666 381.45C200.635 379.821 199.769 378.37 198.37 377.588L196.004 376.182L198.489 374.64C199.883 373.794 200.695 372.313 200.667 370.68C200.636 369.053 199.77 367.603 198.358 366.812L-1.36028 252.169V254.617L19.2435 266.44V271.157L-1.36028 258.91V261.362L19.2435 273.605V279.814L21.3488 281.139V274.853L50.8041 292.359V299.623L52.9087 300.938V293.61L82.364 311.111V319.428L84.4701 320.749V312.362L105.082 324.606V333.77L107.189 335.145V325.857L129.704 339.236V349.134L131.81 350.451V340.489L161.494 358.125V369.081L163.599 370.402V359.375L191.946 376.219L123.847 418.396C119.022 421.388 116.086 426.656 116.086 432.332V452.681C116.086 460.024 122.041 465.978 129.384 465.978H302.957C310.979 465.978 318.82 468.214 325.636 472.444L428.296 536.103H432.047L432.245 536.078L386.273 507.57V493.623L458.187 536.103H461.627L461.825 536.075L386.272 491.178V476.283L498.796 536.103H503.393L503.463 536.075L325.718 441.702ZM50.8041 289.91L21.3488 272.409V267.649L50.8041 284.557V289.91ZM82.364 308.662L52.9079 291.16V285.765L82.3632 302.673L82.364 308.662ZM105.082 322.161L84.4701 309.91V303.876L105.082 315.707V322.161ZM129.703 336.789L107.188 323.409V316.919L129.703 329.841V336.789ZM161.493 355.675L131.809 338.04V331.047L161.493 348.085V355.675ZM163.598 356.926V349.29L197.319 368.646C198.08 369.069 198.548 369.848 198.561 370.721C198.578 371.596 198.14 372.389 197.385 372.847L193.962 374.968L163.598 356.926ZM163.598 396.255L193.984 377.435L197.319 379.414C198.08 379.836 198.548 380.614 198.561 381.49C198.578 382.362 198.14 383.158 197.393 383.606L163.598 404.144V396.255ZM118.826 431.017C118.826 426.734 121.037 422.751 124.675 420.49L161.493 397.561V405.424L120.924 430.077C120.142 430.539 119.437 431.105 118.827 431.748L118.826 431.017ZM182.213 463.872H129.383C123.211 463.872 118.19 458.854 118.19 452.682V446.882C120.246 449.771 123.623 451.656 127.433 451.656H182.212V463.872H182.213ZM182.213 449.553H127.434C122.339 449.553 118.191 445.41 118.191 440.31V438.554C118.191 437.488 118.414 436.449 118.827 435.497C120.621 437.363 123.143 438.525 125.928 438.525H182.213L182.213 449.553ZM248.339 463.872H184.319V451.656H248.339V463.872ZM248.339 449.553H184.319V438.526H248.339V449.553ZM311.651 464.719C308.801 464.16 305.891 463.872 302.957 463.872H250.443V451.656H303.466C306.225 451.656 308.965 451.922 311.651 452.444V464.719ZM311.651 450.301C308.962 449.805 306.22 449.552 303.466 449.552H250.443V438.526H304.524C306.911 438.526 309.299 438.728 311.651 439.122V450.301ZM384.169 506.261L326.743 470.654C322.705 468.147 318.322 466.312 313.758 465.188V452.915C317.817 453.907 321.728 455.5 325.354 457.642L384.169 492.381V506.261ZM384.169 489.933L326.428 455.826C322.469 453.488 318.196 451.781 313.758 450.738V439.533C317.572 440.371 321.275 441.726 324.727 443.566L384.169 475.168V489.933Z" fill="white"/>
<path d="M420.265 535.062H418.144L405.471 516.432L399.966 508.344H381.223C380.738 508.344 380.345 507.951 380.345 507.467C380.345 506.98 380.738 506.59 381.223 506.59H398.771L383.78 484.559H371.91C371.425 484.559 371.032 484.169 371.032 483.68C371.032 483.195 371.425 482.801 371.91 482.801H382.587L375.002 471.657C374.726 471.257 374.83 470.71 375.234 470.438C375.633 470.164 376.177 470.268 376.453 470.668L405.318 513.091V457.326C405.318 456.843 405.712 456.446 406.195 456.446C406.68 456.446 407.074 456.843 407.074 457.326V515.675L420.265 535.062Z" fill="#285152"/>
<path d="M441.489 501.031V524.349L448.736 535.062H446.609L368.577 419.605H360.004C359.518 419.605 359.125 419.212 359.125 418.725C359.125 418.241 359.518 417.848 360.004 417.848H367.391L361.603 409.287C361.331 408.883 361.439 408.34 361.84 408.069C362.24 407.793 362.788 407.899 363.056 408.304L386.505 442.999V431.826C386.505 431.339 386.901 430.947 387.384 430.947C387.869 430.947 388.262 431.339 388.262 431.826V445.095C388.262 445.229 388.232 445.358 388.178 445.468L439.733 521.746V442.68C439.733 442.196 440.128 441.802 440.614 441.802C441.097 441.802 441.489 442.196 441.489 442.68V450.457H452.593C453.075 450.457 453.469 450.852 453.469 451.335C453.469 451.821 453.075 452.214 452.593 452.214H441.489V499.273H463.203V501.031L441.489 501.031Z" fill="#285152"/>
<path d="M367.145 481.926C367.145 484.001 363.53 485.685 359.07 485.685C354.609 485.685 350.996 484.001 350.996 481.926C350.996 479.85 354.609 478.167 359.07 478.167C363.53 478.167 367.145 479.851 367.145 481.926Z" fill="#799A37"/>
<path d="M376.79 506.383C376.79 508.458 373.175 510.142 368.716 510.142C364.256 510.142 360.64 508.458 360.64 506.383C360.64 504.308 364.256 502.624 368.716 502.624C373.175 502.624 376.79 504.308 376.79 506.383Z" fill="#799A37"/>
<path d="M372.487 523.055C370.629 522.13 370.586 518.433 372.395 514.797C374.202 511.161 377.171 508.966 379.032 509.89C380.89 510.813 380.934 514.507 379.127 518.145C377.32 521.781 374.346 523.979 372.487 523.055Z" fill="#799A37"/>
<path d="M397.442 477.609C399.518 477.609 401.199 481.224 401.199 485.685C401.199 490.143 399.518 493.758 397.442 493.758C395.367 493.758 393.683 490.143 393.683 485.685C393.684 481.224 395.368 477.609 397.442 477.609Z" fill="#799A37"/>
</g>
<rect x="0.75" y="0.75" width="459.5" height="532.546" stroke="black" stroke-width="1.5"/>
<defs>
<linearGradient id="paint0_linear_37_1340" x1="369.579" y1="584.674" x2="370.754" y2="125.172" gradientUnits="userSpaceOnUse">
<stop stop-color="#00B7CB"/>
<stop offset="0.1214" stop-color="#00B7CB"/>
<stop offset="0.2362" stop-color="#00BFCA"/>
<stop offset="0.6098" stop-color="#00D3C9"/>
<stop offset="0.8616" stop-color="#00DAC8"/>
<stop offset="1" stop-color="#00DAC8"/>
</linearGradient>
<linearGradient id="paint1_linear_37_1340" x1="329.1" y1="170.36" x2="326.934" y2="299.565" gradientUnits="userSpaceOnUse">
<stop stop-color="#00B9C8"/>
<stop offset="0.1384" stop-color="#00B9C8"/>
<stop offset="0.477" stop-color="#02C0C8"/>
<stop offset="0.7204" stop-color="#04C9C8"/>
<stop offset="1" stop-color="#04C9C8"/>
</linearGradient>
<linearGradient id="paint2_linear_37_1340" x1="259.923" y1="88.699" x2="464.815" y2="88.699" gradientUnits="userSpaceOnUse">
<stop stop-color="#00B7CB"/>
<stop offset="0.1214" stop-color="#00B7CB"/>
<stop offset="0.2362" stop-color="#00BFCA"/>
<stop offset="0.6098" stop-color="#00D3C9"/>
<stop offset="0.8616" stop-color="#00DAC8"/>
<stop offset="1" stop-color="#00DAC8"/>
</linearGradient>
<linearGradient id="paint3_linear_37_1340" x1="-92.9206" y1="218.275" x2="250.913" y2="218.275" gradientUnits="userSpaceOnUse">
<stop stop-color="#00B7CB"/>
<stop offset="0.1214" stop-color="#00B7CB"/>
<stop offset="0.2362" stop-color="#00BFCA"/>
<stop offset="0.6098" stop-color="#00D3C9"/>
<stop offset="0.8616" stop-color="#00DAC8"/>
<stop offset="1" stop-color="#00DAC8"/>
</linearGradient>
<linearGradient id="paint4_linear_37_1340" x1="-92.9206" y1="218.275" x2="250.913" y2="218.275" gradientUnits="userSpaceOnUse">
<stop stop-color="#00B7CB"/>
<stop offset="0.1214" stop-color="#00B7CB"/>
<stop offset="0.2362" stop-color="#00BFCA"/>
<stop offset="0.6098" stop-color="#00D3C9"/>
<stop offset="0.8616" stop-color="#00DAC8"/>
<stop offset="1" stop-color="#00DAC8"/>
</linearGradient>
<clipPath id="clip0_37_1340">
<rect width="461" height="534.046" fill="white"/>
</clipPath>
</defs>
</svg>
