<svg width="619" height="77" viewBox="0 0 619 77" fill="none" xmlns="http://www.w3.org/2000/svg">
<g clip-path="url(#clip0_489_388)">
<path d="M30.3979 59.8866C13.8857 59.8866 0 46.4447 0 29.9433C0 13.4419 13.8857 0 30.3979 0C39.5324 0 46.0402 3.57781 50.9253 8.25906L45.1535 14.027C41.6403 10.7334 36.9058 8.19219 30.3979 8.19219C18.3358 8.19219 8.91695 17.9058 8.91695 29.96C8.91695 42.0142 18.3525 51.7278 30.3979 51.7278C38.2107 51.7278 42.6775 48.5847 45.5216 45.7425C47.8638 43.4019 49.4029 40.0414 49.9717 35.4438H30.3979V27.2683H57.9518C58.2529 28.7228 58.3868 30.4783 58.3868 32.3842C58.3868 38.52 56.6971 46.1103 51.2934 51.5105C46.0402 56.9608 39.3149 59.8866 30.3979 59.8866Z" fill="#4285F4"/>
<path d="M100.997 40.6097C100.997 51.711 92.4652 59.8864 81.9924 59.8864C71.5196 59.8864 62.9874 51.711 62.9874 40.6097C62.9874 29.4416 71.5196 21.333 81.9924 21.333C92.4652 21.333 100.997 29.4416 100.997 40.6097ZM92.666 40.6097C92.666 33.6714 87.714 28.9233 81.9757 28.9233C76.2374 28.9233 71.2854 33.6714 71.2854 40.6097C71.2854 47.4811 76.2374 52.2961 81.9757 52.2961C87.714 52.2961 92.666 47.4811 92.666 40.6097Z" fill="#EA4335"/>
<path d="M143.608 40.6097C143.608 51.711 135.076 59.8864 124.603 59.8864C114.13 59.8864 105.598 51.711 105.598 40.6097C105.598 29.4416 114.13 21.333 124.603 21.333C135.076 21.333 143.608 29.4416 143.608 40.6097ZM135.293 40.6097C135.293 33.6714 130.341 28.9233 124.603 28.9233C118.865 28.9233 113.913 33.6714 113.913 40.6097C113.913 47.4811 118.865 52.2961 124.603 52.2961C130.341 52.2961 135.293 47.4811 135.293 40.6097Z" fill="#FBBC04"/>
<path d="M185.165 22.5033V57.1111C185.165 71.3555 176.766 77.1904 166.829 77.1904C157.477 77.1904 151.856 70.9041 149.731 65.8049L157.109 62.7453C158.43 65.8885 161.643 69.6 166.829 69.6C173.186 69.6 177.134 65.6544 177.134 58.2814V55.5061H176.833C174.926 57.8468 171.279 59.8864 166.678 59.8864C157.042 59.8864 148.192 51.4936 148.192 40.6766C148.192 29.7927 157.025 21.333 166.678 21.333C171.279 21.333 174.926 23.3727 176.833 25.6464H177.134V22.5033H185.165ZM177.72 40.6766C177.72 33.8888 173.186 28.9233 167.414 28.9233C161.576 28.9233 156.674 33.8888 156.674 40.6766C156.674 47.3975 161.576 52.2794 167.414 52.2794C173.186 52.2961 177.72 47.3975 177.72 40.6766Z" fill="#4285F4"/>
<path d="M200.021 2.05615H191.539V58.716H200.021V2.05615Z" fill="#34A853"/>
<path d="M233.346 46.9629L239.921 51.3432C237.796 54.4863 232.694 59.8864 223.844 59.8864C212.886 59.8864 204.973 51.41 204.973 40.6097C204.973 29.1407 212.953 21.333 222.89 21.333C232.895 21.333 237.796 29.2911 239.402 33.6046L240.272 35.7947L214.475 46.4613C216.449 50.3233 219.511 52.2961 223.827 52.2961C228.16 52.2961 231.155 50.1729 233.346 46.9629ZM213.103 40.0246L230.352 32.8689C229.398 30.4614 226.554 28.7729 223.191 28.7729C218.875 28.7896 212.886 32.5847 213.103 40.0246Z" fill="#EA4335"/>
<path d="M261.352 58.716V5.81787H277.546C285.677 5.81787 292.185 8.27553 297.07 13.1741C301.955 18.0727 304.397 24.4426 304.397 32.2836C304.397 40.1247 301.955 46.4779 297.07 51.3932C292.185 56.2918 285.677 58.7494 277.546 58.7494H261.352V58.716ZM268.161 52.2124H277.546C283.653 52.2124 288.504 50.4569 292.084 46.9627C295.664 43.4685 297.455 38.5699 297.455 32.2502C297.455 25.9974 295.664 21.0988 292.084 17.5879C288.504 14.0602 283.669 12.3047 277.546 12.3047H268.161V52.2124ZM327.602 59.903C322.131 59.903 317.681 58.0807 314.251 54.436C310.822 50.7913 309.115 46.1769 309.115 40.6263C309.115 35.3599 310.771 30.8291 314.101 27.034C317.43 23.2388 321.679 21.3496 326.849 21.3496C332.219 21.3496 336.518 23.1051 339.747 26.5993C342.976 30.0935 344.599 34.7747 344.599 40.643L344.515 41.8969H315.891C316.091 45.5416 317.313 48.434 319.555 50.5405C321.796 52.6638 324.423 53.7171 327.434 53.7171C332.319 53.7171 335.615 51.644 337.338 47.5144L343.394 50.0222C342.207 52.831 340.266 55.1883 337.556 57.0776C334.879 58.9501 331.55 59.903 327.602 59.903ZM337.355 36.2627C337.204 34.1896 336.251 32.2168 334.511 30.3443C332.754 28.4718 330.161 27.5355 326.715 27.5355C324.205 27.5355 322.014 28.3213 320.174 29.8929C318.317 31.4644 317.045 33.5877 316.359 36.246H337.355V36.2627ZM359.907 58.716L345.268 22.5032H352.663L363.303 50.574H363.453L374.244 22.5032H381.488L366.699 58.716H359.907ZM400.543 59.903C395.073 59.903 390.622 58.0807 387.193 54.436C383.763 50.7913 382.057 46.1769 382.057 40.6263C382.057 35.3599 383.713 30.8291 387.042 27.034C390.371 23.2388 394.621 21.3496 399.79 21.3496C405.161 21.3496 409.46 23.1051 412.689 26.5993C415.918 30.0935 417.524 34.7747 417.524 40.643L417.457 41.8969H388.832C389.033 45.5416 390.254 48.434 392.496 50.5405C394.738 52.6638 397.364 53.7171 400.376 53.7171C405.261 53.7171 408.557 51.644 410.28 47.5144L416.336 50.0222C415.148 52.831 413.208 55.1883 410.497 57.0776C407.821 58.9501 404.491 59.903 400.543 59.903ZM410.297 36.2627C410.146 34.1896 409.192 32.2168 407.453 30.3443C405.696 28.4718 403.103 27.5355 399.656 27.5355C397.147 27.5355 394.955 28.3213 393.115 29.8929C391.258 31.4644 390.003 33.5877 389.301 36.246H410.297V36.2627ZM430.138 58.716H423.346V5.81787H430.138V58.716ZM441.247 26.8333C444.743 23.1719 449.21 21.3329 454.63 21.3329C460.051 21.3329 464.518 23.1719 468.014 26.8333C471.511 30.5115 473.267 35.0924 473.267 40.6096C473.267 46.1268 471.511 50.7244 468.014 54.3858C464.518 58.064 460.051 59.8863 454.63 59.8863C449.21 59.8863 444.743 58.0472 441.247 54.3858C437.75 50.7244 435.993 46.1268 435.993 40.6096C435.993 35.1091 437.75 30.5115 441.247 26.8333ZM446.316 50.1058C448.658 52.4966 451.435 53.6837 454.63 53.6837C457.842 53.6837 460.603 52.4966 462.945 50.1058C465.287 47.7151 466.458 44.5552 466.458 40.6096C466.458 36.664 465.287 33.5041 462.945 31.1133C460.603 28.7226 457.826 27.5355 454.63 27.5355C451.418 27.5355 448.658 28.7393 446.316 31.1133C443.974 33.5041 442.802 36.664 442.802 40.6096C442.802 44.5552 443.974 47.7318 446.316 50.1058ZM498.044 59.903C495.284 59.903 492.808 59.3179 490.616 58.1308C488.424 56.9438 486.785 55.4726 485.697 53.7004H485.396L485.697 58.7327V74.6991H478.888V22.5366H485.396V27.5522H485.697C486.785 25.7801 488.424 24.3088 490.616 23.1218C492.808 21.9347 495.284 21.3496 498.044 21.3496C502.728 21.3496 506.777 23.1887 510.173 26.8835C513.569 30.5783 515.276 35.1593 515.276 40.6263C515.276 46.0933 513.569 50.6743 510.173 54.3691C506.777 58.064 502.728 59.903 498.044 59.903ZM496.94 53.7004C500.085 53.7004 502.812 52.5133 505.07 50.1226C507.329 47.7318 508.467 44.5719 508.467 40.6263C508.467 36.6807 507.329 33.5208 505.07 31.1301C502.812 28.7393 500.085 27.5522 496.94 27.5522C493.728 27.5522 491.018 28.7393 488.776 31.0966C486.534 33.454 485.413 36.6305 485.413 40.6263C485.413 44.6221 486.534 47.7987 488.776 50.156C491.018 52.5133 493.744 53.7004 496.94 53.7004ZM537.677 59.903C532.206 59.903 527.756 58.0807 524.326 54.436C520.897 50.7913 519.19 46.1769 519.19 40.6263C519.19 35.3599 520.847 30.8291 524.176 27.034C527.505 23.2388 531.754 21.3496 536.924 21.3496C542.294 21.3496 546.594 23.1051 549.823 26.5993C553.051 30.0935 554.674 34.7747 554.674 40.643L554.59 41.8969H525.966C526.167 45.5416 527.388 48.434 529.63 50.5405C531.872 52.6638 534.498 53.7171 537.509 53.7171C542.395 53.7171 545.69 51.644 547.413 47.5144L553.47 50.0222C552.282 52.831 550.341 55.1883 547.631 57.0776C544.937 58.9501 541.608 59.903 537.677 59.903ZM547.43 36.2627C547.28 34.1896 546.326 32.2168 544.586 30.3443C542.829 28.4718 540.236 27.5355 536.79 27.5355C534.281 27.5355 532.089 28.3213 530.249 29.8929C528.392 31.4644 527.12 33.5877 526.434 36.246H547.43V36.2627ZM567.171 58.716H560.362V22.5199H566.87V28.4383H567.171C567.857 26.4655 569.279 24.8438 571.421 23.5565C573.562 22.2691 575.653 21.6338 577.661 21.6338C579.685 21.6338 581.392 21.9347 582.763 22.5199L580.17 28.873C579.284 28.5219 578.079 28.3547 576.54 28.3547C574.081 28.3547 571.889 29.3244 569.999 31.2805C568.091 33.2366 567.155 35.7779 567.155 38.9377V58.716H567.171ZM599.61 59.903C595.562 59.903 592.232 58.9166 589.589 56.9438C586.946 54.971 585.022 52.5133 583.784 49.5541L589.857 47.0463C591.781 51.5771 595.06 53.8508 599.694 53.8508C601.819 53.8508 603.558 53.3827 604.914 52.4465C606.269 51.5102 606.938 50.273 606.938 48.7516C606.938 46.3943 605.282 44.7893 601.986 43.9533L594.675 42.1811C592.349 41.596 590.158 40.4758 588.1 38.8207C586.026 37.1655 584.988 34.9419 584.988 32.1332C584.988 28.9399 586.41 26.3318 589.238 24.3422C592.065 22.3527 595.428 21.3496 599.326 21.3496C602.538 21.3496 605.399 22.0852 607.908 23.523C610.418 24.9776 612.224 27.0507 613.312 29.7758L607.39 32.2168C606.051 29.0068 603.291 27.4185 599.108 27.4185C597.084 27.4185 595.378 27.8365 594.006 28.6724C592.617 29.5083 591.931 30.6452 591.931 32.0663C591.931 34.1394 593.537 35.5438 596.733 36.2794L603.91 37.9847C607.306 38.7705 609.832 40.1247 611.455 42.0474C613.078 43.9701 613.897 46.1435 613.897 48.551C613.897 51.7944 612.559 54.5196 609.899 56.6763C607.222 58.8163 603.793 59.903 599.61 59.903Z" fill="#5F6368"/>
</g>
<defs>
<clipPath id="clip0_489_388">
<rect width="619" height="77" fill="white"/>
</clipPath>
</defs>
</svg>
